<svg width="24" height="24" viewBox="0 0 24 24" fill="none" xmlns="http://www.w3.org/2000/svg">
<path d="M3.55503 5.32053L4.30062 4.57494L5.85307 6.12739L5.10748 6.87298L3.55503 5.32053Z" fill="#3699FF"/>
<path d="M3 8.2735H5.14661V9.32819H3V8.2735Z" fill="#3699FF"/>
<path d="M3.56667 12.2679L5.11758 10.717L5.86317 11.4626L4.31226 13.0135L3.56667 12.2679Z" fill="#3699FF"/>
<path d="M18.1445 6.12894L19.6969 4.57649L20.4425 5.32208L18.8901 6.87453L18.1445 6.12894Z" fill="#3699FF"/>
<path d="M18.8534 8.2735H21V9.32819H18.8534V8.2735Z" fill="#3699FF"/>
<path d="M18.133 11.4642L18.8786 10.7186L20.4295 12.2695L19.6839 13.0151L18.133 11.4642Z" fill="#3699FF"/>
<path d="M12 21.0001C13.4538 21.0001 14.6367 19.8172 14.6367 18.3633V16.711H9.36328V18.3633C9.36328 19.8172 10.5462 21.0001 12 21.0001Z" fill="#3699FF"/>
<path d="M17.7122 7.77647C17.2333 5.00897 14.8309 3 12 3C9.16915 3 6.76675 5.00897 6.28781 7.777C5.95615 9.6948 6.59012 11.6389 7.98365 12.9763C8.73012 13.6929 9.18381 14.6503 9.30851 15.6562H14.6916C14.8164 14.6498 15.27 13.6928 16.0164 12.9763C17.4099 11.6389 18.0439 9.6948 17.7122 7.77647V7.77647ZM12.5273 12.4922H11.4727V11.4375H12.5273V12.4922ZM12.9373 9.02061C12.6806 9.20965 12.5273 9.51241 12.5273 9.83058V10.3828H11.4727V9.83058C11.4727 9.17854 11.7864 8.55827 12.312 8.17131C12.4489 8.07055 12.5273 7.91558 12.5273 7.74609C12.5273 7.45532 12.2908 7.21875 12 7.21875C11.7092 7.21875 11.4727 7.45532 11.4727 7.74609V8.27344H10.418V7.74609C10.418 6.87376 11.1277 6.16406 12 6.16406C12.8723 6.16406 13.582 6.87376 13.582 7.74609C13.582 8.24693 13.341 8.7234 12.9373 9.02061Z" fill="#3699FF"/>
</svg>
