<svg width="24" height="24" viewBox="0 0 24 24" fill="none" xmlns="http://www.w3.org/2000/svg">
<path d="M19.2122 7.11918C19.2122 7.11918 19.2122 7.11918 19.2122 7.11918C18.8374 7.06292 18.1292 7.14818 16.3138 8.52956C16.1173 8.67908 15.8596 8.72471 15.6247 8.65162L12.7076 7.74416C11.376 7.29317 9.61581 7.939 8.39489 8.65011C7.40994 9.22373 5.4798 10.5926 6.29136 11.3944C6.88779 11.9837 8.31294 11.0984 10.0782 10.8314C10.516 10.7653 10.7526 10.7873 10.8739 10.8173C10.4215 12.5489 5.476 18.6372 4.29217 20.0492C3.94408 20.4647 4.33095 21.086 4.85742 20.9567C7.37746 20.3383 9.45357 18.5312 10.9478 16.8258C12.306 16.7987 12.7722 17.0474 12.8371 17.1517C13.0242 17.4523 12.8726 18.3396 12.7722 18.9268C12.6247 19.7897 12.5082 20.4712 12.9556 20.8422C13.1935 21.0394 13.5057 21.0439 13.7819 20.8995C14.6497 20.4458 16.2169 17.6562 16.0942 16.2136C15.993 15.023 14.2524 14.3014 13.116 13.9382C13.4702 13.4011 13.8418 12.9143 14.1105 11.6642C14.8738 11.8456 16.003 12.0783 16.5685 11.9935C17.1826 11.9015 18.0048 10.9966 18.5863 10.2538C19.0548 9.65531 19.8408 8.55076 19.8408 7.87733C19.8408 7.4802 19.5882 7.17553 19.2122 7.11918V7.11918Z" fill="#3699FF"/>
<path d="M13.8725 7.64663C15.1544 7.64663 16.1974 6.60437 16.1974 5.32333C16.1974 4.04226 15.1544 3 13.8725 3C12.5904 3 11.5474 4.04226 11.5474 5.32333C11.5474 6.60437 12.5904 7.64663 13.8725 7.64663Z" fill="#3699FF"/>
</svg>
