<svg width="24" height="24" viewBox="0 0 24 24" fill="none" xmlns="http://www.w3.org/2000/svg">
<path d="M3.55469 5.32054L4.30028 4.57495L5.85273 6.1274L5.10714 6.87299L3.55469 5.32054Z" fill="#6CC788"/>
<path d="M3 8.27344H5.14661V9.32813H3V8.27344Z" fill="#6CC788"/>
<path d="M3.56641 12.2679L5.11732 10.717L5.86291 11.4626L4.312 13.0135L3.56641 12.2679Z" fill="#6CC788"/>
<path d="M18.1445 6.12887L19.6969 4.57642L20.4425 5.32201L18.8901 6.87446L18.1445 6.12887Z" fill="#6CC788"/>
<path d="M18.8535 8.27344H21.0001V9.32813H18.8535V8.27344Z" fill="#6CC788"/>
<path d="M18.1328 11.4641L18.8784 10.7185L20.4293 12.2694L19.6837 13.015L18.1328 11.4641Z" fill="#6CC788"/>
<path d="M12 21C13.4538 21 14.6367 19.8171 14.6367 18.3632V16.7109H9.36328V18.3632C9.36328 19.8171 10.5462 21 12 21Z" fill="#6CC788"/>
<path d="M17.7121 7.77647C17.2332 5.00897 14.8308 3 11.9999 3C9.16902 3 6.76662 5.00897 6.28768 7.777C5.95602 9.6948 6.58999 11.6389 7.98352 12.9763C8.72999 13.6929 9.18368 14.6503 9.30838 15.6562H14.6915C14.8163 14.6498 15.2699 13.6928 16.0163 12.9763C17.4098 11.6389 18.0438 9.6948 17.7121 7.77647ZM12.5272 12.4922H11.4726V11.4375H12.5272V12.4922ZM12.9372 9.02061C12.6805 9.20965 12.5272 9.51241 12.5272 9.83058V10.3828H11.4726V9.83058C11.4726 9.17854 11.7863 8.55827 12.3119 8.17131C12.4488 8.07055 12.5272 7.91558 12.5272 7.74609C12.5272 7.45532 12.2907 7.21875 11.9999 7.21875C11.7091 7.21875 11.4726 7.45532 11.4726 7.74609V8.27344H10.4179V7.74609C10.4179 6.87376 11.1276 6.16406 11.9999 6.16406C12.8722 6.16406 13.5819 6.87376 13.5819 7.74609C13.5819 8.24693 13.3409 8.7234 12.9372 9.02061Z" fill="#6CC788"/>
</svg>
