<svg width="18" height="20" viewBox="0 0 18 20" fill="none" xmlns="http://www.w3.org/2000/svg">
<path d="M14.4722 10.6385C14.4823 9.87196 14.6866 9.1204 15.0662 8.4537C15.4457 7.78701 15.988 7.22683 16.6429 6.82524C16.2269 6.23249 15.678 5.74467 15.0398 5.40055C14.4017 5.05642 13.6918 4.86548 12.9667 4.8429C11.4202 4.68093 9.92037 5.76611 9.13231 5.76611C8.32872 5.76611 7.11557 4.85909 5.80849 4.88585C4.96326 4.91297 4.1395 5.15803 3.41752 5.59715C2.69553 6.03626 2.09995 6.65444 1.68884 7.39142C-0.0948814 10.466 1.23408 14.9863 2.94013 17.4693C3.79386 18.6869 4.79164 20.0467 6.0973 19.9988C7.37472 19.946 7.85207 19.1862 9.39429 19.1862C10.9224 19.1862 11.3715 19.9988 12.7019 19.9679C14.0732 19.946 14.9368 18.7453 15.7602 17.5165C16.3738 16.6491 16.8459 15.6903 17.1591 14.6757C16.3636 14.3396 15.6848 13.7777 15.2071 13.0599C14.7294 12.3421 14.4738 11.5 14.4722 10.6385Z" fill="white"/>
<path d="M11.9541 3.20625C12.7016 2.31146 13.0699 1.16127 12.9808 0C11.8378 0.119065 10.7818 0.663465 10.0235 1.52461C9.65313 1.94497 9.36948 2.43398 9.1887 2.9637C9.00793 3.49342 8.93358 4.05347 8.9699 4.61185C9.54158 4.6183 10.1073 4.49513 10.6242 4.25163C11.1412 4.00813 11.5959 3.65068 11.9541 3.20625Z" fill="white"/>
</svg>
