<svg width="24" height="24" viewBox="0 0 24 24" fill="none" xmlns="http://www.w3.org/2000/svg">
<path d="M22.5 10.5001H13.4999V1.49999C13.4999 0.964108 13.2142 0.468904 12.7501 0.200959C12.286 -0.0669863 11.714 -0.0669863 11.2499 0.200959C10.7858 0.468904 10.5001 0.964101 10.5001 1.49999V10.5001H1.49999C0.964108 10.5001 0.468904 10.7858 0.200959 11.2499C-0.0669863 11.714 -0.0669863 12.286 0.200959 12.7501C0.468904 13.2142 0.964101 13.4999 1.49999 13.4999H10.5001V22.5C10.5001 23.0359 10.7858 23.5311 11.2499 23.799C11.714 24.067 12.286 24.067 12.7501 23.799C13.2142 23.5311 13.4999 23.0359 13.4999 22.5V13.4999H22.5C23.0359 13.4999 23.5311 13.2142 23.799 12.7501C24.067 12.286 24.067 11.714 23.799 11.2499C23.5311 10.7858 23.0359 10.5001 22.5 10.5001Z" fill="white"/>
</svg>
