<svg width="14" height="20" viewBox="0 0 14 20" fill="none" xmlns="http://www.w3.org/2000/svg">
<path d="M8.08362 7.65771H1.24185C0.97847 7.65771 0.765625 7.87056 0.765625 8.13394C0.765625 8.39733 0.978466 8.61017 1.24185 8.61017H8.08322C8.3466 8.61017 8.55944 8.39733 8.55944 8.13394C8.5596 7.87056 8.34676 7.65771 8.08338 7.65771H8.08362Z" fill="#424458"/>
<path d="M9.43102 2.23461C9.43102 1.00237 10.4334 0 11.6658 0C12.8977 0 13.8995 1.00237 13.8995 2.23461L13.9023 8.7719H9.43066V2.23461H9.43102Z" fill="#424458"/>
<path d="M11.5622 16.7499C11.7388 16.9566 11.9826 17.0989 12.2494 17.1528C12.9183 17.2866 13.4056 17.879 13.4056 18.5628C13.4056 19.3552 12.7608 20 11.9675 20L4.09881 19.9998C3.22081 19.9998 2.50655 19.2856 2.50655 18.4076C2.50655 17.5286 3.22081 16.8143 4.09881 16.8143H5.71692C6.1678 16.8143 6.53497 16.4477 6.53497 15.9968C6.53497 15.5459 6.16779 15.1782 5.71692 15.1782C5.69316 15.1782 5.66924 15.1802 5.64405 15.1821C5.10167 15.2307 4.55642 15.1802 4.02979 15.033C1.64515 14.365 0.248997 11.8802 0.917012 9.49445C0.957508 9.34873 1.09079 9.2478 1.24226 9.2478H13.9312C14.2025 11.4105 13.3569 13.6109 11.6961 15.0329C11.4485 15.2438 11.2989 15.5391 11.2733 15.8634C11.2484 16.188 11.3507 16.5022 11.5621 16.7498L11.5622 16.7499Z" fill="#424458"/>
</svg>
