<svg width="16" height="16" viewBox="0 0 16 16" fill="none" xmlns="http://www.w3.org/2000/svg">
<path d="M8 0C12.4183 0 16 3.58171 16 8C16 12.4183 12.4183 16 8 16C3.58171 16 0 12.4183 0 8C0 3.58171 3.58171 0 8 0ZM8 1.6C4.46543 1.6 1.6 4.46543 1.6 8C1.6 11.5346 4.46543 14.4 8 14.4C11.5346 14.4 14.4 11.5346 14.4 8C14.4 4.46543 11.5346 1.6 8 1.6ZM9.15871 6.04371L8.25737 10.5829C8.23661 10.6563 8.22344 10.7298 8.21786 10.8013C8.2115 10.8734 8.20838 10.9435 8.20838 11.0137C8.20838 11.2006 8.24922 11.3295 8.33081 11.4016C8.41306 11.473 8.54175 11.5092 8.71687 11.5092C8.8355 11.5092 8.92144 11.5005 8.97479 11.4831C9.02758 11.4651 9.07646 11.4457 9.12167 11.4244C9.10537 11.6634 9.05515 11.8691 8.97167 12.0408C8.88762 12.2116 8.78216 12.3546 8.65592 12.4675C8.52914 12.5803 8.38606 12.6644 8.22658 12.7186C8.0672 12.7727 7.90581 12.8 7.74264 12.8C7.55436 12.8 7.37858 12.7694 7.21541 12.7092C7.05224 12.6485 6.90972 12.5523 6.78918 12.422C6.66864 12.2918 6.57389 12.1268 6.50424 11.9265C6.43449 11.7261 6.40001 11.4851 6.40001 11.2026C6.40001 11.0804 6.40815 10.9468 6.42445 10.8013C6.43538 10.7042 6.44989 10.6018 6.46797 10.494L6.49788 10.3284L7.35034 6.0438L9.15871 6.04371ZM8.59443 3.20009C8.73316 3.20009 8.86307 3.2281 8.9836 3.28491C9.10413 3.34172 9.21083 3.41917 9.30246 3.51661C9.39409 3.61415 9.46697 3.72699 9.52031 3.85589C9.57299 3.98413 9.6 4.12163 9.6 4.26995C9.6 4.41816 9.57299 4.55578 9.52031 4.68401C9.46697 4.81224 9.39409 4.92307 9.30246 5.01661C9.21083 5.11002 9.10413 5.18424 8.9836 5.23826C8.86306 5.29239 8.73315 5.31973 8.59443 5.31973C8.4557 5.31973 8.32579 5.29239 8.20526 5.23826C8.08472 5.18424 7.97925 5.11002 7.88951 5.01661C7.79978 4.92308 7.72947 4.81225 7.67802 4.68401C7.62713 4.55577 7.60146 4.41816 7.60146 4.26995C7.60146 4.12162 7.62713 3.98412 7.67802 3.85589C7.72947 3.72699 7.79978 3.61415 7.88951 3.51661C7.97925 3.41917 8.08471 3.34172 8.20526 3.28491C8.3258 3.2281 8.4557 3.20009 8.59443 3.20009Z" fill="#CE152A"/>
</svg>
