<svg width="11" height="16" viewBox="0 0 11 16" fill="none" xmlns="http://www.w3.org/2000/svg">
<path d="M5.86685 6.12622H0.393432C0.182727 6.12622 0.0124512 6.29649 0.0124512 6.5072C0.0124512 6.71791 0.182724 6.88818 0.393432 6.88818H5.86652C6.07723 6.88818 6.2475 6.71791 6.2475 6.5072C6.24763 6.2965 6.07736 6.12622 5.86666 6.12622H5.86685Z" fill="#424458"/>
<path d="M6.94511 1.78769C6.94511 0.801895 7.747 0 8.73292 0C9.71849 0 10.5199 0.801895 10.5199 1.78769L10.5222 7.01752H6.94482V1.78769H6.94511Z" fill="#424458"/>
<path d="M8.64976 13.3999C8.79108 13.5652 8.9861 13.6791 9.19948 13.7222C9.73468 13.8292 10.1244 14.3032 10.1244 14.8502C10.1244 15.4841 9.60864 15.9999 8.97399 15.9999L2.67905 15.9998C1.97665 15.9998 1.40524 15.4284 1.40524 14.726C1.40524 14.0228 1.97665 13.4514 2.67905 13.4514H3.97353C4.33424 13.4514 4.62797 13.1581 4.62797 12.7974C4.62797 12.4367 4.33423 12.1425 3.97353 12.1425C3.95453 12.1425 3.93539 12.1441 3.91524 12.1456C3.48133 12.1845 3.04514 12.1441 2.62383 12.0264C0.716117 11.4919 -0.400802 9.50414 0.13361 7.59551C0.166007 7.47893 0.272634 7.39819 0.393805 7.39819H10.5449C10.762 9.12835 10.0855 10.8887 8.75684 12.0263C8.55876 12.195 8.43912 12.4312 8.4186 12.6907C8.39871 12.9503 8.48059 13.2017 8.64971 13.3998L8.64976 13.3999Z" fill="#424458"/>
</svg>
