<svg width="16" height="16" viewBox="0 0 16 16" fill="none" xmlns="http://www.w3.org/2000/svg">
<path d="M15.333 8.66662V8.6665L14.3336 8.66638V0.666687C14.3336 0.299126 14.0346 0 13.6669 0H11.0003C10.6326 0 10.3336 0.299129 10.3336 0.666687V1.69657C9.38859 1.85569 8.66641 2.6769 8.66641 3.66655V3.99991H12.6664V3.66655C12.6664 2.67715 11.9447 1.85619 11.0003 1.6967L11.0002 0.666687H13.6668V8.66669L0.666099 8.66657V8.66681H0V9.3335H0.666192V13.0001C0.666192 14.2868 1.71288 15.3334 2.99949 15.3334H3.66667V16.0002H4.33336V15.3334H11.6666V16.0002H12.3333V15.3334H12.9995C14.2862 15.3334 15.3328 14.2867 15.3328 13.0001V9.3335H16V8.66681L15.333 8.66662Z" fill="#424458"/>
</svg>
