<svg width="48" height="48" viewBox="0 0 48 48" fill="none" xmlns="http://www.w3.org/2000/svg">
<g clip-path="url(#clip0_473_6704)">
<path d="M16.01 1.36035V14.6304L5.12 9.18035C7.94412 5.60328 11.718 2.89329 16.01 1.36035Z" fill="#04247B"/>
<path d="M42.87 9.18035L31.98 14.6304V1.36035C36.2735 2.89039 40.0481 5.60091 42.87 9.18035Z" fill="#04247B"/>
<path d="M16.01 33.3604V46.6304C11.7123 45.0982 7.93651 42.3799 5.12 38.7904L16.01 33.3604Z" fill="#04247B"/>
<path d="M42.87 38.7904C40.0531 42.375 36.2768 45.0867 31.98 46.6104V33.3604L42.87 38.7904Z" fill="#04247B"/>
<path d="M48 24.0001C47.9999 25.6125 47.8357 27.2208 47.5099 28.8001C47.2944 29.8801 47.0003 30.9429 46.6299 31.9801H39.9099L45.45 34.7501C44.7266 36.1793 43.8623 37.5326 42.87 38.7901L31.98 33.3401V46.6301C30.9428 47.0004 29.8799 47.2945 28.7999 47.5101C27.2207 47.8359 25.6124 48 23.9999 48.0001C22.3874 48.0006 20.7791 47.8364 19.2 47.5101C18.1167 47.2945 17.0505 47.0004 16.01 46.6301V33.3601L5.11995 38.7901C4.78662 38.3567 4.45329 37.9167 4.11995 37.4701L15.12 31.9601H7.94996L2.48995 34.7001C1.56099 32.8279 0.885078 30.8404 0.479955 28.7901C0.157458 27.2105 -0.0033823 25.6022 -5.58423e-05 23.9901C-0.00386886 22.3779 0.156976 20.7696 0.479955 19.1901C0.700189 18.1079 0.994199 17.0421 1.35994 16.0001H8.03995L2.53995 13.2501C3.26205 11.8076 4.12634 10.4408 5.11995 9.17007L16.01 14.6201V1.36007C17.052 0.994321 18.1178 0.700302 19.2 0.480068C20.7794 0.157089 22.3878 -0.00374679 23.9999 6.62318e-05C25.6121 -0.00326023 27.2204 0.157571 28.7999 0.480068C29.8788 0.700318 30.9413 0.994341 31.98 1.36007V14.6301L42.87 9.18007C43.2 9.61007 43.52 10.0401 43.82 10.4901L32.82 16.0101H39.98L45.48 13.2601C46.4327 15.1375 47.1258 17.1358 47.54 19.2001C47.8562 20.7802 48.0103 22.3886 48 24.0001Z" fill="white"/>
<path d="M8.04001 16.0098H1.38C1.7138 15.0687 2.10794 14.1501 2.56 13.2598L8.04001 16.0098Z" fill="#CE152A"/>
<path d="M46.63 31.9805C46.2979 32.9417 45.9037 33.8803 45.45 34.7905L39.91 32.0205L46.63 31.9805Z" fill="#CE152A"/>
<path d="M45.45 13.2602L39.95 16.0102H32.79L43.79 10.4902C44.4109 11.3714 44.9657 12.2973 45.45 13.2602Z" fill="#CE152A"/>
<path d="M15.16 31.9805L4.16003 37.4905C3.55526 36.6047 3.0107 35.6793 2.53003 34.7205L7.99004 31.9805H15.16Z" fill="#CE152A"/>
<path d="M48 24.0001C47.9999 25.6125 47.8357 27.2208 47.5099 28.8001H28.7999V47.5101C27.2207 47.8359 25.6124 48 23.9999 48.0001C22.3874 48.0006 20.7791 47.8364 19.2 47.5101V28.7901H0.479955C0.157458 27.2105 -0.0033823 25.6022 -5.58423e-05 23.9901C-0.00386886 22.3779 0.156976 20.7696 0.479955 19.1901H19.2V0.480068C20.7794 0.157089 22.3878 -0.00374679 23.9999 6.62318e-05C25.6121 -0.00326023 27.2204 0.157571 28.7999 0.480068V19.2001H47.5099C47.8363 20.7792 48.0005 22.3876 48 24.0001Z" fill="#CE152A"/>
</g>
<defs>
<clipPath id="clip0_473_6704">
<rect width="48" height="48" fill="white"/>
</clipPath>
</defs>
</svg>
