<svg width="16" height="15" viewBox="0 0 16 15" fill="none" xmlns="http://www.w3.org/2000/svg">
<path d="M8 14.4009C7.484 13.9433 6.9008 13.4673 6.284 12.9609H6.276C4.10401 11.1849 1.64241 9.17528 0.555217 6.76728C0.198032 6.00067 0.00874142 5.16659 9.12476e-06 4.32089C-0.0023763 3.16048 0.463034 2.04808 1.29106 1.23511C2.11909 0.422138 3.23984 -0.0227849 4.40001 0.00089942C5.34451 0.00239126 6.26867 0.275364 7.0624 0.787297C7.41118 1.01367 7.72674 1.2875 8 1.6009C8.27479 1.28873 8.59044 1.01506 8.9384 0.787297C9.73179 0.275263 10.6557 0.00227426 11.6 0.00089942C12.7602 -0.0227849 13.8809 0.422138 14.7089 1.23511C15.537 2.04808 16.0024 3.16048 16 4.32089C15.9918 5.16794 15.8025 6.00344 15.4448 6.77128C14.3576 9.17928 11.8968 11.1881 9.7248 12.9609L9.7168 12.9673C9.0992 13.4705 8.5168 13.9465 8.0008 14.4073L8 14.4009Z" fill="#2A4B9B"/>
</svg>
