<svg width="47" height="30" viewBox="0 0 47 30" fill="none" xmlns="http://www.w3.org/2000/svg">
<path d="M1.83528 24.1377H44.2159L44.0929 25.3325C44.0374 26.5403 43.5239 27.6853 42.6515 28.547C41.779 29.4087 40.6093 29.9262 39.3678 29.9997H6.69876C5.46178 29.9226 4.29705 29.4064 3.4259 28.5494C2.55476 27.6924 2.03791 26.5543 1.97358 25.3512C1.95821 25.3363 1.97358 25.4968 1.83528 24.1377Z" fill="#2A4B9B"/>
<path d="M46.0678 6.14518L44.4889 21.5207H1.56667L0.0300248 6.47001C-0.381027 2.94162 3.53357 1.30997 5.34296 3.32992C9.68782 8.21365 10.1527 9.16577 11.6163 8.99776C12.0948 8.93898 12.5402 8.72908 12.884 8.40034C21.7389 0.141313 21.1627 0.675245 21.2511 0.608037C21.7678 0.2141 22.4056 0 23.0624 0C23.7191 0 24.3569 0.2141 24.8737 0.608037C33.8208 7.91496 33.4097 7.59387 33.6095 7.70215C34.0313 7.94748 34.528 8.04216 35.0139 7.96992C35.4998 7.89768 35.9446 7.66303 36.2717 7.30636C41.2466 2.55704 40.9278 2.85202 41.02 2.78108C41.5665 2.41915 42.2128 2.22602 42.8742 2.22699C43.5356 2.22796 44.1813 2.42297 44.7268 2.78649C45.2722 3.15001 45.6921 3.66511 45.9314 4.26438C46.1706 4.86365 46.2182 5.5192 46.0678 6.14518Z" fill="#2A4B9B"/>
</svg>
