<svg width="10" height="12" viewBox="0 0 10 12" fill="none" xmlns="http://www.w3.org/2000/svg">
<path fill-rule="evenodd" clip-rule="evenodd" d="M5.21435 0C2.61063 0 0.5 2.11063 0.5 4.71435C0.5 7.1511 1.99734 9.5467 4.94663 11.9062C5.10322 12.0313 5.32555 12.0313 5.48213 11.9062C8.43131 9.54665 9.92876 7.15096 9.92876 4.71435C9.92876 2.11063 7.81813 0 5.21441 0H5.21435ZM5.21435 2.57146C4.03085 2.57146 3.07146 3.53085 3.07146 4.71435C3.07146 5.89785 4.03085 6.85724 5.21435 6.85724C6.39785 6.85724 7.35724 5.89785 7.35724 4.71435C7.35724 3.53085 6.39785 2.57146 5.21435 2.57146Z" fill="#2A4B9B"/>
</svg>
