<svg width="17" height="20" viewBox="0 0 17 20" fill="none" xmlns="http://www.w3.org/2000/svg">
<path d="M8.57449 19.2309H1.15184C0.940783 19.2309 0.769258 19.0583 0.769258 18.8464V1.15399C0.769258 0.941864 0.940783 0.769445 1.15184 0.769445H8.57449C8.78679 0.769445 8.95903 0.597384 8.95903 0.384902C8.95903 0.172419 8.78679 0.000357717 8.57449 0.000357717L1.15184 0C0.516715 0 0 0.51763 0 1.15381V18.8462C0 19.4824 0.516898 20 1.15184 20H8.57449C8.78679 20 8.95903 19.8279 8.95903 19.6155C8.95921 19.403 8.78697 19.2309 8.57449 19.2309V19.2309ZM16.156 9.72813L11.7592 5.33145C11.6089 5.18122 11.3655 5.18122 11.2153 5.33145C11.065 5.48169 11.065 5.7253 11.2153 5.87537L14.9557 9.61568H4.64705C4.43474 9.61568 4.2625 9.78774 4.2625 10.0002C4.2625 10.2127 4.43474 10.3848 4.64705 10.3848H14.9557L11.2154 14.1251C11.0652 14.2751 11.0652 14.5187 11.2154 14.669C11.2905 14.7441 11.3891 14.7815 11.4874 14.7815C11.586 14.7815 11.6844 14.7441 11.7595 14.669L16.1563 10.2723C16.2284 10.2002 16.2688 10.1024 16.2688 10.0003C16.269 9.89814 16.2282 9.80048 16.1562 9.72822L16.156 9.72813Z" fill="black"/>
</svg>
