<svg width="16" height="14" viewBox="0 0 16 14" fill="none" xmlns="http://www.w3.org/2000/svg">
<path d="M7.9999 10.1998C7.5199 10.1998 7.11986 10.0397 6.71995 9.87983L0 5.71998V10.9999C0 12.36 1.03995 13.3999 2.39998 13.3999H13.6C14.9601 13.3999 16 12.36 16 10.9999V5.71998L9.28005 9.87983C8.88 10.0399 8.47996 10.1998 7.99997 10.1998H7.9999ZM13.5997 0.599854H2.40005C1.04002 0.599854 6.85333e-05 1.63994 6.85333e-05 2.99984V3.87988L7.60013 8.51973C7.84013 8.67977 8.16008 8.67977 8.40008 8.51973L15.9998 3.87988V2.99984C15.9998 1.63994 14.9598 0.599854 13.5998 0.599854H13.5997Z" fill="#60BD62"/>
</svg>
