<svg width="20" height="20" viewBox="0 0 20 20" fill="none" xmlns="http://www.w3.org/2000/svg">
<path d="M9.57242 5.16162C8.45721 5.16162 7.52781 6.09102 7.52781 7.20623V8.0116H7.4658C6.84629 8.0116 6.35059 8.5073 6.35059 9.12681V13.3707C6.35059 13.9903 6.84628 14.486 7.4658 14.486H11.7097C12.3292 14.486 12.8249 13.9903 12.8249 13.3707L12.8252 9.12681C12.8252 8.5073 12.3295 8.0116 11.7099 8.0116H11.6479V7.20623C11.617 6.05987 10.6877 5.16162 9.5724 5.16162H9.57242ZM8.30226 7.20623C8.30226 6.49379 8.85976 5.93607 9.57242 5.93607C10.2849 5.93607 10.8426 6.49357 10.8426 7.20623V8.0116H8.30226V7.20623ZM12.0507 9.12681V13.3707C12.0507 13.5566 11.8958 13.7115 11.7099 13.7115H7.46601C7.28018 13.7115 7.12524 13.5566 7.12524 13.3707V9.12681C7.12524 8.94097 7.28018 8.78604 7.46601 8.78604H11.7099C11.8958 8.78604 12.0507 8.94097 12.0507 9.12681Z" fill="black"/>
<path d="M17.1311 4.23218C17.0073 4.07724 16.7594 4.04634 16.5736 4.17016C16.4187 4.29398 16.3878 4.54183 16.5116 4.72765C17.7506 6.27656 18.3704 8.16621 18.3704 10.1488C18.3704 15.0125 14.4052 18.9466 9.57262 18.9466C7.99279 18.9466 6.44389 18.5129 5.11173 17.7384L6.28895 17.7075C6.5059 17.7075 6.66062 17.5217 6.66062 17.3047C6.66062 17.0878 6.47478 16.8711 6.25784 16.9331L3.90356 17.026H3.84154H3.81064C3.68683 17.026 3.56279 17.088 3.50077 17.2118C3.43876 17.3047 3.40786 17.4597 3.46988 17.5526L4.33726 19.7522C4.39928 19.9071 4.55421 20 4.70893 20C4.77095 20 4.80185 20 4.86386 19.9691C5.0497 19.8762 5.17373 19.6592 5.08082 19.4734L4.6158 18.3273C6.10269 19.2255 7.80654 19.7212 9.5724 19.7212C14.8698 19.7212 19.1446 15.4153 19.1446 10.149C19.1446 7.98061 18.4631 5.936 17.1312 4.23221L17.1311 4.23218Z" fill="black"/>
<path d="M9.57241 1.35122C10.9355 1.35122 12.2985 1.69199 13.5067 2.28061L12.3295 2.34263C12.1125 2.34263 11.9578 2.52846 11.9578 2.74541C11.9578 2.96236 12.1436 3.11708 12.3295 3.11708H12.3604L14.8075 2.96215C14.9313 2.96215 15.0554 2.90013 15.1174 2.77631C15.1794 2.65249 15.2103 2.52846 15.1483 2.43554L14.25 0.23599C14.1571 0.0501551 13.9402 -0.0427623 13.7543 0.0190389C13.5685 0.111956 13.4756 0.328908 13.5374 0.514737L14.002 1.62995C12.6389 0.917507 11.152 0.545605 9.57221 0.545605C4.27486 0.545605 0 4.85155 0 10.1178C0 12.0384 0.557494 13.8971 1.64184 15.508C1.70385 15.6319 1.82767 15.663 1.9517 15.663C2.01372 15.663 2.10664 15.6321 2.16866 15.601C2.35449 15.4772 2.38561 15.2293 2.26157 15.0744C1.27017 13.6184 0.743594 11.9146 0.743594 10.1178C0.774711 5.28526 4.70878 1.35099 9.57233 1.35099L9.57241 1.35122Z" fill="black"/>
</svg>
