<svg width="16" height="16" viewBox="0 0 16 16" fill="none" xmlns="http://www.w3.org/2000/svg">
<path d="M13.1598 10.1633C13.1598 10.1633 12.5788 9.49927 11.6244 10.0803L10.5663 11.1177C10.3174 11.346 9.94381 11.4082 9.65334 11.2215C8.59524 10.5784 6.12624 8.87696 4.81908 6.3665C4.67377 6.07604 4.73615 5.72335 4.96439 5.49509L5.71131 4.74817C5.71131 4.74817 6.83162 3.77301 5.73201 2.65266L3.28368 0.24572C3.28368 0.24572 2.41227 -0.376754 1.5616 0.391026C1.5616 0.391026 -0.5339 2.15467 0.129959 5.12155C0.129959 5.12155 0.192191 8.25445 5.54516 12.9435C5.54516 12.9435 8.4498 15.4541 11.6865 15.9312C11.6865 15.9312 13.948 16.4292 15.5042 14.5827C15.5042 14.5827 16.5623 13.7943 15.5871 12.5702L13.1598 10.1633ZM3.38751 2.63179C2.68212 1.90553 2.39165 1.55286 2.2672 1.36616C2.20496 1.26239 2.22566 1.13793 2.32943 1.0757C2.4332 1.01347 2.55766 1.03416 2.61989 1.13793C2.72366 1.28324 2.97259 1.6151 3.69882 2.34131C4.40421 3.06756 4.77775 3.358 4.94377 3.46162C5.04754 3.52386 5.06824 3.64832 5.006 3.75209C4.96447 3.81432 4.90224 3.83502 4.84 3.83502C4.79847 3.83502 4.75707 3.81432 4.71554 3.79348C4.48716 3.66916 4.07224 3.35785 3.38752 2.63178L3.38751 2.63179ZM14.7781 13.7319C14.7366 13.7942 14.6743 13.8357 14.6121 13.8357C14.5706 13.8357 14.5292 13.815 14.5083 13.7942C14.3008 13.6488 13.8859 13.3377 13.1598 12.5908C12.5167 11.9268 12.2053 11.5534 12.0809 11.3874C12.0186 11.3045 12.0393 11.1592 12.1224 11.0969C12.2053 11.0347 12.3506 11.0554 12.4129 11.1385C12.5373 11.3045 12.8278 11.6572 13.4503 12.3003C14.1972 13.0679 14.5706 13.3377 14.7366 13.4415C14.8197 13.5037 14.8404 13.6282 14.7781 13.7319L14.7781 13.7319Z" fill="#60BD62"/>
</svg>
