<svg width="18" height="18" viewBox="0 0 18 18" fill="none" xmlns="http://www.w3.org/2000/svg">
<path d="M3.50183 0.283279C3.09173 0.0183056 2.5992 -0.0617942 2.13721 0.0472553L10.2558 8.16597L12.8871 5.53468L3.50183 0.283279Z" fill="white"/>
<path d="M1.12972 0.707275C0.903221 1.00832 0.772949 1.37792 0.772949 1.7689V16.2307C0.772949 16.6217 0.903296 16.9913 1.12972 17.2923L9.42221 8.99984L1.12972 0.707275Z" fill="white"/>
<path d="M16.3214 7.4562L13.9566 6.13306L11.0898 8.99984L13.9568 11.8667L16.3218 10.5435C16.8884 10.226 17.2267 9.64904 17.2267 8.99984C17.2267 8.35065 16.8884 7.77367 16.3214 7.4562Z" fill="white"/>
<path d="M10.2554 9.83374L2.13721 17.9519C2.27033 17.9832 2.40578 18.0001 2.54123 18.0001C2.87595 18.0001 3.20955 17.9049 3.50138 17.7164L12.8868 12.465L10.2554 9.83374Z" fill="white"/>
</svg>
