<svg width="20" height="20" viewBox="0 0 20 20" fill="none" xmlns="http://www.w3.org/2000/svg">
<path d="M10.0005 0C4.48541 0 0.000488281 4.48492 0.000488281 10C0.000488281 15.5151 4.48541 20 10.0005 20C15.5156 20 20.0005 15.5151 20.0005 10C20.0005 4.48492 15.5156 0 10.0005 0ZM10.0005 1.33341C14.7949 1.33341 18.6672 5.20572 18.6672 10.0001C18.6672 11.6229 18.2248 13.1404 17.4519 14.4374C15.621 12.3944 12.957 11.111 10.0007 11.111C7.04077 11.111 4.37886 12.3971 2.5495 14.4444C1.77477 13.1462 1.33422 11.6247 1.33422 9.99992C1.33422 5.20548 5.20652 1.33325 10.0009 1.33325L10.0005 1.33341ZM10.0005 2.00012C7.6766 2.00012 5.77827 3.89837 5.77827 6.22234C5.77827 8.54631 7.67652 10.4446 10.0005 10.4446C12.3245 10.4446 14.2227 8.54631 14.2227 6.22234C14.2227 3.89837 12.3245 2.00012 10.0005 2.00012ZM10.0005 3.33353C11.6039 3.33353 12.8894 4.61905 12.8894 6.22246C12.8894 7.82587 11.6039 9.11139 10.0005 9.11139C8.39708 9.11139 7.11156 7.82587 7.11156 6.22246C7.11156 4.61905 8.39708 3.33353 10.0005 3.33353ZM10.0005 12.4446C12.6764 12.4446 15.0568 13.6601 16.6465 15.5627C15.058 17.4598 12.6747 18.6669 10.0005 18.6669C7.32628 18.6669 4.94295 17.46 3.35446 15.5627C4.94299 13.6581 7.32271 12.4446 10.0005 12.4446Z" fill="white"/>
</svg>
