<svg width="30" height="16" viewBox="0 0 30 16" fill="none" xmlns="http://www.w3.org/2000/svg">
<path d="M30 7.96154C29.973 8.24065 29.8525 8.57084 29.6824 8.75045L23.8761 15.0618C23.31 15.6221 22.4284 15.6723 21.8347 15.259C21.241 14.8458 21.133 14.0002 21.6079 13.4839L25.5241 9.22388L1.45169 9.22388C0.650085 9.22388 0 8.65861 0 7.96154C0 7.26447 0.650061 6.6992 1.45169 6.6992L25.5241 6.6992L21.6079 2.43912C21.1327 1.92286 21.2589 1.09609 21.8347 0.664063C22.4602 0.19447 23.4012 0.345034 23.8761 0.861293L29.6824 7.17262C29.9281 7.43413 29.9956 7.62607 30 7.96154Z" fill="white"/>
</svg>
