<svg width="24" height="24" viewBox="0 0 24 24" fill="none" xmlns="http://www.w3.org/2000/svg">
<path fill-rule="evenodd" clip-rule="evenodd" d="M11.4311 3.17878C6.87204 3.17878 3.17902 6.86989 3.17902 11.4196C3.17902 15.9694 6.87204 19.6605 11.4311 19.6605C13.7056 19.6605 15.7627 18.7434 17.2566 17.2563C18.7573 15.7625 19.6831 13.7003 19.6831 11.4196C19.6831 6.86989 15.9901 3.17878 11.4311 3.17878ZM0.333496 11.4196C0.333496 5.29525 5.30359 0.333252 11.4311 0.333252C17.5585 0.333252 22.5286 5.29525 22.5286 11.4196C22.5286 13.9738 21.6627 16.3276 20.2104 18.2016L23.2495 21.2372C23.8055 21.7925 23.806 22.6933 23.2507 23.2493C22.6954 23.8052 21.7945 23.8058 21.2386 23.2505L18.1944 20.2098C16.3224 21.649 13.9759 22.506 11.4311 22.506C5.30359 22.506 0.333496 17.544 0.333496 11.4196Z" fill="white"/>
</svg>
