<svg width="18" height="18" viewBox="0 0 18 18" fill="none" xmlns="http://www.w3.org/2000/svg">
<path d="M17.7815 0.218415C17.6803 0.117675 17.5524 0.0479261 17.4129 0.0173698C17.2734 -0.0131865 17.1281 -0.0032804 16.994 0.0459235L0.494854 6.04562C0.352562 6.09959 0.230057 6.19557 0.14361 6.32082C0.0571627 6.44606 0.0108643 6.59465 0.0108643 6.74683C0.0108643 6.89901 0.0571627 7.04759 0.14361 7.17284C0.230057 7.29809 0.352562 7.39407 0.494854 7.44804L6.93702 10.0204L11.6918 5.25066L12.7492 6.3081L7.97197 11.0854L10.5518 17.5275C10.6074 17.6671 10.7036 17.7867 10.828 17.8709C10.9523 17.9552 11.0991 18.0001 11.2493 18C11.4009 17.9969 11.5479 17.9479 11.6711 17.8596C11.7943 17.7712 11.8878 17.6476 11.9393 17.505L17.939 1.00587C17.9901 0.873188 18.0024 0.728711 17.9745 0.589288C17.9466 0.449865 17.8797 0.321242 17.7815 0.218415Z" fill="white"/>
</svg>
