<svg width="16" height="16" viewBox="0 0 16 16" fill="none" xmlns="http://www.w3.org/2000/svg">
<path d="M12.0941 6.70903C12.9832 6.70677 13.8348 6.35172 14.4622 5.72205C15.0895 5.09226 15.4412 4.23911 15.4402 3.35022C15.439 2.4613 15.0851 1.60907 14.4561 0.980932C13.8272 0.352797 12.9745 0 12.0856 0C11.1967 0 10.344 0.352801 9.7151 0.980932C9.08604 1.60907 8.7322 2.4613 8.73101 3.35022V3.56587L6.0232 5.57936C5.36362 5.04386 4.52524 4.77857 3.67767 4.83708C2.82994 4.89573 2.03607 5.2738 1.45636 5.8949C0.876621 6.51614 0.554199 7.33407 0.554199 8.18372C0.554199 9.03338 0.876621 9.85146 1.45636 10.4726C2.03611 11.0938 2.82998 11.4718 3.67767 11.5304C4.52524 11.5889 5.36362 11.3236 6.0232 10.7881L8.74829 12.8664C8.81897 13.9482 9.40862 14.9292 10.3309 15.4993C11.2532 16.0693 12.3943 16.1581 13.3936 15.7376C14.3931 15.3172 15.1274 14.4392 15.3647 13.3813C15.602 12.3234 15.313 11.2159 14.5889 10.4088C13.8649 9.60186 12.7953 9.19478 11.7178 9.31628C10.6404 9.43779 9.68834 10.0728 9.16215 11.0209L7.03424 9.39747H7.03439C7.33997 8.62016 7.33997 7.75587 7.03439 6.97856L9.33466 5.26254C9.96071 6.16921 10.9925 6.70999 12.0942 6.70907L12.0941 6.70903ZM3.90173 9.80932C3.46939 9.80932 3.05477 9.63759 2.74917 9.33187C2.44344 9.02629 2.27187 8.61169 2.27187 8.17947C2.27187 7.74713 2.44346 7.33251 2.74917 7.02691C3.05475 6.72118 3.46935 6.54961 3.90173 6.54961C4.33395 6.54961 4.74853 6.7212 5.05413 7.02691C5.35986 7.33249 5.53158 7.74709 5.53158 8.17947C5.53098 8.61153 5.35909 9.02566 5.05351 9.33125C4.74794 9.63685 4.33379 9.80871 3.90173 9.80932ZM12.0941 11.0208C12.5265 11.0208 12.9411 11.1926 13.2467 11.4983C13.5524 11.8039 13.724 12.2185 13.724 12.6507C13.724 13.083 13.5524 13.4976 13.2467 13.8032C12.9411 14.109 12.5265 14.2805 12.0941 14.2805C11.6619 14.2805 11.2473 14.1089 10.9417 13.8032C10.636 13.4977 10.4643 13.083 10.4643 12.6507C10.4649 12.2186 10.6368 11.8045 10.9423 11.4989C11.2479 11.1933 11.6621 11.0214 12.0941 11.0208ZM12.0941 1.7139V1.71405C12.5265 1.71405 12.9411 1.88579 13.2467 2.19135C13.5524 2.49708 13.724 2.91153 13.724 3.34391C13.724 3.77612 13.5524 4.19071 13.2467 4.49646C12.9411 4.80204 12.5265 4.97376 12.0941 4.97376C11.6619 4.97376 11.2473 4.80203 10.9417 4.49646C10.636 4.19073 10.4643 3.77612 10.4643 3.34391C10.4667 2.91292 10.6393 2.50041 10.9446 2.1962C11.25 1.89213 11.6633 1.72113 12.0941 1.72055V1.7139Z" fill="#424458"/>
</svg>
