<svg width="16" height="14" viewBox="0 0 16 14" fill="none" xmlns="http://www.w3.org/2000/svg">
<path d="M14.0198 2.6203C14.6947 2.2168 15.1997 1.58143 15.4406 0.832824C14.8063 1.20915 14.1124 1.47424 13.3888 1.61663C12.3856 0.555387 10.7961 0.297127 9.50844 0.986165C8.22083 1.6752 7.55388 3.14095 7.88028 4.5644C5.28234 4.43397 2.86191 3.20678 1.22128 1.18821C0.365067 2.66504 0.80261 4.55294 2.22118 5.50256C1.70821 5.48607 1.20662 5.34718 0.758223 5.09748C0.758223 5.11103 0.758223 5.12458 0.758223 5.13814C0.758519 6.67651 1.84274 8.00163 3.3506 8.30651C2.87479 8.43596 2.37569 8.45502 1.8914 8.36223C2.31545 9.67782 3.52795 10.5791 4.90993 10.606C3.76534 11.5043 2.3518 11.9915 0.896764 11.9891C0.63886 11.9895 0.381158 11.9747 0.125 11.9447C1.60256 12.8942 3.32226 13.3982 5.07859 13.3964C7.52207 13.4132 9.87033 12.4499 11.5981 10.722C13.3259 8.99404 14.289 6.64571 14.272 4.20223C14.272 4.06218 14.2687 3.92289 14.2622 3.78435C14.895 3.32702 15.4412 2.76046 15.875 2.11132C15.2855 2.37263 14.6601 2.5442 14.0198 2.6203Z" fill="white"/>
</svg>
