<?xml version="1.0" encoding="iso-8859-1"?>
<!-- Generator: Adobe Illustrator 19.0.0, SVG Export Plug-In . SVG Version: 6.00 Build 0)  -->
<svg version="1.1" id="Layer_1" xmlns="http://www.w3.org/2000/svg" xmlns:xlink="http://www.w3.org/1999/xlink" x="0px" y="0px"
	 viewBox="0 0 298.302 298.302" style="enable-background:new 0 0 298.302 298.302;" xml:space="preserve">
<g id="XMLID_1383_">
	<g>
		<g>
			<path d="M292.452,33.451h-19.175c-3.231,0-5.85,2.619-5.85,5.85v50.05h-10.935c-1.117,0-2.171,0.517-2.855,1.401
				c-0.684,0.883-0.92,2.034-0.639,3.115l14.429,55.636v109.498c0,3.231,2.619,5.85,5.85,5.85h19.175c3.231,0,5.85-2.62,5.85-5.85
				v-219.7C298.302,36.07,295.683,33.451,292.452,33.451z"/>
			<path d="M251.138,110.983l-17.596,1.65c-2.43-3.172-6.907-4.074-10.402-1.954l-17.85,10.823l-9.977-52.577
				c-0.73-3.845-4.09-6.627-8.003-6.627H37.72c-3.914,0-7.273,2.783-8.003,6.627l-14.55,76.679C6.03,151.645,0,162.005,0,173.777
				v41.635c0,6.978,5.657,12.635,12.635,12.635h7.167v17.137c0,10.861,8.805,19.666,19.666,19.666
				c10.862,0,19.666-8.805,19.666-19.666v-17.137h106.761v17.137c0,10.861,8.805,19.666,19.666,19.666
				c10.862,0,19.666-8.805,19.666-19.666v-17.137h7.167c6.978,0,12.635-5.657,12.635-12.635v-41.635
				c0-11.773-6.03-22.133-15.166-28.174l-1.416-7.466l22.917-13.894c1.544-0.936,2.646-2.318,3.26-3.878l17.242-1.617
				c2.145-0.201,3.721-2.102,3.519-4.247C255.184,112.357,253.269,110.779,251.138,110.983z M38.906,205.291
				c-10.254,0-18.566-8.312-18.566-18.566c0-10.254,8.312-18.566,18.566-18.566c10.254,0,18.566,8.312,18.566,18.566
				C57.472,196.979,49.16,205.291,38.906,205.291z M130.991,140.018h-3.134l0.071-14.216c0.008-1.595,1.312-2.892,2.907-2.892h0.156
				V140.018z M130.835,107.047c-10.298,0-18.718,8.378-18.769,18.675l-0.072,14.296H33.759c-0.32,0-0.637,0.015-0.956,0.024
				l11.662-61.454h92.754c-0.938,2.068-1.464,4.362-1.464,6.781c0,9.079,7.36,16.438,16.439,16.438s16.438-7.359,16.438-16.438
				c0-2.419-0.526-4.713-1.464-6.781h13.399l6.917,36.451c-6.612-6.49-10.527-7.992-14.065-7.992
				C168.991,107.047,135.26,107.047,130.835,107.047z M188.202,140.018h-15.2V123.35
				C176.187,125.709,182.603,132.724,188.202,140.018z M186.124,205.291c-10.254,0-18.566-8.312-18.566-18.566
				c0-10.254,8.312-18.566,18.566-18.566c10.254,0,18.566,8.312,18.566,18.566C204.69,196.979,196.377,205.291,186.124,205.291z"/>
		</g>
	</g>
</g>
<g>
</g>
<g>
</g>
<g>
</g>
<g>
</g>
<g>
</g>
<g>
</g>
<g>
</g>
<g>
</g>
<g>
</g>
<g>
</g>
<g>
</g>
<g>
</g>
<g>
</g>
<g>
</g>
<g>
</g>
</svg>
