<svg width="20" height="20" viewBox="0 0 20 20" fill="none" xmlns="http://www.w3.org/2000/svg">
<g opacity="1">
<path fill-rule="evenodd" clip-rule="evenodd" d="M17.9498 9.11165C17.9213 8.99761 17.8549 8.89658 17.7615 8.82503C17.6681 8.75348 17.5532 8.71563 17.4356 8.71764C17.0767 8.72183 16.7251 8.61688 16.4274 8.41673C16.1297 8.21658 15.8999 7.9307 15.7687 7.59706C15.6375 7.26341 15.611 6.89779 15.6927 6.54874C15.7745 6.1997 15.9606 5.88374 16.2263 5.64284C16.3092 5.56698 16.3602 5.46263 16.3692 5.35073C16.3782 5.23883 16.3445 5.12767 16.2749 5.03956C15.9025 4.56625 15.4773 4.13694 15.0075 3.75995C14.9189 3.68922 14.8067 3.65491 14.6937 3.66403C14.5808 3.67314 14.4755 3.725 14.3995 3.809C14.1484 4.07221 13.8249 4.2552 13.4698 4.33486C13.1147 4.41453 12.7439 4.38729 12.4043 4.2566C12.0672 4.11355 11.7825 3.87004 11.5891 3.55934C11.3957 3.24864 11.303 2.88588 11.3237 2.52059C11.3305 2.40732 11.2936 2.29575 11.2206 2.20882C11.1476 2.12189 11.044 2.06623 10.9311 2.05327C10.3333 1.98389 9.72946 1.98228 9.13125 2.04847C9.01963 2.06084 8.9168 2.11487 8.84336 2.19975C8.76991 2.28462 8.73128 2.39408 8.7352 2.5062C8.74815 2.86799 8.65035 3.22513 8.45484 3.52997C8.25934 3.83481 7.97543 4.07285 7.64098 4.21234C7.30291 4.33867 6.93519 4.36329 6.58326 4.28318C6.23133 4.20306 5.91061 4.02172 5.66072 3.76155C5.585 3.67867 5.48074 3.62741 5.36881 3.61802C5.25688 3.60863 5.14553 3.6418 5.05703 3.7109C4.57802 4.08651 4.1438 4.51587 3.76292 4.99051C3.69151 5.07866 3.65644 5.19071 3.66487 5.3038C3.6733 5.41688 3.72459 5.5225 3.80829 5.59912C4.07995 5.84502 4.26877 6.16887 4.34886 6.52622C4.42894 6.88357 4.39636 7.25693 4.25558 7.59505C4.10449 7.92667 3.8586 8.20626 3.54884 8.39865C3.23908 8.59104 2.87929 8.68765 2.51471 8.67632C2.40181 8.66902 2.29051 8.70594 2.20441 8.77925C2.11832 8.85256 2.0642 8.9565 2.05354 9.069C1.98333 9.6733 1.98217 10.2836 2.05007 10.8882C2.08052 11.0031 2.14887 11.1044 2.24407 11.1758C2.33928 11.2471 2.45578 11.2843 2.57476 11.2814C2.92769 11.2775 3.27358 11.3801 3.56726 11.5756C3.86093 11.7712 4.08873 12.0507 4.22089 12.3776C4.35677 12.7136 4.38674 13.083 4.30682 13.4365C4.22689 13.7899 4.04086 14.1106 3.77359 14.3557C3.69096 14.4315 3.64005 14.5358 3.63104 14.6475C3.62204 14.7593 3.6556 14.8703 3.72502 14.9584C4.09698 15.4315 4.52156 15.8607 4.99058 16.238C5.07903 16.3091 5.19137 16.3438 5.30456 16.3348C5.41775 16.3258 5.52322 16.2739 5.59933 16.1898C5.85007 15.9263 6.17339 15.7431 6.5284 15.6632C6.88341 15.5834 7.25416 15.6105 7.59374 15.7411C7.93178 15.8837 8.21731 16.1273 8.41109 16.4386C8.60488 16.7498 8.6974 17.1133 8.67595 17.4792C8.66926 17.5925 8.70621 17.704 8.77921 17.7909C8.85221 17.8778 8.95573 17.9335 9.06853 17.9466C9.66637 18.0162 10.2702 18.0178 10.8684 17.9514C10.98 17.9389 11.0829 17.8848 11.1563 17.7999C11.2297 17.715 11.2684 17.6055 11.2644 17.4934C11.2512 17.1315 11.3489 16.7743 11.5445 16.4694C11.74 16.1645 12.0241 15.9265 12.3587 15.7872C12.6968 15.6603 13.0648 15.6354 13.4171 15.7155C13.7693 15.7957 14.0902 15.9773 14.34 16.238C14.4159 16.3206 14.5201 16.3717 14.632 16.381C14.7438 16.3904 14.8551 16.3573 14.9437 16.2884C15.4226 15.9127 15.8568 15.4833 16.2378 15.0088C16.309 14.9205 16.3437 14.8083 16.3348 14.6953C16.3259 14.5822 16.2741 14.4768 16.19 14.4007C15.924 14.1613 15.737 13.8468 15.6537 13.4989C15.5704 13.151 15.5948 12.786 15.7237 12.4523C15.8525 12.1185 16.0798 11.8317 16.3753 11.6297C16.6709 11.4277 17.0209 11.3201 17.379 11.3211L17.478 11.3238C17.5914 11.3304 17.7031 11.2935 17.7901 11.2206C17.8772 11.1477 17.9331 11.0443 17.9464 10.9316C18.0167 10.3271 18.0179 9.71648 17.9498 9.11165ZM10.0128 12.6839C9.48434 12.6844 8.96765 12.5283 8.52806 12.2354C8.08846 11.9425 7.74571 11.5259 7.54316 11.0384C7.34062 10.5509 7.28737 10.0143 7.39017 9.49657C7.49297 8.97882 7.74719 8.50316 8.12067 8.12975C8.49415 7.75635 8.97012 7.50199 9.48835 7.39884C10.0066 7.29569 10.5438 7.34839 11.032 7.55027C11.5203 7.75215 11.9376 8.09415 12.2312 8.53299C12.5249 8.97184 12.6816 9.48781 12.6816 10.0156C12.6815 10.723 12.4004 11.4014 11.9001 11.9019C11.3997 12.4025 10.7209 12.6842 10.0128 12.6852V12.6839Z" fill="#2CB9CA"/>
</g>
</svg>
