<svg width="60" height="60" viewBox="0 0 60 60" fill="none" xmlns="http://www.w3.org/2000/svg">
<rect opacity="0.1" width="60" height="60" rx="30" fill="#EB5757"/>
<path d="M38.75 42.5H21.25C19.8693 42.5 18.75 41.3807 18.75 40V22.5C18.75 21.1193 19.8693 20 21.25 20H23.75V17.5H26.25V20H33.75V17.5H36.25V20H38.75C40.1307 20 41.25 21.1193 41.25 22.5V40C41.25 41.3807 40.1307 42.5 38.75 42.5ZM21.25 27.5V40H38.75V27.5H21.25ZM21.25 22.5V25H38.75V22.5H21.25ZM27.1325 38.3838L25.3663 36.6163L28.2325 33.75L25.3663 30.8837L27.1337 29.1163L30 31.9825L32.8663 29.1175L34.6337 30.885L31.7675 33.75L34.6337 36.6163L32.8675 38.3825L30 35.5175L27.1337 38.3838H27.1325Z" fill="#EB5757"/>
</svg>
