<svg width="101" height="71" viewBox="0 0 101 71" fill="none" xmlns="http://www.w3.org/2000/svg">
<g clip-path="url(#clip0)">
<path d="M62.8282 32.5848L56.3549 53.6936C54.7037 59.0607 57.7736 64.761 63.089 66.4246C68.4561 68.0758 74.1564 65.006 75.8201 59.6906L82.3342 38.2989C78.748 37.6914 75.151 36.8135 71.5042 35.7293C68.4996 34.8176 65.5732 33.7777 62.8282 32.5848Z" fill="#59BAEF"/>
<path d="M82.1 4.34338C76.733 2.69218 71.0326 5.762 69.369 11.0775L62.8282 32.5848C65.6248 33.7652 68.4996 34.8176 71.5682 35.7685C75.2151 36.8527 78.812 37.7305 82.3982 38.338L88.8857 17.0619C90.4728 11.6558 87.403 5.95546 82.1 4.34338Z" fill="#66B406"/>
<path d="M59.3346 54.5022L65.623 33.984L71.9914 13.1189C73.616 7.86744 79.1224 4.89905 84.3738 6.5236C84.8488 6.6818 85.3238 6.84 85.7597 7.06224C84.8772 6.34738 83.8258 5.83712 82.6962 5.45495C77.5088 3.86952 71.9383 6.79879 70.3653 12.0377L63.8938 32.9278L57.657 53.4336C56.2297 58.146 58.5327 63.1581 62.8539 65.2258C59.6426 62.7807 58.1189 58.5084 59.3346 54.5022Z" fill="white"/>
</g>
<g clip-path="url(#clip1)">
<path d="M24.2118 27.2925L6.86728 40.9547C2.45295 44.4253 1.72903 50.8591 5.15018 55.2543C8.62083 59.6686 15.0546 60.3925 19.4498 56.9714L36.989 43.1C34.3875 40.5579 31.9312 37.7875 29.5514 34.8191C27.6013 32.3582 25.7884 29.8366 24.2118 27.2925Z" fill="#59BAEF"/>
<path d="M56.1383 15.0584C52.6677 10.644 46.2339 9.9201 41.8387 13.3413L24.2118 27.2925C25.8379 29.8557 27.6013 32.3582 29.5818 34.8877C31.9615 37.8561 34.4178 40.6265 37.0193 43.1686L54.4707 29.3771C58.8547 25.8378 59.5786 19.404 56.1383 15.0584Z" fill="#66B406"/>
<path d="M8.85569 43.3166L25.7118 30.0345L42.8313 16.5129C47.1579 13.1221 53.3745 13.819 56.7653 18.1456C57.0656 18.5461 57.3659 18.9467 57.5975 19.3777C57.2794 18.2874 56.7059 17.2692 55.9951 16.3116C52.6347 12.0537 46.3877 11.2882 42.1106 14.6981L24.8922 28.1814L8.08553 41.4826C4.22819 44.5428 3.26602 49.9741 5.63985 54.135C4.3932 50.2961 5.57448 45.9167 8.85569 43.3166Z" fill="white"/>
</g>
<defs>
<clipPath id="clip0">
<rect width="43.0372" height="58.6919" fill="white" transform="translate(44.779 11.8875) rotate(-13.5844)"/>
</clipPath>
<clipPath id="clip1">
<rect width="43.0372" height="58.6919" fill="white" transform="translate(21.1667) rotate(21.1396)"/>
</clipPath>
</defs>
</svg>
