<svg width="48" height="48" viewBox="0 0 48 48" fill="none" xmlns="http://www.w3.org/2000/svg">
<g clip-path="url(#clip0)">
<path d="M39.5625 4.3125C37.7663 4.3125 36.0496 4.87284 34.6022 5.93025L25.1786 12.7651C24.8737 12.9862 24.6705 13.3213 24.6156 13.6934C24.5579 14.0656 24.654 14.4459 24.8793 14.7467L33.3168 25.9967C33.5942 26.3647 34.0172 26.5597 34.4429 26.5597C34.7313 26.5597 35.0197 26.4718 35.2696 26.2906L44.5228 19.5697C46.7009 17.9877 48 15.4389 48 12.75C48 8.09728 44.2152 4.3125 39.5625 4.3125ZM14.6832 25.9968L23.1207 14.7468C23.3459 14.446 23.4421 14.0656 23.3844 13.6935C23.3295 13.3213 23.1262 12.9862 22.8214 12.7652L13.4005 5.93297C11.9504 4.87284 10.2338 4.3125 8.4375 4.3125C3.78478 4.3125 0 8.09728 0 12.75C0 15.4389 1.29909 17.9877 3.47719 19.5683L12.7304 26.2906C12.9803 26.4719 13.2687 26.5597 13.5571 26.5597C13.9828 26.5598 14.4058 26.3648 14.6832 25.9968ZM28.2188 28.2188C28.2188 25.8924 26.3263 24 24 24C21.6737 24 19.7812 25.8924 19.7812 28.2188C19.7812 30.5451 21.6737 32.4375 24 32.4375C26.3263 32.4375 28.2188 30.5451 28.2188 28.2188ZM18.375 35.25C16.0487 35.25 14.1562 37.1424 14.1562 39.4688C14.1562 41.7951 16.0487 43.6875 18.375 43.6875C20.7013 43.6875 22.5938 41.7951 22.5938 39.4688C22.5938 37.1424 20.7013 35.25 18.375 35.25ZM29.625 35.25C27.2987 35.25 25.4062 37.1424 25.4062 39.4688C25.4062 41.7951 27.2987 43.6875 29.625 43.6875C31.9513 43.6875 33.8438 41.7951 33.8438 39.4688C33.8438 37.1424 31.9513 35.25 29.625 35.25Z" fill="url(#paint0_linear)"/>
<path d="M24 18.375C23.2234 18.375 22.5938 19.0046 22.5938 19.7812C22.5938 20.5579 23.2234 21.1875 24 21.1875C24.7766 21.1875 25.4062 20.5579 25.4062 19.7812C25.4062 19.0046 24.7766 18.375 24 18.375ZM32.4375 29.625C31.6609 29.625 31.0312 30.2546 31.0312 31.0312C31.0312 31.8079 31.6609 32.4375 32.4375 32.4375C33.2141 32.4375 33.8438 31.8079 33.8438 31.0312C33.8438 30.2546 33.2141 29.625 32.4375 29.625ZM15.5625 29.625C14.7859 29.625 14.1562 30.2546 14.1562 31.0312C14.1562 31.8079 14.7859 32.4375 15.5625 32.4375C16.3391 32.4375 16.9688 31.8079 16.9688 31.0312C16.9688 30.2546 16.3391 29.625 15.5625 29.625Z" fill="url(#paint1_linear)"/>
</g>
<defs>
<linearGradient id="paint0_linear" x1="24" y1="43.6875" x2="24" y2="4.3125" gradientUnits="userSpaceOnUse">
<stop stop-color="#2EB9CA"/>
<stop offset="1" stop-color="#31B8C8"/>
</linearGradient>
<linearGradient id="paint1_linear" x1="24" y1="32.4375" x2="24" y2="18.375" gradientUnits="userSpaceOnUse">
<stop stop-color="#54B448"/>
<stop offset="1" stop-color="#54B448"/>
</linearGradient>
<clipPath id="clip0">
<rect width="48" height="48" fill="white"/>
</clipPath>
</defs>
</svg>
