<svg width="48" height="47" viewBox="0 0 48 47" fill="none" xmlns="http://www.w3.org/2000/svg">
<g clip-path="url(#clip0)">
<path d="M39.5625 4.16125C37.7663 4.16125 36.0496 4.70195 34.6022 5.72226L25.1786 12.3174C24.8737 12.5307 24.6705 12.8541 24.6156 13.2131C24.5579 13.5723 24.654 13.9393 24.8793 14.2295L33.3168 25.0849C33.5942 25.4401 34.0172 25.6282 34.4429 25.6282C34.7313 25.6282 35.0197 25.5434 35.2696 25.3685L44.5228 18.8834C46.7009 17.3568 48 14.8974 48 12.3028C48 7.81329 44.2152 4.16125 39.5625 4.16125ZM14.6832 25.085L23.1207 14.2296C23.3459 13.9394 23.4421 13.5723 23.3844 13.2132C23.3295 12.8541 23.1262 12.5308 22.8214 12.3175L13.4005 5.72489C11.9504 4.70195 10.2338 4.16125 8.4375 4.16125C3.78478 4.16125 0 7.81329 0 12.3028C0 14.8974 1.29909 17.3568 3.47719 18.882L12.7304 25.3685C12.9803 25.5435 13.2687 25.6282 13.5571 25.6282C13.9828 25.6283 14.4058 25.4401 14.6832 25.085ZM28.2188 27.229C28.2188 24.9843 26.3263 23.1582 24 23.1582C21.6737 23.1582 19.7812 24.9843 19.7812 27.229C19.7812 29.4737 21.6737 31.2998 24 31.2998C26.3263 31.2998 28.2188 29.4737 28.2188 27.229ZM18.375 34.0137C16.0487 34.0137 14.1562 35.8397 14.1562 38.0844C14.1562 40.3292 16.0487 42.1552 18.375 42.1552C20.7013 42.1552 22.5938 40.3292 22.5938 38.0844C22.5938 35.8397 20.7013 34.0137 18.375 34.0137ZM29.625 34.0137C27.2987 34.0137 25.4062 35.8397 25.4062 38.0844C25.4062 40.3292 27.2987 42.1552 29.625 42.1552C31.9513 42.1552 33.8438 40.3292 33.8438 38.0844C33.8438 35.8397 31.9513 34.0137 29.625 34.0137Z" fill="url(#paint0_linear)"/>
<path d="M24 17.7306C23.2234 17.7306 22.5938 18.3381 22.5938 19.0875C22.5938 19.8369 23.2234 20.4444 24 20.4444C24.7766 20.4444 25.4062 19.8369 25.4062 19.0875C25.4062 18.3381 24.7766 17.7306 24 17.7306ZM32.4375 28.586C31.6609 28.586 31.0312 29.1936 31.0312 29.9429C31.0312 30.6923 31.6609 31.2999 32.4375 31.2999C33.2141 31.2999 33.8438 30.6923 33.8438 29.9429C33.8438 29.1936 33.2141 28.586 32.4375 28.586ZM15.5625 28.586C14.7859 28.586 14.1562 29.1936 14.1562 29.9429C14.1562 30.6923 14.7859 31.2999 15.5625 31.2999C16.3391 31.2999 16.9688 30.6923 16.9688 29.9429C16.9688 29.1936 16.3391 28.586 15.5625 28.586Z" fill="url(#paint1_linear)"/>
</g>
<defs>
<linearGradient id="paint0_linear" x1="24" y1="42.1552" x2="24" y2="4.16125" gradientUnits="userSpaceOnUse">
<stop stop-color="white"/>
<stop offset="1" stop-color="white"/>
</linearGradient>
<linearGradient id="paint1_linear" x1="24" y1="31.2999" x2="24" y2="17.7306" gradientUnits="userSpaceOnUse">
<stop stop-color="#54B448"/>
<stop offset="1" stop-color="#54B448"/>
</linearGradient>
<clipPath id="clip0">
<rect width="48" height="46.3165" fill="white"/>
</clipPath>
</defs>
</svg>
