<svg width="404" height="283" viewBox="0 0 404 283" fill="none" xmlns="http://www.w3.org/2000/svg">
<path opacity="0.08" d="M188.865 199.689L176.422 180.75C169.201 169.761 172.204 155.11 183.137 147.977L201.981 135.686C212.914 128.553 215.917 113.902 208.696 102.913C201.476 91.9236 186.798 88.8052 175.864 95.9374L157.021 108.229C146.087 115.361 131.41 112.243 124.189 101.254L111.438 81.8474C104.218 70.8582 89.5401 67.7398 78.6063 74.872C67.6725 82.0043 64.6702 96.6557 71.8905 107.645L84.3341 126.584C91.5545 137.573 88.5521 152.224 77.6184 159.357L58.775 171.648C47.8412 178.781 44.8389 193.432 52.0592 204.421C59.2796 215.41 73.9574 218.529 84.8912 211.397L103.735 199.105C114.668 191.973 129.346 195.091 136.567 206.08L149.01 225.019C156.23 236.008 170.908 239.127 181.842 231.994C192.851 225.481 196.085 210.678 188.865 199.689Z" fill="white"/>
<path opacity="0.08" d="M331.373 176.466L318.929 157.527C311.709 146.538 314.711 131.887 325.645 124.754L344.721 112.311C355.655 105.178 358.657 90.5271 351.437 79.5378C344.216 68.5486 329.539 65.4302 318.605 72.5625L299.761 84.8543C288.828 91.9865 274.15 88.8681 266.929 77.8789L254.486 58.94C247.266 47.9508 232.588 44.8324 221.654 51.9646C210.72 59.0969 207.718 73.7483 214.938 84.7376L227.382 103.676C234.602 114.666 231.6 129.317 220.666 136.449L201.823 148.741C190.889 155.873 187.886 170.525 195.107 181.514C202.327 192.503 217.005 195.622 227.939 188.489L246.782 176.198C257.716 169.065 272.394 172.184 279.614 183.173L292.058 202.112C299.278 213.101 313.956 216.219 324.89 209.087C335.591 202.107 338.593 187.455 331.373 176.466Z" fill="white"/>
</svg>
