<svg width="60" height="60" viewBox="0 0 60 60" fill="none" xmlns="http://www.w3.org/2000/svg">
<rect opacity="0.1" width="60" height="60" rx="30" fill="#54B448"/>
<path d="M30 16.8751C27.9869 16.8671 25.9998 17.3294 24.1969 18.2251C24.0773 18.2733 23.969 18.3457 23.8787 18.4377C23.7884 18.5297 23.718 18.6393 23.672 18.7597C23.626 18.8801 23.6053 19.0087 23.6112 19.1375C23.6171 19.2663 23.6495 19.3924 23.7064 19.5081C23.7632 19.6238 23.8434 19.7265 23.9417 19.8098C24.0401 19.8931 24.1545 19.9553 24.278 19.9924C24.4015 20.0294 24.5312 20.0407 24.6592 20.0253C24.7872 20.01 24.9107 19.9684 25.0219 19.9032C26.7377 19.0566 28.6411 18.6615 30.5521 18.7554C32.4631 18.8493 34.3186 19.4291 35.9431 20.4398C37.5677 21.4506 38.9076 22.859 39.8362 24.5318C40.7648 26.2047 41.2514 28.0868 41.25 30.0001C41.25 34.5751 38.7937 39.6751 34.6875 40.3126C34.2514 40.4168 33.7978 40.4238 33.3587 40.333C32.9196 40.2423 32.5059 40.0561 32.1469 39.7876C31.331 38.8861 30.8974 37.7028 30.9375 36.4876C32.4981 36.2624 33.9254 35.4828 34.9583 34.2915C35.9912 33.1002 36.5606 31.5768 36.5625 30.0001V24.3751C36.5625 24.1265 36.4637 23.888 36.2879 23.7122C36.1121 23.5364 35.8736 23.4376 35.625 23.4376H32.8125C32.5639 23.4376 32.3254 23.5364 32.1496 23.7122C31.9738 23.888 31.875 24.1265 31.875 24.3751C31.875 24.6237 31.9738 24.8622 32.1496 25.038C32.3254 25.2138 32.5639 25.3126 32.8125 25.3126H34.6875V30.0001C34.6875 31.2433 34.1936 32.4356 33.3146 33.3147C32.4355 34.1937 31.2432 34.6876 30 34.6876C28.7568 34.6876 27.5645 34.1937 26.6854 33.3147C25.8064 32.4356 25.3125 31.2433 25.3125 30.0001V25.3126H27.1875C27.4361 25.3126 27.6746 25.2138 27.8504 25.038C28.0262 24.8622 28.125 24.6237 28.125 24.3751C28.125 24.1265 28.0262 23.888 27.8504 23.7122C27.6746 23.5364 27.4361 23.4376 27.1875 23.4376H24.375C24.1264 23.4376 23.8879 23.5364 23.7121 23.7122C23.5363 23.888 23.4375 24.1265 23.4375 24.3751V30.0001C23.4393 31.5768 24.0088 33.1002 25.0417 34.2915C26.0746 35.4828 27.5019 36.2624 29.0625 36.4876C29.1844 38.6438 29.7937 40.2376 30.8812 41.1751C31.7296 41.884 32.8147 42.2457 33.9187 42.1876C34.2636 42.1879 34.608 42.166 34.95 42.122C40.2562 41.3532 43.125 35.297 43.125 30.0001C43.125 26.5191 41.7422 23.1807 39.2808 20.7193C36.8194 18.2579 33.481 16.8751 30 16.8751V16.8751Z" fill="#54B448"/>
<path d="M21.5625 35.6249C21.1603 35.631 20.7617 35.7006 20.3812 35.8312C19.0961 33.7124 18.5465 31.2286 18.8177 28.7655C19.089 26.3023 20.1659 23.9976 21.8812 22.2093C21.9771 22.123 22.0542 22.0179 22.1076 21.9005C22.1611 21.7832 22.1897 21.656 22.1917 21.5271C22.1938 21.3981 22.1692 21.2701 22.1195 21.1511C22.0698 21.0321 21.9961 20.9246 21.903 20.8353C21.8099 20.7461 21.6994 20.677 21.5783 20.6325C21.4573 20.5879 21.3284 20.5688 21.1996 20.5763C21.0709 20.5838 20.9451 20.6178 20.8301 20.6762C20.7151 20.7346 20.6133 20.8161 20.5312 20.9155C18.5233 23.0082 17.265 25.707 16.9529 28.5903C16.6408 31.4737 17.2925 34.3792 18.8062 36.853C18.2274 37.49 17.8854 38.3068 17.8375 39.1662C17.7896 40.0255 18.0387 40.8752 18.5432 41.5726C19.0476 42.27 19.7766 42.7727 20.6078 42.9962C21.439 43.2197 22.3217 43.1505 23.1079 42.8002C23.8941 42.4499 24.5359 41.8398 24.9255 41.0723C25.3151 40.3048 25.4288 39.4267 25.2476 38.5853C25.0664 37.7439 24.6012 36.9904 23.9302 36.4514C23.2592 35.9123 22.4232 35.6205 21.5625 35.6249V35.6249ZM21.5625 41.2499C21.1917 41.2499 20.8291 41.1399 20.5208 40.9339C20.2125 40.7279 19.9721 40.435 19.8302 40.0924C19.6883 39.7498 19.6512 39.3728 19.7235 39.0091C19.7959 38.6454 19.9744 38.3113 20.2367 38.0491C20.4989 37.7869 20.833 37.6083 21.1967 37.5359C21.5604 37.4636 21.9374 37.5007 22.28 37.6426C22.6226 37.7845 22.9155 38.0249 23.1215 38.3332C23.3275 38.6416 23.4375 39.0041 23.4375 39.3749C23.4375 39.8722 23.24 40.3491 22.8883 40.7007C22.5367 41.0524 22.0598 41.2499 21.5625 41.2499Z" fill="#54B448"/>
</svg>
