<svg width="20" height="20" viewBox="0 0 20 20" fill="none" xmlns="http://www.w3.org/2000/svg">
<g opacity="0.54">
<path fill-rule="evenodd" clip-rule="evenodd" d="M13.8917 10.9419C15.0334 11.7169 15.8334 12.7669 15.8334 14.1669V16.6669H19.1667V14.1669C19.1667 12.3502 16.1917 11.2752 13.8917 10.9419Z" fill="#4E4E4E"/>
<path d="M7.50002 10.0002C9.34097 10.0002 10.8334 8.50778 10.8334 6.66683C10.8334 4.82588 9.34097 3.3335 7.50002 3.3335C5.65907 3.3335 4.16669 4.82588 4.16669 6.66683C4.16669 8.50778 5.65907 10.0002 7.50002 10.0002Z" fill="#4E4E4E"/>
<path fill-rule="evenodd" clip-rule="evenodd" d="M12.5 10.0002C14.3417 10.0002 15.8334 8.5085 15.8334 6.66683C15.8334 4.82516 14.3417 3.3335 12.5 3.3335C12.1084 3.3335 11.7417 3.41683 11.3917 3.5335C12.0834 4.39183 12.5 5.4835 12.5 6.66683C12.5 7.85016 12.0834 8.94183 11.3917 9.80016C11.7417 9.91683 12.1084 10.0002 12.5 10.0002Z" fill="#4E4E4E"/>
<path fill-rule="evenodd" clip-rule="evenodd" d="M7.50001 10.8335C5.27501 10.8335 0.833344 11.9502 0.833344 14.1668V16.6668H14.1667V14.1668C14.1667 11.9502 9.72501 10.8335 7.50001 10.8335Z" fill="#4E4E4E"/>
</g>
</svg>
