<svg width="20" height="20" viewBox="0 0 20 20" fill="none" xmlns="http://www.w3.org/2000/svg">
<g opacity="0.54">
<path fill-rule="evenodd" clip-rule="evenodd" d="M10.8333 7.91667H15V6.25H10.8333V7.91667ZM10.8333 13.75H15V12.0833H10.8333V13.75ZM15.8333 17.5H4.16667C3.25 17.5 2.5 16.75 2.5 15.8333V4.16667C2.5 3.25 3.25 2.5 4.16667 2.5H15.8333C16.75 2.5 17.5 3.25 17.5 4.16667V15.8333C17.5 16.75 16.75 17.5 15.8333 17.5ZM5 9.16667H9.16667V5H5V9.16667ZM5.83333 5.83333H8.33333V8.33333H5.83333V5.83333ZM5 15H9.16667V10.8333H5V15ZM5.83333 11.6667H8.33333V14.1667H5.83333V11.6667Z" fill="#4E4E4E"/>
</g>
</svg>
