<svg width="80" height="80" viewBox="0 0 80 80" fill="none" xmlns="http://www.w3.org/2000/svg">
<circle cx="40" cy="40" r="40" fill="#3150A9"/>
<path d="M55.3 51.3166C55.3 51.6924 55.1508 52.0527 54.8851 52.3184C54.6194 52.5841 54.2591 52.7333 53.8833 52.7333H36.8833C36.5076 52.7333 36.1473 52.5841 35.8816 52.3184C35.6159 52.0527 35.4667 51.6924 35.4667 51.3166C35.4667 49.0623 36.3622 46.9003 37.9563 45.3062C39.5503 43.7122 41.7123 42.8166 43.9667 42.8166H46.8C49.0543 42.8166 51.2164 43.7122 52.8104 45.3062C54.4045 46.9003 55.3 49.0623 55.3 51.3166ZM45.3833 30.0667C44.2626 30.0667 43.167 30.399 42.2351 31.0217C41.3032 31.6443 40.5769 32.5293 40.148 33.5648C39.7191 34.6002 39.6069 35.7396 39.8256 36.8388C40.0442 37.9381 40.5839 38.9478 41.3764 39.7403C42.1689 40.5328 43.1786 41.0724 44.2778 41.2911C45.3771 41.5097 46.5164 41.3975 47.5519 40.9686C48.5873 40.5397 49.4723 39.8134 50.095 38.8815C50.7177 37.9497 51.05 36.8541 51.05 35.7333C51.05 34.2304 50.453 32.7891 49.3903 31.7264C48.3276 30.6637 46.8862 30.0667 45.3833 30.0667ZM32.6333 30.0667C31.5126 30.0667 30.417 30.399 29.4851 31.0217C28.5532 31.6443 27.8269 32.5293 27.398 33.5648C26.9691 34.6002 26.8569 35.7396 27.0755 36.8388C27.2942 37.9381 27.8339 38.9478 28.6264 39.7403C29.4189 40.5328 30.4286 41.0724 31.5278 41.2911C32.627 41.5097 33.7664 41.3975 34.8019 40.9686C35.8373 40.5397 36.7223 39.8134 37.345 38.8815C37.9677 37.9497 38.3 36.8541 38.3 35.7333C38.3 34.2304 37.703 32.7891 36.6403 31.7264C35.5776 30.6637 34.1362 30.0667 32.6333 30.0667ZM32.6333 51.3166C32.6312 49.8286 32.9244 48.3549 33.4959 46.981C34.0673 45.607 34.9057 44.3601 35.9625 43.3125C35.0977 42.986 34.1811 42.818 33.2567 42.8166H32.01C29.9221 42.8204 27.9208 43.6515 26.4445 45.1278C24.9681 46.6042 24.1371 48.6054 24.1333 50.6933V51.3166C24.1333 51.6924 24.2826 52.0527 24.5483 52.3184C24.8139 52.5841 25.1743 52.7333 25.55 52.7333H32.8883C32.7234 52.279 32.6372 51.7999 32.6333 51.3166Z" fill="white"/>
</svg>
