<svg width="24" height="24" viewBox="0 0 24 24" fill="none" xmlns="http://www.w3.org/2000/svg">
<circle cx="12" cy="12" r="11.5" fill="#FFC107" stroke="white"/>
<path d="M5.55859 14.5469H18.4297L18.3925 14.9201C18.2774 15.8411 17.6226 16.3789 16.9571 16.3789H7.03122C6.2791 16.3789 5.69036 15.7314 5.5966 14.927C5.59556 14.9186 5.60073 14.9696 5.55859 14.5469Z" fill="white"/>
<path d="M18.9912 8.92238L18.5119 13.7267H5.47725L5.00918 9.02437C4.88389 7.92168 6.07326 7.41202 6.62235 8.043C7.94341 9.56627 8.08483 9.86697 8.52862 9.81406C8.69542 9.79377 8.81461 9.71904 8.9136 9.62784C11.6032 7.04742 11.4273 7.21451 11.455 7.19261C11.817 6.91414 12.2825 6.96008 12.5552 7.18714C15.2729 9.47073 15.147 9.37016 15.2077 9.40472C15.4614 9.55054 15.7607 9.53198 16.0164 9.28113C17.5267 7.79713 17.431 7.8896 17.459 7.86718C18.1499 7.32927 19.1018 7.95435 18.9912 8.92238Z" fill="white"/>
</svg>
