<svg width="16" height="16" viewBox="0 0 16 16" fill="none" xmlns="http://www.w3.org/2000/svg">
<path d="M4.80799 13.2533C4.99732 13.3913 5.22609 13.3479 5.50615 13.1428L8.25145 11.1312L10.9967 13.1428C11.2768 13.3479 11.5095 13.3913 11.6949 13.2533C11.8763 13.1152 11.9197 12.8864 11.8093 12.5551L10.7325 9.32859L13.4975 7.34062C13.7775 7.13945 13.888 6.9304 13.813 6.70951C13.742 6.49651 13.5369 6.38213 13.1819 6.38607L9.78976 6.40579L8.75239 3.16744C8.64589 2.83217 8.48022 2.6665 8.25145 2.6665C8.02267 2.6665 7.85701 2.83217 7.75051 3.16744L6.71313 6.40579L3.32095 6.38607C2.9699 6.38213 2.76085 6.49651 2.68985 6.70951C2.6149 6.9304 2.72535 7.13945 3.0054 7.34062L5.77042 9.32859L4.69755 12.5551C4.58316 12.8864 4.62655 13.1152 4.80799 13.2533Z" fill="#FDB30B"/>
</svg>
