<svg width="80" height="80" viewBox="0 0 80 80" fill="none" xmlns="http://www.w3.org/2000/svg">
<circle cx="40" cy="40" r="40" fill="#54B448"/>
<path d="M43.3984 24.9414H36.6016C34.8354 24.9414 33.3984 26.3783 33.3984 28.1446V28.7148H35.2734V28.1446C35.2734 27.4122 35.8693 26.8164 36.6016 26.8164H43.3984C44.1307 26.8164 44.7266 27.4122 44.7266 28.1446V28.7148H46.6016V28.1446C46.6016 26.3784 45.1646 24.9414 43.3984 24.9414Z" fill="white"/>
<path d="M40.9453 40.9414V38.1133H39.0547V40.9414C39.0547 41.4592 38.6349 41.8789 38.1172 41.8789H35.2891V43.7695H38.1172C38.6349 43.7695 39.0547 44.1893 39.0547 44.707V47.5352H40.9453V44.707C40.9453 44.1893 41.3651 43.7695 41.8828 43.7695H44.7109V41.8789H41.8828C41.3651 41.8789 40.9453 41.4592 40.9453 40.9414Z" fill="white"/>
<path d="M24 35.3555V50.2931C24 52.6 25.6478 54.5288 27.8281 54.9655V30.683C25.6478 31.1197 24 33.0485 24 35.3555Z" fill="white"/>
<path d="M52.1719 30.683V54.9655C54.3522 54.5288 56 52.6 56 50.293V35.3555C56 33.0485 54.3522 31.1197 52.1719 30.683Z" fill="white"/>
<path d="M50.2969 30.59H29.7031V55.0587H50.2969V30.59ZM46.5859 44.7071C46.5859 45.2248 46.1662 45.6446 45.6484 45.6446H42.8203V48.4727C42.8203 48.9905 42.4006 49.4102 41.8828 49.4102H38.1172C37.5994 49.4102 37.1797 48.9905 37.1797 48.4727V45.6446H34.3516C33.8338 45.6446 33.4141 45.2248 33.4141 44.7071V40.9415C33.4141 40.4237 33.8338 40.004 34.3516 40.004H37.1797V37.1758C37.1797 36.6581 37.5994 36.2383 38.1172 36.2383H41.8828C42.4006 36.2383 42.8203 36.6581 42.8203 37.1758V40.004H45.6484C46.1662 40.004 46.5859 40.4237 46.5859 40.9415V44.7071Z" fill="white"/>
</svg>
