<svg width="15" height="15" viewBox="0 0 15 15" fill="none" xmlns="http://www.w3.org/2000/svg">
<path d="M7.1998 3.86691C6.46995 3.86691 5.7565 4.08412 5.14965 4.49106C4.5428 4.898 4.06982 5.4764 3.79052 6.15311C3.51122 6.82983 3.43815 7.57447 3.58053 8.29287C3.72292 9.01127 4.07437 9.67116 4.59045 10.1891C5.10653 10.707 5.76406 11.0598 6.47988 11.2027C7.19571 11.3456 7.93768 11.2722 8.61197 10.9919C9.28626 10.7116 9.86259 10.2369 10.2681 9.62789C10.6736 9.01886 10.89 8.30284 10.89 7.57036C10.8908 7.0838 10.7959 6.60186 10.6107 6.15218C10.4255 5.7025 10.1537 5.29392 9.81091 4.94986C9.46809 4.60581 9.06098 4.33304 8.61291 4.14721C8.16484 3.96137 7.68463 3.86612 7.1998 3.86691ZM7.1998 9.97773C6.72526 9.97773 6.26137 9.8365 5.8668 9.57191C5.47223 9.30732 5.16471 8.93125 4.98311 8.49125C4.80151 8.05125 4.75399 7.56709 4.84657 7.09999C4.93915 6.63289 5.16766 6.20383 5.50322 5.86707C5.83877 5.53031 6.26629 5.30098 6.73171 5.20806C7.19714 5.11515 7.67957 5.16284 8.11799 5.34509C8.55641 5.52734 8.93113 5.83598 9.19478 6.23197C9.45842 6.62796 9.59914 7.09351 9.59914 7.56976C9.59803 8.20805 9.34488 8.81988 8.89516 9.27122C8.44544 9.72256 7.8358 9.97661 7.1998 9.97773ZM11.9013 3.71702C11.9013 3.88787 11.8508 4.05489 11.7562 4.19695C11.6617 4.33901 11.5272 4.44974 11.3699 4.51512C11.2127 4.5805 11.0396 4.59761 10.8726 4.56428C10.7056 4.53094 10.5523 4.44867 10.4319 4.32786C10.3115 4.20705 10.2295 4.05312 10.1963 3.88555C10.1631 3.71798 10.1801 3.54428 10.2453 3.38643C10.3104 3.22858 10.4208 3.09367 10.5623 2.99875C10.7039 2.90382 10.8703 2.85316 11.0405 2.85316C11.1535 2.85292 11.2655 2.87507 11.3699 2.91832C11.4744 2.96157 11.5693 3.02509 11.6493 3.10522C11.7293 3.18536 11.7927 3.28054 11.8359 3.38532C11.8792 3.49009 11.9014 3.6024 11.9013 3.71581V3.71702ZM14.3456 4.59352C14.3692 3.47001 13.9509 2.3824 13.1813 1.5661C12.3662 0.797249 11.2839 0.378581 10.1654 0.399444C8.97711 0.332021 5.4153 0.332021 4.22703 0.399444C3.10885 0.377063 2.02633 0.794727 1.21106 1.56309C0.444444 2.3805 0.0277309 3.46699 0.050386 4.5893C-0.0167953 5.78185 -0.0167953 9.35647 0.050386 10.549C0.02635 11.6726 0.444195 12.7604 1.21346 13.577C2.02895 14.3454 3.11105 14.764 4.22943 14.7437C5.4177 14.8111 8.97951 14.8111 10.1678 14.7437C11.286 14.767 12.3684 14.348 13.1813 13.577C13.9474 12.7589 14.3646 11.6727 14.3438 10.5502C14.4128 9.35647 14.4128 5.78486 14.3456 4.59231V4.59352ZM12.81 11.8313C12.6876 12.1415 12.5029 12.4231 12.2676 12.6588C12.0322 12.8945 11.7512 13.0792 11.4418 13.2014C10.4947 13.5782 8.24651 13.4916 7.1992 13.4916C6.15189 13.4916 3.90012 13.5752 2.95658 13.2014C2.64733 13.0791 2.36639 12.8944 2.13115 12.6587C1.8959 12.423 1.71136 12.1414 1.58896 11.8313C1.21346 10.8807 1.29984 8.62445 1.29984 7.57337C1.29984 6.5223 1.21646 4.26242 1.58896 3.31549C1.71109 3.00473 1.89556 2.72248 2.13093 2.48627C2.3663 2.25006 2.64753 2.06492 2.95718 1.94235C3.90432 1.5655 6.15249 1.65219 7.1998 1.65219C8.24711 1.65219 10.4989 1.56851 11.4424 1.94235C11.7521 2.06492 12.0333 2.25006 12.2687 2.48627C12.504 2.72248 12.6885 3.00473 12.8106 3.31549C13.1861 4.26604 13.0998 6.5223 13.0998 7.57337C13.0998 8.62445 13.1861 10.8807 12.81 11.8313Z" fill="white"/>
</svg>
