<svg width="20" height="20" viewBox="0 0 20 20" fill="none" xmlns="http://www.w3.org/2000/svg">
<g opacity="1">
<path d="M3.89575 11.4375H10.479L9.06247 8.96878V4.875C9.58025 4.875 9.99997 4.45522 9.99997 3.9375C9.99997 3.41972 9.58025 3 9.06247 3H5.31247C4.79469 3 4.37497 3.41972 4.37497 3.9375C4.37497 4.45522 4.79469 4.875 5.31247 4.875V8.96878L3.89575 11.4375Z" fill="#2CB9CA"/>
<path d="M11.0482 12.375H3.35775L3.21459 12.6245V12.6249L2.24809 14.2555C2.08559 14.5384 2 14.8607 2 15.1875C2 16.2216 2.84091 17.0625 3.875 17.0625H10.4688C11.5028 17.0625 12.375 16.2216 12.375 15.1875C12.375 14.8607 12.2894 14.5384 12.1269 14.255L11.0482 12.375Z" fill="#2CB9CA"/>
<path d="M13.3125 15.1875C13.3125 16.2216 14.1534 17.0625 15.1875 17.0625C16.2216 17.0625 17.0625 16.2216 17.0625 15.1875V12.375H13.3125V15.1875Z" fill="#2CB9CA"/>
<path d="M17.0625 6.75H13.3125C12.7947 6.75 12.375 7.16972 12.375 7.6875C12.375 8.20522 12.7947 8.625 13.3125 8.625V11.4375H17.0625V8.625C17.5803 8.625 18 8.20522 18 7.6875C18 7.16972 17.5803 6.75 17.0625 6.75Z" fill="#2CB9CA"/>
</g>
</svg>
