<svg width="190" height="152" viewBox="0 0 190 152" fill="none" xmlns="http://www.w3.org/2000/svg">
<g opacity="0.1">
<path d="M155.782 0C148.709 0 141.95 2.15913 136.25 6.23354L99.1439 32.5697C97.9435 33.4215 97.1431 34.7129 96.9268 36.1467C96.6998 37.5808 97.0782 39.0463 97.9652 40.2052L131.189 83.5539C132.281 84.9721 133.947 85.7235 135.623 85.7235C136.759 85.7235 137.894 85.3847 138.878 84.6864L175.314 58.7895C183.891 52.6936 189.006 42.8726 189.006 32.5115C189.006 14.5836 174.103 0 155.782 0ZM57.817 83.5543L91.0407 40.2056C91.9274 39.0467 92.3061 37.5808 92.0791 36.147C91.8628 34.7129 91.0625 33.4219 89.862 32.57L52.7662 6.24402C47.0562 2.15913 40.2967 0 33.2237 0C14.903 0 0 14.5836 0 32.5115C0 42.8726 5.11534 52.6936 13.6919 58.7841L50.1275 84.6864C51.1117 85.385 52.2472 85.7235 53.3827 85.7235C55.059 85.7239 56.7247 84.9725 57.817 83.5543ZM111.115 92.116C111.115 83.1522 103.663 75.8602 94.503 75.8602C85.3428 75.8602 77.8911 83.1522 77.8911 92.116C77.8911 101.08 85.3428 108.372 94.503 108.372C103.663 108.372 111.115 101.08 111.115 92.116ZM72.3538 119.209C63.1937 119.209 55.742 126.501 55.742 135.465C55.742 144.428 63.1937 151.72 72.3538 151.72C81.514 151.72 88.9657 144.428 88.9657 135.465C88.9657 126.501 81.514 119.209 72.3538 119.209ZM116.652 119.209C107.492 119.209 100.04 126.501 100.04 135.465C100.04 144.428 107.492 151.72 116.652 151.72C125.812 151.72 133.264 144.428 133.264 135.465C133.264 126.501 125.812 119.209 116.652 119.209Z" fill="url(#paint0_linear)"/>
<path d="M94.503 54.1858C91.4449 54.1858 88.9657 56.6119 88.9657 59.6044C88.9657 62.5969 91.4449 65.023 94.503 65.023C97.561 65.023 100.04 62.5969 100.04 59.6044C100.04 56.6119 97.561 54.1858 94.503 54.1858ZM127.727 97.5345C124.669 97.5345 122.189 99.9606 122.189 102.953C122.189 105.946 124.669 108.372 127.727 108.372C130.785 108.372 133.264 105.946 133.264 102.953C133.264 99.9606 130.785 97.5345 127.727 97.5345ZM61.2793 97.5345C58.2212 97.5345 55.742 99.9606 55.742 102.953C55.742 105.946 58.2212 108.372 61.2793 108.372C64.3373 108.372 66.8166 105.946 66.8166 102.953C66.8166 99.9606 64.3373 97.5345 61.2793 97.5345Z" fill="url(#paint1_linear)"/>
</g>
<defs>
<linearGradient id="paint0_linear" x1="94.503" y1="151.72" x2="94.503" y2="0" gradientUnits="userSpaceOnUse">
<stop stop-color="#2EB9CA"/>
<stop offset="1" stop-color="#31B8C8"/>
</linearGradient>
<linearGradient id="paint1_linear" x1="94.503" y1="108.372" x2="94.503" y2="54.1858" gradientUnits="userSpaceOnUse">
<stop stop-color="#54B448"/>
<stop offset="1" stop-color="#54B448"/>
</linearGradient>
</defs>
</svg>
