<svg width="15" height="15" viewBox="0 0 15 15" fill="none" xmlns="http://www.w3.org/2000/svg">
<path d="M3.24449 14.802H0.262121V5.15634H3.24449V14.802ZM1.75091 3.84039C1.40659 3.84265 1.06935 3.74231 0.781901 3.55208C0.49445 3.36184 0.269719 3.09027 0.136171 2.77176C0.00262274 2.45325 -0.033734 2.10213 0.0317051 1.76287C0.0971442 1.4236 0.261435 1.11146 0.50377 0.865974C0.746105 0.620488 1.05558 0.452702 1.393 0.383865C1.73043 0.315029 2.08062 0.34824 2.39922 0.479291C2.71782 0.610343 2.9905 0.83334 3.18272 1.12004C3.37495 1.40674 3.47807 1.74424 3.47903 2.0898C3.47936 2.55138 3.29791 2.99438 2.97422 3.32229C2.65052 3.65019 2.21082 3.83642 1.75091 3.84039ZM14.4152 14.802H11.437V10.1065C11.437 8.98741 11.4142 7.55227 9.88525 7.55227C8.33348 7.55227 8.09595 8.76829 8.09595 10.0258V14.802H5.11418V5.15634H7.97658V6.47229H8.01857C8.30476 5.98046 8.71859 5.57578 9.21592 5.30141C9.71325 5.02705 10.2755 4.89327 10.8426 4.91434C13.8627 4.91434 14.4182 6.91054 14.4182 9.50392V14.8014L14.4152 14.802Z" fill="white"/>
</svg>
