<svg width="24" height="24" viewBox="0 0 24 24" fill="none" xmlns="http://www.w3.org/2000/svg">
<g clip-path="url(#clip0)">
<path d="M8.99971 11.5004C6.24279 11.5004 3.99982 9.25757 3.99982 6.50064C3.99982 3.7437 6.24279 1.50073 8.99971 1.50073C11.7566 1.50073 13.9996 3.7437 13.9996 6.50064C13.9996 9.25757 11.7566 11.5004 8.99971 11.5004V11.5004ZM8.99971 3.00069C7.06985 3.00069 5.49977 4.57058 5.49977 6.50064C5.49977 8.43051 7.06985 10.0004 8.99971 10.0004C10.9296 10.0004 12.4997 8.43051 12.4997 6.50064C12.4997 4.57058 10.9296 3.00069 8.99971 3.00069V3.00069Z" fill="#54B448"/>
<path d="M17.2495 22.4999H0.749977C0.335988 22.4999 0 22.164 0 21.75V18.25C0 15.6312 2.13091 13.5002 4.74979 13.5002H13.2496C15.8685 13.5002 17.9994 15.6312 17.9994 18.25V21.75C17.9994 22.164 17.6634 22.4999 17.2495 22.4999V22.4999ZM1.49995 21H16.4995V18.25C16.4995 16.4582 15.0415 15.0002 13.2496 15.0002H4.74979C2.95798 15.0002 1.49995 16.4582 1.49995 18.25V21Z" fill="#54B448"/>
<path d="M23.2493 11.7504H14.7496C14.3356 11.7504 13.9996 11.4145 13.9996 11.0005C13.9996 10.5865 14.3356 10.2505 14.7496 10.2505H23.2493C23.6633 10.2505 23.9992 10.5865 23.9992 11.0005C23.9992 11.4145 23.6633 11.7504 23.2493 11.7504Z" fill="#54B448"/>
<path d="M19.2495 15.7503C19.0574 15.7503 18.8655 15.6773 18.7194 15.5304C18.4264 15.2373 18.4264 14.7623 18.7194 14.4694L22.1893 10.9994L18.7194 7.5295C18.4264 7.23654 18.4264 6.76158 18.7194 6.46862C19.0123 6.17566 19.4873 6.17566 19.7804 6.46862L23.7803 10.4684C24.0732 10.7614 24.0732 11.2365 23.7803 11.5295L19.7804 15.5293C19.6334 15.6773 19.4413 15.7503 19.2495 15.7503V15.7503Z" fill="#54B448"/>
</g>
<defs>
<clipPath id="clip0">
<rect width="24" height="24" fill="white"/>
</clipPath>
</defs>
</svg>
