<svg width="60" height="60" viewBox="0 0 60 60" fill="none" xmlns="http://www.w3.org/2000/svg">
<rect opacity="0.1" width="60" height="60" rx="30" fill="#2CB9CA"/>
<g clip-path="url(#clip0)">
<path d="M35.3572 20.357C35.3572 17.3984 32.9585 15 29.9999 15C27.0412 15 24.6428 17.3984 24.6428 20.357C24.6428 23.3157 27.0412 25.7141 29.9999 25.7141C32.9573 25.7108 35.3536 23.3144 35.3572 20.357ZM26.7856 20.357C26.7856 18.5819 28.2247 17.1428 29.9999 17.1428C31.775 17.1428 33.2141 18.5819 33.2141 20.357C33.2141 22.1322 31.775 23.5713 29.9999 23.5713C28.2255 23.5696 26.7876 22.1314 26.7856 20.357V20.357Z" fill="#2CB9CA"/>
<path d="M15.3046 36.9715C15.0967 37.87 15.3124 38.8142 15.89 39.5329C16.4808 40.2805 17.3818 40.7159 18.3346 40.7141C18.8596 40.7149 19.285 41.1403 19.2858 41.6654V41.9059C19.2875 43.614 20.6717 44.9982 22.3798 44.9999H37.6205C39.3286 44.9982 40.7127 43.614 40.7145 41.9059V41.6654C40.7152 41.1403 41.1406 40.7149 41.6657 40.7141C42.6184 40.7159 43.5194 40.2805 44.1103 39.5329C44.6879 38.8139 44.9036 37.8698 44.6956 36.9715C43.472 31.6215 38.7023 27.8349 33.2141 27.857H26.7856C21.2975 27.8349 16.528 31.6215 15.3046 36.9715V36.9715ZM26.7856 29.9998H33.2141C37.7038 29.9812 41.6062 33.0782 42.6079 37.4547C42.6674 37.7166 42.6026 37.991 42.4321 38.1985C42.2473 38.4338 41.9645 38.5711 41.6652 38.5711C39.9571 38.5729 38.573 39.957 38.5712 41.6651V41.9057C38.5704 42.4308 38.1451 42.8562 37.62 42.8569H22.3798C21.8547 42.8562 21.4293 42.4308 21.4286 41.9057V41.6651C21.4268 39.957 20.0426 38.5729 18.3346 38.5711C18.0352 38.5711 17.7525 38.4338 17.5677 38.1985C17.3971 37.991 17.3321 37.7163 17.3919 37.4547C18.3936 33.0782 22.2959 29.9815 26.7856 29.9998V29.9998Z" fill="#2CB9CA"/>
<path d="M26.7856 37.4999H28.9284V39.6426C28.9284 40.2343 29.408 40.7142 29.9999 40.7142C30.5918 40.7142 31.0714 40.2345 31.0714 39.6426V37.4999H33.2142C33.8058 37.4999 34.2857 37.0202 34.2857 36.4284C34.2857 35.8367 33.806 35.3569 33.2142 35.3569H31.0714V33.2141C31.0714 32.6225 30.5918 32.1426 29.9999 32.1426C29.408 32.1426 28.9284 32.6222 28.9284 33.2141V35.3569H26.7856C26.194 35.3569 25.7141 35.8365 25.7141 36.4284C25.7143 37.0202 26.194 37.4999 26.7856 37.4999V37.4999Z" fill="#2CB9CA"/>
</g>
<defs>
<clipPath id="clip0">
<rect width="30" height="30" fill="white" transform="translate(15 15)"/>
</clipPath>
</defs>
</svg>
