<svg width="20" height="20" viewBox="0 0 20 20" fill="none" xmlns="http://www.w3.org/2000/svg">
<g opacity="0.54">
<path d="M5.13372 2C4.69516 2 4.33429 2.36085 4.33429 2.79941V3.33272C4.33429 3.77127 4.69516 4.13425 5.13372 4.13425H10.9995C11.438 4.13425 11.8005 3.77127 11.8005 3.33272V2.79941C11.8005 2.36085 11.438 2 10.9995 2H5.13372ZM5.13372 4.66648V5.20449C3.95427 5.35586 3 6.37969 3 7.60016V17.186C3 17.6284 3.35892 17.999 3.80099 17.999H10.2985C9.75166 17.5581 9.39907 16.8849 9.39907 16.133C9.39907 15.6405 9.55016 15.1811 9.8079 14.7986H3.5333V8.39908H12.5999V13.7315H13.1332V7.60016C13.1332 6.37904 12.1799 5.35503 10.9995 5.20449V4.66648H5.13372ZM7.53305 9.46619C7.46269 9.46647 7.39529 9.49455 7.34554 9.54431C7.29579 9.59406 7.26772 9.66144 7.26744 9.73179V10.7989H6.20032C6.16513 10.7988 6.13026 10.8056 6.09772 10.819C6.06518 10.8324 6.03561 10.8521 6.01073 10.877C5.98585 10.9019 5.96613 10.9315 5.95273 10.964C5.93932 10.9965 5.93249 11.0314 5.93262 11.0666V12.1332C5.93291 12.2039 5.96127 12.2716 6.01147 12.3214C6.06167 12.3713 6.1296 12.3991 6.20032 12.3988H7.26744V13.4659C7.26772 13.5363 7.29579 13.6037 7.34554 13.6534C7.39529 13.7032 7.46269 13.7313 7.53305 13.7315H8.60016C8.67088 13.7318 8.73881 13.704 8.78901 13.6542C8.83921 13.6043 8.86757 13.5366 8.86786 13.4659V12.3988H9.93237C10.0031 12.3991 10.071 12.3713 10.1212 12.3214C10.1714 12.2716 10.1998 12.2039 10.2001 12.1332V11.0666C10.2002 11.0314 10.1934 10.9965 10.18 10.964C10.1666 10.9315 10.1468 10.9019 10.122 10.877C10.0971 10.8521 10.0675 10.8324 10.035 10.819C10.0024 10.8056 9.96756 10.7988 9.93237 10.7989H8.86786V9.73179C8.86757 9.66108 8.83921 9.59338 8.78901 9.54357C8.73881 9.49376 8.67088 9.46592 8.60016 9.46619H7.53305ZM11.8005 14.2648C10.771 14.2648 9.93237 15.1035 9.93237 16.133C9.93237 17.1624 10.771 17.999 11.8005 17.999H13.6665V14.2648H11.8005ZM14.1998 14.2659V18H16.0658C17.0953 18 17.9339 17.1634 17.9339 16.1339C17.9339 15.1045 17.0953 14.2659 16.0658 14.2659H14.1998Z" fill="#4E4E4E"/>
</g>
</svg>
