<svg width="16" height="16" viewBox="0 0 16 16" fill="none" xmlns="http://www.w3.org/2000/svg">
<path d="M8.23844 10.6397L13.0725 5.8054C13.1416 5.73622 13.1763 5.65661 13.1763 5.56675C13.1763 5.47686 13.1416 5.39729 13.0725 5.32815L12.5538 4.80955C12.4846 4.74029 12.4052 4.70581 12.3151 4.70581C12.2251 4.70581 12.1457 4.74029 12.0765 4.80955L7.99969 8.88641L3.92277 4.80954C3.85362 4.74029 3.77405 4.70581 3.68427 4.70581C3.59427 4.70581 3.5147 4.74029 3.44555 4.80954L2.92703 5.32818C2.85781 5.39733 2.82333 5.4769 2.82333 5.56679C2.82333 5.65664 2.85788 5.73622 2.92703 5.8054L7.76108 10.6394C7.83019 10.7085 7.9098 10.7431 7.99969 10.7431C8.08958 10.7431 8.16915 10.7088 8.23844 10.6397Z" fill="#54B448"/>
</svg>
