<svg width="16" height="16" viewBox="0 0 16 16" fill="none" xmlns="http://www.w3.org/2000/svg">
<g opacity="0.74">
<path d="M10.6399 7.76131L5.80564 2.92729C5.73646 2.85819 5.65685 2.82349 5.567 2.82349C5.47711 2.82349 5.39753 2.85819 5.32839 2.92729L4.80979 3.446C4.74054 3.51515 4.70605 3.59457 4.70605 3.68461C4.70605 3.77464 4.74054 3.85407 4.80979 3.92322L8.88665 8.00007L4.80979 12.077C4.74054 12.1461 4.70605 12.2257 4.70605 12.3155C4.70605 12.4055 4.74054 12.4851 4.80979 12.5542L5.32843 13.0727C5.39757 13.1419 5.47714 13.1764 5.56703 13.1764C5.65689 13.1764 5.73646 13.1419 5.80564 13.0727L10.6396 8.23867C10.7088 8.16957 10.7433 8.08996 10.7433 8.00007C10.7433 7.91017 10.709 7.8306 10.6399 7.76131Z" fill="#4E4E4E"/>
</g>
</svg>
