<svg width="60" height="60" viewBox="0 0 60 60" fill="none" xmlns="http://www.w3.org/2000/svg">
<rect opacity="0.1" width="60" height="60" rx="30" fill="#EB5757"/>
<path d="M19.7947 43.125H31.4923C31.8299 43.1251 32.1628 43.0459 32.4642 42.8938C32.7656 42.7418 33.0271 42.5211 33.2276 42.2496C33.4282 41.9781 33.5622 41.6632 33.6189 41.3305C33.6756 40.9977 33.6534 40.6562 33.5541 40.3336L31.9969 35.2744C31.8634 34.832 31.5905 34.4447 31.219 34.17C30.8474 33.8953 30.3971 33.748 29.935 33.75H21.3519C20.8902 33.7483 20.4402 33.8955 20.0687 34.1699C19.6973 34.4443 19.4243 34.8311 19.2902 35.273L17.7328 40.334C17.6337 40.6566 17.6117 40.9979 17.6686 41.3306C17.7254 41.6633 17.8594 41.978 18.06 42.2494C18.2605 42.5208 18.5219 42.7415 18.8232 42.8935C19.1244 43.0456 19.4572 43.1249 19.7947 43.125V43.125ZM19.5254 40.8844L21.0828 35.8238C21.1003 35.7661 21.136 35.7156 21.1844 35.6798C21.2329 35.644 21.2917 35.6248 21.3519 35.625H24.375V38.4375C24.375 38.6862 24.4738 38.9246 24.6496 39.1004C24.8254 39.2762 25.0639 39.375 25.3125 39.375C25.5611 39.375 25.7996 39.2762 25.9754 39.1004C26.1512 38.9246 26.25 38.6862 26.25 38.4375V35.625H29.935C29.9954 35.6248 30.0542 35.644 30.1027 35.6799C30.1512 35.7158 30.1868 35.7664 30.2042 35.8241L31.7615 40.8851C31.7746 40.9273 31.7776 40.9719 31.7703 41.0155C31.763 41.059 31.7455 41.1002 31.7193 41.1357C31.6931 41.1712 31.6589 41.2001 31.6194 41.22C31.58 41.2398 31.5365 41.2501 31.4923 41.25H19.7947C19.7505 41.2499 19.707 41.2394 19.6676 41.2194C19.6283 41.1995 19.5941 41.1705 19.568 41.135C19.5418 41.0995 19.5243 41.0583 19.5169 41.0147C19.5095 40.9712 19.5124 40.9266 19.5254 40.8844V40.8844Z" fill="#EB5757"/>
<path d="M21.5625 28.125C21.5625 28.8667 21.7824 29.5917 22.1945 30.2084C22.6065 30.8251 23.1922 31.3057 23.8774 31.5895C24.5627 31.8734 25.3167 31.9476 26.0441 31.8029C26.7715 31.6583 27.4397 31.3011 27.9642 30.7766C28.4886 30.2522 28.8458 29.584 28.9904 28.8566C29.1351 28.1292 29.0609 27.3752 28.777 26.6899C28.4932 26.0047 28.0126 25.419 27.3959 25.007C26.7792 24.5949 26.0542 24.375 25.3125 24.375C24.3183 24.376 23.365 24.7715 22.662 25.4745C21.959 26.1775 21.5635 27.1308 21.5625 28.125ZM27.1875 28.125C27.1875 28.4958 27.0775 28.8584 26.8715 29.1667C26.6655 29.475 26.3726 29.7154 26.03 29.8573C25.6874 29.9992 25.3104 30.0363 24.9467 29.964C24.583 29.8916 24.2489 29.713 23.9867 29.4508C23.7245 29.1886 23.5459 28.8545 23.4735 28.4908C23.4012 28.1271 23.4383 27.7501 23.5802 27.4075C23.7221 27.0649 23.9625 26.772 24.2708 26.566C24.5791 26.36 24.9417 26.25 25.3125 26.25C25.8096 26.2506 26.2862 26.4483 26.6377 26.7998C26.9892 27.1513 27.1869 27.6279 27.1875 28.125V28.125Z" fill="#EB5757"/>
<path d="M39.31 26.25H31.875C31.6264 26.25 31.3879 26.3488 31.2121 26.5246C31.0363 26.7004 30.9375 26.9389 30.9375 27.1875C30.9375 27.4362 31.0363 27.6746 31.2121 27.8504C31.3879 28.0262 31.6264 28.125 31.875 28.125H39.31C39.3704 28.1248 39.4292 28.144 39.4777 28.1799C39.5262 28.2158 39.5618 28.2664 39.5792 28.3241L41.1365 33.3851C41.1496 33.4273 41.1526 33.4719 41.1453 33.5155C41.138 33.559 41.1205 33.6002 41.0943 33.6357C41.0681 33.6712 41.0339 33.7001 40.9944 33.72C40.955 33.7398 40.9115 33.7501 40.8673 33.75H34.6875C34.4389 33.75 34.2004 33.8488 34.0246 34.0246C33.8488 34.2004 33.75 34.4389 33.75 34.6875C33.75 34.9361 33.8488 35.1746 34.0246 35.3504C34.2004 35.5262 34.4389 35.625 34.6875 35.625H40.8673C41.2049 35.6251 41.5378 35.5459 41.8392 35.3938C42.1406 35.2418 42.4021 35.0211 42.6026 34.7496C42.8032 34.4781 42.9372 34.1632 42.9939 33.8305C43.0506 33.4977 43.0284 33.1562 42.9291 32.8336L41.3719 27.7744C41.2384 27.332 40.9655 26.9447 40.594 26.67C40.2224 26.3953 39.7721 26.248 39.31 26.25V26.25Z" fill="#EB5757"/>
<path d="M34.6875 24.375C35.4292 24.375 36.1542 24.1551 36.7709 23.743C37.3876 23.331 37.8682 22.7453 38.152 22.0601C38.4359 21.3748 38.5101 20.6208 38.3654 19.8934C38.2208 19.166 37.8636 18.4978 37.3391 17.9734C36.8147 17.4489 36.1465 17.0918 35.4191 16.9471C34.6917 16.8024 33.9377 16.8766 33.2524 17.1605C32.5672 17.4443 31.9815 17.9249 31.5695 18.5416C31.1574 19.1583 30.9375 19.8833 30.9375 20.625C30.9385 21.6192 31.334 22.5725 32.037 23.2755C32.74 23.9785 33.6933 24.374 34.6875 24.375ZM34.6875 18.75C35.0583 18.75 35.4209 18.86 35.7292 19.066C36.0375 19.272 36.2779 19.5649 36.4198 19.9075C36.5617 20.2501 36.5988 20.6271 36.5265 20.9908C36.4541 21.3545 36.2755 21.6886 36.0133 21.9508C35.7511 22.2131 35.417 22.3916 35.0533 22.464C34.6896 22.5363 34.3126 22.4992 33.97 22.3573C33.6274 22.2154 33.3345 21.975 33.1285 21.6667C32.9225 21.3584 32.8125 20.9958 32.8125 20.625C32.8131 20.1279 33.0108 19.6513 33.3623 19.2998C33.7138 18.9483 34.1904 18.7506 34.6875 18.75V18.75Z" fill="#EB5757"/>
</svg>
