<svg width="60" height="60" viewBox="0 0 60 60" fill="none" xmlns="http://www.w3.org/2000/svg">
<rect opacity="0.1" width="60" height="60" rx="30" fill="#2CB9CA"/>
<path d="M38.75 42.5H21.25C19.8693 42.5 18.75 41.3807 18.75 40V22.5C18.75 21.1193 19.8693 20 21.25 20H23.75V17.5H26.25V20H33.75V17.5H36.25V20H38.75C40.1307 20 41.25 21.1193 41.25 22.5V40C41.25 41.3807 40.1307 42.5 38.75 42.5ZM21.25 27.5V40H38.75V27.5H21.25ZM21.25 22.5V25H38.75V22.5H21.25ZM28.75 38.0175L24.1163 33.3837L25.8838 31.6163L28.75 34.4825L34.1163 29.1163L35.8837 30.8837L28.75 38.0163V38.0175Z" fill="#2CB9CA"/>
</svg>
