<svg width="60" height="60" viewBox="0 0 60 60" fill="none" xmlns="http://www.w3.org/2000/svg">
<rect opacity="0.1" width="60" height="60" rx="30" fill="#54B448"/>
<path d="M38.75 42.5H21.25C19.8693 42.5 18.75 41.3807 18.75 40V22.5C18.75 21.1193 19.8693 20 21.25 20H23.75V17.5H26.25V20H33.75V17.5H36.25V20H38.75C40.1307 20 41.25 21.1193 41.25 22.5V40C41.25 41.3807 40.1307 42.5 38.75 42.5ZM21.25 27.5V40H38.75V27.5H21.25ZM21.25 22.5V25H38.75V22.5H21.25ZM36.25 37.5H33.75V35H36.25V37.5ZM31.25 37.5H28.75V35H31.25V37.5ZM26.25 37.5H23.75V35H26.25V37.5ZM36.25 32.5H33.75V30H36.25V32.5ZM31.25 32.5H28.75V30H31.25V32.5ZM26.25 32.5H23.75V30H26.25V32.5Z" fill="#54B448"/>
</svg>
