<svg width="15" height="13" viewBox="0 0 15 13" fill="none" xmlns="http://www.w3.org/2000/svg">
<path d="M12.9162 3.27782C12.9252 3.40605 12.9252 3.53427 12.9252 3.6631C12.9327 4.77154 12.7207 5.87043 12.3015 6.89594C11.8822 7.92146 11.2642 8.85316 10.4831 9.63694C9.70212 10.4207 8.77371 11.0409 7.75184 11.4616C6.72998 11.8823 5.63501 12.095 4.53054 12.0874C2.92431 12.0915 1.35108 11.6299 0 10.7582C0.236617 10.7843 0.474558 10.7966 0.712602 10.7949C2.04052 10.7986 3.33095 10.3532 4.37579 9.53071C3.76002 9.51964 3.16308 9.31579 2.66839 8.94764C2.17369 8.57949 1.80595 8.06544 1.61655 7.47731C1.80089 7.50658 1.98717 7.52187 2.1738 7.52307C2.4357 7.52239 2.69649 7.48862 2.94998 7.42253C2.28222 7.28687 1.68182 6.92346 1.2507 6.39401C0.819578 5.86455 0.584312 5.20168 0.584838 4.51793V4.4812C0.99363 4.71007 1.45051 4.83878 1.91827 4.85685C1.29131 4.43766 0.847573 3.79397 0.677768 3.05736C0.507963 2.32076 0.624918 1.54688 1.00472 0.893939C1.7458 1.80937 2.67033 2.55826 3.71836 3.09204C4.76638 3.62582 5.91449 3.93256 7.08823 3.99239C7.04185 3.76923 7.01834 3.5419 7.01805 3.31394C7.01849 2.71996 7.19677 2.13981 7.52976 1.64875C7.86275 1.15769 8.33509 0.778393 8.88551 0.560042C9.43593 0.341692 10.039 0.294371 10.6166 0.424219C11.1941 0.554066 11.7194 0.855089 12.1244 1.28824C12.7852 1.16052 13.4189 0.918529 13.9971 0.573077C13.7772 1.25737 13.3161 1.83764 12.7003 2.20508C13.285 2.13848 13.8565 1.98468 14.396 1.74877C13.9919 2.33831 13.4916 2.85524 12.9162 3.27782Z" fill="white"/>
</svg>
