<svg width="14" height="14" viewBox="0 0 14 14" fill="none" xmlns="http://www.w3.org/2000/svg">
<path d="M5.38461 0.538462V2.33333C5.38461 2.47614 5.32788 2.6131 5.2269 2.71408C5.12592 2.81506 4.98896 2.87179 4.84615 2.87179C4.70334 2.87179 4.56638 2.81506 4.4654 2.71408C4.36442 2.6131 4.30769 2.47614 4.30769 2.33333V0.538462C4.30769 0.395653 4.36442 0.258693 4.4654 0.157712C4.56638 0.0567306 4.70334 0 4.84615 0C4.98896 0 5.12592 0.0567306 5.2269 0.157712C5.32788 0.258693 5.38461 0.395653 5.38461 0.538462Z" fill="#2F99E7"/>
<path d="M13.7559 2.7282C13.7224 2.26586 13.5231 1.83115 13.1946 1.50402C12.8662 1.1769 12.4307 0.979344 11.9682 0.947692C11.5015 0.911795 10.9703 0.875897 10.4103 0.847179V2.33333C10.4103 2.66655 10.2779 2.98613 10.0423 3.22175C9.80664 3.45737 9.48707 3.58974 9.15385 3.58974C8.82062 3.58974 8.50105 3.45737 8.26543 3.22175C8.02981 2.98613 7.89744 2.66655 7.89744 2.33333V0.717949H6.10256V2.33333C6.10256 2.66655 5.97019 2.98613 5.73457 3.22175C5.49895 3.45737 5.17937 3.58974 4.84615 3.58974C4.51293 3.58974 4.19336 3.45737 3.95774 3.22175C3.72211 2.98613 3.58974 2.66655 3.58974 2.33333V0.847179C3.02974 0.847179 2.49846 0.911795 2.02462 0.947692C1.56265 0.980805 1.12797 1.17883 0.79982 1.50566C0.471666 1.8325 0.271894 2.26638 0.236923 2.7282C0.129231 4.05641 0 5.93744 0 7.35897C0 8.78051 0.129231 10.6687 0.236923 11.9969C0.272086 12.458 0.472118 12.891 0.800406 13.2166C1.12869 13.5423 1.56328 13.7388 2.02462 13.7703C3.46051 13.8779 5.48513 14 7 14C8.51487 14 10.5323 13.8779 11.9682 13.7703C12.4301 13.7403 12.8655 13.5442 13.1941 13.2183C13.5226 12.8923 13.7222 12.4585 13.7559 11.9969C13.8708 10.6687 14 8.78769 14 7.35897C14 5.93026 13.8708 4.05641 13.7559 2.7282ZM4.1282 9.90769C3.93779 9.90769 3.75518 9.83205 3.62054 9.69741C3.4859 9.56277 3.41026 9.38016 3.41026 9.18974C3.41026 8.99933 3.4859 8.81672 3.62054 8.68208C3.75518 8.54744 3.93779 8.47179 4.1282 8.47179C4.31862 8.47179 4.50123 8.54744 4.63587 8.68208C4.77051 8.81672 4.84615 8.99933 4.84615 9.18974C4.84615 9.38016 4.77051 9.56277 4.63587 9.69741C4.50123 9.83205 4.31862 9.90769 4.1282 9.90769ZM4.1282 7.0359C3.93779 7.0359 3.75518 6.96026 3.62054 6.82561C3.4859 6.69097 3.41026 6.50836 3.41026 6.31795C3.41026 6.12754 3.4859 5.94492 3.62054 5.81028C3.75518 5.67564 3.93779 5.6 4.1282 5.6C4.31862 5.6 4.50123 5.67564 4.63587 5.81028C4.77051 5.94492 4.84615 6.12754 4.84615 6.31795C4.84615 6.50836 4.77051 6.69097 4.63587 6.82561C4.50123 6.96026 4.31862 7.0359 4.1282 7.0359ZM7 9.90769C6.80959 9.90769 6.62698 9.83205 6.49233 9.69741C6.35769 9.56277 6.28205 9.38016 6.28205 9.18974C6.28205 8.99933 6.35769 8.81672 6.49233 8.68208C6.62698 8.54744 6.80959 8.47179 7 8.47179C7.19041 8.47179 7.37302 8.54744 7.50767 8.68208C7.64231 8.81672 7.71795 8.99933 7.71795 9.18974C7.71795 9.38016 7.64231 9.56277 7.50767 9.69741C7.37302 9.83205 7.19041 9.90769 7 9.90769ZM7 7.0359C6.80959 7.0359 6.62698 6.96026 6.49233 6.82561C6.35769 6.69097 6.28205 6.50836 6.28205 6.31795C6.28205 6.12754 6.35769 5.94492 6.49233 5.81028C6.62698 5.67564 6.80959 5.6 7 5.6C7.19041 5.6 7.37302 5.67564 7.50767 5.81028C7.64231 5.94492 7.71795 6.12754 7.71795 6.31795C7.71795 6.50836 7.64231 6.69097 7.50767 6.82561C7.37302 6.96026 7.19041 7.0359 7 7.0359ZM9.87179 7.0359C9.68138 7.0359 9.49877 6.96026 9.36413 6.82561C9.22949 6.69097 9.15385 6.50836 9.15385 6.31795C9.15385 6.12754 9.22949 5.94492 9.36413 5.81028C9.49877 5.67564 9.68138 5.6 9.87179 5.6C10.0622 5.6 10.2448 5.67564 10.3795 5.81028C10.5141 5.94492 10.5897 6.12754 10.5897 6.31795C10.5897 6.50836 10.5141 6.69097 10.3795 6.82561C10.2448 6.96026 10.0622 7.0359 9.87179 7.0359Z" fill="#2F99E7"/>
<path d="M9.69231 0.538462V2.33333C9.69231 2.47614 9.63558 2.6131 9.5346 2.71408C9.43361 2.81506 9.29665 2.87179 9.15385 2.87179C9.01104 2.87179 8.87408 2.81506 8.7731 2.71408C8.67211 2.6131 8.61538 2.47614 8.61538 2.33333V0.538462C8.61538 0.395653 8.67211 0.258693 8.7731 0.157712C8.87408 0.0567306 9.01104 0 9.15385 0C9.29665 0 9.43361 0.0567306 9.5346 0.157712C9.63558 0.258693 9.69231 0.395653 9.69231 0.538462Z" fill="#2F99E7"/>
</svg>
