<svg width="20" height="20" viewBox="0 0 20 20" fill="none" xmlns="http://www.w3.org/2000/svg">
<path d="M7.80768 2.80769C7.26922 2.65385 6.42307 2.5 5.80768 2.5C5.1923 2.5 4.34615 2.65385 3.80769 2.80769C3.26923 2.88461 2.88461 3.26923 2.80769 3.80769C2.65385 4.34615 2.5 5.1923 2.5 5.80768C2.5 6.42307 2.65385 7.26922 2.73077 7.80768C2.80769 8.34614 3.26923 8.73075 3.73077 8.80767C4.26923 8.8846 5.11538 9.03844 5.73076 9.03844C6.34614 9.03844 7.19229 8.8846 7.73075 8.80767C8.26921 8.73075 8.65383 8.26922 8.73075 7.80768C8.80767 7.26922 8.96152 6.42307 8.96152 5.80768C8.96152 5.1923 8.80767 4.34615 8.73075 3.80769C8.73075 3.26923 8.34614 2.88461 7.80768 2.80769Z" fill="#FF7900"/>
<path d="M7.80764 11.2692C7.26918 11.1923 6.42303 11.0385 5.80765 11.0385C5.19226 11.0385 4.34611 11.1923 3.80765 11.2692C3.26919 11.3462 2.88458 11.8077 2.80765 12.2692C2.73073 12.8077 2.57689 13.6539 2.57689 14.2692C2.57689 14.8846 2.73073 15.7308 2.80765 16.2692C2.88458 16.8077 3.34611 17.1923 3.80765 17.2692C4.34611 17.3462 5.19226 17.5 5.80765 17.5C6.42303 17.5 7.26918 17.3462 7.80764 17.2692C8.3461 17.1923 8.73071 16.7308 8.80764 16.2692C8.88456 15.7308 9.03841 14.8846 9.03841 14.2692C9.03841 13.6539 8.88456 12.8077 8.80764 12.2692C8.73071 11.7308 8.3461 11.3462 7.80764 11.2692Z" fill="#FF7900"/>
<path d="M12.2692 8.80782C12.8076 8.88474 13.6538 9.03859 14.2691 9.03859C14.8845 9.03859 15.7307 8.88474 16.2691 8.80782C16.8076 8.7309 17.1922 8.26936 17.2691 7.80782C17.3461 7.26936 17.4999 6.42321 17.4999 5.80783C17.4999 5.19245 17.3461 4.34629 17.2691 3.80783C17.1922 3.26937 16.7307 2.88476 16.2691 2.80784C15.7307 2.73091 14.8845 2.57707 14.2691 2.57707C13.6538 2.57707 12.8076 2.73091 12.2692 2.80784C11.7307 2.88476 11.3461 3.3463 11.2692 3.80783C11.1922 4.34629 11.0384 5.19245 11.0384 5.80783C11.0384 6.42321 11.1922 7.26936 11.2692 7.80782C11.3461 8.34628 11.7307 8.7309 12.2692 8.80782Z" fill="#FF7900"/>
<path d="M16.2691 11.2692C15.7307 11.1923 14.8845 11.0385 14.2691 11.0385C13.6538 11.0385 12.8076 11.1923 12.2692 11.2692C11.7307 11.3462 11.3461 11.8077 11.2692 12.2692C11.1922 12.8077 11.0384 13.6539 11.0384 14.2692C11.0384 14.8846 11.1922 15.7308 11.2692 16.2692C11.3461 16.8077 11.8076 17.1923 12.2692 17.2692C12.8076 17.3462 13.6538 17.5 14.2691 17.5C14.8845 17.5 15.7307 17.3462 16.2691 17.2692C16.8076 17.1923 17.1922 16.7308 17.2691 16.2692C17.3461 15.7308 17.4999 14.8846 17.4999 14.2692C17.4999 13.6539 17.3461 12.8077 17.2691 12.2692C17.1922 11.7308 16.8076 11.3462 16.2691 11.2692Z" fill="#FF7900"/>
</svg>
