<svg version="1.2" baseProfile="tiny-ps" xmlns="http://www.w3.org/2000/svg" viewBox="0 0 14 16" width="14" height="16">
	<title>Layer</title>
	<style>
		tspan { white-space:pre }
		.shp0 { fill: #ff7900 } 
	</style>
	<path id="Layer" fill-rule="evenodd" class="shp0" d="M10.64 15.5L3.35 15.5C1.98 15.5 0.8 14.42 0.8 12.97L0.8 3.03C0.8 1.67 1.89 0.5 3.35 0.5L7.64 0.5C8.27 0.5 8.91 0.77 9.46 1.22L12.47 4.2C12.92 4.75 13.2 5.38 13.2 6.01L13.2 12.97C13.2 14.33 12.1 15.5 10.64 15.5ZM6.6 10.48L10.29 7.1C10.57 6.84 10.57 6.44 10.29 6.19C10.02 5.94 9.58 5.94 9.3 6.19L6.11 9.12L4.7 7.82C4.42 7.57 3.98 7.57 3.71 7.82C3.43 8.08 3.43 8.48 3.71 8.73L5.61 10.48C5.89 10.73 6.33 10.73 6.6 10.48Z" />
</svg>