<svg width="20" height="20" viewBox="0 0 20 20" fill="none" xmlns="http://www.w3.org/2000/svg">
<path fill-rule="evenodd" clip-rule="evenodd" d="M16.1965 14.9699V8.01205C16.1965 7.37952 15.923 6.74699 15.4672 6.20482L12.4592 3.22289C11.9123 2.77108 11.2743 2.5 10.6362 2.5H6.35206C4.89363 2.5 3.7998 3.6747 3.7998 5.03012V14.9699C3.7998 16.4157 4.98478 17.5 6.35206 17.5H13.6442C15.1026 17.5 16.1965 16.3253 16.1965 14.9699ZM9.60217 12.4787L13.295 9.09566C13.5684 8.84489 13.5684 8.43857 13.2949 8.18794C13.0213 7.93745 12.5778 7.93726 12.3041 8.18794L9.10694 11.1172L7.69582 9.82435C7.42233 9.57376 6.97878 9.57376 6.70517 9.82444C6.43161 10.0751 6.43161 10.4815 6.70517 10.7321L8.61141 12.4787C8.88513 12.7293 9.32872 12.7293 9.60217 12.4787Z" fill="white"/>
</svg>
