<svg width="20" height="20" viewBox="0 0 20 20" fill="none" xmlns="http://www.w3.org/2000/svg">
<path d="M14.1242 9.46429V15.3571C14.1242 16.5051 13.1978 17.5 11.9626 17.5H5.7866C4.6286 17.5 3.625 16.5816 3.625 15.3571V6.93878C3.625 5.79082 4.5514 4.79592 5.7866 4.79592H9.415C9.9554 4.79592 10.4958 5.02551 10.959 5.40816L13.5066 7.93367C13.8926 8.39286 14.1242 8.92857 14.1242 9.46429Z" fill="#FF7900"/>
<path d="M15.8226 14.4388C15.5138 14.4388 15.205 14.2092 15.205 13.8265V8.31633C15.205 8.08674 15.1278 7.85714 14.8962 7.62755L11.1906 3.95408C11.0362 3.80102 10.7274 3.64796 10.4958 3.64796H7.3306C7.0218 3.72449 6.713 3.41837 6.713 3.11224C6.713 2.80612 7.0218 2.5 7.3306 2.5H10.573C11.1134 2.5 11.6538 2.72959 12.0398 3.11224L15.7454 6.78571C16.1314 7.16837 16.363 7.70408 16.363 8.2398V13.8265C16.4402 14.1327 16.1314 14.4388 15.8226 14.4388Z" fill="#FF7900"/>
</svg>
