<svg width="20" height="20" viewBox="0 0 20 20" fill="none" xmlns="http://www.w3.org/2000/svg">
<path d="M16.4793 10.0789L16.3153 10L16.4793 9.92105C17.4635 9.36842 17.7916 8.18421 17.2175 7.23684L16.0693 5.34211C15.8232 4.86842 15.3311 4.55263 14.839 4.39474C14.3469 4.23684 13.7728 4.31579 13.2807 4.55263L13.1166 4.63158V4.47368C13.1166 3.36842 12.2145 2.5 11.0662 2.5H8.85176C7.70352 2.5 6.80134 3.36842 6.80134 4.47368V4.63158H6.71932C6.22722 4.31579 5.73512 4.23684 5.161 4.39474C4.58688 4.55263 4.17679 4.86842 3.93074 5.34211L2.7825 7.23684C2.20838 8.18421 2.53645 9.36842 3.52066 9.92105L3.68469 10L3.52066 10.0789C2.53645 10.6316 2.20838 11.8158 2.7825 12.7632L3.93074 14.6579C4.17679 15.1316 4.66889 15.4474 5.161 15.6053C5.73512 15.7632 6.22722 15.6842 6.71932 15.3684H6.80134V15.5263C6.80134 16.6316 7.70352 17.5 8.85176 17.5H11.0662C12.2145 17.5 13.1166 16.6316 13.1166 15.5263V15.3684L13.2807 15.4474C13.7728 15.6842 14.3469 15.7632 14.839 15.6053C15.4131 15.4474 15.8232 15.1316 16.0693 14.6579L17.2175 12.7632C17.7916 11.8158 17.4635 10.6316 16.4793 10.0789ZM10 13C8.27764 13 6.88335 11.6579 6.88335 10C6.88335 8.34211 8.27764 7 10 7C11.7224 7 13.1166 8.34211 13.1166 10C13.1166 11.6579 11.7224 13 10 13Z" fill="#FF7900"/>
</svg>
