<svg width="24" height="24" viewBox="0 0 24 24" fill="none" xmlns="http://www.w3.org/2000/svg">
<path d="M19.8994 11.928C19.1652 10.4579 18.0387 9.21954 16.6444 8.34982C15.2502 7.48011 13.6426 7.01295 11.9994 7C10.3563 7.01317 8.74881 7.48043 7.35462 8.35012C5.96044 9.21981 4.83388 10.4581 4.09946 11.928C4.03599 12.0538 4.00293 12.1926 4.00293 12.3335C4.00293 12.4744 4.03599 12.6132 4.09946 12.739C4.8337 14.2091 5.96022 15.4475 7.35444 16.3172C8.74866 17.1869 10.3562 17.6541 11.9994 17.667C13.6426 17.6538 15.2501 17.1866 16.6443 16.3169C18.0384 15.4472 19.165 14.2089 19.8994 12.739C19.9629 12.6132 19.996 12.4744 19.996 12.3335C19.996 12.1926 19.9629 12.0538 19.8994 11.928ZM11.9994 7.889C12.7027 7.889 13.3903 8.09756 13.975 8.4883C14.5598 8.87903 15.0156 9.4344 15.2847 10.0842C15.5539 10.7339 15.6243 11.4489 15.4871 12.1387C15.3499 12.8285 15.0112 13.4622 14.5139 13.9595C14.0166 14.4568 13.383 14.7955 12.6932 14.9327C12.0034 15.0699 11.2884 14.9995 10.6386 14.7303C9.98886 14.4612 9.43349 14.0054 9.04275 13.4206C8.65201 12.8358 8.44346 12.1483 8.44346 11.445C8.44346 10.5019 8.81811 9.59741 9.48499 8.93053C10.1518 8.26365 11.0563 7.889 11.9994 7.889ZM11.9994 16.778C10.5191 16.7669 9.07083 16.3456 7.81551 15.5609C6.56019 14.7762 5.54698 13.6589 4.88846 12.333C5.67792 10.7828 6.94061 9.52428 8.49346 8.74C8.06246 9.29907 7.77108 9.95291 7.64352 10.6472C7.51595 11.3415 7.55589 12.0562 7.76 12.732C7.96412 13.4077 8.32653 14.025 8.81712 14.5326C9.30772 15.0402 9.91234 15.4234 10.5807 15.6504C11.2492 15.8774 11.9621 15.9416 12.6603 15.8377C13.3586 15.7338 14.0219 15.4649 14.5953 15.0531C15.1688 14.6414 15.6356 14.0988 15.9572 13.4704C16.2788 12.842 16.4459 12.1459 16.4444 11.44C16.4409 10.4607 16.1109 9.51053 15.5064 8.74C17.0593 9.52428 18.322 10.7828 19.1114 12.333C18.4528 13.659 17.4395 14.7764 16.184 15.5611C14.9284 16.3458 13.4799 16.7671 11.9994 16.778Z" fill="#666666"/>
<path d="M6.35352 19.3061L17.8383 4.95166" stroke="#666666" stroke-width="1.5"/>
<path d="M5 20L18 4" stroke="white"/>
</svg>
