<svg width="575" height="234" viewBox="0 0 575 234" fill="none" xmlns="http://www.w3.org/2000/svg">
<path d="M6.04334 27.112H8.97134V28H4.95134V19.636H6.04334V27.112ZM12.999 28.108C12.383 28.108 11.823 27.968 11.319 27.688C10.823 27.408 10.431 27.012 10.143 26.5C9.86303 25.98 9.72303 25.38 9.72303 24.7C9.72303 24.028 9.86703 23.436 10.155 22.924C10.451 22.404 10.851 22.008 11.355 21.736C11.859 21.456 12.423 21.316 13.047 21.316C13.671 21.316 14.235 21.456 14.739 21.736C15.243 22.008 15.639 22.4 15.927 22.912C16.223 23.424 16.371 24.02 16.371 24.7C16.371 25.38 16.219 25.98 15.915 26.5C15.619 27.012 15.215 27.408 14.703 27.688C14.191 27.968 13.623 28.108 12.999 28.108ZM12.999 27.148C13.391 27.148 13.759 27.056 14.103 26.872C14.447 26.688 14.723 26.412 14.931 26.044C15.147 25.676 15.255 25.228 15.255 24.7C15.255 24.172 15.151 23.724 14.943 23.356C14.735 22.988 14.463 22.716 14.127 22.54C13.791 22.356 13.427 22.264 13.035 22.264C12.635 22.264 12.267 22.356 11.931 22.54C11.603 22.716 11.339 22.988 11.139 23.356C10.939 23.724 10.839 24.172 10.839 24.7C10.839 25.236 10.935 25.688 11.127 26.056C11.327 26.424 11.591 26.7 11.919 26.884C12.247 27.06 12.607 27.148 12.999 27.148ZM17.3988 24.7C17.3988 24.02 17.5348 23.428 17.8068 22.924C18.0788 22.412 18.4548 22.016 18.9348 21.736C19.4228 21.456 19.9788 21.316 20.6028 21.316C21.4108 21.316 22.0748 21.512 22.5948 21.904C23.1228 22.296 23.4708 22.84 23.6388 23.536H22.4628C22.3508 23.136 22.1308 22.82 21.8028 22.588C21.4828 22.356 21.0828 22.24 20.6028 22.24C19.9788 22.24 19.4748 22.456 19.0908 22.888C18.7068 23.312 18.5148 23.916 18.5148 24.7C18.5148 25.492 18.7068 26.104 19.0908 26.536C19.4748 26.968 19.9788 27.184 20.6028 27.184C21.0828 27.184 21.4828 27.072 21.8028 26.848C22.1228 26.624 22.3428 26.304 22.4628 25.888H23.6388C23.4628 26.56 23.1108 27.1 22.5828 27.508C22.0548 27.908 21.3948 28.108 20.6028 28.108C19.9788 28.108 19.4228 27.968 18.9348 27.688C18.4548 27.408 18.0788 27.012 17.8068 26.5C17.5348 25.988 17.3988 25.388 17.3988 24.7ZM24.6879 24.688C24.6879 24.016 24.8239 23.428 25.0959 22.924C25.3679 22.412 25.7399 22.016 26.2119 21.736C26.6919 21.456 27.2239 21.316 27.8079 21.316C28.3839 21.316 28.8839 21.44 29.3079 21.688C29.7319 21.936 30.0479 22.248 30.2559 22.624V21.424H31.3599V28H30.2559V26.776C30.0399 27.16 29.7159 27.48 29.2839 27.736C28.8599 27.984 28.3639 28.108 27.7959 28.108C27.2119 28.108 26.6839 27.964 26.2119 27.676C25.7399 27.388 25.3679 26.984 25.0959 26.464C24.8239 25.944 24.6879 25.352 24.6879 24.688ZM30.2559 24.7C30.2559 24.204 30.1559 23.772 29.9559 23.404C29.7559 23.036 29.4839 22.756 29.1399 22.564C28.8039 22.364 28.4319 22.264 28.0239 22.264C27.6159 22.264 27.2439 22.36 26.9079 22.552C26.5719 22.744 26.3039 23.024 26.1039 23.392C25.9039 23.76 25.8039 24.192 25.8039 24.688C25.8039 25.192 25.9039 25.632 26.1039 26.008C26.3039 26.376 26.5719 26.66 26.9079 26.86C27.2439 27.052 27.6159 27.148 28.0239 27.148C28.4319 27.148 28.8039 27.052 29.1399 26.86C29.4839 26.66 29.7559 26.376 29.9559 26.008C30.1559 25.632 30.2559 25.196 30.2559 24.7ZM34.5373 22.324V26.2C34.5373 26.52 34.6053 26.748 34.7413 26.884C34.8773 27.012 35.1133 27.076 35.4492 27.076H36.2533V28H35.2693C34.6613 28 34.2053 27.86 33.9013 27.58C33.5973 27.3 33.4453 26.84 33.4453 26.2V22.324H32.5933V21.424H33.4453V19.768H34.5373V21.424H36.2533V22.324H34.5373ZM38.1403 20.356C37.9323 20.356 37.7563 20.284 37.6123 20.14C37.4683 19.996 37.3963 19.82 37.3963 19.612C37.3963 19.404 37.4683 19.228 37.6123 19.084C37.7563 18.94 37.9323 18.868 38.1403 18.868C38.3403 18.868 38.5083 18.94 38.6443 19.084C38.7883 19.228 38.8603 19.404 38.8603 19.612C38.8603 19.82 38.7883 19.996 38.6443 20.14C38.5083 20.284 38.3403 20.356 38.1403 20.356ZM38.6683 21.424V28H37.5763V21.424H38.6683ZM43.3975 28.108C42.7815 28.108 42.2215 27.968 41.7175 27.688C41.2215 27.408 40.8295 27.012 40.5415 26.5C40.2615 25.98 40.1215 25.38 40.1215 24.7C40.1215 24.028 40.2655 23.436 40.5535 22.924C40.8495 22.404 41.2495 22.008 41.7535 21.736C42.2575 21.456 42.8215 21.316 43.4455 21.316C44.0695 21.316 44.6335 21.456 45.1375 21.736C45.6415 22.008 46.0375 22.4 46.3255 22.912C46.6215 23.424 46.7695 24.02 46.7695 24.7C46.7695 25.38 46.6175 25.98 46.3135 26.5C46.0175 27.012 45.6135 27.408 45.1015 27.688C44.5895 27.968 44.0215 28.108 43.3975 28.108ZM43.3975 27.148C43.7895 27.148 44.1575 27.056 44.5015 26.872C44.8455 26.688 45.1215 26.412 45.3295 26.044C45.5455 25.676 45.6535 25.228 45.6535 24.7C45.6535 24.172 45.5495 23.724 45.3415 23.356C45.1335 22.988 44.8615 22.716 44.5255 22.54C44.1895 22.356 43.8255 22.264 43.4335 22.264C43.0335 22.264 42.6655 22.356 42.3295 22.54C42.0015 22.716 41.7375 22.988 41.5375 23.356C41.3375 23.724 41.2375 24.172 41.2375 24.7C41.2375 25.236 41.3335 25.688 41.5255 26.056C41.7255 26.424 41.9895 26.7 42.3175 26.884C42.6455 27.06 43.0055 27.148 43.3975 27.148ZM51.4093 21.304C52.2093 21.304 52.8573 21.548 53.3533 22.036C53.8493 22.516 54.0973 23.212 54.0973 24.124V28H53.0173V24.28C53.0173 23.624 52.8533 23.124 52.5253 22.78C52.1973 22.428 51.7493 22.252 51.1813 22.252C50.6053 22.252 50.1453 22.432 49.8013 22.792C49.4653 23.152 49.2973 23.676 49.2973 24.364V28H48.2053V21.424H49.2973V22.36C49.5133 22.024 49.8053 21.764 50.1733 21.58C50.5493 21.396 50.9613 21.304 51.4093 21.304ZM58.6123 20.32V19.324H60.8683V28H59.7643V20.32H58.6123Z" fill="#666666"/>
<path d="M2.98475 67.112H5.91275V68H1.89275V59.636H2.98475V67.112ZM9.94044 68.108C9.32444 68.108 8.76444 67.968 8.26044 67.688C7.76444 67.408 7.37244 67.012 7.08444 66.5C6.80444 65.98 6.66444 65.38 6.66444 64.7C6.66444 64.028 6.80844 63.436 7.09644 62.924C7.39244 62.404 7.79244 62.008 8.29644 61.736C8.80044 61.456 9.36444 61.316 9.98844 61.316C10.6124 61.316 11.1764 61.456 11.6804 61.736C12.1844 62.008 12.5804 62.4 12.8684 62.912C13.1644 63.424 13.3124 64.02 13.3124 64.7C13.3124 65.38 13.1604 65.98 12.8564 66.5C12.5604 67.012 12.1564 67.408 11.6444 67.688C11.1324 67.968 10.5644 68.108 9.94044 68.108ZM9.94044 67.148C10.3324 67.148 10.7004 67.056 11.0444 66.872C11.3884 66.688 11.6644 66.412 11.8724 66.044C12.0884 65.676 12.1964 65.228 12.1964 64.7C12.1964 64.172 12.0924 63.724 11.8844 63.356C11.6764 62.988 11.4044 62.716 11.0684 62.54C10.7324 62.356 10.3684 62.264 9.97644 62.264C9.57644 62.264 9.20844 62.356 8.87244 62.54C8.54444 62.716 8.28044 62.988 8.08044 63.356C7.88044 63.724 7.78044 64.172 7.78044 64.7C7.78044 65.236 7.87644 65.688 8.06844 66.056C8.26844 66.424 8.53244 66.7 8.86044 66.884C9.18844 67.06 9.54844 67.148 9.94044 67.148ZM14.3402 64.7C14.3402 64.02 14.4762 63.428 14.7482 62.924C15.0202 62.412 15.3962 62.016 15.8762 61.736C16.3642 61.456 16.9202 61.316 17.5442 61.316C18.3522 61.316 19.0162 61.512 19.5362 61.904C20.0642 62.296 20.4122 62.84 20.5802 63.536H19.4042C19.2922 63.136 19.0722 62.82 18.7442 62.588C18.4242 62.356 18.0242 62.24 17.5442 62.24C16.9202 62.24 16.4162 62.456 16.0322 62.888C15.6482 63.312 15.4562 63.916 15.4562 64.7C15.4562 65.492 15.6482 66.104 16.0322 66.536C16.4162 66.968 16.9202 67.184 17.5442 67.184C18.0242 67.184 18.4242 67.072 18.7442 66.848C19.0642 66.624 19.2842 66.304 19.4042 65.888H20.5802C20.4042 66.56 20.0522 67.1 19.5242 67.508C18.9962 67.908 18.3362 68.108 17.5442 68.108C16.9202 68.108 16.3642 67.968 15.8762 67.688C15.3962 67.408 15.0202 67.012 14.7482 66.5C14.4762 65.988 14.3402 65.388 14.3402 64.7ZM21.6293 64.688C21.6293 64.016 21.7653 63.428 22.0373 62.924C22.3093 62.412 22.6813 62.016 23.1533 61.736C23.6333 61.456 24.1653 61.316 24.7493 61.316C25.3253 61.316 25.8253 61.44 26.2493 61.688C26.6733 61.936 26.9893 62.248 27.1973 62.624V61.424H28.3013V68H27.1973V66.776C26.9813 67.16 26.6573 67.48 26.2253 67.736C25.8013 67.984 25.3053 68.108 24.7373 68.108C24.1533 68.108 23.6253 67.964 23.1533 67.676C22.6813 67.388 22.3093 66.984 22.0373 66.464C21.7653 65.944 21.6293 65.352 21.6293 64.688ZM27.1973 64.7C27.1973 64.204 27.0973 63.772 26.8973 63.404C26.6973 63.036 26.4253 62.756 26.0813 62.564C25.7453 62.364 25.3733 62.264 24.9653 62.264C24.5573 62.264 24.1853 62.36 23.8493 62.552C23.5133 62.744 23.2453 63.024 23.0453 63.392C22.8453 63.76 22.7453 64.192 22.7453 64.688C22.7453 65.192 22.8453 65.632 23.0453 66.008C23.2453 66.376 23.5133 66.66 23.8493 66.86C24.1853 67.052 24.5573 67.148 24.9653 67.148C25.3733 67.148 25.7453 67.052 26.0813 66.86C26.4253 66.66 26.6973 66.376 26.8973 66.008C27.0973 65.632 27.1973 65.196 27.1973 64.7ZM31.4787 62.324V66.2C31.4787 66.52 31.5467 66.748 31.6827 66.884C31.8187 67.012 32.0547 67.076 32.3907 67.076H33.1947V68H32.2107C31.6027 68 31.1467 67.86 30.8427 67.58C30.5387 67.3 30.3867 66.84 30.3867 66.2V62.324H29.5347V61.424H30.3867V59.768H31.4787V61.424H33.1947V62.324H31.4787ZM35.0818 60.356C34.8738 60.356 34.6978 60.284 34.5538 60.14C34.4098 59.996 34.3378 59.82 34.3378 59.612C34.3378 59.404 34.4098 59.228 34.5538 59.084C34.6978 58.94 34.8738 58.868 35.0818 58.868C35.2818 58.868 35.4498 58.94 35.5858 59.084C35.7298 59.228 35.8018 59.404 35.8018 59.612C35.8018 59.82 35.7298 59.996 35.5858 60.14C35.4498 60.284 35.2818 60.356 35.0818 60.356ZM35.6098 61.424V68H34.5178V61.424H35.6098ZM40.3389 68.108C39.7229 68.108 39.1629 67.968 38.6589 67.688C38.1629 67.408 37.7709 67.012 37.4829 66.5C37.2029 65.98 37.0629 65.38 37.0629 64.7C37.0629 64.028 37.2069 63.436 37.4949 62.924C37.7909 62.404 38.1909 62.008 38.6949 61.736C39.1989 61.456 39.7629 61.316 40.3869 61.316C41.0109 61.316 41.5749 61.456 42.0789 61.736C42.5829 62.008 42.9789 62.4 43.2669 62.912C43.5629 63.424 43.7109 64.02 43.7109 64.7C43.7109 65.38 43.5589 65.98 43.2549 66.5C42.9589 67.012 42.5549 67.408 42.0429 67.688C41.5309 67.968 40.9629 68.108 40.3389 68.108ZM40.3389 67.148C40.7309 67.148 41.0989 67.056 41.4429 66.872C41.7869 66.688 42.0629 66.412 42.2709 66.044C42.4869 65.676 42.5949 65.228 42.5949 64.7C42.5949 64.172 42.4909 63.724 42.2829 63.356C42.0749 62.988 41.8029 62.716 41.4669 62.54C41.1309 62.356 40.7669 62.264 40.3749 62.264C39.9749 62.264 39.6069 62.356 39.2709 62.54C38.9429 62.716 38.6789 62.988 38.4789 63.356C38.2789 63.724 38.1789 64.172 38.1789 64.7C38.1789 65.236 38.2749 65.688 38.4669 66.056C38.6669 66.424 38.9309 66.7 39.2589 66.884C39.5869 67.06 39.9469 67.148 40.3389 67.148ZM48.3507 61.304C49.1507 61.304 49.7987 61.548 50.2947 62.036C50.7907 62.516 51.0387 63.212 51.0387 64.124V68H49.9587V64.28C49.9587 63.624 49.7947 63.124 49.4667 62.78C49.1387 62.428 48.6907 62.252 48.1227 62.252C47.5467 62.252 47.0867 62.432 46.7427 62.792C46.4067 63.152 46.2387 63.676 46.2387 64.364V68H45.1467V61.424H46.2387V62.36C46.4547 62.024 46.7467 61.764 47.1147 61.58C47.4907 61.396 47.9027 61.304 48.3507 61.304ZM55.7097 67.124C56.7257 66.308 57.5217 65.64 58.0977 65.12C58.6737 64.592 59.1577 64.044 59.5497 63.476C59.9497 62.9 60.1497 62.336 60.1497 61.784C60.1497 61.264 60.0217 60.856 59.7657 60.56C59.5177 60.256 59.1137 60.104 58.5537 60.104C58.0097 60.104 57.5857 60.276 57.2817 60.62C56.9857 60.956 56.8257 61.408 56.8017 61.976H55.7457C55.7777 61.08 56.0497 60.388 56.5617 59.9C57.0737 59.412 57.7337 59.168 58.5417 59.168C59.3657 59.168 60.0177 59.396 60.4977 59.852C60.9857 60.308 61.2297 60.936 61.2297 61.736C61.2297 62.4 61.0297 63.048 60.6297 63.68C60.2377 64.304 59.7897 64.856 59.2857 65.336C58.7817 65.808 58.1377 66.36 57.3537 66.992H61.4817V67.904H55.7097V67.124Z" fill="#666666"/>
<path d="M2.82069 108.112H5.74869V109H1.72869V100.636H2.82069V108.112ZM9.77638 109.108C9.16038 109.108 8.60038 108.968 8.09638 108.688C7.60038 108.408 7.20838 108.012 6.92038 107.5C6.64038 106.98 6.50038 106.38 6.50038 105.7C6.50038 105.028 6.64438 104.436 6.93238 103.924C7.22838 103.404 7.62838 103.008 8.13238 102.736C8.63638 102.456 9.20038 102.316 9.82438 102.316C10.4484 102.316 11.0124 102.456 11.5164 102.736C12.0204 103.008 12.4164 103.4 12.7044 103.912C13.0004 104.424 13.1484 105.02 13.1484 105.7C13.1484 106.38 12.9964 106.98 12.6924 107.5C12.3964 108.012 11.9924 108.408 11.4804 108.688C10.9684 108.968 10.4004 109.108 9.77638 109.108ZM9.77638 108.148C10.1684 108.148 10.5364 108.056 10.8804 107.872C11.2244 107.688 11.5004 107.412 11.7084 107.044C11.9244 106.676 12.0324 106.228 12.0324 105.7C12.0324 105.172 11.9284 104.724 11.7204 104.356C11.5124 103.988 11.2404 103.716 10.9044 103.54C10.5684 103.356 10.2044 103.264 9.81238 103.264C9.41238 103.264 9.04438 103.356 8.70838 103.54C8.38038 103.716 8.11638 103.988 7.91638 104.356C7.71638 104.724 7.61638 105.172 7.61638 105.7C7.61638 106.236 7.71238 106.688 7.90438 107.056C8.10438 107.424 8.36838 107.7 8.69638 107.884C9.02438 108.06 9.38438 108.148 9.77638 108.148ZM14.1762 105.7C14.1762 105.02 14.3122 104.428 14.5842 103.924C14.8562 103.412 15.2322 103.016 15.7122 102.736C16.2002 102.456 16.7562 102.316 17.3802 102.316C18.1882 102.316 18.8522 102.512 19.3722 102.904C19.9002 103.296 20.2482 103.84 20.4162 104.536H19.2402C19.1282 104.136 18.9082 103.82 18.5802 103.588C18.2602 103.356 17.8602 103.24 17.3802 103.24C16.7562 103.24 16.2522 103.456 15.8682 103.888C15.4842 104.312 15.2922 104.916 15.2922 105.7C15.2922 106.492 15.4842 107.104 15.8682 107.536C16.2522 107.968 16.7562 108.184 17.3802 108.184C17.8602 108.184 18.2602 108.072 18.5802 107.848C18.9002 107.624 19.1202 107.304 19.2402 106.888H20.4162C20.2402 107.56 19.8882 108.1 19.3602 108.508C18.8322 108.908 18.1722 109.108 17.3802 109.108C16.7562 109.108 16.2002 108.968 15.7122 108.688C15.2322 108.408 14.8562 108.012 14.5842 107.5C14.3122 106.988 14.1762 106.388 14.1762 105.7ZM21.4652 105.688C21.4652 105.016 21.6012 104.428 21.8732 103.924C22.1452 103.412 22.5172 103.016 22.9892 102.736C23.4692 102.456 24.0012 102.316 24.5852 102.316C25.1612 102.316 25.6612 102.44 26.0852 102.688C26.5092 102.936 26.8252 103.248 27.0332 103.624V102.424H28.1372V109H27.0332V107.776C26.8172 108.16 26.4932 108.48 26.0612 108.736C25.6372 108.984 25.1412 109.108 24.5732 109.108C23.9892 109.108 23.4612 108.964 22.9892 108.676C22.5172 108.388 22.1452 107.984 21.8732 107.464C21.6012 106.944 21.4652 106.352 21.4652 105.688ZM27.0332 105.7C27.0332 105.204 26.9332 104.772 26.7332 104.404C26.5332 104.036 26.2612 103.756 25.9172 103.564C25.5812 103.364 25.2092 103.264 24.8012 103.264C24.3932 103.264 24.0212 103.36 23.6852 103.552C23.3492 103.744 23.0812 104.024 22.8812 104.392C22.6812 104.76 22.5812 105.192 22.5812 105.688C22.5812 106.192 22.6812 106.632 22.8812 107.008C23.0812 107.376 23.3492 107.66 23.6852 107.86C24.0212 108.052 24.3932 108.148 24.8012 108.148C25.2092 108.148 25.5812 108.052 25.9172 107.86C26.2612 107.66 26.5332 107.376 26.7332 107.008C26.9332 106.632 27.0332 106.196 27.0332 105.7ZM31.3146 103.324V107.2C31.3146 107.52 31.3826 107.748 31.5186 107.884C31.6546 108.012 31.8906 108.076 32.2266 108.076H33.0306V109H32.0466C31.4386 109 30.9826 108.86 30.6786 108.58C30.3746 108.3 30.2226 107.84 30.2226 107.2V103.324H29.3706V102.424H30.2226V100.768H31.3146V102.424H33.0306V103.324H31.3146ZM34.9177 101.356C34.7097 101.356 34.5337 101.284 34.3897 101.14C34.2457 100.996 34.1737 100.82 34.1737 100.612C34.1737 100.404 34.2457 100.228 34.3897 100.084C34.5337 99.94 34.7097 99.868 34.9177 99.868C35.1177 99.868 35.2857 99.94 35.4217 100.084C35.5657 100.228 35.6377 100.404 35.6377 100.612C35.6377 100.82 35.5657 100.996 35.4217 101.14C35.2857 101.284 35.1177 101.356 34.9177 101.356ZM35.4457 102.424V109H34.3537V102.424H35.4457ZM40.1748 109.108C39.5588 109.108 38.9988 108.968 38.4948 108.688C37.9988 108.408 37.6068 108.012 37.3188 107.5C37.0388 106.98 36.8988 106.38 36.8988 105.7C36.8988 105.028 37.0428 104.436 37.3308 103.924C37.6268 103.404 38.0268 103.008 38.5308 102.736C39.0348 102.456 39.5988 102.316 40.2228 102.316C40.8468 102.316 41.4108 102.456 41.9148 102.736C42.4188 103.008 42.8148 103.4 43.1028 103.912C43.3988 104.424 43.5468 105.02 43.5468 105.7C43.5468 106.38 43.3948 106.98 43.0908 107.5C42.7948 108.012 42.3908 108.408 41.8788 108.688C41.3668 108.968 40.7988 109.108 40.1748 109.108ZM40.1748 108.148C40.5668 108.148 40.9348 108.056 41.2788 107.872C41.6228 107.688 41.8988 107.412 42.1068 107.044C42.3228 106.676 42.4308 106.228 42.4308 105.7C42.4308 105.172 42.3268 104.724 42.1188 104.356C41.9108 103.988 41.6388 103.716 41.3028 103.54C40.9668 103.356 40.6028 103.264 40.2108 103.264C39.8108 103.264 39.4428 103.356 39.1068 103.54C38.7788 103.716 38.5148 103.988 38.3148 104.356C38.1148 104.724 38.0148 105.172 38.0148 105.7C38.0148 106.236 38.1108 106.688 38.3028 107.056C38.5028 107.424 38.7668 107.7 39.0948 107.884C39.4228 108.06 39.7828 108.148 40.1748 108.148ZM48.1866 102.304C48.9866 102.304 49.6346 102.548 50.1306 103.036C50.6266 103.516 50.8746 104.212 50.8746 105.124V109H49.7946V105.28C49.7946 104.624 49.6306 104.124 49.3026 103.78C48.9746 103.428 48.5266 103.252 47.9586 103.252C47.3826 103.252 46.9226 103.432 46.5786 103.792C46.2426 104.152 46.0746 104.676 46.0746 105.364V109H44.9826V102.424H46.0746V103.36C46.2906 103.024 46.5826 102.764 46.9506 102.58C47.3266 102.396 47.7386 102.304 48.1866 102.304ZM55.6536 102.508C55.7096 101.772 55.9936 101.196 56.5056 100.78C57.0176 100.364 57.6816 100.156 58.4976 100.156C59.0416 100.156 59.5096 100.256 59.9016 100.456C60.3016 100.648 60.6016 100.912 60.8016 101.248C61.0096 101.584 61.1136 101.964 61.1136 102.388C61.1136 102.884 60.9696 103.312 60.6816 103.672C60.4016 104.032 60.0336 104.264 59.5776 104.368V104.428C60.0976 104.556 60.5096 104.808 60.8136 105.184C61.1176 105.56 61.2696 106.052 61.2696 106.66C61.2696 107.116 61.1656 107.528 60.9576 107.896C60.7496 108.256 60.4376 108.54 60.0216 108.748C59.6056 108.956 59.1056 109.06 58.5216 109.06C57.6736 109.06 56.9776 108.84 56.4336 108.4C55.8896 107.952 55.5856 107.32 55.5216 106.504H56.5776C56.6336 106.984 56.8296 107.376 57.1656 107.68C57.5016 107.984 57.9496 108.136 58.5096 108.136C59.0696 108.136 59.4936 107.992 59.7816 107.704C60.0776 107.408 60.2256 107.028 60.2256 106.564C60.2256 105.964 60.0256 105.532 59.6256 105.268C59.2256 105.004 58.6216 104.872 57.8136 104.872H57.5376V103.96H57.8256C58.5616 103.952 59.1176 103.832 59.4936 103.6C59.8696 103.36 60.0576 102.992 60.0576 102.496C60.0576 102.072 59.9176 101.732 59.6376 101.476C59.3656 101.22 58.9736 101.092 58.4616 101.092C57.9656 101.092 57.5656 101.22 57.2616 101.476C56.9576 101.732 56.7776 102.076 56.7216 102.508H55.6536Z" fill="#666666"/>
<path d="M2.34022 150.112H5.26822V151H1.24822V142.636H2.34022V150.112ZM9.29591 151.108C8.67991 151.108 8.11991 150.968 7.61591 150.688C7.11991 150.408 6.72791 150.012 6.43991 149.5C6.15991 148.98 6.01991 148.38 6.01991 147.7C6.01991 147.028 6.16391 146.436 6.45191 145.924C6.74791 145.404 7.14791 145.008 7.65191 144.736C8.15591 144.456 8.71991 144.316 9.34391 144.316C9.96791 144.316 10.5319 144.456 11.0359 144.736C11.5399 145.008 11.9359 145.4 12.2239 145.912C12.5199 146.424 12.6679 147.02 12.6679 147.7C12.6679 148.38 12.5159 148.98 12.2119 149.5C11.9159 150.012 11.5119 150.408 10.9999 150.688C10.4879 150.968 9.91991 151.108 9.29591 151.108ZM9.29591 150.148C9.68791 150.148 10.0559 150.056 10.3999 149.872C10.7439 149.688 11.0199 149.412 11.2279 149.044C11.4439 148.676 11.5519 148.228 11.5519 147.7C11.5519 147.172 11.4479 146.724 11.2399 146.356C11.0319 145.988 10.7599 145.716 10.4239 145.54C10.0879 145.356 9.72391 145.264 9.33191 145.264C8.93191 145.264 8.56391 145.356 8.22791 145.54C7.89991 145.716 7.63591 145.988 7.43591 146.356C7.23591 146.724 7.13591 147.172 7.13591 147.7C7.13591 148.236 7.23191 148.688 7.42391 149.056C7.62391 149.424 7.88791 149.7 8.21591 149.884C8.54391 150.06 8.90391 150.148 9.29591 150.148ZM13.6957 147.7C13.6957 147.02 13.8317 146.428 14.1037 145.924C14.3757 145.412 14.7517 145.016 15.2317 144.736C15.7197 144.456 16.2757 144.316 16.8997 144.316C17.7077 144.316 18.3717 144.512 18.8917 144.904C19.4197 145.296 19.7677 145.84 19.9357 146.536H18.7597C18.6477 146.136 18.4277 145.82 18.0997 145.588C17.7797 145.356 17.3797 145.24 16.8997 145.24C16.2757 145.24 15.7717 145.456 15.3877 145.888C15.0037 146.312 14.8117 146.916 14.8117 147.7C14.8117 148.492 15.0037 149.104 15.3877 149.536C15.7717 149.968 16.2757 150.184 16.8997 150.184C17.3797 150.184 17.7797 150.072 18.0997 149.848C18.4197 149.624 18.6397 149.304 18.7597 148.888H19.9357C19.7597 149.56 19.4077 150.1 18.8797 150.508C18.3517 150.908 17.6917 151.108 16.8997 151.108C16.2757 151.108 15.7197 150.968 15.2317 150.688C14.7517 150.408 14.3757 150.012 14.1037 149.5C13.8317 148.988 13.6957 148.388 13.6957 147.7ZM20.9848 147.688C20.9848 147.016 21.1208 146.428 21.3928 145.924C21.6648 145.412 22.0368 145.016 22.5088 144.736C22.9888 144.456 23.5208 144.316 24.1048 144.316C24.6808 144.316 25.1808 144.44 25.6048 144.688C26.0288 144.936 26.3448 145.248 26.5528 145.624V144.424H27.6568V151H26.5528V149.776C26.3368 150.16 26.0128 150.48 25.5808 150.736C25.1568 150.984 24.6608 151.108 24.0928 151.108C23.5088 151.108 22.9808 150.964 22.5088 150.676C22.0368 150.388 21.6648 149.984 21.3928 149.464C21.1208 148.944 20.9848 148.352 20.9848 147.688ZM26.5528 147.7C26.5528 147.204 26.4528 146.772 26.2528 146.404C26.0528 146.036 25.7808 145.756 25.4368 145.564C25.1008 145.364 24.7288 145.264 24.3208 145.264C23.9128 145.264 23.5408 145.36 23.2048 145.552C22.8688 145.744 22.6008 146.024 22.4008 146.392C22.2008 146.76 22.1008 147.192 22.1008 147.688C22.1008 148.192 22.2008 148.632 22.4008 149.008C22.6008 149.376 22.8688 149.66 23.2048 149.86C23.5408 150.052 23.9128 150.148 24.3208 150.148C24.7288 150.148 25.1008 150.052 25.4368 149.86C25.7808 149.66 26.0528 149.376 26.2528 149.008C26.4528 148.632 26.5528 148.196 26.5528 147.7ZM30.8341 145.324V149.2C30.8341 149.52 30.9021 149.748 31.0381 149.884C31.1741 150.012 31.4101 150.076 31.7461 150.076H32.5501V151H31.5661C30.9581 151 30.5021 150.86 30.1981 150.58C29.8941 150.3 29.7421 149.84 29.7421 149.2V145.324H28.8901V144.424H29.7421V142.768H30.8341V144.424H32.5501V145.324H30.8341ZM34.4372 143.356C34.2292 143.356 34.0532 143.284 33.9092 143.14C33.7652 142.996 33.6932 142.82 33.6932 142.612C33.6932 142.404 33.7652 142.228 33.9092 142.084C34.0532 141.94 34.2292 141.868 34.4372 141.868C34.6372 141.868 34.8052 141.94 34.9412 142.084C35.0852 142.228 35.1572 142.404 35.1572 142.612C35.1572 142.82 35.0852 142.996 34.9412 143.14C34.8052 143.284 34.6372 143.356 34.4372 143.356ZM34.9652 144.424V151H33.8732V144.424H34.9652ZM39.6943 151.108C39.0783 151.108 38.5183 150.968 38.0143 150.688C37.5183 150.408 37.1263 150.012 36.8383 149.5C36.5583 148.98 36.4183 148.38 36.4183 147.7C36.4183 147.028 36.5623 146.436 36.8503 145.924C37.1463 145.404 37.5463 145.008 38.0503 144.736C38.5543 144.456 39.1183 144.316 39.7423 144.316C40.3663 144.316 40.9303 144.456 41.4343 144.736C41.9383 145.008 42.3343 145.4 42.6223 145.912C42.9183 146.424 43.0663 147.02 43.0663 147.7C43.0663 148.38 42.9143 148.98 42.6103 149.5C42.3143 150.012 41.9103 150.408 41.3983 150.688C40.8863 150.968 40.3183 151.108 39.6943 151.108ZM39.6943 150.148C40.0863 150.148 40.4543 150.056 40.7983 149.872C41.1423 149.688 41.4183 149.412 41.6263 149.044C41.8423 148.676 41.9503 148.228 41.9503 147.7C41.9503 147.172 41.8463 146.724 41.6383 146.356C41.4303 145.988 41.1583 145.716 40.8223 145.54C40.4863 145.356 40.1223 145.264 39.7303 145.264C39.3303 145.264 38.9623 145.356 38.6263 145.54C38.2983 145.716 38.0343 145.988 37.8343 146.356C37.6343 146.724 37.5343 147.172 37.5343 147.7C37.5343 148.236 37.6303 148.688 37.8223 149.056C38.0223 149.424 38.2863 149.7 38.6143 149.884C38.9423 150.06 39.3023 150.148 39.6943 150.148ZM47.7061 144.304C48.5061 144.304 49.1541 144.548 49.6501 145.036C50.1461 145.516 50.3941 146.212 50.3941 147.124V151H49.3141V147.28C49.3141 146.624 49.1501 146.124 48.8221 145.78C48.4941 145.428 48.0461 145.252 47.4781 145.252C46.9021 145.252 46.4421 145.432 46.0981 145.792C45.7621 146.152 45.5941 146.676 45.5941 147.364V151H44.5021V144.424H45.5941V145.36C45.8101 145.024 46.1021 144.764 46.4701 144.58C46.8461 144.396 47.2581 144.304 47.7061 144.304ZM54.9331 149.068V148.24L59.1451 142.408H60.4531V148.12H61.6531V149.068H60.4531V151H59.3731V149.068H54.9331ZM59.4211 143.548L56.1931 148.12H59.4211V143.548Z" fill="#666666"/>
<path d="M2.35194 192.112H5.27994V193H1.25994V184.636H2.35194V192.112ZM9.30763 193.108C8.69163 193.108 8.13163 192.968 7.62763 192.688C7.13163 192.408 6.73963 192.012 6.45163 191.5C6.17163 190.98 6.03163 190.38 6.03163 189.7C6.03163 189.028 6.17563 188.436 6.46363 187.924C6.75963 187.404 7.15963 187.008 7.66363 186.736C8.16763 186.456 8.73163 186.316 9.35563 186.316C9.97963 186.316 10.5436 186.456 11.0476 186.736C11.5516 187.008 11.9476 187.4 12.2356 187.912C12.5316 188.424 12.6796 189.02 12.6796 189.7C12.6796 190.38 12.5276 190.98 12.2236 191.5C11.9276 192.012 11.5236 192.408 11.0116 192.688C10.4996 192.968 9.93163 193.108 9.30763 193.108ZM9.30763 192.148C9.69963 192.148 10.0676 192.056 10.4116 191.872C10.7556 191.688 11.0316 191.412 11.2396 191.044C11.4556 190.676 11.5636 190.228 11.5636 189.7C11.5636 189.172 11.4596 188.724 11.2516 188.356C11.0436 187.988 10.7716 187.716 10.4356 187.54C10.0996 187.356 9.73563 187.264 9.34363 187.264C8.94363 187.264 8.57563 187.356 8.23963 187.54C7.91163 187.716 7.64763 187.988 7.44763 188.356C7.24763 188.724 7.14763 189.172 7.14763 189.7C7.14763 190.236 7.24363 190.688 7.43563 191.056C7.63563 191.424 7.89963 191.7 8.22763 191.884C8.55563 192.06 8.91563 192.148 9.30763 192.148ZM13.7074 189.7C13.7074 189.02 13.8434 188.428 14.1154 187.924C14.3874 187.412 14.7634 187.016 15.2434 186.736C15.7314 186.456 16.2874 186.316 16.9114 186.316C17.7194 186.316 18.3834 186.512 18.9034 186.904C19.4314 187.296 19.7794 187.84 19.9474 188.536H18.7714C18.6594 188.136 18.4394 187.82 18.1114 187.588C17.7914 187.356 17.3914 187.24 16.9114 187.24C16.2874 187.24 15.7834 187.456 15.3994 187.888C15.0154 188.312 14.8234 188.916 14.8234 189.7C14.8234 190.492 15.0154 191.104 15.3994 191.536C15.7834 191.968 16.2874 192.184 16.9114 192.184C17.3914 192.184 17.7914 192.072 18.1114 191.848C18.4314 191.624 18.6514 191.304 18.7714 190.888H19.9474C19.7714 191.56 19.4194 192.1 18.8914 192.508C18.3634 192.908 17.7034 193.108 16.9114 193.108C16.2874 193.108 15.7314 192.968 15.2434 192.688C14.7634 192.408 14.3874 192.012 14.1154 191.5C13.8434 190.988 13.7074 190.388 13.7074 189.7ZM20.9965 189.688C20.9965 189.016 21.1325 188.428 21.4045 187.924C21.6765 187.412 22.0485 187.016 22.5205 186.736C23.0005 186.456 23.5325 186.316 24.1165 186.316C24.6925 186.316 25.1925 186.44 25.6165 186.688C26.0405 186.936 26.3565 187.248 26.5645 187.624V186.424H27.6685V193H26.5645V191.776C26.3485 192.16 26.0245 192.48 25.5925 192.736C25.1685 192.984 24.6725 193.108 24.1045 193.108C23.5205 193.108 22.9925 192.964 22.5205 192.676C22.0485 192.388 21.6765 191.984 21.4045 191.464C21.1325 190.944 20.9965 190.352 20.9965 189.688ZM26.5645 189.7C26.5645 189.204 26.4645 188.772 26.2645 188.404C26.0645 188.036 25.7925 187.756 25.4485 187.564C25.1125 187.364 24.7405 187.264 24.3325 187.264C23.9245 187.264 23.5525 187.36 23.2165 187.552C22.8805 187.744 22.6125 188.024 22.4125 188.392C22.2125 188.76 22.1125 189.192 22.1125 189.688C22.1125 190.192 22.2125 190.632 22.4125 191.008C22.6125 191.376 22.8805 191.66 23.2165 191.86C23.5525 192.052 23.9245 192.148 24.3325 192.148C24.7405 192.148 25.1125 192.052 25.4485 191.86C25.7925 191.66 26.0645 191.376 26.2645 191.008C26.4645 190.632 26.5645 190.196 26.5645 189.7ZM30.8458 187.324V191.2C30.8458 191.52 30.9138 191.748 31.0498 191.884C31.1858 192.012 31.4218 192.076 31.7578 192.076H32.5618V193H31.5778C30.9698 193 30.5138 192.86 30.2098 192.58C29.9058 192.3 29.7538 191.84 29.7538 191.2V187.324H28.9018V186.424H29.7538V184.768H30.8458V186.424H32.5618V187.324H30.8458ZM34.4489 185.356C34.2409 185.356 34.0649 185.284 33.9209 185.14C33.7769 184.996 33.7049 184.82 33.7049 184.612C33.7049 184.404 33.7769 184.228 33.9209 184.084C34.0649 183.94 34.2409 183.868 34.4489 183.868C34.6489 183.868 34.8169 183.94 34.9529 184.084C35.0969 184.228 35.1689 184.404 35.1689 184.612C35.1689 184.82 35.0969 184.996 34.9529 185.14C34.8169 185.284 34.6489 185.356 34.4489 185.356ZM34.9769 186.424V193H33.8849V186.424H34.9769ZM39.7061 193.108C39.0901 193.108 38.5301 192.968 38.0261 192.688C37.5301 192.408 37.1381 192.012 36.8501 191.5C36.5701 190.98 36.4301 190.38 36.4301 189.7C36.4301 189.028 36.5741 188.436 36.8621 187.924C37.1581 187.404 37.5581 187.008 38.0621 186.736C38.5661 186.456 39.1301 186.316 39.7541 186.316C40.3781 186.316 40.9421 186.456 41.4461 186.736C41.9501 187.008 42.3461 187.4 42.6341 187.912C42.9301 188.424 43.0781 189.02 43.0781 189.7C43.0781 190.38 42.9261 190.98 42.6221 191.5C42.3261 192.012 41.9221 192.408 41.4101 192.688C40.8981 192.968 40.3301 193.108 39.7061 193.108ZM39.7061 192.148C40.0981 192.148 40.4661 192.056 40.8101 191.872C41.1541 191.688 41.4301 191.412 41.6381 191.044C41.8541 190.676 41.9621 190.228 41.9621 189.7C41.9621 189.172 41.8581 188.724 41.6501 188.356C41.4421 187.988 41.1701 187.716 40.8341 187.54C40.4981 187.356 40.1341 187.264 39.7421 187.264C39.3421 187.264 38.9741 187.356 38.6381 187.54C38.3101 187.716 38.0461 187.988 37.8461 188.356C37.6461 188.724 37.5461 189.172 37.5461 189.7C37.5461 190.236 37.6421 190.688 37.8341 191.056C38.0341 191.424 38.2981 191.7 38.6261 191.884C38.9541 192.06 39.3141 192.148 39.7061 192.148ZM47.7178 186.304C48.5178 186.304 49.1658 186.548 49.6618 187.036C50.1578 187.516 50.4058 188.212 50.4058 189.124V193H49.3258V189.28C49.3258 188.624 49.1618 188.124 48.8338 187.78C48.5058 187.428 48.0578 187.252 47.4898 187.252C46.9138 187.252 46.4538 187.432 46.1098 187.792C45.7738 188.152 45.6058 188.676 45.6058 189.364V193H44.5138V186.424H45.6058V187.36C45.8218 187.024 46.1138 186.764 46.4818 186.58C46.8578 186.396 47.2698 186.304 47.7178 186.304ZM60.7408 185.272H56.5288V188.008C56.7128 187.752 56.9848 187.544 57.3448 187.384C57.7048 187.216 58.0928 187.132 58.5088 187.132C59.1728 187.132 59.7128 187.272 60.1288 187.552C60.5448 187.824 60.8408 188.18 61.0168 188.62C61.2008 189.052 61.2928 189.512 61.2928 190C61.2928 190.576 61.1848 191.092 60.9688 191.548C60.7528 192.004 60.4208 192.364 59.9728 192.628C59.5328 192.892 58.9848 193.024 58.3288 193.024C57.4888 193.024 56.8088 192.808 56.2888 192.376C55.7688 191.944 55.4528 191.368 55.3408 190.648H56.4088C56.5128 191.104 56.7328 191.46 57.0688 191.716C57.4048 191.972 57.8288 192.1 58.3408 192.1C58.9728 192.1 59.4488 191.912 59.7688 191.536C60.0888 191.152 60.2488 190.648 60.2488 190.024C60.2488 189.4 60.0888 188.92 59.7688 188.584C59.4488 188.24 58.9768 188.068 58.3528 188.068C57.9288 188.068 57.5568 188.172 57.2368 188.38C56.9248 188.58 56.6968 188.856 56.5528 189.208H55.5208V184.312H60.7408V185.272Z" fill="#666666"/>
<path d="M107.744 222.572C107.744 221.196 107.968 220.124 108.416 219.356C108.864 218.58 109.648 218.192 110.768 218.192C111.88 218.192 112.66 218.58 113.108 219.356C113.556 220.124 113.78 221.196 113.78 222.572C113.78 223.972 113.556 225.06 113.108 225.836C112.66 226.612 111.88 227 110.768 227C109.648 227 108.864 226.612 108.416 225.836C107.968 225.06 107.744 223.972 107.744 222.572ZM112.7 222.572C112.7 221.876 112.652 221.288 112.556 220.808C112.468 220.32 112.28 219.928 111.992 219.632C111.712 219.336 111.304 219.188 110.768 219.188C110.224 219.188 109.808 219.336 109.52 219.632C109.24 219.928 109.052 220.32 108.956 220.808C108.868 221.288 108.824 221.876 108.824 222.572C108.824 223.292 108.868 223.896 108.956 224.384C109.052 224.872 109.24 225.264 109.52 225.56C109.808 225.856 110.224 226.004 110.768 226.004C111.304 226.004 111.712 225.856 111.992 225.56C112.28 225.264 112.468 224.872 112.556 224.384C112.652 223.896 112.7 223.292 112.7 222.572Z" fill="#666666"/>
<path d="M147.456 219.32V218.324H149.712V227H148.608V219.32H147.456Z" fill="#666666"/>
<path d="M183.612 226.124C184.628 225.308 185.424 224.64 186 224.12C186.576 223.592 187.06 223.044 187.452 222.476C187.852 221.9 188.052 221.336 188.052 220.784C188.052 220.264 187.924 219.856 187.668 219.56C187.42 219.256 187.016 219.104 186.456 219.104C185.912 219.104 185.488 219.276 185.184 219.62C184.888 219.956 184.728 220.408 184.704 220.976H183.648C183.68 220.08 183.952 219.388 184.464 218.9C184.976 218.412 185.636 218.168 186.444 218.168C187.268 218.168 187.92 218.396 188.4 218.852C188.888 219.308 189.132 219.936 189.132 220.736C189.132 221.4 188.932 222.048 188.532 222.68C188.14 223.304 187.692 223.856 187.188 224.336C186.684 224.808 186.04 225.36 185.256 225.992H189.384V226.904H183.612V226.124Z" fill="#666666"/>
<path d="M222.72 220.508C222.776 219.772 223.06 219.196 223.572 218.78C224.084 218.364 224.748 218.156 225.564 218.156C226.108 218.156 226.576 218.256 226.968 218.456C227.368 218.648 227.668 218.912 227.868 219.248C228.076 219.584 228.18 219.964 228.18 220.388C228.18 220.884 228.036 221.312 227.748 221.672C227.468 222.032 227.1 222.264 226.644 222.368V222.428C227.164 222.556 227.576 222.808 227.88 223.184C228.184 223.56 228.336 224.052 228.336 224.66C228.336 225.116 228.232 225.528 228.024 225.896C227.816 226.256 227.504 226.54 227.088 226.748C226.672 226.956 226.172 227.06 225.588 227.06C224.74 227.06 224.044 226.84 223.5 226.4C222.956 225.952 222.652 225.32 222.588 224.504H223.644C223.7 224.984 223.896 225.376 224.232 225.68C224.568 225.984 225.016 226.136 225.576 226.136C226.136 226.136 226.56 225.992 226.848 225.704C227.144 225.408 227.292 225.028 227.292 224.564C227.292 223.964 227.092 223.532 226.692 223.268C226.292 223.004 225.688 222.872 224.88 222.872H224.604V221.96H224.892C225.628 221.952 226.184 221.832 226.56 221.6C226.936 221.36 227.124 220.992 227.124 220.496C227.124 220.072 226.984 219.732 226.704 219.476C226.432 219.22 226.04 219.092 225.528 219.092C225.032 219.092 224.632 219.22 224.328 219.476C224.024 219.732 223.844 220.076 223.788 220.508H222.72Z" fill="#666666"/>
<path d="M262.48 225.068V224.24L266.692 218.408H268V224.12H269.2V225.068H268V227H266.92V225.068H262.48ZM266.968 219.548L263.74 224.12H266.968V219.548Z" fill="#666666"/>
<path d="M308.276 219.272H304.064V222.008C304.248 221.752 304.52 221.544 304.88 221.384C305.24 221.216 305.628 221.132 306.044 221.132C306.708 221.132 307.248 221.272 307.664 221.552C308.08 221.824 308.376 222.18 308.552 222.62C308.736 223.052 308.828 223.512 308.828 224C308.828 224.576 308.72 225.092 308.504 225.548C308.288 226.004 307.956 226.364 307.508 226.628C307.068 226.892 306.52 227.024 305.864 227.024C305.024 227.024 304.344 226.808 303.824 226.376C303.304 225.944 302.988 225.368 302.876 224.648H303.944C304.048 225.104 304.268 225.46 304.604 225.716C304.94 225.972 305.364 226.1 305.876 226.1C306.508 226.1 306.984 225.912 307.304 225.536C307.624 225.152 307.784 224.648 307.784 224.024C307.784 223.4 307.624 222.92 307.304 222.584C306.984 222.24 306.512 222.068 305.888 222.068C305.464 222.068 305.092 222.172 304.772 222.38C304.46 222.58 304.232 222.856 304.088 223.208H303.056V218.312H308.276V219.272Z" fill="#666666"/>
<path d="M347.58 220.388C347.404 219.5 346.856 219.056 345.936 219.056C345.224 219.056 344.692 219.332 344.34 219.884C343.988 220.428 343.816 221.328 343.824 222.584C344.008 222.168 344.312 221.844 344.736 221.612C345.168 221.372 345.648 221.252 346.176 221.252C347 221.252 347.656 221.508 348.144 222.02C348.64 222.532 348.888 223.24 348.888 224.144C348.888 224.688 348.78 225.176 348.564 225.608C348.356 226.04 348.036 226.384 347.604 226.64C347.18 226.896 346.664 227.024 346.056 227.024C345.232 227.024 344.588 226.84 344.124 226.472C343.66 226.104 343.336 225.596 343.152 224.948C342.968 224.3 342.876 223.5 342.876 222.548C342.876 219.612 343.9 218.144 345.948 218.144C346.732 218.144 347.348 218.356 347.796 218.78C348.244 219.204 348.508 219.74 348.588 220.388H347.58ZM345.948 222.176C345.604 222.176 345.28 222.248 344.976 222.392C344.672 222.528 344.424 222.74 344.232 223.028C344.048 223.308 343.956 223.652 343.956 224.06C343.956 224.668 344.132 225.164 344.484 225.548C344.836 225.924 345.34 226.112 345.996 226.112C346.556 226.112 347 225.94 347.328 225.596C347.664 225.244 347.832 224.772 347.832 224.18C347.832 223.556 347.672 223.068 347.352 222.716C347.032 222.356 346.564 222.176 345.948 222.176Z" fill="#666666"/>
<path d="M388.084 219.176L384.748 227H383.644L387.028 219.284H382.396V218.348H388.084V219.176Z" fill="#666666"/>
<path d="M423.328 222.488C422.88 222.312 422.536 222.056 422.296 221.72C422.056 221.384 421.936 220.976 421.936 220.496C421.936 220.064 422.044 219.676 422.26 219.332C422.476 218.98 422.796 218.704 423.22 218.504C423.652 218.296 424.172 218.192 424.78 218.192C425.388 218.192 425.904 218.296 426.328 218.504C426.76 218.704 427.084 218.98 427.3 219.332C427.524 219.676 427.636 220.064 427.636 220.496C427.636 220.96 427.512 221.368 427.264 221.72C427.016 222.064 426.676 222.32 426.244 222.488C426.74 222.64 427.132 222.908 427.42 223.292C427.716 223.668 427.864 224.124 427.864 224.66C427.864 225.18 427.736 225.636 427.48 226.028C427.224 226.412 426.86 226.712 426.388 226.928C425.924 227.136 425.388 227.24 424.78 227.24C424.172 227.24 423.636 227.136 423.172 226.928C422.716 226.712 422.36 226.412 422.104 226.028C421.848 225.636 421.72 225.18 421.72 224.66C421.72 224.124 421.864 223.664 422.152 223.28C422.44 222.896 422.832 222.632 423.328 222.488ZM426.58 220.628C426.58 220.14 426.42 219.764 426.1 219.5C425.78 219.236 425.34 219.104 424.78 219.104C424.228 219.104 423.792 219.236 423.472 219.5C423.152 219.764 422.992 220.144 422.992 220.64C422.992 221.088 423.156 221.448 423.484 221.72C423.82 221.992 424.252 222.128 424.78 222.128C425.316 222.128 425.748 221.992 426.076 221.72C426.412 221.44 426.58 221.076 426.58 220.628ZM424.78 222.968C424.188 222.968 423.704 223.108 423.328 223.388C422.952 223.66 422.764 224.072 422.764 224.624C422.764 225.136 422.944 225.548 423.304 225.86C423.672 226.172 424.164 226.328 424.78 226.328C425.396 226.328 425.884 226.172 426.244 225.86C426.604 225.548 426.784 225.136 426.784 224.624C426.784 224.088 426.6 223.68 426.232 223.4C425.864 223.112 425.38 222.968 424.78 222.968Z" fill="#666666"/>
<path d="M463.148 224.672C463.228 225.128 463.412 225.48 463.7 225.728C463.996 225.976 464.392 226.1 464.888 226.1C465.552 226.1 466.04 225.84 466.352 225.32C466.672 224.8 466.824 223.924 466.808 222.692C466.64 223.052 466.36 223.336 465.968 223.544C465.576 223.744 465.14 223.844 464.66 223.844C464.124 223.844 463.644 223.736 463.22 223.52C462.804 223.296 462.476 222.972 462.236 222.548C461.996 222.124 461.876 221.612 461.876 221.012C461.876 220.156 462.124 219.468 462.62 218.948C463.116 218.42 463.82 218.156 464.732 218.156C465.852 218.156 466.636 218.52 467.084 219.248C467.54 219.976 467.768 221.06 467.768 222.5C467.768 223.508 467.676 224.34 467.492 224.996C467.316 225.652 467.012 226.152 466.58 226.496C466.156 226.84 465.572 227.012 464.828 227.012C464.012 227.012 463.376 226.792 462.92 226.352C462.464 225.912 462.204 225.352 462.14 224.672H463.148ZM464.84 222.92C465.376 222.92 465.816 222.756 466.16 222.428C466.504 222.092 466.676 221.64 466.676 221.072C466.676 220.472 466.508 219.988 466.172 219.62C465.836 219.252 465.364 219.068 464.756 219.068C464.196 219.068 463.748 219.244 463.412 219.596C463.084 219.948 462.92 220.412 462.92 220.988C462.92 221.572 463.084 222.04 463.412 222.392C463.74 222.744 464.216 222.92 464.84 222.92Z" fill="#666666"/>
<path d="M501.456 219.32V218.324H503.712V227H502.608V219.32H501.456ZM505.588 222.572C505.588 221.196 505.812 220.124 506.26 219.356C506.708 218.58 507.492 218.192 508.612 218.192C509.724 218.192 510.504 218.58 510.952 219.356C511.4 220.124 511.624 221.196 511.624 222.572C511.624 223.972 511.4 225.06 510.952 225.836C510.504 226.612 509.724 227 508.612 227C507.492 227 506.708 226.612 506.26 225.836C505.812 225.06 505.588 223.972 505.588 222.572ZM510.544 222.572C510.544 221.876 510.496 221.288 510.4 220.808C510.312 220.32 510.124 219.928 509.836 219.632C509.556 219.336 509.148 219.188 508.612 219.188C508.068 219.188 507.652 219.336 507.364 219.632C507.084 219.928 506.896 220.32 506.8 220.808C506.712 221.288 506.668 221.876 506.668 222.572C506.668 223.292 506.712 223.896 506.8 224.384C506.896 224.872 507.084 225.264 507.364 225.56C507.652 225.856 508.068 226.004 508.612 226.004C509.148 226.004 509.556 225.856 509.836 225.56C510.124 225.264 510.312 224.872 510.4 224.384C510.496 223.896 510.544 223.292 510.544 222.572Z" fill="#666666"/>
<path d="M545.456 219.32V218.324H547.712V227H546.608V219.32H545.456ZM549.588 222.572C549.588 221.196 549.812 220.124 550.26 219.356C550.708 218.58 551.492 218.192 552.612 218.192C553.724 218.192 554.504 218.58 554.952 219.356C555.4 220.124 555.624 221.196 555.624 222.572C555.624 223.972 555.4 225.06 554.952 225.836C554.504 226.612 553.724 227 552.612 227C551.492 227 550.708 226.612 550.26 225.836C549.812 225.06 549.588 223.972 549.588 222.572ZM554.544 222.572C554.544 221.876 554.496 221.288 554.4 220.808C554.312 220.32 554.124 219.928 553.836 219.632C553.556 219.336 553.148 219.188 552.612 219.188C552.068 219.188 551.652 219.336 551.364 219.632C551.084 219.928 550.896 220.32 550.8 220.808C550.712 221.288 550.668 221.876 550.668 222.572C550.668 223.292 550.712 223.896 550.8 224.384C550.896 224.872 551.084 225.264 551.364 225.56C551.652 225.856 552.068 226.004 552.612 226.004C553.148 226.004 553.556 225.856 553.836 225.56C554.124 225.264 554.312 224.872 554.4 224.384C554.496 223.896 554.544 223.292 554.544 222.572ZM563.543 223.076H560.987V225.668H559.967V223.076H557.423V222.152H559.967V219.548H560.987V222.152H563.543V223.076Z" fill="#666666"/>
<g filter="url(#filter0_d)">
<rect x="110.25" y="12.25" width="0.5" height="185.5" stroke="#B2B9BF" stroke-width="0.5" stroke-dasharray="4 4"/>
</g>
<g filter="url(#filter1_d)">
<rect x="150.25" y="12.25" width="0.5" height="185.5" stroke="#B2B9BF" stroke-width="0.5" stroke-dasharray="4 4"/>
</g>
<g filter="url(#filter2_d)">
<rect x="190.25" y="12.25" width="0.5" height="185.5" stroke="#B2B9BF" stroke-width="0.5" stroke-dasharray="4 4"/>
</g>
<g filter="url(#filter3_d)">
<rect x="230.25" y="12.25" width="0.5" height="185.5" stroke="#B2B9BF" stroke-width="0.5" stroke-dasharray="4 4"/>
</g>
<g filter="url(#filter4_d)">
<rect x="270.25" y="12.25" width="0.5" height="185.5" stroke="#B2B9BF" stroke-width="0.5" stroke-dasharray="4 4"/>
</g>
<g filter="url(#filter5_d)">
<rect x="310.25" y="12.25" width="0.5" height="185.5" stroke="#B2B9BF" stroke-width="0.5" stroke-dasharray="4 4"/>
</g>
<g filter="url(#filter6_d)">
<rect x="350.25" y="12.25" width="0.5" height="185.5" stroke="#B2B9BF" stroke-width="0.5" stroke-dasharray="4 4"/>
</g>
<g filter="url(#filter7_d)">
<rect x="390.25" y="12.25" width="0.5" height="185.5" stroke="#B2B9BF" stroke-width="0.5" stroke-dasharray="4 4"/>
</g>
<g filter="url(#filter8_d)">
<rect x="430.25" y="12.25" width="0.5" height="185.5" stroke="#B2B9BF" stroke-width="0.5" stroke-dasharray="4 4"/>
</g>
<g filter="url(#filter9_d)">
<rect x="470.25" y="12.25" width="0.5" height="185.5" stroke="#B2B9BF" stroke-width="0.5" stroke-dasharray="4 4"/>
</g>
<g filter="url(#filter10_d)">
<rect x="510.25" y="12.25" width="0.5" height="185.5" stroke="#B2B9BF" stroke-width="0.5" stroke-dasharray="4 4"/>
</g>
<g filter="url(#filter11_d)">
<rect x="550.25" y="12.25" width="0.5" height="185.5" stroke="#B2B9BF" stroke-width="0.5" stroke-dasharray="4 4"/>
</g>
<g filter="url(#filter12_d)">
<rect width="153" height="24" transform="matrix(1 0 0 -1 78 76)" fill="#2F99E7"/>
</g>
<g filter="url(#filter13_d)">
<rect width="473" height="24" transform="matrix(1 0 0 -1 78 116)" fill="#2F99E7"/>
</g>
<g filter="url(#filter14_d)">
<rect width="273" height="24" transform="matrix(1 0 0 -1 78 159)" fill="#2F99E7"/>
</g>
<g filter="url(#filter15_d)">
<rect width="393" height="24" transform="matrix(1 0 0 -1 78 198)" fill="#2F99E7"/>
</g>
<g filter="url(#filter16_d)">
<rect width="233" height="24" transform="matrix(1 0 0 -1 78 36)" fill="#2F99E7"/>
</g>
<defs>
<filter id="filter0_d" x="86" y="0" width="49" height="234" filterUnits="userSpaceOnUse" color-interpolation-filters="sRGB">
<feFlood flood-opacity="0" result="BackgroundImageFix"/>
<feColorMatrix in="SourceAlpha" type="matrix" values="0 0 0 0 0 0 0 0 0 0 0 0 0 0 0 0 0 0 127 0" result="hardAlpha"/>
<feOffset dy="12"/>
<feGaussianBlur stdDeviation="12"/>
<feColorMatrix type="matrix" values="0 0 0 0 0.0683684 0 0 0 0 0.446888 0 0 0 0 0.725422 0 0 0 0.06 0"/>
<feBlend mode="normal" in2="BackgroundImageFix" result="effect1_dropShadow"/>
<feBlend mode="normal" in="SourceGraphic" in2="effect1_dropShadow" result="shape"/>
</filter>
<filter id="filter1_d" x="126" y="0" width="49" height="234" filterUnits="userSpaceOnUse" color-interpolation-filters="sRGB">
<feFlood flood-opacity="0" result="BackgroundImageFix"/>
<feColorMatrix in="SourceAlpha" type="matrix" values="0 0 0 0 0 0 0 0 0 0 0 0 0 0 0 0 0 0 127 0" result="hardAlpha"/>
<feOffset dy="12"/>
<feGaussianBlur stdDeviation="12"/>
<feColorMatrix type="matrix" values="0 0 0 0 0.0683684 0 0 0 0 0.446888 0 0 0 0 0.725422 0 0 0 0.06 0"/>
<feBlend mode="normal" in2="BackgroundImageFix" result="effect1_dropShadow"/>
<feBlend mode="normal" in="SourceGraphic" in2="effect1_dropShadow" result="shape"/>
</filter>
<filter id="filter2_d" x="166" y="0" width="49" height="234" filterUnits="userSpaceOnUse" color-interpolation-filters="sRGB">
<feFlood flood-opacity="0" result="BackgroundImageFix"/>
<feColorMatrix in="SourceAlpha" type="matrix" values="0 0 0 0 0 0 0 0 0 0 0 0 0 0 0 0 0 0 127 0" result="hardAlpha"/>
<feOffset dy="12"/>
<feGaussianBlur stdDeviation="12"/>
<feColorMatrix type="matrix" values="0 0 0 0 0.0683684 0 0 0 0 0.446888 0 0 0 0 0.725422 0 0 0 0.06 0"/>
<feBlend mode="normal" in2="BackgroundImageFix" result="effect1_dropShadow"/>
<feBlend mode="normal" in="SourceGraphic" in2="effect1_dropShadow" result="shape"/>
</filter>
<filter id="filter3_d" x="206" y="0" width="49" height="234" filterUnits="userSpaceOnUse" color-interpolation-filters="sRGB">
<feFlood flood-opacity="0" result="BackgroundImageFix"/>
<feColorMatrix in="SourceAlpha" type="matrix" values="0 0 0 0 0 0 0 0 0 0 0 0 0 0 0 0 0 0 127 0" result="hardAlpha"/>
<feOffset dy="12"/>
<feGaussianBlur stdDeviation="12"/>
<feColorMatrix type="matrix" values="0 0 0 0 0.0683684 0 0 0 0 0.446888 0 0 0 0 0.725422 0 0 0 0.06 0"/>
<feBlend mode="normal" in2="BackgroundImageFix" result="effect1_dropShadow"/>
<feBlend mode="normal" in="SourceGraphic" in2="effect1_dropShadow" result="shape"/>
</filter>
<filter id="filter4_d" x="246" y="0" width="49" height="234" filterUnits="userSpaceOnUse" color-interpolation-filters="sRGB">
<feFlood flood-opacity="0" result="BackgroundImageFix"/>
<feColorMatrix in="SourceAlpha" type="matrix" values="0 0 0 0 0 0 0 0 0 0 0 0 0 0 0 0 0 0 127 0" result="hardAlpha"/>
<feOffset dy="12"/>
<feGaussianBlur stdDeviation="12"/>
<feColorMatrix type="matrix" values="0 0 0 0 0.0683684 0 0 0 0 0.446888 0 0 0 0 0.725422 0 0 0 0.06 0"/>
<feBlend mode="normal" in2="BackgroundImageFix" result="effect1_dropShadow"/>
<feBlend mode="normal" in="SourceGraphic" in2="effect1_dropShadow" result="shape"/>
</filter>
<filter id="filter5_d" x="286" y="0" width="49" height="234" filterUnits="userSpaceOnUse" color-interpolation-filters="sRGB">
<feFlood flood-opacity="0" result="BackgroundImageFix"/>
<feColorMatrix in="SourceAlpha" type="matrix" values="0 0 0 0 0 0 0 0 0 0 0 0 0 0 0 0 0 0 127 0" result="hardAlpha"/>
<feOffset dy="12"/>
<feGaussianBlur stdDeviation="12"/>
<feColorMatrix type="matrix" values="0 0 0 0 0.0683684 0 0 0 0 0.446888 0 0 0 0 0.725422 0 0 0 0.06 0"/>
<feBlend mode="normal" in2="BackgroundImageFix" result="effect1_dropShadow"/>
<feBlend mode="normal" in="SourceGraphic" in2="effect1_dropShadow" result="shape"/>
</filter>
<filter id="filter6_d" x="326" y="0" width="49" height="234" filterUnits="userSpaceOnUse" color-interpolation-filters="sRGB">
<feFlood flood-opacity="0" result="BackgroundImageFix"/>
<feColorMatrix in="SourceAlpha" type="matrix" values="0 0 0 0 0 0 0 0 0 0 0 0 0 0 0 0 0 0 127 0" result="hardAlpha"/>
<feOffset dy="12"/>
<feGaussianBlur stdDeviation="12"/>
<feColorMatrix type="matrix" values="0 0 0 0 0.0683684 0 0 0 0 0.446888 0 0 0 0 0.725422 0 0 0 0.06 0"/>
<feBlend mode="normal" in2="BackgroundImageFix" result="effect1_dropShadow"/>
<feBlend mode="normal" in="SourceGraphic" in2="effect1_dropShadow" result="shape"/>
</filter>
<filter id="filter7_d" x="366" y="0" width="49" height="234" filterUnits="userSpaceOnUse" color-interpolation-filters="sRGB">
<feFlood flood-opacity="0" result="BackgroundImageFix"/>
<feColorMatrix in="SourceAlpha" type="matrix" values="0 0 0 0 0 0 0 0 0 0 0 0 0 0 0 0 0 0 127 0" result="hardAlpha"/>
<feOffset dy="12"/>
<feGaussianBlur stdDeviation="12"/>
<feColorMatrix type="matrix" values="0 0 0 0 0.0683684 0 0 0 0 0.446888 0 0 0 0 0.725422 0 0 0 0.06 0"/>
<feBlend mode="normal" in2="BackgroundImageFix" result="effect1_dropShadow"/>
<feBlend mode="normal" in="SourceGraphic" in2="effect1_dropShadow" result="shape"/>
</filter>
<filter id="filter8_d" x="406" y="0" width="49" height="234" filterUnits="userSpaceOnUse" color-interpolation-filters="sRGB">
<feFlood flood-opacity="0" result="BackgroundImageFix"/>
<feColorMatrix in="SourceAlpha" type="matrix" values="0 0 0 0 0 0 0 0 0 0 0 0 0 0 0 0 0 0 127 0" result="hardAlpha"/>
<feOffset dy="12"/>
<feGaussianBlur stdDeviation="12"/>
<feColorMatrix type="matrix" values="0 0 0 0 0.0683684 0 0 0 0 0.446888 0 0 0 0 0.725422 0 0 0 0.06 0"/>
<feBlend mode="normal" in2="BackgroundImageFix" result="effect1_dropShadow"/>
<feBlend mode="normal" in="SourceGraphic" in2="effect1_dropShadow" result="shape"/>
</filter>
<filter id="filter9_d" x="446" y="0" width="49" height="234" filterUnits="userSpaceOnUse" color-interpolation-filters="sRGB">
<feFlood flood-opacity="0" result="BackgroundImageFix"/>
<feColorMatrix in="SourceAlpha" type="matrix" values="0 0 0 0 0 0 0 0 0 0 0 0 0 0 0 0 0 0 127 0" result="hardAlpha"/>
<feOffset dy="12"/>
<feGaussianBlur stdDeviation="12"/>
<feColorMatrix type="matrix" values="0 0 0 0 0.0683684 0 0 0 0 0.446888 0 0 0 0 0.725422 0 0 0 0.06 0"/>
<feBlend mode="normal" in2="BackgroundImageFix" result="effect1_dropShadow"/>
<feBlend mode="normal" in="SourceGraphic" in2="effect1_dropShadow" result="shape"/>
</filter>
<filter id="filter10_d" x="486" y="0" width="49" height="234" filterUnits="userSpaceOnUse" color-interpolation-filters="sRGB">
<feFlood flood-opacity="0" result="BackgroundImageFix"/>
<feColorMatrix in="SourceAlpha" type="matrix" values="0 0 0 0 0 0 0 0 0 0 0 0 0 0 0 0 0 0 127 0" result="hardAlpha"/>
<feOffset dy="12"/>
<feGaussianBlur stdDeviation="12"/>
<feColorMatrix type="matrix" values="0 0 0 0 0.0683684 0 0 0 0 0.446888 0 0 0 0 0.725422 0 0 0 0.06 0"/>
<feBlend mode="normal" in2="BackgroundImageFix" result="effect1_dropShadow"/>
<feBlend mode="normal" in="SourceGraphic" in2="effect1_dropShadow" result="shape"/>
</filter>
<filter id="filter11_d" x="526" y="0" width="49" height="234" filterUnits="userSpaceOnUse" color-interpolation-filters="sRGB">
<feFlood flood-opacity="0" result="BackgroundImageFix"/>
<feColorMatrix in="SourceAlpha" type="matrix" values="0 0 0 0 0 0 0 0 0 0 0 0 0 0 0 0 0 0 127 0" result="hardAlpha"/>
<feOffset dy="12"/>
<feGaussianBlur stdDeviation="12"/>
<feColorMatrix type="matrix" values="0 0 0 0 0.0683684 0 0 0 0 0.446888 0 0 0 0 0.725422 0 0 0 0.06 0"/>
<feBlend mode="normal" in2="BackgroundImageFix" result="effect1_dropShadow"/>
<feBlend mode="normal" in="SourceGraphic" in2="effect1_dropShadow" result="shape"/>
</filter>
<filter id="filter12_d" x="54" y="40" width="201" height="72" filterUnits="userSpaceOnUse" color-interpolation-filters="sRGB">
<feFlood flood-opacity="0" result="BackgroundImageFix"/>
<feColorMatrix in="SourceAlpha" type="matrix" values="0 0 0 0 0 0 0 0 0 0 0 0 0 0 0 0 0 0 127 0" result="hardAlpha"/>
<feOffset dy="12"/>
<feGaussianBlur stdDeviation="12"/>
<feColorMatrix type="matrix" values="0 0 0 0 0.0683684 0 0 0 0 0.446888 0 0 0 0 0.725422 0 0 0 0.06 0"/>
<feBlend mode="normal" in2="BackgroundImageFix" result="effect1_dropShadow"/>
<feBlend mode="normal" in="SourceGraphic" in2="effect1_dropShadow" result="shape"/>
</filter>
<filter id="filter13_d" x="54" y="80" width="521" height="72" filterUnits="userSpaceOnUse" color-interpolation-filters="sRGB">
<feFlood flood-opacity="0" result="BackgroundImageFix"/>
<feColorMatrix in="SourceAlpha" type="matrix" values="0 0 0 0 0 0 0 0 0 0 0 0 0 0 0 0 0 0 127 0" result="hardAlpha"/>
<feOffset dy="12"/>
<feGaussianBlur stdDeviation="12"/>
<feColorMatrix type="matrix" values="0 0 0 0 0.0683684 0 0 0 0 0.446888 0 0 0 0 0.725422 0 0 0 0.06 0"/>
<feBlend mode="normal" in2="BackgroundImageFix" result="effect1_dropShadow"/>
<feBlend mode="normal" in="SourceGraphic" in2="effect1_dropShadow" result="shape"/>
</filter>
<filter id="filter14_d" x="54" y="123" width="321" height="72" filterUnits="userSpaceOnUse" color-interpolation-filters="sRGB">
<feFlood flood-opacity="0" result="BackgroundImageFix"/>
<feColorMatrix in="SourceAlpha" type="matrix" values="0 0 0 0 0 0 0 0 0 0 0 0 0 0 0 0 0 0 127 0" result="hardAlpha"/>
<feOffset dy="12"/>
<feGaussianBlur stdDeviation="12"/>
<feColorMatrix type="matrix" values="0 0 0 0 0.0683684 0 0 0 0 0.446888 0 0 0 0 0.725422 0 0 0 0.06 0"/>
<feBlend mode="normal" in2="BackgroundImageFix" result="effect1_dropShadow"/>
<feBlend mode="normal" in="SourceGraphic" in2="effect1_dropShadow" result="shape"/>
</filter>
<filter id="filter15_d" x="54" y="162" width="441" height="72" filterUnits="userSpaceOnUse" color-interpolation-filters="sRGB">
<feFlood flood-opacity="0" result="BackgroundImageFix"/>
<feColorMatrix in="SourceAlpha" type="matrix" values="0 0 0 0 0 0 0 0 0 0 0 0 0 0 0 0 0 0 127 0" result="hardAlpha"/>
<feOffset dy="12"/>
<feGaussianBlur stdDeviation="12"/>
<feColorMatrix type="matrix" values="0 0 0 0 0.0683684 0 0 0 0 0.446888 0 0 0 0 0.725422 0 0 0 0.06 0"/>
<feBlend mode="normal" in2="BackgroundImageFix" result="effect1_dropShadow"/>
<feBlend mode="normal" in="SourceGraphic" in2="effect1_dropShadow" result="shape"/>
</filter>
<filter id="filter16_d" x="54" y="0" width="281" height="72" filterUnits="userSpaceOnUse" color-interpolation-filters="sRGB">
<feFlood flood-opacity="0" result="BackgroundImageFix"/>
<feColorMatrix in="SourceAlpha" type="matrix" values="0 0 0 0 0 0 0 0 0 0 0 0 0 0 0 0 0 0 127 0" result="hardAlpha"/>
<feOffset dy="12"/>
<feGaussianBlur stdDeviation="12"/>
<feColorMatrix type="matrix" values="0 0 0 0 0.0683684 0 0 0 0 0.446888 0 0 0 0 0.725422 0 0 0 0.06 0"/>
<feBlend mode="normal" in2="BackgroundImageFix" result="effect1_dropShadow"/>
<feBlend mode="normal" in="SourceGraphic" in2="effect1_dropShadow" result="shape"/>
</filter>
</defs>
</svg>
