<svg width="20" height="20" viewBox="0 0 20 20" fill="none" xmlns="http://www.w3.org/2000/svg">
<path d="M15.2556 4.76562C13.9417 3.35937 12.0095 2.5 10 2.5C7.99052 2.5 6.05833 3.28125 4.74444 4.76562C3.66242 6.01562 3.1214 7.57812 3.27598 9.14062C3.27598 9.45312 3.35327 9.76562 3.43055 10C4.12614 13.2812 7.68137 16.1719 9.22712 17.2656C9.45899 17.4219 9.69085 17.5 10 17.5C10.3092 17.5 10.541 17.4219 10.7729 17.2656C12.2413 16.1719 15.8739 13.2812 16.5694 10C16.6467 9.76562 16.6467 9.45312 16.724 9.14062C16.8786 7.57812 16.3376 6.01562 15.2556 4.76562ZM10 11.4844C8.84069 11.4844 7.83595 10.5469 7.83595 9.29687C7.83595 8.04687 8.7634 7.10937 10 7.10937C11.2366 7.10937 12.1641 8.04687 12.1641 9.29687C12.1641 10.5469 11.1593 11.4844 10 11.4844Z" fill="white"/>
</svg>
