<svg width="16" height="16" viewBox="0 0 16 16" fill="none" xmlns="http://www.w3.org/2000/svg">
<path d="M12.2041 3.8125C11.1529 2.6875 9.60719 2 7.99961 2C6.39203 2 4.84628 2.625 3.79516 3.8125C2.92954 4.8125 2.49673 6.0625 2.62039 7.3125C2.62039 7.5625 2.68222 7.8125 2.74405 8C3.30052 10.625 6.14471 12.9375 7.38131 13.8125C7.5668 13.9375 7.75229 14 7.99961 14C8.24693 14 8.43242 13.9375 8.61791 13.8125C9.79268 12.9375 12.6987 10.625 13.2552 8C13.317 7.8125 13.317 7.5625 13.3788 7.3125C13.5025 6.0625 13.0697 4.8125 12.2041 3.8125ZM7.99961 9.1875C7.07216 9.1875 6.26837 8.4375 6.26837 7.4375C6.26837 6.4375 7.01033 5.6875 7.99961 5.6875C8.98889 5.6875 9.73085 6.4375 9.73085 7.4375C9.73085 8.4375 8.92706 9.1875 7.99961 9.1875Z" fill="#2F99E7"/>
</svg>
