<svg width="779" height="820" fill="none" xmlns="http://www.w3.org/2000/svg"><path fill="url(#paint0_linear)" d="M0 0h779v820H0z"/><path fill="url(#paint1_linear)" d="M0 0h779v820H0z"/><g opacity=".06"><path d="M104.235 727.149v-90.937L183.1 681.68l-78.865 45.469z" fill="#fff"/><path d="M264.08 148.427l69.717-40.195v80.39l-69.717-40.195z" fill="#161A1D"/><path d="M241.259 554.039h40.247v40.19h40.247v40.191H362" stroke="#fff" stroke-width="6.99" stroke-linecap="round" stroke-linejoin="round"/><path d="M29.97 205.043h19.06v19.033h19.06v19.033h19.06" stroke="#fff" stroke-width="3.31" stroke-linecap="round" stroke-linejoin="round"/><path d="M119.327 488.24l-6.024 22.451-22.482-6.016-6.024 22.451-22.483-6.015-6.024 22.45M305.551 0l-6.024 22.45-22.483-6.015-6.024 22.451-22.482-6.016-6.024 22.451" stroke="#000" stroke-width="3" stroke-linecap="round" stroke-linejoin="round"/><path d="M105.842 48.738l11.082 105.413-96.959-43.122 85.877-62.29z" fill="#fff"/></g><g opacity=".06"><path d="M671.776 72.004v93.545l-81.125-46.772 81.125-46.773z" fill="#fff"/><path d="M507.349 667.318l-71.716 41.347v-82.694l71.716 41.347z" fill="#161A1D"/><path d="M530.825 250.078h-41.401v-41.343h-41.401v-41.343h-41.401" stroke="#fff" stroke-width="6.99" stroke-linecap="round" stroke-linejoin="round"/><path d="M748.17 609.078h-19.606V589.5h-19.606v-19.579h-19.606" stroke="#fff" stroke-width="3.31" stroke-linecap="round" stroke-linejoin="round"/><path d="M656.252 317.763l6.197-23.095 23.127 6.188 6.196-23.094 23.127 6.188 6.197-23.094M464.689 820l6.197-23.094 23.127 6.188 6.197-23.095 23.127 6.188 6.196-23.094" stroke="#000" stroke-width="3" stroke-linecap="round" stroke-linejoin="round"/><path d="M670.124 769.865L658.723 661.43l99.739 44.358-88.338 64.077z" fill="#fff"/></g><defs><linearGradient id="paint0_linear" x1="173.457" y1="324.186" x2="1064.01" y2="1280.69" gradientUnits="userSpaceOnUse"><stop stop-color="#2F99E7"/><stop offset="1" stop-color="#5133B6"/></linearGradient><linearGradient id="paint1_linear" x1="173.457" y1="324.186" x2="1064.01" y2="1280.69" gradientUnits="userSpaceOnUse"><stop stop-color="#2F99E7"/><stop offset="1" stop-color="#5133B6"/></linearGradient></defs></svg>