<svg width="20" height="20" viewBox="0 0 20 20" fill="none" xmlns="http://www.w3.org/2000/svg">
<path d="M16.7299 12.3724C16.5725 11.2245 16.3363 9.54082 16.1002 8.31633C16.0215 7.78061 15.8641 7.16837 15.6279 6.63265C14.9982 4.18367 12.6368 2.5 10.0393 2.5C7.36311 2.5 5.00173 4.18367 4.37203 6.55612C4.21461 7.16837 4.05718 7.78061 3.89976 8.31633C3.66362 9.54082 3.42748 11.2245 3.27006 12.3724C3.11263 13.4439 3.89976 14.4388 5.00173 14.6684C5.78886 14.8214 6.81212 14.898 7.83538 15.051V15.3571C7.83538 16.5051 8.77993 17.5 10.0393 17.5C11.22 17.5 12.2433 16.5816 12.2433 15.3571V15.051C13.2665 14.9745 14.2111 14.8214 15.0769 14.6684C16.1002 14.4388 16.8873 13.4439 16.7299 12.3724ZM10.9839 15.3571C10.9839 15.8929 10.5116 16.2755 10.0393 16.2755C9.56706 16.2755 9.01607 15.8163 9.01607 15.3571V15.1276C9.33092 15.1276 9.72448 15.1276 10.0393 15.1276C10.3542 15.1276 10.669 15.1276 10.9839 15.1276V15.3571Z" fill="#FF7900"/>
</svg>
