<svg width="16" height="12" viewBox="0 0 16 12" fill="none" xmlns="http://www.w3.org/2000/svg">
<path d="M15.0769 8.15388H13.9814C13.9814 3.82142 11.5552 2.35788 10.1538 1.87404V0.974346C10.1538 0.464654 9.74062 0.0512695 9.23077 0.0512695H6.564C6.05431 0.0512695 5.64092 0.464654 5.64092 0.974346V1.92265C4.22446 2.45296 1.94862 3.95758 1.94862 8.15388H0.923077C0.413231 8.15388 0 8.56727 0 9.07696V11.0257C0 11.5353 0.413231 11.9488 0.923077 11.9488H3.58985C4.09954 11.9488 4.51292 11.5353 4.51292 11.0257V9.07696C4.51292 8.56727 4.09938 8.15388 3.58985 8.15388H2.564C2.564 4.48127 4.38677 3.08988 5.64092 2.56635V2.92312C5.64092 3.43281 6.05446 3.84619 6.564 3.84619H7.58985V8.15388H6.564C6.05431 8.15388 5.64092 8.56727 5.64092 9.07696V11.0257C5.64092 11.5353 6.05446 11.9488 6.564 11.9488H9.23077C9.74062 11.9488 10.1538 11.5353 10.1538 11.0257V9.07696C10.1538 8.56727 9.74062 8.15388 9.23077 8.15388H8.20523V3.84619H9.23077C9.74062 3.84619 10.1538 3.43281 10.1538 2.92312V2.51188C11.4074 2.9905 13.366 4.34696 13.366 8.15388H12.4102C11.9006 8.15388 11.4871 8.56727 11.4871 9.07696V11.0257C11.4871 11.5353 11.9006 11.9488 12.4102 11.9488H15.0769C15.5868 11.9488 16 11.5353 16 11.0257V9.07696C16 8.56727 15.5868 8.15388 15.0769 8.15388Z" fill="white"/>
</svg>
