<svg version="1.2" baseProfile="tiny-ps" xmlns="http://www.w3.org/2000/svg" viewBox="0 0 16 12" width="16" height="12">
	<title>Layer</title>
	<style>
		tspan { white-space:pre }
		.shp0 { fill: #ff7900 } 
	</style>
	<path id="Layer" class="shp0" d="M15.08 8.15L13.98 8.15C13.98 3.82 11.56 2.36 10.15 1.87L10.15 0.97C10.15 0.46 9.74 0.05 9.23 0.05L6.56 0.05C6.05 0.05 5.64 0.46 5.64 0.97L5.64 1.92C4.22 2.45 1.95 3.96 1.95 8.15L0.92 8.15C0.41 8.15 0 8.57 0 9.08L0 11.03C0 11.54 0.41 11.95 0.92 11.95L3.59 11.95C4.1 11.95 4.51 11.54 4.51 11.03L4.51 9.08C4.51 8.57 4.1 8.15 3.59 8.15L2.56 8.15C2.56 4.48 4.39 3.09 5.64 2.57L5.64 2.92C5.64 3.43 6.05 3.85 6.56 3.85L7.59 3.85L7.59 8.15L6.56 8.15C6.05 8.15 5.64 8.57 5.64 9.08L5.64 11.03C5.64 11.54 6.05 11.95 6.56 11.95L9.23 11.95C9.74 11.95 10.15 11.54 10.15 11.03L10.15 9.08C10.15 8.57 9.74 8.15 9.23 8.15L8.21 8.15L8.21 3.85L9.23 3.85C9.74 3.85 10.15 3.43 10.15 2.92L10.15 2.51C11.41 2.99 13.37 4.35 13.37 8.15L12.41 8.15C11.9 8.15 11.49 8.57 11.49 9.08L11.49 11.03C11.49 11.54 11.9 11.95 12.41 11.95L15.08 11.95C15.59 11.95 16 11.54 16 11.03L16 9.08C16 8.57 15.59 8.15 15.08 8.15Z" />
</svg>