<svg width="12" height="12" viewBox="0 0 12 12" fill="none" xmlns="http://www.w3.org/2000/svg">
<path d="M8.34783 9.54637V9.60796C8.34783 10.7166 7.60665 11.702 6.49489 11.9484C5.01254 12.2563 3.71548 11.1477 3.71548 9.66955V9.54637H8.34783Z" fill="#8876F0"/>
<path d="M10.2008 4.12649C10.2008 5.35828 9.33607 6.77484 8.96549 7.26756C8.90372 7.32915 8.90372 7.39074 8.84196 7.51392L8.53313 8.37617C8.47137 8.49935 8.40961 8.56094 8.22431 8.56094H3.71549C3.59196 8.56094 3.46843 8.49935 3.40666 8.37617L3.09784 7.51392C3.09784 7.45233 3.03608 7.39074 2.97431 7.26756C2.66549 6.77484 1.86255 5.35828 1.80078 4.12649C1.80078 3.01788 2.17137 1.97086 2.97431 1.23179C3.77725 0.431127 4.82725 0 6.00078 0C7.17431 0 8.22431 0.492716 9.02725 1.23179C9.76843 2.03245 10.2008 3.01788 10.2008 4.12649Z" fill="#8876F0"/>
</svg>
