<svg width="20" height="20" viewBox="0 0 20 20" fill="none" xmlns="http://www.w3.org/2000/svg">
<path d="M12.9338 14.433V14.5099C12.9338 15.8957 12.0073 17.1275 10.6176 17.4354C8.76469 17.8204 7.14337 16.4346 7.14337 14.5869V14.433H12.9338Z" fill="#FF7900"/>
<path d="M15.25 7.65812C15.25 9.19785 14.1691 10.9686 13.7059 11.5844C13.6287 11.6614 13.6287 11.7384 13.5515 11.8924L13.1654 12.9702C13.0882 13.1242 13.011 13.2012 12.7794 13.2012H7.14338C6.98897 13.2012 6.83456 13.1242 6.75735 12.9702L6.37132 11.8924C6.37132 11.8154 6.29412 11.7384 6.21691 11.5844C5.83088 10.9686 4.82721 9.19785 4.75 7.65812C4.75 6.27235 5.21324 4.96358 6.21691 4.03974C7.22059 3.03891 8.53309 2.5 10 2.5C11.4669 2.5 12.7794 3.11589 13.7831 4.03974C14.7096 5.04057 15.25 6.27235 15.25 7.65812Z" fill="#FF7900"/>
</svg>
