<svg width="20" height="20" viewBox="0 0 20 20" fill="none" xmlns="http://www.w3.org/2000/svg">
<path d="M15.7459 5.82474C15.6682 4.81959 14.8903 4.04639 13.879 3.89175C13.4901 3.89175 13.1012 3.81443 12.7122 3.81443L12.3233 3.11856C12.0899 2.73196 11.6232 2.5 11.1565 2.5H8.90063C8.4339 2.5 8.04496 2.73196 7.73381 3.11856L7.26708 3.81443C6.87815 3.81443 6.48921 3.89175 6.10027 3.89175C5.08903 3.96907 4.31115 4.81959 4.23336 5.82474C4.07779 7.29381 4 9.45876 4 11.0052C4 12.5515 4.15558 14.2526 4.23336 15.4124C4.31115 16.4175 5.08903 17.1907 6.10027 17.268C7.1893 17.3454 8.82284 17.5 9.98965 17.5C11.1565 17.5 12.79 17.3454 13.879 17.268C14.8903 17.1907 15.6682 16.4175 15.7459 15.4124C15.8237 14.2526 15.9793 12.4742 15.9793 11.0052C16.0571 9.45876 15.9015 7.29381 15.7459 5.82474ZM8.12275 4.58763C8.20054 4.58763 8.20054 4.58763 8.12275 4.58763L8.66726 3.65979C8.66726 3.58247 8.74505 3.58247 8.82284 3.58247H11.0787C11.1565 3.58247 11.1565 3.58247 11.2343 3.65979L11.7788 4.58763V4.66495C11.8566 4.74227 11.7788 4.89691 11.7788 4.97423C11.7788 5.05155 11.701 5.05155 11.6232 5.05155H8.35611C8.27832 5.05155 8.27832 5.05155 8.20054 4.97423C8.12275 4.81959 8.12275 4.74227 8.12275 4.58763ZM7.65602 9.38144H9.98965C10.3008 9.38144 10.612 9.6134 10.612 10C10.612 10.3866 10.3786 10.6186 9.98965 10.6186H7.65602C7.34487 10.6186 7.03372 10.3866 7.03372 10C7.03372 9.6134 7.34487 9.38144 7.65602 9.38144ZM12.3233 13.7113H7.65602C7.34487 13.7113 7.03372 13.4794 7.03372 13.0928C7.03372 12.7062 7.26708 12.4742 7.65602 12.4742H12.3233C12.6344 12.4742 12.9456 12.7062 12.9456 13.0928C12.9456 13.4794 12.6344 13.7113 12.3233 13.7113Z" fill="#FF7900"/>
</svg>
