<svg width="14" height="14" viewBox="0 0 14 14" fill="none" xmlns="http://www.w3.org/2000/svg">
<path fill-rule="evenodd" clip-rule="evenodd" d="M6.7148 2.59269C4.43529 2.59269 2.58878 4.43824 2.58878 6.71312C2.58878 8.988 4.43529 10.8336 6.7148 10.8336C7.85207 10.8336 8.8806 10.375 9.62756 9.63146C10.3779 8.88456 10.8408 7.85343 10.8408 6.71312C10.8408 4.43824 8.99431 2.59269 6.7148 2.59269ZM1.16602 6.71312C1.16602 3.65092 3.65106 1.16992 6.7148 1.16992C9.77853 1.16992 12.2636 3.65092 12.2636 6.71312C12.2636 7.9902 11.8306 9.1671 11.1045 10.1041L12.624 11.6219C12.902 11.8995 12.9023 12.35 12.6246 12.6279C12.347 12.9059 11.8965 12.9062 11.6186 12.6285L10.0965 11.1082C9.16049 11.8278 7.98722 12.2563 6.7148 12.2563C3.65106 12.2563 1.16602 9.77532 1.16602 6.71312Z" fill="#666666"/>
</svg>
