<svg version="1.2" baseProfile="tiny-ps" xmlns="http://www.w3.org/2000/svg" viewBox="0 0 14 12" width="14" height="12">
	<title>Layer</title>
	<style>
		tspan { white-space:pre }
		.shp0 { fill: #ff7900 } 
	</style>
	<path id="Layer" class="shp0" d="M0 1C0 0.45 0.45 0 1 0L13 0C13.55 0 14 0.45 14 1L14 1C14 1.55 13.55 2 13 2L1 2C0.45 2 0 1.55 0 1L0 1ZM0 6C0 5.45 0.45 5 1 5L13 5C13.55 5 14 5.45 14 6L14 6C14 6.55 13.55 7 13 7L1 7C0.45 7 0 6.55 0 6L0 6ZM0 11C0 10.45 0.45 10 1 10L8 10C8.55 10 9 10.45 9 11L9 11C9 11.55 8.55 12 8 12L1 12C0.45 12 0 11.55 0 11L0 11Z" />
</svg>