<svg width="20" height="20" viewBox="0 0 20 20" fill="none" xmlns="http://www.w3.org/2000/svg">
<path d="M13.0811 9.74667C13.2477 9.83109 13.4976 9.83109 13.7476 9.83109C15.2473 9.83109 16.497 8.56485 16.497 7.04537C16.497 5.52589 15.2473 4.25966 13.7476 4.25966C13.6643 4.25966 13.6643 4.25966 13.581 4.25966C14.0808 4.93498 14.3308 5.77914 14.3308 6.70771C14.3308 7.80511 13.9142 8.90251 13.0811 9.74667Z" fill="white"/>
<path d="M14.8307 10.9286H14.2475C15.3306 11.7728 15.9971 13.1234 15.9971 14.6429C15.9971 14.9806 15.9138 15.3182 15.8305 15.6559C16.6636 15.4871 17.1635 15.3182 17.4968 15.1494C17.8301 14.9806 17.9967 14.5585 17.9967 14.1364C18.08 12.3637 16.5803 10.9286 14.8307 10.9286Z" fill="white"/>
<path d="M6.24914 9.83121C6.49909 9.83121 6.66572 9.83121 6.91567 9.74679C6.16582 8.90264 5.66593 7.88965 5.66593 6.62342C5.66593 5.69485 5.91587 4.85069 6.41577 4.17537C6.41577 4.17537 6.33245 4.17537 6.24914 4.17537C4.74945 4.17537 3.49971 5.4416 3.49971 6.96108C3.49971 8.48056 4.66613 9.83121 6.24914 9.83121Z" fill="white"/>
<path d="M5.66591 10.9286H5.16601C3.41637 10.9286 2 12.3637 2 14.1364C2 14.5585 2.16663 14.9806 2.4999 15.1494C2.83316 15.3182 3.33306 15.5715 4.16622 15.6559C4.0829 15.3182 3.99959 14.9806 3.99959 14.6429C3.99959 13.2078 4.5828 11.8572 5.66591 10.9286Z" fill="white"/>
<path d="M8.08211 9.07143C8.58201 9.49351 9.24854 9.74675 9.99838 9.74675C10.7482 9.74675 11.4148 9.49351 11.9147 9.07143C12.6645 8.48052 13.0811 7.63636 13.0811 6.62338C13.0811 5.86364 12.8311 5.1039 12.3312 4.5974C11.748 3.92208 10.9149 3.5 9.99838 3.5C9.08191 3.5 8.16543 3.92208 7.66553 4.5974C7.16564 5.1039 6.83237 5.86364 6.83237 6.62338C6.83237 7.63636 7.33227 8.48052 8.08211 9.07143Z" fill="white"/>
<path d="M11.6646 11.0974C11.498 11.0974 11.3313 11.0974 11.1647 11.0974H8.66521C8.49858 11.0974 8.33194 11.0974 8.16531 11.0974C6.41567 11.3506 5.08262 12.8701 5.08262 14.6429C5.08262 15.1494 5.33257 15.5714 5.66583 15.7403C6.24904 16.0779 7.41547 16.5 9.83163 16.5C12.2478 16.5 13.4142 16.0779 13.9974 15.7403C14.414 15.487 14.5806 15.0649 14.5806 14.6429C14.8306 12.8701 13.4142 11.3506 11.6646 11.0974Z" fill="white"/>
</svg>
