<svg version="1.2" baseProfile="tiny-ps" xmlns="http://www.w3.org/2000/svg" viewBox="0 0 14 16" width="14" height="16">
	<title>Layer</title>
	<style>
		tspan { white-space:pre }
		.shp0 { fill: #ffffff } 
	</style>
	<path id="Layer" class="shp0" d="M13.01 3.93L13.01 3.93C12.7 3.89 12.11 3.96 10.59 5.11C10.43 5.23 10.22 5.27 10.02 5.21L7.59 4.45C6.48 4.08 5.01 4.62 3.99 5.21C3.17 5.69 1.57 6.83 2.24 7.5C2.74 7.99 3.93 7.25 5.4 7.03C5.76 6.97 5.96 6.99 6.06 7.01C5.68 8.46 1.56 13.53 0.58 14.71C0.29 15.05 0.61 15.57 1.05 15.46C3.15 14.95 4.88 13.44 6.12 12.02C7.25 12 7.64 12.21 7.7 12.29C7.85 12.54 7.73 13.28 7.64 13.77C7.52 14.49 7.42 15.06 7.8 15.37C7.99 15.53 8.25 15.54 8.48 15.42C9.21 15.04 10.51 12.71 10.41 11.51C10.33 10.52 8.88 9.92 7.93 9.62C8.22 9.17 8.53 8.76 8.76 7.72C9.39 7.87 10.33 8.07 10.81 7.99C11.32 7.92 12 7.16 12.49 6.54C12.88 6.05 13.53 5.13 13.53 4.56C13.53 4.23 13.32 3.98 13.01 3.93ZM8.56 4.37C9.63 4.37 10.5 3.5 10.5 2.44C10.5 1.37 9.63 0.5 8.56 0.5C7.49 0.5 6.62 1.37 6.62 2.44C6.62 3.5 7.49 4.37 8.56 4.37Z" />
</svg>