<svg width="20" height="20" viewBox="0 0 20 20" fill="none" xmlns="http://www.w3.org/2000/svg">
<path d="M10 8.99289C10.5456 8.99289 11.0638 8.92757 11.4593 8.80894L17.8795 6.88287C18.6297 6.6577 18.7872 6.27646 18.7872 5.9963C18.7872 5.71617 18.6296 5.33493 17.8794 5.10989L11.4593 3.18382C11.0638 3.0652 10.5456 2.99988 10 2.99988C9.45459 2.99988 8.93639 3.06516 8.54083 3.18382L2.12075 5.10989C1.37037 5.33496 1.21289 5.71617 1.21289 5.9963C1.21282 6.27646 1.37037 6.6577 2.12068 6.88284L8.5409 8.80891C8.93639 8.9276 9.45459 8.99289 10 8.99289Z" fill="white"/>
<path d="M9.99973 10.0226C9.34735 10.0226 8.74042 9.94392 8.24466 9.79516L4.52148 8.67819V10.1324C4.52148 10.6143 4.83477 11.2932 6.32728 11.7907C7.3158 12.1203 8.62007 12.3018 9.99969 12.3018C11.3793 12.3018 12.6836 12.1203 13.6721 11.7907C15.1646 11.2932 15.4779 10.6143 15.4779 10.1324V8.67819L11.7547 9.79516C11.2589 9.94392 10.652 10.0226 9.99973 10.0226Z" fill="white"/>
<path d="M17.6835 11.6428V8.01645L16.6537 8.32537V11.6428C16.0134 11.8584 15.5508 12.4641 15.5508 13.1762V15.3821C15.5508 16.2742 16.2766 17 17.1686 17C18.0607 17 18.7864 16.2742 18.7864 15.3821V13.1762C18.7864 12.4641 18.3238 11.8584 17.6835 11.6428Z" fill="white"/>
</svg>
