<svg width="20" height="20" viewBox="0 0 20 20" fill="none" xmlns="http://www.w3.org/2000/svg">
<path d="M16.009 5.93255C16.009 5.93255 16.009 5.93255 16.009 5.93255C15.6967 5.88568 15.1065 5.95672 13.5937 7.10787C13.4299 7.23247 13.2152 7.2705 13.0194 7.20959L10.5885 6.45337C9.47888 6.07754 8.01202 6.61574 6.99459 7.20833C6.1738 7.68635 4.56535 8.82709 5.24164 9.49528C5.73867 9.98633 6.9263 9.24859 8.39737 9.02611C8.76215 8.97097 8.95938 8.98934 9.06046 9.0143C8.6834 10.4573 4.56218 15.5309 3.57565 16.7075C3.28558 17.0538 3.60797 17.5715 4.0467 17.4638C6.14672 16.9485 7.87682 15.4425 9.12198 14.0214C10.2539 13.9988 10.6423 14.2061 10.6964 14.293C10.8524 14.5435 10.726 15.2829 10.6424 15.7722C10.5195 16.4913 10.4224 17.0593 10.7952 17.3684C10.9934 17.5327 11.2536 17.5365 11.4838 17.4162C12.207 17.0381 13.5129 14.7134 13.4107 13.5112C13.3263 12.5191 11.8759 11.9177 10.9288 11.6151C11.224 11.1675 11.5337 10.7618 11.7576 9.72005C12.3937 9.87122 13.3347 10.0651 13.8059 9.9945C14.3177 9.9178 15.0028 9.16378 15.4874 8.54473C15.8778 8.046 16.5328 7.12554 16.5328 6.56435C16.5328 6.23341 16.3223 5.97952 16.009 5.93255Z" fill="#FF7900"/>
<path d="M11.5586 6.37219C12.6269 6.37219 13.4961 5.50364 13.4961 4.43611C13.4961 3.36855 12.6269 2.5 11.5586 2.5C10.4903 2.5 9.62109 3.36855 9.62109 4.43611C9.62109 5.50364 10.4903 6.37219 11.5586 6.37219Z" fill="#FF7900"/>
</svg>
