<svg width="20" height="20" viewBox="0 0 20 20" fill="none" xmlns="http://www.w3.org/2000/svg">
<path d="M10.9312 2.5618L10.4375 2.5V6.93802L10.767 7.02293C11.8497 7.30309 12.6961 8.14949 12.9763 9.23222L13.0612 9.56169H17.4992L17.4374 9.06799C17.0149 5.67722 14.322 2.98431 10.9312 2.5618Z" fill="white"/>
<path d="M9.55791 17.4982V13.0317C8.07167 12.8162 6.92211 11.546 6.92211 10.001C6.92211 8.59867 7.87071 7.37392 9.22844 7.02293L9.55791 6.93802V2.5L9.0641 2.5618C5.33871 3.02643 2.5 6.2413 2.5 10.001C2.5 13.9706 5.64484 17.2688 9.55791 17.4982Z" fill="white"/>
<path d="M12.9763 10.7698C12.6627 11.9831 11.6499 12.8643 10.4375 13.0392V17.5001C14.0027 17.2904 16.9912 14.5129 17.4374 10.9341L17.4992 10.4404H13.0612L12.9763 10.7698Z" fill="white"/>
</svg>
