<svg width="18" height="18" viewBox="0 0 18 18" fill="none" xmlns="http://www.w3.org/2000/svg">
<path d="M9.76923 4.95C9.76923 6.44117 8.56384 7.65 7.07692 7.65C5.59 7.65 4.38462 6.44117 4.38462 4.95C4.38462 3.45883 5.59 2.25 7.07692 2.25C8.56384 2.25 9.76923 3.45883 9.76923 4.95Z" fill="#B2B9BF"/>
<path fill-rule="evenodd" clip-rule="evenodd" d="M1.5 4.95C1.5 4.63046 1.7583 4.37143 2.07692 4.37143H4.38462C4.70324 4.37143 4.96154 4.63046 4.96154 4.95C4.96154 5.26954 4.70324 5.52857 4.38462 5.52857H2.07692C1.7583 5.52857 1.5 5.26954 1.5 4.95Z" fill="#B2B9BF"/>
<path fill-rule="evenodd" clip-rule="evenodd" d="M10.7308 4.95C10.7308 4.63046 10.9891 4.37143 11.3077 4.37143L15.9231 4.37143C16.2417 4.37143 16.5 4.63046 16.5 4.95C16.5 5.26954 16.2417 5.52857 15.9231 5.52857L11.3077 5.52857C10.9891 5.52857 10.7308 5.26954 10.7308 4.95Z" fill="#B2B9BF"/>
<path d="M8.23077 13.05C8.23077 14.5412 9.43616 15.75 10.9231 15.75C12.41 15.75 13.6154 14.5412 13.6154 13.05C13.6154 11.5588 12.41 10.35 10.9231 10.35C9.43616 10.35 8.23077 11.5588 8.23077 13.05Z" fill="#B2B9BF"/>
<path fill-rule="evenodd" clip-rule="evenodd" d="M16.5 13.05C16.5 12.7305 16.2417 12.4714 15.9231 12.4714H13.6154C13.2968 12.4714 13.0385 12.7305 13.0385 13.05C13.0385 13.3695 13.2968 13.6286 13.6154 13.6286H15.9231C16.2417 13.6286 16.5 13.3695 16.5 13.05Z" fill="#B2B9BF"/>
<path fill-rule="evenodd" clip-rule="evenodd" d="M7.26923 13.05C7.26923 12.7305 7.01093 12.4714 6.69231 12.4714L2.07692 12.4714C1.7583 12.4714 1.5 12.7305 1.5 13.05C1.5 13.3695 1.7583 13.6286 2.07692 13.6286L6.69231 13.6286C7.01093 13.6286 7.26923 13.3695 7.26923 13.05Z" fill="#B2B9BF"/>
</svg>
