<svg width="20" height="20" viewBox="0 0 20 20" fill="none" xmlns="http://www.w3.org/2000/svg">
<path d="M12.8923 10.4688H7.1075C7.02529 10.4688 6.95888 10.5365 6.96099 10.6187C6.97848 11.2968 7.02441 11.9446 7.09429 12.5571C7.10434 12.6452 7.18944 12.7047 7.2754 12.6828C8.15981 12.4575 9.07124 12.3438 9.99992 12.3438C10.9286 12.3438 11.84 12.4575 12.7244 12.6828C12.8104 12.7047 12.8955 12.6452 12.9056 12.5571C12.9754 11.9445 13.0214 11.2967 13.0389 10.6187C13.041 10.5365 12.9746 10.4688 12.8923 10.4688Z" fill="white"/>
<path d="M12.9056 7.44282C12.8955 7.3547 12.8104 7.29516 12.7244 7.31705C11.84 7.5424 10.9286 7.65616 9.99992 7.65616C9.07124 7.65616 8.15981 7.5424 7.2754 7.31708C7.18947 7.29519 7.10434 7.35472 7.09429 7.44285C7.02441 8.05539 6.97848 8.70317 6.96099 9.38125C6.95888 9.46346 7.02526 9.53116 7.1075 9.53116H12.8923C12.9745 9.53116 13.0409 9.46343 13.0388 9.38125C13.0214 8.70314 12.9754 8.05536 12.9056 7.44282Z" fill="white"/>
<path d="M12.7239 6.20664C12.4614 4.75425 12.0591 3.56313 11.5947 2.72137C11.574 2.68387 11.5378 2.65741 11.4958 2.64895C11.0084 2.55074 10.5078 2.5 9.99935 2.5C9.49088 2.5 8.99028 2.55074 8.50293 2.64897C8.46094 2.65744 8.42467 2.6839 8.40399 2.7214C7.93964 3.56313 7.5373 4.75425 7.2748 6.20667C7.26135 6.28103 7.30709 6.35386 7.38004 6.37352C8.21558 6.59857 9.0937 6.71875 9.99935 6.71875C10.905 6.71875 11.7831 6.59857 12.6187 6.37349C12.6916 6.35386 12.7373 6.281 12.7239 6.20664Z" fill="white"/>
<path d="M13.1169 3.17474C12.9976 3.12016 12.8732 3.23934 12.9204 3.3618C12.9212 3.36397 12.9221 3.36614 12.9229 3.36831C13.208 4.10963 13.4396 4.95125 13.613 5.86141C13.6303 5.95238 13.7271 6.00421 13.8128 5.96905C14.3894 5.73242 14.9393 5.4437 15.4569 5.10901C15.5335 5.05947 15.5473 4.95262 15.4851 4.88583C15.4256 4.82187 15.3649 4.75877 15.3027 4.69666C14.6596 4.0535 13.9201 3.54195 13.1169 3.17474Z" fill="white"/>
<path d="M14.1229 9.53114H17.3274C17.4133 9.53114 17.4806 9.45757 17.4736 9.37197C17.37 8.11457 16.9562 6.92076 16.2691 5.87987C16.2242 5.81175 16.1329 5.79332 16.0648 5.83829C15.505 6.20811 14.9116 6.52642 14.2878 6.79027C14.1598 6.84441 14.0311 6.89594 13.9017 6.94501C13.8381 6.9691 13.7993 7.03299 13.8078 7.1004C13.9 7.83573 13.9572 8.60278 13.9767 9.38796C13.9786 9.46753 14.0433 9.53114 14.1229 9.53114Z" fill="white"/>
<path d="M7.2748 13.7934C7.5373 15.2458 7.93964 16.4369 8.40399 17.2786C8.42467 17.3161 8.46094 17.3426 8.50293 17.3511C8.99028 17.4493 9.49088 17.5 9.99935 17.5C10.5078 17.5 11.0084 17.4493 11.4958 17.351C11.5378 17.3426 11.574 17.3161 11.5947 17.2786C12.0591 16.4369 12.4614 15.2458 12.7239 13.7933C12.7373 13.719 12.6916 13.6461 12.6187 13.6265C11.7831 13.4014 10.905 13.2812 9.99935 13.2812C9.0937 13.2812 8.21558 13.4014 7.38004 13.6265C7.30709 13.6461 7.26135 13.719 7.2748 13.7934Z" fill="white"/>
<path d="M5.71167 13.2096C5.83964 13.1554 5.96837 13.1039 6.0978 13.0548C6.16132 13.0308 6.20014 12.9669 6.19167 12.8995C6.09944 12.1641 6.04232 11.3971 6.0228 10.6119C6.02081 10.5324 5.95615 10.4688 5.87658 10.4688H2.67203C2.58613 10.4688 2.51884 10.5423 2.5259 10.6279C2.62946 11.8853 3.04328 13.0791 3.73035 14.12C3.77529 14.1881 3.86658 14.2066 3.93467 14.1616C4.49444 13.7917 5.08782 13.4734 5.71167 13.2096Z" fill="white"/>
<path d="M15.4569 14.8909C14.9393 14.5562 14.3894 14.2675 13.8128 14.0309C13.7271 13.9957 13.6303 14.0475 13.613 14.1385C13.4396 15.0487 13.208 15.8903 12.9229 16.6316C12.9221 16.6338 12.9212 16.6359 12.9204 16.6381C12.8732 16.7606 12.9976 16.8798 13.1169 16.8252C13.9201 16.458 14.6596 15.9464 15.3028 15.3033C15.3649 15.2411 15.4256 15.178 15.4851 15.1141C15.5473 15.0473 15.5335 14.9404 15.4569 14.8909Z" fill="white"/>
<path d="M13.9767 10.6119C13.9572 11.3971 13.9 12.1642 13.8078 12.8995C13.7993 12.9669 13.8381 13.0308 13.9017 13.0549C14.0311 13.1039 14.1598 13.1555 14.2878 13.2096C14.9116 13.4735 15.505 13.7918 16.0648 14.1616C16.1329 14.2066 16.2241 14.1881 16.2691 14.12C16.9562 13.0792 17.37 11.8853 17.4736 10.6279C17.4806 10.5423 17.4133 10.4688 17.3274 10.4688H14.1229C14.0433 10.4688 13.9786 10.5324 13.9767 10.6119Z" fill="white"/>
<path d="M4.54197 5.10901C5.0595 5.4437 5.60943 5.73245 6.18605 5.96905C6.27171 6.00421 6.36857 5.95238 6.38588 5.86141C6.5592 4.95125 6.79079 4.10963 7.07594 3.36831C7.07676 3.36614 7.07761 3.36397 7.07843 3.3618C7.12563 3.23934 7.00126 3.12016 6.88191 3.17474C6.07876 3.54198 5.33922 4.05353 4.69607 4.69666C4.63396 4.75877 4.57323 4.82187 4.5137 4.88583C4.45156 4.95262 4.46536 5.05947 4.54197 5.10901Z" fill="white"/>
<path d="M6.01967 9.53113C6.03552 8.69602 6.09388 7.88034 6.19167 7.1004C6.20014 7.03298 6.16132 6.96909 6.0978 6.94501C5.96837 6.89593 5.83964 6.8444 5.71167 6.79026C5.08782 6.52638 4.49444 6.20807 3.93467 5.83829C3.86658 5.79332 3.77532 5.81177 3.73035 5.87986C3.04328 6.92075 2.62946 8.11457 2.5259 9.37196C2.51884 9.45756 2.58613 9.53113 2.67203 9.53113H6.01967Z" fill="white"/>
<path d="M6.88191 16.8252C7.00127 16.8798 7.12563 16.7606 7.07843 16.6381C7.07761 16.6359 7.07677 16.6338 7.07594 16.6316C6.79083 15.8903 6.55921 15.0487 6.38589 14.1385C6.36857 14.0475 6.27172 13.9957 6.18605 14.0309C5.60943 14.2675 5.0595 14.5562 4.54197 14.8909C4.46533 14.9404 4.45156 15.0473 4.51373 15.1141C4.57326 15.178 4.63399 15.2411 4.6961 15.3033C5.3392 15.9464 6.07874 16.458 6.88191 16.8252Z" fill="white"/>
</svg>
