<svg version="1.2" baseProfile="tiny-ps" xmlns="http://www.w3.org/2000/svg" viewBox="0 0 16 16" width="16" height="16">
	<title>Layer</title>
	<style>
		tspan { white-space:pre }
		.shp0 { fill: #ff7900 } 
	</style>
	<path id="Layer" class="shp0" d="M10.89 8.47L5.11 8.47C5.03 8.47 4.96 8.54 4.96 8.62C4.98 9.3 5.02 9.94 5.09 10.56C5.1 10.65 5.19 10.7 5.28 10.68C6.16 10.46 7.07 10.34 8 10.34C8.93 10.34 9.84 10.46 10.72 10.68C10.81 10.7 10.9 10.65 10.91 10.56C10.98 9.94 11.02 9.3 11.04 8.62C11.04 8.54 10.97 8.47 10.89 8.47ZM10.91 5.44C10.9 5.35 10.81 5.3 10.72 5.32C9.84 5.54 8.93 5.66 8 5.66C7.07 5.66 6.16 5.54 5.28 5.32C5.19 5.3 5.1 5.35 5.09 5.44C5.02 6.06 4.98 6.7 4.96 7.38C4.96 7.46 5.03 7.53 5.11 7.53L10.89 7.53C10.97 7.53 11.04 7.46 11.04 7.38C11.02 6.7 10.98 6.06 10.91 5.44ZM10.72 4.21C10.46 2.75 10.06 1.56 9.59 0.72C9.57 0.68 9.54 0.66 9.5 0.65C9.01 0.55 8.51 0.5 8 0.5C7.49 0.5 6.99 0.55 6.5 0.65C6.46 0.66 6.42 0.68 6.4 0.72C5.94 1.56 5.54 2.75 5.27 4.21C5.26 4.28 5.31 4.35 5.38 4.37C6.22 4.6 7.09 4.72 8 4.72C8.9 4.72 9.78 4.6 10.62 4.37C10.69 4.35 10.74 4.28 10.72 4.21ZM11.12 1.17C11 1.12 10.87 1.24 10.92 1.36C10.92 1.36 10.92 1.37 10.92 1.37C11.21 2.11 11.44 2.95 11.61 3.86C11.63 3.95 11.73 4 11.81 3.97C12.39 3.73 12.94 3.44 13.46 3.11C13.53 3.06 13.55 2.95 13.49 2.89C13.43 2.82 13.36 2.76 13.3 2.7C12.66 2.05 11.92 1.54 11.12 1.17ZM12.12 7.53L15.33 7.53C15.41 7.53 15.48 7.46 15.47 7.37C15.37 6.11 14.96 4.92 14.27 3.88C14.22 3.81 14.13 3.79 14.06 3.84C13.5 4.21 12.91 4.53 12.29 4.79C12.16 4.84 12.03 4.9 11.9 4.95C11.84 4.97 11.8 5.03 11.81 5.1C11.9 5.84 11.96 6.6 11.98 7.39C11.98 7.47 12.04 7.53 12.12 7.53ZM5.27 11.79C5.54 13.25 5.94 14.44 6.4 15.28C6.42 15.32 6.46 15.34 6.5 15.35C6.99 15.45 7.49 15.5 8 15.5C8.51 15.5 9.01 15.45 9.5 15.35C9.54 15.34 9.57 15.32 9.59 15.28C10.06 14.44 10.46 13.25 10.72 11.79C10.74 11.72 10.69 11.65 10.62 11.63C9.78 11.4 8.9 11.28 8 11.28C7.09 11.28 6.22 11.4 5.38 11.63C5.31 11.65 5.26 11.72 5.27 11.79ZM3.71 11.21C3.84 11.16 3.97 11.1 4.1 11.05C4.16 11.03 4.2 10.97 4.19 10.9C4.1 10.16 4.04 9.4 4.02 8.61C4.02 8.53 3.96 8.47 3.88 8.47L0.67 8.47C0.59 8.47 0.52 8.54 0.53 8.63C0.63 9.89 1.04 11.08 1.73 12.12C1.78 12.19 1.87 12.21 1.93 12.16C2.49 11.79 3.09 11.47 3.71 11.21ZM13.46 12.89C12.94 12.56 12.39 12.27 11.81 12.03C11.73 12 11.63 12.05 11.61 12.14C11.44 13.05 11.21 13.89 10.92 14.63C10.92 14.63 10.92 14.64 10.92 14.64C10.87 14.76 11 14.88 11.12 14.83C11.92 14.46 12.66 13.95 13.3 13.3C13.36 13.24 13.43 13.18 13.49 13.11C13.55 13.05 13.53 12.94 13.46 12.89ZM11.98 8.61C11.96 9.4 11.9 10.16 11.81 10.9C11.8 10.97 11.84 11.03 11.9 11.05C12.03 11.1 12.16 11.16 12.29 11.21C12.91 11.47 13.5 11.79 14.06 12.16C14.13 12.21 14.22 12.19 14.27 12.12C14.96 11.08 15.37 9.89 15.47 8.63C15.48 8.54 15.41 8.47 15.33 8.47L12.12 8.47C12.04 8.47 11.98 8.53 11.98 8.61ZM2.54 3.11C3.06 3.44 3.61 3.73 4.19 3.97C4.27 4 4.37 3.95 4.39 3.86C4.56 2.95 4.79 2.11 5.08 1.37C5.08 1.37 5.08 1.36 5.08 1.36C5.13 1.24 5 1.12 4.88 1.17C4.08 1.54 3.34 2.05 2.7 2.7C2.63 2.76 2.57 2.82 2.51 2.89C2.45 2.95 2.47 3.06 2.54 3.11ZM4.02 7.53C4.04 6.7 4.09 5.88 4.19 5.1C4.2 5.03 4.16 4.97 4.1 4.95C3.97 4.9 3.84 4.84 3.71 4.79C3.09 4.53 2.49 4.21 1.93 3.84C1.87 3.79 1.78 3.81 1.73 3.88C1.04 4.92 0.63 6.11 0.53 7.37C0.52 7.46 0.59 7.53 0.67 7.53L4.02 7.53ZM4.88 14.83C5 14.88 5.13 14.76 5.08 14.64C5.08 14.64 5.08 14.63 5.08 14.63C4.79 13.89 4.56 13.05 4.39 12.14C4.37 12.05 4.27 12 4.19 12.03C3.61 12.27 3.06 12.56 2.54 12.89C2.47 12.94 2.45 13.05 2.51 13.11C2.57 13.18 2.63 13.24 2.7 13.3C3.34 13.95 4.08 14.46 4.88 14.83Z" />
</svg>