<?xml version="1.0" ?><svg id="Layer_2" style="enable-background:new 0 0 1000 1000;" version="1.1" viewBox="0 0 1000 1000" xml:space="preserve" xmlns="http://www.w3.org/2000/svg" xmlns:xlink="http://www.w3.org/1999/xlink"><path d="M839.499,456.817c-1.274-9.89-10.321-16.868-20.211-15.594l-12.526,1.617  c-0.422,0.059-0.833,0.128-1.245,0.206c-1.715-4.931-3.842-9.733-6.361-14.32l-32.188-58.711c-0.99-1.804-1.147-3.939-0.441-5.86  l2.725-7.43c1.754-4.754-1.901-9.763-6.89-9.438l-307.431,19.76c-20.975,1.343-40.627,10.879-54.839,26.61l-50.84,56.27  c-7.263,8.037-16.741,13.653-27.189,16.124l-108.815,25.698c-15.281,3.617-27.728,14.841-33.051,29.836l-9.439,26.571  c-1.225,3.451-3.293,6.528-5.989,8.959l-5.803,5.214c-2.744,2.461-4.479,5.871-4.861,9.567l-2.019,19.151  c-0.941,8.841,5.91,16.534,14.663,16.475l38.892-0.244c7.057,26.188,30.972,45.449,59.387,45.449  c28.679,0,52.781-19.633,59.583-46.204l342.295-2.177c0.206,0.991,0.441,1.961,0.706,2.932  c7.057,26.188,30.973,45.449,59.387,45.449c28.679,0,52.781-19.633,59.583-46.204c0.245-0.971,0.471-1.95,0.666-2.94l29.218-0.186  h5.665c5.077,0,9.184-4.116,9.184-9.193v-27.68c0-5.077-4.107-9.193-9.184-9.193h-1.529c0.127-4.647-0.079-9.292-0.637-13.909  l12.291-1.587c9.89-1.275,16.868-10.321,15.594-20.21L839.499,456.817z M224.137,531.769c-1.97,4.558-5.038,8.547-8.939,11.635  l-1.676,1.322c-4.214,3.333-9.243,5.47-14.565,6.195l-3.489,0.481c-4.411,0.597-7.812-3.814-6.106-7.92l8.939-21.622  c0.784-1.911,2.529-3.244,4.577-3.519l18.613-2.47c4.44-0.589,7.831,3.891,6.057,8.008L224.137,531.769z M298.637,606.691  c-5.861,12.702-18.73,21.533-33.609,21.533c-14.722,0-27.454-8.636-33.413-21.112c-2.303-4.813-3.588-10.203-3.588-15.888  c0-20.398,16.594-37.001,37-37.001c20.397,0,37,16.604,37,37.001C302.029,596.742,300.813,601.985,298.637,606.691z   M497.057,517.773l-25.886,2.126c-4.587,0.374-8.606-3.038-8.988-7.624c-0.02-0.227-0.029-0.462-0.029-0.687  c0-4.293,3.293-7.938,7.655-8.302l25.885-2.127c4.587-0.373,8.606,3.038,8.988,7.625c0.02,0.226,0.03,0.461,0.03,0.686  C504.712,513.764,501.419,517.409,497.057,517.773z M508.241,480.557l-128.252,6.047c-2.146,0.099-4.273-0.48-6.077-1.676  l-4.626-3.059c-5.234-3.459-6.146-10.771-1.941-15.417l0.078-0.099l50.85-56.269c9.978-11.046,23.563-17.643,38.235-18.594  l60.328-3.874L508.241,480.557z M537.178,386.31l76.663-4.924c7.086-0.461,13.712,3.567,16.564,10.075l15.506,35.374  c3.352,7.675,3.832,16.3,1.343,24.298c-4.352,13.938-16.947,23.67-31.531,24.356l-87.53,4.127L537.178,386.31z M641.883,514.234  l-25.885,2.127c-4.587,0.372-8.606-3.039-8.978-7.626c-0.02-0.235-0.029-0.47-0.029-0.705c0-4.284,3.293-7.92,7.645-8.282  l25.885-2.127c4.587-0.373,8.615,3.038,8.988,7.625c0.02,0.226,0.029,0.461,0.029,0.686  C649.538,510.226,646.245,513.871,641.883,514.234z M761.813,603.74c-0.353,1.01-0.764,1.99-1.206,2.951  c-5.861,12.702-18.73,21.533-33.609,21.533c-14.722,0-27.454-8.636-33.413-21.112c-0.461-0.95-0.872-1.921-1.245-2.921  c-1.519-4.038-2.343-8.409-2.343-12.967c0-20.398,16.594-37.001,37-37.001c20.397,0,37,16.604,37,37.001  C763.999,595.615,763.224,599.83,761.813,603.74z M708.111,473.607c-2.744,0.088-5.263-1.49-6.371-3.999l-34.285-77.147  c-0.353-0.793-0.549-1.656-0.578-2.518c-0.118-3.725,2.793-6.832,6.518-6.949l66.973-2.166c2.48-0.079,4.803,1.216,6.047,3.361  c24.435,42.009,33.266,66.993,36.422,78.745c1.127,4.185-1.96,8.321-6.292,8.469L708.111,473.607z M800.097,550.715h-14.702  c-2.617,0-4.734-2.117-4.734-4.734v-15.77c0-2.617,2.117-4.734,4.734-4.734h11.487c0.872,0,1.705,0.235,2.411,0.666  c1.127,0.656,1.96,1.774,2.235,3.127l1.451,7.097l1.764,8.664C805.341,547.971,803.097,550.715,800.097,550.715z" style="fill:#231F20;"/><path d="M265.028,569.749c-11.869,0-21.485,9.616-21.485,21.476c0,6.233,2.646,11.84,6.89,15.769  c3.822,3.549,8.949,5.715,14.594,5.715c5.734,0,10.939-2.245,14.781-5.9c4.126-3.92,6.694-9.449,6.694-15.584  C286.503,579.365,276.888,569.749,265.028,569.749z" style="fill:#231F20;"/><path d="M726.998,569.749c-11.87,0-21.485,9.616-21.485,21.476c0,4.822,1.588,9.271,4.273,12.85  c0.774,1.048,1.656,2.028,2.617,2.92c3.823,3.549,8.949,5.715,14.594,5.715c5.734,0,10.938-2.245,14.781-5.9  c0.951-0.902,1.813-1.892,2.578-2.951c2.597-3.548,4.116-7.908,4.116-12.633C748.473,579.365,738.858,569.749,726.998,569.749z" style="fill:#231F20;"/></svg>