<?xml version="1.0" ?><svg id="Layer_2" style="enable-background:new 0 0 1000 1000;" version="1.1" viewBox="0 0 1000 1000" xml:space="preserve" xmlns="http://www.w3.org/2000/svg" xmlns:xlink="http://www.w3.org/1999/xlink"><ellipse cx="270.689" cy="564.508" rx="15.546" ry="15.547" style="fill:#231F20;" transform="matrix(0.1602 -0.9871 0.9871 0.1602 -329.8896 741.2781)"/><path d="M154.09,567.102v4.538c0,5.364,4.353,9.717,9.716,9.717h46.329  c7.365,26.526,31.686,45.988,60.554,45.988c28.868,0,53.188-19.462,60.554-45.988h341.401c7.365,26.526,31.686,45.988,60.554,45.988  c28.868,0,53.188-19.462,60.554-45.988h42.442c5.363,0,9.716-4.353,9.716-9.717v-4.538c0-5.363-4.353-9.716-9.716-9.716h-0.088  v-57.143c0-2.701-0.379-5.373-1.117-7.939l-6.112-21.085c-2.507-8.628-8.881-15.138-16.771-17.13l-33.911-8.55  c-9.901-2.498-19.297-7.045-27.712-13.409l-52.12-39.391c-11.427-8.638-24.622-13.885-38.351-15.274  c-31.958-3.207-64.003-4.81-96.048-4.81c-37.827,0-75.653,2.235-113.315,6.705l-25.584,3.032  c-11.339,1.351-22.329,5.218-32.327,11.378l-64.576,39.848c-9.755,6.014-20.463,9.852-31.521,11.281l-82.105,10.62  c-21.541,2.789-38.827,21.211-42.393,45.182l-0.049,0.33l-6.287,8.279c-3.566,4.693-5.519,10.649-5.519,16.81v23.796  c0,2.721,0.369,5.334,1.059,7.793C157.18,558.805,154.09,562.584,154.09,567.102z M799.348,484.998h13.496  c1.234,0,2.39,0.612,3.08,1.633l1.652,2.429c3.586,5.266,5.5,11.494,5.5,17.859v3.498c0,2.06-1.671,3.731-3.731,3.731h-11.679  c-1.545,0-2.934-0.952-3.479-2.39l-8.317-21.697C794.927,487.621,796.734,484.998,799.348,484.998z M497.814,505.16h-24.291  c-4.557,0-8.259-3.702-8.259-8.259s3.702-8.259,8.259-8.259h24.291c4.557,0,8.259,3.702,8.259,8.259S502.371,505.16,497.814,505.16z   M679.834,505.16h-24.291c-4.557,0-8.259-3.702-8.259-8.259s3.702-8.259,8.259-8.259h24.291c4.567,0,8.259,3.702,8.259,8.259  S684.401,505.16,679.834,505.16z M695.653,555.831c0.972-4.217,2.633-8.162,4.868-11.728c3.119,1.292,6.792,0.836,9.522-1.39  c0.243-0.204,0.486-0.418,0.709-0.641c0.233-0.233,0.447-0.477,0.641-0.72c2.225-2.72,2.691-6.393,1.399-9.512  c3.566-2.235,7.511-3.896,11.728-4.868c1.409,3.4,4.761,5.8,8.677,5.8c3.916,0,7.268-2.4,8.677-5.8  c4.217,0.972,8.162,2.633,11.728,4.868c-1.399,3.401-0.729,7.462,2.04,10.232c2.769,2.759,6.831,3.439,10.232,2.03  c2.235,3.566,3.896,7.511,4.868,11.728c-3.401,1.409-5.801,4.761-5.801,8.677c0,3.926,2.4,7.278,5.81,8.687  c-0.661,2.857-1.632,5.587-2.886,8.162c-0.602,1.225-1.283,2.41-2.002,3.556c-3.401-1.399-7.462-0.719-10.222,2.041  c-2.769,2.769-3.449,6.831-2.04,10.232c-3.566,2.235-7.511,3.896-11.728,4.868c-1.409-3.4-4.761-5.8-8.677-5.8  c-3.916,0-7.268,2.4-8.677,5.8c-4.217-0.972-8.162-2.633-11.728-4.868c1.409-3.401,0.729-7.462-2.041-10.232  c-2.759-2.76-6.811-3.439-10.212-2.041c-0.719-1.146-1.399-2.332-2.001-3.556c-1.254-2.575-2.235-5.305-2.896-8.162  c3.411-1.409,5.811-4.761,5.811-8.687C701.454,560.592,699.054,557.24,695.653,555.831z M536.651,455.653l10.854-49.758  c1.001-4.596,5.15-7.812,9.843-7.647l92.23,3.382c3.002,0.106,5.781,1.603,7.54,4.041l32.871,45.824  c5.334,7.443,0.019,17.791-9.134,17.791H547.64C540.469,469.286,535.125,462.659,536.651,455.653z M340.92,454.284l64.576-39.838  c7.015-4.333,14.565-6.996,22.436-7.929l25.574-3.042c22.329-2.652,44.891-4.479,67.443-5.519c3.274-0.146,5.723,2.954,4.858,6.102  l-12.952,46.863c-3.002,10.853-12.884,18.364-24.146,18.364H362.627c-8.463,0-16.373-4.246-21.046-11.311l-1.934-2.924  C340.075,454.798,340.502,454.546,340.92,454.284z M233.144,555.831c0.243-1.05,0.525-2.089,0.855-3.109  c0.661-2.041,1.477-4.003,2.449-5.878c0.486-0.933,1.01-1.846,1.564-2.74c3.119,1.292,6.792,0.836,9.522-1.39  c0.243-0.204,0.486-0.418,0.71-0.641c0.233-0.233,0.447-0.477,0.641-0.72c2.223-2.717,2.69-6.385,1.403-9.502  c0.076-0.047,0.148-0.099,0.225-0.146c0.209-0.129,0.42-0.252,0.631-0.377c0.618-0.364,1.241-0.723,1.881-1.052  c0.703-0.364,1.418-0.707,2.145-1.026c0.002-0.001,0.004-0.002,0.006-0.003c0.022-0.01,0.044-0.018,0.066-0.028  c0.704-0.309,1.419-0.599,2.144-0.866c0.005-0.002,0.01-0.004,0.015-0.005c0.009-0.003,0.018-0.006,0.027-0.009  c0.737-0.271,1.484-0.521,2.241-0.746h0c0.005-0.002,0.01-0.003,0.015-0.004c0.764-0.228,1.538-0.433,2.32-0.614  c0.002,0,0.005-0.001,0.007-0.001h0c1.409,3.4,4.761,5.8,8.677,5.8c3.916,0,7.268-2.4,8.677-5.8h0.001  c0.003,0,0.005,0.001,0.007,0.001c0.783,0.182,1.556,0.386,2.32,0.614c0.005,0.001,0.01,0.003,0.015,0.004h0  c0.757,0.225,1.504,0.475,2.241,0.746c0.009,0.003,0.018,0.006,0.027,0.009c0.005,0.002,0.01,0.004,0.015,0.005  c0.725,0.268,1.439,0.558,2.144,0.866c0.022,0.01,0.044,0.018,0.066,0.028c0.002,0,0.004,0.002,0.006,0.003  c0.727,0.32,1.442,0.663,2.145,1.026c0.643,0.331,1.268,0.691,1.889,1.057c0.208,0.123,0.417,0.245,0.623,0.372  c0.018,0.011,0.035,0.023,0.053,0.034c0.058,0.036,0.114,0.076,0.172,0.112c-1.393,3.399-0.722,7.455,2.044,10.222  c2.769,2.759,6.831,3.439,10.231,2.03c0.554,0.894,1.079,1.807,1.565,2.74c0.972,1.875,1.788,3.838,2.448,5.878  c0.33,1.02,0.612,2.059,0.855,3.109c-3.401,1.409-5.801,4.761-5.801,8.677c0,3.926,2.4,7.278,5.811,8.687  c-0.165,0.738-0.359,1.467-0.573,2.186c-0.194,0.671-0.418,1.341-0.651,2.002c-0.117,0.35-0.253,0.699-0.379,1.05  c-0.262,0.66-0.535,1.311-0.826,1.953c-0.146,0.33-0.301,0.651-0.457,0.972c-0.602,1.225-1.283,2.41-2.002,3.556  c-3.401-1.399-7.462-0.719-10.222,2.041c-2.769,2.769-3.449,6.831-2.04,10.232c-3.566,2.235-7.511,3.896-11.728,4.868  c-1.409-3.4-4.761-5.8-8.677-5.8c-3.916,0-7.268,2.4-8.677,5.8c-4.217-0.972-8.162-2.633-11.728-4.868  c1.409-3.401,0.729-7.462-2.04-10.232c-2.76-2.76-6.811-3.439-10.212-2.041c-0.719-1.146-1.399-2.332-2.001-3.556  c-0.156-0.321-0.311-0.642-0.457-0.972c-0.292-0.642-0.563-1.293-0.826-1.953c-0.661-1.691-1.195-3.44-1.613-5.238  c3.411-1.409,5.811-4.761,5.811-8.687C238.945,560.592,236.545,557.24,233.144,555.831z M192.199,495.005  c2.75-7.054,7.113-15.546,13.215-19.754c0.972-0.67,2.138-1,3.323-1h13.496c4.431,0,7.326,4.635,5.383,8.619l-5.354,10.979  c-0.719,1.487-2.021,2.605-3.595,3.09l-19.103,5.995C194.754,504.44,190.362,499.708,192.199,495.005z" style="fill:#231F20;"/><path d="M733.198,580.055c8.589,0,15.546-6.957,15.546-15.546c0-8.58-6.957-15.546-15.546-15.546  c-8.59,0-15.547,6.967-15.547,15.546C717.651,573.098,724.608,580.055,733.198,580.055z" style="fill:#231F20;"/></svg>