<svg width="26" height="26" viewBox="0 0 26 26" fill="none" xmlns="http://www.w3.org/2000/svg">
<path d="M23.7452 6.44266L24.7039 5.88138C24.9875 5.71304 25.0839 5.34844 24.9204 5.06173L23.7651 3.03235V3.03255C23.6882 2.89514 23.559 2.7947 23.4071 2.75332C23.2551 2.71213 23.0929 2.73363 22.9569 2.81298L21.9746 3.38794L21.9748 3.38814C21.7903 3.4916 21.5643 3.48658 21.3849 3.37488L21.3789 3.37127C21.1937 3.26781 21.0778 3.07355 21.0748 2.86141V1.60005C21.076 1.44195 21.0143 1.29008 20.9032 1.17758C20.7923 1.06509 20.6413 1.0012 20.4832 1H18.1167C17.9586 1.00121 17.8075 1.06509 17.6966 1.17758C17.5855 1.29008 17.5238 1.44195 17.5251 1.60005V2.86141C17.522 3.07355 17.4061 3.26781 17.2209 3.37127L17.2149 3.37488C17.0355 3.48658 16.8095 3.4916 16.6251 3.38814L15.6427 2.81318L15.6429 2.81298C15.5069 2.73363 15.3448 2.71214 15.1927 2.75332C15.0408 2.7947 14.9117 2.89514 14.8347 3.03255L13.6794 5.06193C13.5159 5.3484 13.6123 5.71321 13.896 5.88158L14.8649 6.44888C15.0537 6.56579 15.1658 6.77431 15.1592 6.99632V7.00375C15.1658 7.22573 15.0537 7.43426 14.8649 7.5512L13.896 8.11849C13.6123 8.28684 13.5159 8.65164 13.6794 8.93814L14.8347 10.9673C14.9117 11.1047 15.0408 11.2052 15.1927 11.2466C15.3446 11.2879 15.5069 11.2664 15.6429 11.1869L16.6253 10.6117H16.6251C16.8095 10.5083 17.0355 10.5133 17.2149 10.625L17.2209 10.6286C17.4061 10.7321 17.522 10.9265 17.5251 11.1387V12.3998C17.5238 12.5579 17.5855 12.7098 17.6966 12.8223C17.8075 12.9348 17.9586 12.9987 18.1167 12.9999H20.4834H20.4832C20.6413 12.9987 20.7923 12.9348 20.9032 12.8223C21.0143 12.7098 21.076 12.5579 21.0748 12.3998V11.1384C21.0778 10.9263 21.1937 10.7321 21.3789 10.6286L21.3849 10.625C21.5643 10.5133 21.7903 10.5081 21.9748 10.6117L22.9571 11.1869H22.9569C23.0929 11.2662 23.2553 11.2877 23.4071 11.2463C23.559 11.2052 23.6882 11.1045 23.7651 10.9671L24.9204 8.93793V8.93813C25.0839 8.65147 24.9875 8.28686 24.7039 8.11833L23.7452 7.55705C23.5501 7.44194 23.4304 7.23181 23.4308 7.00523V6.99539C23.4302 6.76859 23.5499 6.55826 23.7452 6.44275L23.7452 6.44266ZM19.2999 8.79989C18.8226 8.79989 18.3648 8.61025 18.0271 8.27275C17.6896 7.93506 17.5 7.47722 17.5 6.99993C17.5 6.52263 17.6896 6.06477 18.0271 5.7271C18.3648 5.3896 18.8226 5.19997 19.2999 5.19997C19.7772 5.19997 20.2351 5.3896 20.5728 5.7271C20.9102 6.06479 21.0999 6.52263 21.0999 6.99993C21.0999 7.47722 20.9102 7.93508 20.5728 8.27275C20.2351 8.61025 19.7772 8.79989 19.2999 8.79989ZM11.5915 3.87751C11.3213 4.35723 11.1875 4.90184 11.2046 5.45227C11.2218 6.0027 11.3892 6.53785 11.6885 6.99993C11.2321 7.71168 11.0939 8.58173 11.3076 9.39994H4.00029L5.34584 4.01806C5.47561 3.49895 5.77514 3.03811 6.19701 2.70867C6.61889 2.37922 7.1386 2.20042 7.67375 2.20022H12.5469L11.5915 3.87751ZM2.50012 21.2214V23.7994C2.50012 24.1208 2.67168 24.4179 2.95011 24.5786C3.22855 24.7396 3.57166 24.7396 3.85009 24.5786C4.12853 24.4179 4.30008 24.1208 4.30008 23.7994V21.3994H21.6995V23.7994H21.6997C21.6997 24.1208 21.8713 24.4179 22.1497 24.5786C22.4281 24.7396 22.7713 24.7396 23.0497 24.5786C23.3281 24.4179 23.4997 24.1208 23.4997 23.7994V21.2214C23.9424 21.0426 24.3219 20.7355 24.5891 20.3397C24.8563 19.9437 24.9993 19.4771 24.9995 18.9994V14.1996C24.9989 13.8639 24.9272 13.532 24.7894 13.2258C24.5524 13.3737 24.2958 13.4878 24.0271 13.5643C23.7555 13.6373 23.475 13.6718 23.1938 13.6674C22.9537 14.1843 22.571 14.6216 22.0909 14.9285C21.6108 15.2353 21.0531 15.3986 20.4832 15.3994H20.1997C20.5179 15.3994 20.8233 15.526 21.0483 15.751C21.2733 15.976 21.3996 16.2811 21.3996 16.5995C21.3996 16.9177 21.2733 17.2229 21.0483 17.4479C20.8233 17.6731 20.518 17.7994 20.1997 17.7994C19.8815 17.7994 19.5762 17.6731 19.3512 17.4479C19.1262 17.2229 18.9998 16.9177 18.9998 16.5995C18.9998 16.2811 19.1262 15.976 19.3512 15.751C19.5762 15.526 19.8815 15.3994 20.1997 15.3994H18.1163C17.5462 15.3986 16.9883 15.2351 16.508 14.9283C16.0277 14.6216 15.6448 14.1842 15.4043 13.6673C14.8661 13.6764 14.3356 13.5404 13.8681 13.2736C13.4007 13.0068 13.0138 12.6191 12.748 12.1512L12.5477 11.7997L3.39981 11.7995C2.7634 11.7995 2.1529 12.0524 1.70291 12.5024C1.25272 12.9526 1 13.5631 1 14.1995V18.9993C1.0002 19.477 1.14324 19.9437 1.41042 20.3396C1.6776 20.7354 2.05707 21.0425 2.49986 21.2214L2.50012 21.2214ZM5.80012 15.3993C6.11832 15.3993 6.42367 15.5259 6.64867 15.7509C6.87366 15.9759 7.00002 16.281 7.00002 16.5994C7.00002 16.9176 6.87366 17.2228 6.64867 17.4478C6.42367 17.673 6.11835 17.7993 5.80012 17.7993C5.48188 17.7993 5.17656 17.673 4.95156 17.4478C4.72657 17.2228 4.60021 16.9176 4.60021 16.5994C4.60021 16.281 4.72657 15.9759 4.95156 15.7509C5.17656 15.5259 5.48188 15.3993 5.80012 15.3993Z" fill="white"/>
</svg>
