<svg width="50" height="50" viewBox="0 0 50 50" fill="none" xmlns="http://www.w3.org/2000/svg">
<path d="M41.5394 14.5042L43.0373 13.6272C43.4805 13.3641 43.6312 12.7944 43.3757 12.3465L41.5705 9.17555V9.17586C41.4503 8.96116 41.2484 8.80422 41.0111 8.73956C40.7735 8.67521 40.5202 8.7088 40.3077 8.83278L38.7728 9.73116L38.7731 9.73147C38.4849 9.89312 38.1318 9.88528 37.8515 9.71075L37.8421 9.7051C37.5526 9.54345 37.3715 9.23992 37.3668 8.90845V6.93758C37.3687 6.69055 37.2723 6.45325 37.0988 6.27747C36.9255 6.1017 36.6895 6.00188 36.4424 6H32.7448C32.4978 6.00188 32.2617 6.1017 32.0885 6.27747C31.9149 6.45325 31.8185 6.69055 31.8204 6.93758V8.90845C31.8157 9.23992 31.6346 9.54345 31.3452 9.7051L31.3358 9.71075C31.0554 9.88528 30.7023 9.89312 30.4142 9.73147L28.8792 8.8331L28.8795 8.83278C28.667 8.7088 28.4137 8.67522 28.1761 8.73956C27.9388 8.80422 27.737 8.96116 27.6167 9.17586L25.8116 12.3468C25.5561 12.7944 25.7067 13.3644 26.1499 13.6275L27.6638 14.5139C27.9589 14.6965 28.134 15.0224 28.1237 15.3693V15.3809C28.134 15.7277 27.9589 16.0535 27.6638 16.2362L26.1499 17.1226C25.7067 17.3857 25.5561 17.9557 25.8116 18.4034L27.6167 21.5739C27.737 21.7886 27.9388 21.9456 28.1761 22.0102C28.4134 22.0749 28.667 22.0413 28.8795 21.917L30.4145 21.0183H30.4142C30.7023 20.8567 31.0554 20.8645 31.3358 21.039L31.3452 21.0447C31.6346 21.2063 31.8157 21.5102 31.8204 21.8416V23.8122C31.8185 24.0592 31.9149 24.2965 32.0885 24.4723C32.2617 24.6481 32.4978 24.7479 32.7448 24.7498H36.4427H36.4424C36.6895 24.7479 36.9255 24.6481 37.0988 24.4723C37.2724 24.2965 37.3687 24.0592 37.3668 23.8122V21.8413C37.3715 21.5099 37.5527 21.2063 37.8421 21.0447L37.8515 21.039C38.1318 20.8645 38.4849 20.8563 38.7731 21.0183L40.308 21.917H40.3077C40.5202 22.041 40.7738 22.0746 41.0111 22.0099C41.2484 21.9456 41.4503 21.7883 41.5705 21.5736L43.3757 18.403V18.4033C43.6312 17.9554 43.4805 17.3857 43.0373 17.1224L41.5394 16.2454C41.2346 16.0655 41.0475 15.7372 41.0482 15.3832V15.3678C41.0472 15.0134 41.2343 14.6848 41.5394 14.5043L41.5394 14.5042ZM34.5936 18.1873C33.8478 18.1873 33.1324 17.891 32.6048 17.3637C32.0775 16.836 31.7812 16.1207 31.7812 15.3749C31.7812 14.6291 32.0775 13.9137 32.6048 13.3861C33.1325 12.8588 33.8479 12.5624 34.5936 12.5624C35.3394 12.5624 36.0548 12.8588 36.5824 13.3861C37.1098 13.9137 37.4061 14.6291 37.4061 15.3749C37.4061 16.1207 37.1098 16.8361 36.5824 17.3637C36.0548 17.891 35.3394 18.1873 34.5936 18.1873ZM22.5492 10.4961C22.127 11.2457 21.9179 12.0966 21.9446 12.9567C21.9716 13.8167 22.2331 14.6529 22.7008 15.3749C21.9876 16.487 21.7717 17.8465 22.1056 19.1249H10.688L12.7904 10.7157C12.9931 9.90461 13.4612 9.18455 14.1203 8.66979C14.7795 8.15504 15.5916 7.87566 16.4277 7.87534H24.0421L22.5492 10.4961ZM8.34394 37.596V41.6241C8.34394 42.1263 8.612 42.5905 9.04705 42.8416C9.4821 43.0931 10.0182 43.0931 10.4533 42.8416C10.8883 42.5905 11.1564 42.1263 11.1564 41.6241V37.8741H38.343V41.6241H38.3433C38.3433 42.1263 38.6114 42.5905 39.0464 42.8416C39.4815 43.0931 40.0176 43.0931 40.4527 42.8416C40.8877 42.5905 41.1558 42.1263 41.1558 41.6241V37.596C41.8476 37.3166 42.4405 36.8367 42.858 36.2183C43.2755 35.5996 43.499 34.8705 43.4993 34.124V26.6243C43.4983 26.0998 43.3863 25.5813 43.171 25.1029C42.8006 25.3339 42.3997 25.5122 41.9798 25.6318C41.5554 25.7457 41.1172 25.7997 40.6778 25.7928C40.3027 26.6004 39.7048 27.2838 38.9546 27.7633C38.2044 28.2426 37.333 28.4978 36.4425 28.4991H35.9996C36.4968 28.4991 36.9739 28.6968 37.3255 29.0484C37.677 29.3999 37.8744 29.8768 37.8744 30.3743C37.8744 30.8715 37.677 31.3482 37.3255 31.6998C36.9739 32.0517 36.4968 32.2491 35.9996 32.2491C35.5023 32.2491 35.0253 32.0517 34.6737 31.6998C34.3222 31.3482 34.1247 30.8714 34.1247 30.3743C34.1247 29.8767 34.3222 29.3999 34.6737 29.0484C35.0253 28.6968 35.5023 28.4991 35.9996 28.4991H32.7442C31.8534 28.4978 30.9817 28.2423 30.2313 27.763C29.4808 27.2837 28.8825 26.6004 28.5068 25.7927C27.6659 25.8068 26.8369 25.5943 26.1065 25.1775C25.3761 24.7606 24.7715 24.1548 24.3563 23.4238L24.0433 22.8745L9.7497 22.8742C8.75531 22.8742 7.80141 23.2694 7.0983 23.9725C6.39487 24.6759 6 25.6298 6 26.6242V34.1239C6.00031 34.8704 6.22381 35.5995 6.64128 36.2182C7.05875 36.8365 7.65166 37.3165 8.34352 37.5959L8.34394 37.596ZM13.5002 28.4989C13.9974 28.4989 14.4745 28.6967 14.826 29.0482C15.1776 29.3998 15.375 29.8766 15.375 30.3741C15.375 30.8713 15.1776 31.3481 14.826 31.6996C14.4745 32.0515 13.9974 32.2489 13.5002 32.2489C13.0029 32.2489 12.5259 32.0515 12.1743 31.6996C11.8228 31.3481 11.6253 30.8712 11.6253 30.3741C11.6253 29.8766 11.8228 29.3998 12.1743 29.0482C12.5259 28.6967 13.0029 28.4989 13.5002 28.4989Z" fill="#007083"/>
</svg>
