<svg width="26" height="26" viewBox="0 0 26 26" fill="none" xmlns="http://www.w3.org/2000/svg">
<g clip-path="url(#clip0_812_3)">
<path d="M14.0991 3.24998C14.0991 5.04492 12.644 6.49995 10.8491 6.49995C9.05416 6.49995 7.59912 5.04492 7.59912 3.24998C7.59912 1.45503 9.05416 0 10.8491 0C12.644 0 14.0991 1.45503 14.0991 3.24998Z" fill="white"/>
<path d="M8.22087 12.0894L8.93862 16.3958C9.08309 17.263 9.53057 18.0508 10.2013 18.6191C10.8721 19.1873 11.7225 19.4992 12.6017 19.4994L17.3782 19.5C17.5892 19.5 17.7928 19.579 17.9484 19.7214C18.1043 19.8636 18.2013 20.0591 18.2203 20.2692L18.6647 25.1556C18.6857 25.3863 18.7922 25.601 18.9634 25.7571C19.1346 25.9134 19.3578 26 19.5898 26H20.5988C20.845 26 21.0813 25.9022 21.2554 25.7281C21.4295 25.554 21.5274 25.3177 21.5274 25.0714V17.6429C21.5274 17.1505 21.3317 16.6781 20.9833 16.3297C20.6351 15.9815 20.1627 15.7858 19.6702 15.7858H16.0536C15.8534 15.7858 15.6596 15.7147 15.5068 15.5854C15.3541 15.4558 15.2521 15.2765 15.2191 15.079L14.5673 11.1687H14.5675C14.4584 10.4387 14.1084 9.76608 13.573 9.25786C13.0376 8.74985 12.3478 8.4352 11.613 8.36453C10.6329 8.29426 9.67468 8.67709 9.01285 9.40378C8.35124 10.1302 8.0594 11.1202 8.22086 12.0893L8.22087 12.0894Z" fill="white"/>
<path d="M5.84978 8.23451C5.80874 7.90537 5.59504 7.62325 5.28951 7.49436C4.98379 7.36524 4.63267 7.40917 4.36821 7.6094C4.10374 7.80962 3.96611 8.13566 4.00715 8.46501L5.13947 17.5204C5.33596 19.0925 6.09976 20.5386 7.28737 21.587C8.47503 22.6354 10.0049 23.2138 11.589 23.2138H15.0276C15.3592 23.2138 15.6658 23.0368 15.8318 22.7496C15.9976 22.4623 15.9976 22.1083 15.8318 21.821C15.6658 21.5337 15.3592 21.3567 15.0276 21.3567H11.589C10.4573 21.3567 9.3646 20.9434 8.51626 20.1946C7.66792 19.4455 7.12235 18.4127 6.98206 17.2897L5.84978 8.23451Z" fill="white"/>
</g>
<defs>
<clipPath id="clip0_812_3">
<rect width="26" height="26" fill="white"/>
</clipPath>
</defs>
</svg>
