<svg width="26" height="26" viewBox="0 0 26 26" fill="none" xmlns="http://www.w3.org/2000/svg">
<g clip-path="url(#clip0_812_14)">
<path d="M14.6755 4.68005C14.6755 7.26466 12.5803 9.3601 9.99548 9.3601C7.41086 9.3601 5.31543 7.26472 5.31543 4.68005C5.31543 2.09537 7.4108 0 9.99548 0C12.5803 0 14.6755 2.09537 14.6755 4.68005Z" fill="white"/>
<path d="M16.8531 12.285C13.0506 12.285 9.99561 15.3725 9.99561 19.1425C9.99561 22.9126 13.0833 26 16.8531 26C20.6231 26 23.7106 22.9126 23.7106 19.1425C23.7106 15.3725 20.6555 12.285 16.8531 12.285V12.285ZM11.9457 16.2176C12.1733 15.8277 12.4657 15.4376 12.8232 15.1127C14.1558 13.7801 16.0082 13.1953 17.9258 13.5201C18.6733 13.65 19.3883 13.9427 20.0058 14.3651C20.7533 14.8525 21.3384 15.5027 21.7607 16.2177C21.8906 16.4453 21.8258 16.7702 21.5657 16.9003L21.3381 16.9978C20.2005 17.5178 18.9006 17.5178 17.763 17.0302C17.503 16.9003 17.1781 16.8352 16.853 16.8352C16.5279 16.8352 16.2355 16.9003 15.943 17.0302C14.8054 17.5176 13.5055 17.5176 12.3679 16.9978L12.1405 16.9001C11.9131 16.7702 11.8154 16.4451 11.9456 16.2177L11.9457 16.2176ZM16.0082 23.6926L15.9431 24.2451C15.9107 24.5375 15.618 24.7325 15.3582 24.6677C14.4158 24.4076 13.5056 23.9202 12.7908 23.2052C11.7183 22.1327 11.1008 20.7027 11.1008 19.1752C11.1008 18.8501 11.4259 18.6227 11.7183 18.7202L12.6607 18.9802C13.6031 19.2402 14.4483 19.7927 15.0331 20.5728L15.0656 20.6052C15.7482 21.4503 16.1057 22.5553 16.0082 23.6926H16.0082ZM16.9181 20.2803C16.2355 20.3127 15.6831 19.7603 15.7157 19.0779C15.7481 18.493 16.2031 18.0377 16.7882 18.0054C17.4708 17.9729 18.0233 18.5254 17.9906 19.2078C17.9906 19.7927 17.503 20.2477 16.9181 20.2803ZM20.8831 23.1728C20.1681 23.8878 19.2906 24.4079 18.3481 24.6352C18.0557 24.7003 17.7957 24.5053 17.7633 24.2127L17.7308 23.6602C17.6334 22.5226 17.9909 21.4176 18.6732 20.5401L18.7056 20.5077C19.2905 19.7276 20.1357 19.1751 21.0781 18.9151L21.9881 18.6551C22.2805 18.59 22.573 18.785 22.573 19.1101C22.5732 20.6702 21.9881 22.1002 20.8831 23.1728V23.1728Z" fill="white"/>
<path d="M16.7226 11.83C15.9425 10.5625 14.8376 9.52242 13.505 8.87248C12.5627 9.68498 11.3275 10.1724 9.99504 10.1724C8.66254 10.1724 7.42766 9.68496 6.48505 8.90486C3.91767 10.2374 2.13012 12.9023 2 16.0548V18.72C2 19.7925 5.44493 20.6701 9.70248 20.7025C9.605 20.215 9.53994 19.695 9.53994 19.175C9.54016 15.1451 12.7577 11.895 16.723 11.83L16.7226 11.83Z" fill="white"/>
</g>
<defs>
<clipPath id="clip0_812_14">
<rect width="26" height="26" fill="white"/>
</clipPath>
</defs>
</svg>
