<svg width="50" height="50" viewBox="0 0 50 50" fill="none" xmlns="http://www.w3.org/2000/svg">
<path fill-rule="evenodd" clip-rule="evenodd" d="M10.3056 14.6111V29.6806H29.6806V14.6111H10.3056ZM10.3056 6C7.9275 6 6 7.9275 6 10.3056V44.75H33.9861V36.1389H36.1389C39.706 36.1389 42.5972 33.2476 42.5972 29.6806V22.6462C43.8841 21.9017 44.75 20.5103 44.75 18.9167C44.75 16.5386 42.8225 14.6111 40.4444 14.6111C38.0664 14.6111 36.1389 16.5386 36.1389 18.9167C36.1389 20.5103 37.0048 21.9016 38.2917 22.6462V29.6806C38.2917 30.8696 37.3279 31.8333 36.1389 31.8333H33.9861V10.3056C33.9861 7.9275 32.0586 6 29.6806 6H10.3056ZM15.6875 18.9167H12.4583V25.375H15.6875V18.9167ZM18.3785 18.9167H21.6076V25.375H18.3785V18.9167ZM27.5278 18.9167H24.2986V25.375H27.5278V18.9167Z" fill="#007083"/>
</svg>
