<svg width="50" height="50" viewBox="0 0 50 50" fill="none" xmlns="http://www.w3.org/2000/svg">
<path d="M25.7956 26.8539H42.2536L39.2849 22.5332C38.649 23.0932 37.9662 23.6077 37.2352 24.0373C36.9356 24.2136 36.6317 24.4314 36.2752 24.2803C35.6659 24.0428 31.9492 22.4169 29.7033 17.4459H25.7954L25.7956 26.8539Z" fill="#007083"/>
<path d="M13.7799 35.7982C11.777 35.7982 10.1475 37.4173 10.1475 39.4074C10.1475 41.3971 11.777 43.0166 13.7799 43.0166C15.7828 43.0166 17.4124 41.3974 17.4124 39.4074C17.4124 37.4176 15.7825 35.7982 13.7799 35.7982Z" fill="#007083"/>
<path d="M24.7047 17.4451H15.6766C14.8672 17.4451 14.1027 17.8506 13.6315 18.5296L8.21582 26.8534H24.7052L24.7047 17.4451Z" fill="#007083"/>
<path d="M30.5857 16.6914C32.4963 21.1339 35.6614 22.8174 36.5088 23.2008C36.9201 22.9689 39.0613 21.249 39.1011 21.2264C44.9773 16.3588 43.9962 8.41206 43.9959 8.23736C43.0389 7.71682 39.6479 6 36.5393 6C33.4212 6 30.0284 7.72015 29.076 8.23916C29.0369 11.7456 29.6385 14.4725 30.5183 16.5825C30.544 16.6165 30.5685 16.6511 30.5856 16.6909L30.5857 16.6914ZM33.1221 14.6943C33.2992 14.4526 33.6401 14.3997 33.8834 14.5756L35.4833 15.7348L39.2651 11.5885C39.4671 11.3667 39.8117 11.3504 40.0345 11.5509C40.2575 11.7516 40.2747 12.0941 40.0724 12.3156L35.9619 16.8227C35.7771 17.0253 35.4597 17.0577 35.2372 16.8965L33.2413 15.4505C32.9983 15.2745 32.9448 14.9361 33.122 14.6943L33.1221 14.6943Z" fill="#007083"/>
<path d="M45.9556 27.9366H4.54502C4.24451 27.9366 4 28.1796 4 28.4783V38.325C4 38.6237 4.24451 38.8667 4.54502 38.8667H9.08821C9.29997 37.0409 10.6272 35.476 12.3768 34.9306C14.0779 34.4003 15.9853 34.9 17.2107 36.1939C17.9014 36.9231 18.354 37.8675 18.4699 38.867H32.0301C32.2418 37.0412 33.5691 35.4763 35.3186 34.9309C37.0198 34.4006 38.9272 34.9003 40.1525 36.1942C40.8432 36.9235 41.2958 37.8678 41.4118 38.8673H45.955C46.2555 38.8673 46.5 38.6243 46.5 38.3256V28.4781C46.5 28.1794 46.2555 27.9367 45.955 27.9367L45.9556 27.9366Z" fill="#007083"/>
<path d="M36.7218 35.7982C34.7189 35.7982 33.0894 37.4173 33.0894 39.4074C33.0894 41.3971 34.7193 43.0166 36.7218 43.0166C38.7247 43.0166 40.3543 41.3974 40.3543 39.4074C40.3543 37.4176 38.7247 35.7982 36.7218 35.7982Z" fill="#007083"/>
</svg>
