<svg width="26" height="26" viewBox="0 0 26 26" fill="none" xmlns="http://www.w3.org/2000/svg">
<g clip-path="url(#clip0_812_8)">
<path d="M5.69824 9.33592C5.69824 7.79316 6.95528 6.53636 8.4978 6.53636C10.0415 6.53636 11.2984 7.79334 11.2984 9.33592C11.2984 10.8785 10.0414 12.1355 8.4978 12.1355C6.95528 12.1355 5.69824 10.8787 5.69824 9.33592Z" stroke="white" stroke-width="2"/>
<path d="M13.4631 15.2793C13.3203 14.9802 13.383 14.6188 13.6188 14.3798C13.9737 14.0199 14.2888 13.6246 14.5569 13.2057C14.7404 12.9213 15.0775 12.7836 15.3983 12.8547L17.0498 13.2317C17.0941 13.2424 17.1327 13.2248 17.1503 13.2146C17.1668 13.2035 17.1972 13.1787 17.2075 13.133L17.9935 9.69512C18.0092 9.62463 17.9641 9.55313 17.893 9.53702L16.2407 9.1596C15.9181 9.08629 15.6748 8.81179 15.6353 8.47584C15.5755 7.97778 15.464 7.48474 15.3026 7.01108C15.1939 6.69267 15.2944 6.34021 15.5534 6.13377L16.875 5.07905C16.933 5.03334 16.9422 4.94956 16.8971 4.89296L14.6988 2.13704C14.6527 2.07984 14.5708 2.06977 14.5117 2.11589L13.193 3.16778C12.9332 3.37521 12.5654 3.39354 12.2817 3.21611C11.8531 2.95027 11.3961 2.72953 10.9232 2.56035C10.6062 2.44656 10.3934 2.14788 10.3934 1.8176V0.131715C10.3934 0.059008 10.3335 0 10.2606 0H6.73578C6.66307 0 6.60306 0.059008 6.60306 0.131715V1.8176C6.60306 2.14749 6.39018 2.44615 6.0732 2.55993C5.60052 2.72951 5.14335 2.95024 4.71475 3.21611C4.42816 3.39354 4.06141 3.37501 3.80244 3.16818L2.48369 2.11568C2.42569 2.07056 2.34271 2.07882 2.2976 2.13682L0.0997377 4.89275C0.0610693 4.94168 0.0711391 5.03977 0.120079 5.07884L1.44347 6.13397C1.70246 6.3408 1.80296 6.69348 1.69421 7.01128C1.53208 7.48396 1.42051 7.9766 1.3615 8.47562C1.32001 8.81196 1.07672 9.08566 0.755076 9.15938L-0.896374 9.5368C-0.9433 9.54748 -0.969081 9.57789 -0.979351 9.59541C-0.990428 9.61253 -1.00694 9.64837 -0.996873 9.6949L-0.212626 13.1324C-0.196112 13.2029 -0.124215 13.2498 -0.0541272 13.2315L1.59732 12.8544C1.91996 12.7821 2.25711 12.9217 2.43957 13.2051C2.70965 13.6272 3.02486 14.022 3.37767 14.3792C3.61451 14.6207 3.67634 14.982 3.53254 15.2797L2.79722 16.8066C2.76581 16.8721 2.7936 16.9513 2.85986 16.9831L6.03551 18.5125C6.07599 18.5328 6.11567 18.5244 6.13601 18.5185C6.15534 18.5117 6.19139 18.4942 6.21153 18.4513L6.94602 16.9257C7.09345 16.6238 7.42434 16.4483 7.75244 16.486C8.24083 16.5422 8.75421 16.5422 9.24442 16.486C9.27584 16.4824 9.30625 16.4806 9.33666 16.4806C9.63896 16.4806 9.91808 16.6516 10.05 16.9257L10.7845 18.4508C10.8167 18.5177 10.8969 18.5467 10.9605 18.5127L14.138 16.9833C14.1803 16.9625 14.1988 16.9271 14.2053 16.9077C14.2117 16.8884 14.22 16.8501 14.1998 16.8078L13.4631 15.2793ZM8.49763 13.7966C6.03894 13.7966 4.03829 11.7955 4.03829 9.33618C4.03829 6.87713 6.03899 4.87581 8.49763 4.87581C10.9573 4.87581 12.958 6.87687 12.958 9.33618C12.958 11.7952 10.9573 13.7966 8.49763 13.7966Z" fill="white"/>
<path d="M20.7583 18.3668L20.7721 18.3704C21.7194 18.6173 22.2901 19.5906 22.0427 20.5384L22.0426 20.5389C21.9228 20.9995 21.6327 21.3833 21.2225 21.6234L21.2217 21.6238C20.8119 21.8646 20.334 21.9305 19.8746 21.8103L19.874 21.8101C19.4146 21.6905 19.0304 21.4001 18.7897 20.9897L20.7583 18.3668ZM20.7583 18.3668C20.6128 18.3299 20.4673 18.3124 20.324 18.3124C19.5336 18.3124 18.811 18.8447 18.6036 19.6423L18.6034 19.6429C18.4833 20.1025 18.5496 20.5793 18.7897 20.9896L20.7583 18.3668Z" stroke="white"/>
<path d="M24.7009 20.6835C24.7424 20.3758 24.7525 20.0657 24.7295 19.7633C24.7092 19.4993 24.8566 19.2518 25.0944 19.1465L26.0704 18.7124L25.147 16.7289L24.2246 17.1808C23.986 17.2863 23.704 17.2297 23.5215 17.037C23.3086 16.813 23.0708 16.6112 22.8156 16.4374C22.5991 16.289 22.4968 16.0209 22.5605 15.7698L22.8295 14.7376L20.7036 14.2234L20.4815 15.2256C20.416 15.4772 20.1949 15.662 19.9323 15.6854C19.6253 15.713 19.3194 15.7734 19.0227 15.8651C18.7647 15.9444 18.4993 15.8582 18.3398 15.6471L17.7011 14.7942L15.9731 16.1359L16.621 16.9373C16.7767 17.1451 16.7841 17.4325 16.6385 17.6529C16.4679 17.9104 16.3252 18.1855 16.2138 18.4725C16.1179 18.719 15.8746 18.8844 15.6175 18.8711L14.5476 18.8385L14.519 21.0263L15.5512 21.0198C15.8102 21.0273 16.0388 21.2009 16.1216 21.4516C16.2164 21.7447 16.3437 22.0284 16.4976 22.2957C16.6293 22.5228 16.6063 22.8104 16.4368 23.0094L15.7438 23.8259L17.4367 25.2119L18.0743 24.4015C18.1942 24.2609 18.3684 24.184 18.5462 24.184C18.6227 24.184 18.7001 24.1979 18.7738 24.2269C18.9148 24.2813 19.0594 24.33 19.2088 24.3693C19.358 24.4079 19.5075 24.4361 19.6567 24.4569C19.9211 24.4941 20.1322 24.6933 20.183 24.9513L20.3894 26L22.5282 25.5416L22.2914 24.5358C22.2416 24.2815 22.3596 24.0192 22.5862 23.8833C22.8517 23.7248 23.1014 23.5391 23.3272 23.3305C23.5225 23.148 23.7998 23.1107 24.0359 23.231V23.2314L24.9841 23.7244L25.9601 21.7656L25.0274 21.3241C24.795 21.2027 24.6641 20.9457 24.7009 20.6835L24.7009 20.6835ZM23.1664 20.8314C22.9683 21.5907 22.4863 22.2275 21.8099 22.6246C21.3527 22.8923 20.8442 23.0296 20.329 23.0296C20.0802 23.0296 19.8295 22.9978 19.5826 22.9334C18.8233 22.7352 18.1865 22.2536 17.7893 21.5768C17.3922 20.8999 17.2824 20.1088 17.4806 19.3493C17.8888 17.7808 19.5016 16.8417 21.0645 17.2467C22.6319 17.6562 23.5747 19.2639 23.1665 20.8314L23.1664 20.8314Z" fill="white"/>
</g>
<defs>
<clipPath id="clip0_812_8">
<rect width="26" height="26" fill="white"/>
</clipPath>
</defs>
</svg>
