<svg width="50" height="50" viewBox="0 0 50 50" fill="none" xmlns="http://www.w3.org/2000/svg">
<path d="M26.7729 9.14769C26.7729 12.1288 24.3563 14.5454 21.3752 14.5454C18.3941 14.5454 15.9775 12.1288 15.9775 9.14769C15.9775 6.16658 18.3941 3.75 21.3752 3.75C24.3563 3.75 26.7729 6.16658 26.7729 9.14769Z" fill="#007083"/>
<path d="M17.0095 23.8285L18.2015 30.9808C18.4415 32.4211 19.1847 33.7295 20.2987 34.6734C21.4127 35.617 22.825 36.1351 24.2853 36.1354L32.2183 36.1364C32.5688 36.1364 32.9068 36.2676 33.1653 36.5041C33.4242 36.7402 33.5853 37.0649 33.617 37.4139L34.355 45.5294C34.3898 45.9125 34.5667 46.2691 34.8511 46.5284C35.1354 46.7879 35.5062 46.9318 35.8914 46.9318H37.5672C37.9761 46.9318 38.3686 46.7693 38.6577 46.4802C38.9469 46.191 39.1094 45.7986 39.1094 45.3896V33.0521C39.1094 32.2341 38.7844 31.4496 38.2058 30.8709C37.6274 30.2926 36.8429 29.9677 36.025 29.9677H30.0184C29.6858 29.9677 29.364 29.8496 29.1102 29.6348C28.8565 29.4196 28.6872 29.1219 28.6324 28.7938L27.5498 22.2994H27.5501C27.3691 21.087 26.7877 19.9699 25.8985 19.1258C25.0093 18.2821 23.8637 17.7595 22.6433 17.6421C21.0154 17.5254 19.424 18.1612 18.3248 19.3682C17.226 20.5747 16.7413 22.2188 17.0095 23.8285L17.0095 23.8285Z" fill="#007083"/>
<path d="M13.0722 17.4262C13.004 16.8795 12.6491 16.411 12.1417 16.1969C11.6339 15.9825 11.0508 16.0554 10.6115 16.388C10.1723 16.7205 9.94372 17.262 10.0119 17.809L11.8925 32.8485C12.2188 35.4596 13.4874 37.8614 15.4598 39.6025C17.4323 41.3437 19.9731 42.3045 22.6041 42.3045H28.3151C28.8659 42.3045 29.375 42.0105 29.6507 41.5334C29.9261 41.0562 29.9261 40.4683 29.6507 39.9912C29.375 39.514 28.8659 39.2201 28.3151 39.2201H22.6041C20.7246 39.2201 18.9097 38.5337 17.5008 37.2899C16.0918 36.0459 15.1857 34.3305 14.9527 32.4654L13.0722 17.4262Z" fill="#007083"/>
</svg>
