<svg width="26" height="26" viewBox="0 0 26 26" fill="none" xmlns="http://www.w3.org/2000/svg">
<g clip-path="url(#clip0_813_113)">
<path d="M15.3405 21.5828C15.3124 21.2162 15.3969 20.8214 15.6226 20.483C14.833 20.342 14.2408 19.637 14.2691 18.8193V17.8606C14.2691 17.071 14.833 16.366 15.6226 16.225C15.1713 15.5482 15.2559 14.674 15.8201 14.082L16.4967 13.4053C16.8069 13.0951 17.2299 12.9259 17.6811 12.9259C18.0194 12.9259 18.3296 13.0105 18.6117 13.208C18.7809 12.4184 19.4577 11.8545 20.2472 11.8545H21.206C22.0236 11.8545 22.7005 12.4468 22.8415 13.2363C23.1236 13.0388 23.4619 12.9261 23.8003 12.9261C23.9413 12.9261 24.0823 12.9542 24.2232 12.9825C23.913 12.1649 23.4055 11.4315 22.7286 10.783C22.6721 10.7265 22.6159 10.7265 22.5594 10.6703C22.5876 10.6421 22.5876 10.6138 22.6159 10.5857H23.1798H24.6179C25.0973 10.5857 25.4075 10.2755 25.4356 9.79612V8.83739C25.4075 8.38616 25.1254 8.07596 24.6742 8.07596H24.1667C23.2361 8.07596 22.5876 9.14758 22.5876 9.14758C22.5311 9.28862 22.4466 9.40133 22.3338 9.57049C22.2211 9.17571 22.1363 8.83736 22.0518 8.52717C21.657 7.1172 21.0366 5.79184 20.1906 4.60747C19.5983 3.76144 18.7525 3.4796 17.8219 3.3102C16.1298 3.02813 14.4097 3 12.7178 3C10.9977 3 9.30559 3.02813 7.61374 3.3102C6.68316 3.47937 5.83713 3.78956 5.24505 4.60747C4.39902 5.81994 3.77864 7.1172 3.38385 8.52717C3.29926 8.83737 3.21468 9.1757 3.10177 9.57049C2.98906 9.373 2.90428 9.26029 2.84803 9.14758C2.84803 9.14758 2.19949 8.07596 1.26892 8.07596H0.76143C0.310197 8.10409 0.0283 8.41429 0 8.83739V9.79612C0 10.2755 0.338331 10.5857 0.817678 10.5857H2.25579H2.81973C2.84785 10.6138 2.84785 10.6421 2.87618 10.6703C2.81973 10.6984 2.73514 10.7267 2.70701 10.783C1.49455 11.9392 0.845812 13.3492 0.874162 15.041C0.90229 16.0562 0.986874 17.0433 1.09978 18.0585C1.18436 18.8199 1.35353 19.5811 1.72017 20.2861C1.8612 20.5963 2.0585 20.8219 2.397 20.8784C2.56616 20.9065 2.56616 21.0194 2.56616 21.1321V22.3729C2.56616 22.9652 2.90449 23.3035 3.49674 23.3035H4.9913C5.63983 23.3035 5.95003 22.9652 5.95003 22.3448V21.3577C8.23412 21.5269 10.4901 21.6115 12.7461 21.6115C13.6202 21.6392 14.4944 21.6111 15.3404 21.5828L15.3405 21.5828ZM4.56837 9.82371C4.93502 8.30105 5.49895 6.89109 6.28853 5.53737C6.34498 5.45279 6.37311 5.39633 6.42956 5.36821C6.48602 5.31175 6.54228 5.28362 6.62706 5.25549C7.13454 5.02987 8.6574 4.57866 12.7181 4.55051C16.7788 4.57864 18.3016 5.02987 18.8091 5.25549C18.8937 5.28362 18.9502 5.31195 19.0066 5.36821C19.0631 5.42466 19.1193 5.48092 19.1477 5.53737C19.9372 6.86274 20.5012 8.30085 20.8678 9.82371C20.896 9.93642 20.896 10.0493 20.9243 10.1058C18.1889 9.88016 15.4254 9.73913 12.6901 9.73913C9.95476 9.73913 7.21943 9.85184 4.4559 10.1058C4.54009 10.0493 4.56822 9.93662 4.56822 9.82371H4.56837ZM5.01961 16.2813C4.03253 16.2813 3.21485 15.4637 3.21485 14.4766C3.21485 13.4895 4.03253 12.6718 5.01961 12.6718C6.00668 12.6718 6.82436 13.4895 6.82436 14.4766C6.82436 15.4635 6.00668 16.2813 5.01961 16.2813ZM25.6615 17.522L24.7028 17.3528C24.6182 16.9861 24.4771 16.6197 24.2798 16.3095L24.8438 15.5199C24.9565 15.3789 24.9284 15.1816 24.8156 15.0405L24.139 14.3638C24.0263 14.2228 23.8006 14.2228 23.6596 14.3357L22.87 14.8997C22.5317 14.7022 22.1932 14.5613 21.7984 14.4484L21.6292 13.4897C21.6011 13.3205 21.4601 13.1795 21.2626 13.1795H20.3039C20.1347 13.1795 19.9655 13.3205 19.9372 13.4897L19.768 14.4768C19.4014 14.5614 19.0349 14.7305 18.7247 14.8997L17.9351 14.3357C17.7941 14.223 17.5968 14.2512 17.4558 14.3639L16.7791 15.0406C16.6381 15.1533 16.6381 15.3789 16.751 15.5199L17.3149 16.3376C17.1174 16.6478 16.9766 17.0144 16.892 17.3809L15.9333 17.5501C15.7641 17.5782 15.6231 17.7193 15.6231 17.9167V18.8755C15.6231 19.0446 15.7641 19.2138 15.9333 19.2421L16.9203 19.4113C17.0049 19.7779 17.1741 20.1444 17.3433 20.4546L16.7793 21.2442C16.6666 21.3852 16.6947 21.5825 16.8074 21.7235L17.4841 22.4002C17.5968 22.5413 17.8225 22.5413 17.9635 22.4284L18.7812 21.8644C19.0914 22.0619 19.4297 22.2027 19.7963 22.2873L19.9655 23.2461C19.9936 23.4152 20.1347 23.5563 20.3322 23.5563H21.2909C21.46 23.5563 21.6292 23.4152 21.6575 23.2461L21.8267 22.2873C22.1934 22.2027 22.5598 22.0617 22.87 21.8644L23.6596 22.4284C23.8006 22.5411 23.9979 22.5129 24.139 22.4002L24.8156 21.7235C24.9567 21.6108 24.9567 21.3852 24.8438 21.2442L24.2798 20.4546C24.4773 20.1444 24.6182 19.7778 24.7311 19.4113L25.6898 19.2421C25.859 19.214 26 19.0729 26 18.8755V17.9167C25.9717 17.7194 25.8306 17.5503 25.6615 17.522V17.522ZM21.3187 20.7931C19.9652 21.1033 18.6115 20.2573 18.3013 18.9038C17.9911 17.5503 18.8371 16.1965 20.1906 15.8864C21.5441 15.5762 22.8978 16.4222 23.208 17.7757C23.5182 19.1294 22.6722 20.4829 21.3187 20.7931V20.7931Z" fill="white"/>
</g>
<defs>
<clipPath id="clip0_813_113">
<rect width="26" height="26" fill="white"/>
</clipPath>
</defs>
</svg>
