<svg width="50" height="50" viewBox="0 0 50 50" fill="none" xmlns="http://www.w3.org/2000/svg">
<path d="M27.7201 11.6501C27.7201 15.8749 24.2952 19.3002 20.07 19.3002C15.8451 19.3002 12.4199 15.875 12.4199 11.6501C12.4199 7.42513 15.8451 4 20.07 4C24.2952 4 27.7201 7.42513 27.7201 11.6501Z" fill="#007083"/>
<path d="M31.2787 24.0813C25.0631 24.0813 20.0693 29.1281 20.0693 35.2906C20.0693 41.4532 25.1165 46.5 31.2787 46.5C37.4413 46.5 42.488 41.4532 42.488 35.2906C42.488 29.1281 37.4942 24.0813 31.2787 24.0813V24.0813ZM23.2569 30.5096C23.629 29.8722 24.107 29.2345 24.6914 28.7035C26.8696 26.5252 29.8975 25.5692 33.0322 26.1002C34.254 26.3126 35.4227 26.791 36.4322 27.4814C37.654 28.2781 38.6104 29.3409 39.3007 30.5097C39.5131 30.8817 39.4071 31.4128 38.982 31.6255L38.61 31.7849C36.7504 32.6349 34.6256 32.6349 32.7661 31.8378C32.341 31.6255 31.81 31.5192 31.2786 31.5192C30.7472 31.5192 30.2691 31.6255 29.7911 31.8378C27.9315 32.6346 25.8067 32.6346 23.9471 31.7849L23.5755 31.6251C23.2038 31.4128 23.0441 30.8814 23.2568 30.5097L23.2569 30.5096ZM29.8975 42.7283L29.7912 43.6314C29.7382 44.1094 29.2598 44.4281 28.8351 44.3221C27.2947 43.8971 25.8068 43.1004 24.6384 41.9316C22.8853 40.1785 21.8759 37.8409 21.8759 35.344C21.8759 34.8126 22.4073 34.441 22.8853 34.6003L24.4258 35.0253C25.9662 35.4504 27.3477 36.3535 28.3038 37.6286L28.3568 37.6816C29.4726 39.063 30.057 40.8692 29.8976 42.7283H29.8975ZM31.385 37.1505C30.2692 37.2035 29.3662 36.3004 29.4195 35.185C29.4725 34.2289 30.2162 33.4848 31.1726 33.4318C32.2884 33.3789 33.1915 34.2819 33.1382 35.3974C33.1382 36.3534 32.3411 37.0972 31.385 37.1505ZM37.8663 41.8786C36.6975 43.0474 35.2631 43.8975 33.7225 44.2691C33.2445 44.3755 32.8194 44.0568 32.7665 43.5784L32.7135 42.6753C32.5541 40.8158 33.1385 39.0096 34.2539 37.5751L34.3069 37.5222C35.263 36.2471 36.6445 35.3439 38.1849 34.9189L39.6724 34.4939C40.1505 34.3875 40.6285 34.7062 40.6285 35.2376C40.6288 37.7879 39.6724 40.1254 37.8663 41.8786V41.8786Z" fill="#007083"/>
<path d="M31.0658 23.3375C29.7907 21.2657 27.9845 19.5655 25.8063 18.5031C24.2659 19.8312 22.2469 20.6279 20.0688 20.6279C17.8907 20.6279 15.8721 19.8312 14.3313 18.556C10.1347 20.7342 7.21269 25.0903 7 30.2435V34.5999C7 36.3531 12.6311 37.7876 19.5906 37.8405C19.4313 37.0438 19.3249 36.1938 19.3249 35.3437C19.3253 28.7564 24.5847 23.4437 31.0664 23.3375L31.0658 23.3375Z" fill="#007083"/>
</svg>
