<svg width="26" height="26" viewBox="0 0 26 26" fill="none" xmlns="http://www.w3.org/2000/svg">
<path fill-rule="evenodd" clip-rule="evenodd" d="M13.0002 5.54345C17.1184 5.54345 20.4572 8.88179 20.4572 13.0005C20.4572 17.1191 17.1187 20.4575 13.0002 20.4575C8.88169 20.4575 5.54316 17.1189 5.54316 13.0005C5.54316 8.88198 8.88207 5.54345 13.0002 5.54345V5.54345ZM15.0742 11.1035C14.7802 10.4036 14.2211 10 13.6063 9.84418C13.5485 9.82917 13.4903 9.81713 13.4312 9.80656V9.3965C13.4312 9.15821 13.2387 8.96568 13.0004 8.96568C12.7625 8.96568 12.5696 9.15821 12.5696 9.3965V9.81342L12.5316 9.82028C12.1766 9.89199 11.8438 10.0417 11.5751 10.26C11.1646 10.5933 10.9052 11.0773 10.9339 11.6807C10.9636 12.2855 11.2658 12.692 11.6866 12.9668C12.0574 13.2086 12.5143 13.3341 12.9363 13.4032C13.2844 13.4604 13.6569 13.5507 13.941 13.723C14.1756 13.8642 14.3516 14.0714 14.3896 14.383C14.394 14.4229 14.397 14.4527 14.3974 14.4735C14.4031 14.7249 14.2836 14.9156 14.1038 15.0521C13.8863 15.2174 13.5826 15.3147 13.2793 15.3516C13.1987 15.3616 13.1268 15.3668 13.0649 15.3683C12.7054 15.3773 12.3502 15.2886 12.0722 15.1037C11.8415 14.9495 11.6649 14.7245 11.5914 14.4288C11.5343 14.1981 11.3019 14.0571 11.0712 14.1141C10.8407 14.1707 10.6999 14.4034 10.7566 14.6341C10.8868 15.1574 11.1952 15.5528 11.5978 15.821C11.8845 16.0118 12.2197 16.1356 12.5699 16.1923V16.6035C12.5699 16.8418 12.7628 17.0343 13.0007 17.0343C13.2386 17.0343 13.4315 16.8418 13.4315 16.6035V16.2001C13.8534 16.1417 14.2863 15.9918 14.6234 15.7361C15.0114 15.4417 15.2701 15.0197 15.2565 14.4538C15.2549 14.3894 15.2514 14.3323 15.2454 14.2826C15.1696 13.6606 14.8328 13.2557 14.3862 12.9857C13.99 12.7467 13.5127 12.6272 13.0752 12.5554C12.7504 12.5021 12.4082 12.4115 12.1554 12.2466C11.9523 12.1137 11.8072 11.9219 11.7935 11.6406C11.7788 11.3384 11.9108 11.0953 12.1177 10.9267C12.2775 10.797 12.4806 10.7069 12.7011 10.6624C12.926 10.6174 13.1678 10.6209 13.3982 10.6793C13.7671 10.7725 14.1032 11.0154 14.28 11.437C14.3721 11.6564 14.6248 11.7596 14.8443 11.6677C15.0627 11.5758 15.1659 11.3229 15.0742 11.1034L15.0742 11.1035ZM13.0002 6.87494C11.309 6.87494 9.77729 7.56054 8.66899 8.66918C7.56054 9.77744 6.87475 11.3088 6.87475 13.0004C6.87475 14.6919 7.56016 16.2232 8.66899 17.3315C9.77725 18.44 11.3086 19.1258 13.0002 19.1258C14.6914 19.1258 16.2231 18.4402 17.331 17.3315C18.4398 16.2233 19.1254 14.6919 19.1254 13.0004C19.1254 11.3088 18.4398 9.77748 17.331 8.66918C16.2231 7.56073 14.6914 6.87494 13.0002 6.87494ZM21.9799 5.32363C21.9977 5.3214 22.0069 5.31473 22.0158 5.29954C22.0247 5.28434 22.0253 5.27323 22.0188 5.25692L20.8794 2.40627C20.8716 2.38663 20.8581 2.377 20.8377 2.37533C20.8168 2.37403 20.8017 2.38163 20.7916 2.39997L20.2106 3.40615L20.0341 3.27885C19.7003 3.03833 19.355 2.81467 18.999 2.60938C17.608 1.80609 16.0768 1.28837 14.4833 1.09084C12.9486 0.90054 11.3877 1.01024 9.89456 1.41048C6.81043 2.2373 4.2055 4.23537 2.60927 7.00087C1.80617 8.39189 1.28883 9.9221 1.09092 11.5162C0.900251 13.0502 1.01069 14.6107 1.41075 16.1039C1.45281 16.2619 1.49821 16.4191 1.54694 16.5751C1.57548 16.6655 1.63348 16.7276 1.72149 16.7624C1.80951 16.7967 1.89438 16.7904 1.97628 16.7428L3.00319 16.15C3.1227 16.0811 3.17718 15.9464 3.13938 15.8135C2.76915 14.5166 2.65648 13.1558 2.8114 11.816C2.97224 10.4239 3.41825 9.08603 4.11884 7.8727C5.48302 5.5096 7.70992 3.80113 10.3454 3.0949C11.6213 2.75321 12.9558 2.65889 14.2672 2.82159C15.6301 2.99058 16.9383 3.4329 18.1268 4.1194C18.4959 4.33212 18.8515 4.56764 19.1913 4.82502L19.3299 4.92989L18.8919 5.68888C18.8811 5.70722 18.8822 5.72353 18.8937 5.74113C18.9054 5.75855 18.9202 5.76522 18.9413 5.76244L21.9799 5.32363ZM24.4529 9.42484C24.4244 9.33442 24.3664 9.27234 24.2783 9.23806C24.1903 9.20322 24.1051 9.20952 24.0237 9.25715L22.9968 9.84991C22.8773 9.91884 22.8228 10.0536 22.8605 10.1864C23.2311 11.4833 23.3436 12.8441 23.1886 14.1839C23.0276 15.576 22.5816 16.9139 21.881 18.1272C20.5164 20.4903 18.2899 22.1988 15.654 22.905C14.3781 23.2467 13.0441 23.3414 11.7327 23.1783C10.3699 23.0094 9.06162 22.567 7.87315 21.8805C7.50366 21.6678 7.14809 21.4319 6.80863 21.1749L6.66966 21.0704L7.10548 20.3159C7.11567 20.297 7.11548 20.2807 7.10325 20.2638C7.09158 20.2464 7.07639 20.2397 7.05563 20.2429L4.01728 20.6809C3.99986 20.6833 3.99078 20.69 3.98189 20.7052C3.97299 20.7202 3.97244 20.7315 3.97892 20.748L5.1174 23.5981C5.12537 23.6177 5.13871 23.6274 5.15965 23.629C5.18096 23.6303 5.19504 23.6227 5.20579 23.6044L5.78911 22.5937L5.9657 22.721C6.29887 22.9617 6.64428 23.1854 7.00058 23.3907C8.39122 24.194 9.92238 24.7117 11.5165 24.9092C13.051 25.0995 14.6117 24.9895 16.1049 24.5896C19.1884 23.7626 21.7939 21.7645 23.3902 18.9987C24.1934 17.6077 24.7115 16.0771 24.9091 14.4834C25.0994 12.9493 24.9888 11.3883 24.5889 9.89573C24.5466 9.73748 24.5014 9.58054 24.4529 9.42451L24.4529 9.42484ZM16.7217 9.27827C15.7695 8.32584 14.4535 7.73678 13.0002 7.73678C11.5467 7.73678 10.2309 8.32584 9.27845 9.27827C8.32602 10.2307 7.73696 11.5467 7.73696 13C7.73696 14.4533 8.32602 15.7693 9.27845 16.7217C10.2307 17.6741 11.5467 18.2636 13.0002 18.2636C14.4535 18.2636 15.7695 17.6745 16.7217 16.7217C17.6745 15.7693 18.2636 14.4533 18.2636 13C18.2636 11.5467 17.6743 10.2307 16.7217 9.27827Z" fill="white"/>
</svg>
