<svg width="26" height="26" viewBox="0 0 26 26" fill="none" xmlns="http://www.w3.org/2000/svg">
<path d="M9.78464 2.45128C8.99489 2.22564 7.75386 2 6.8513 2C5.94873 2 4.7077 2.22564 3.91795 2.45128C3.12821 2.5641 2.5641 3.12819 2.45128 3.91793C2.22564 4.70766 2 5.94868 2 6.85123C2 7.75379 2.22564 8.9948 2.33846 9.78454C2.45128 10.5743 3.12821 11.1384 3.80513 11.2512C4.59488 11.364 5.83591 11.5896 6.73848 11.5896C7.64104 11.5896 8.88207 11.364 9.67182 11.2512C10.4616 11.1384 11.0257 10.4615 11.1385 9.78454C11.2513 8.9948 11.477 7.75379 11.477 6.85123C11.477 5.94868 11.2513 4.70766 11.1385 3.91793C11.1385 3.12819 10.5744 2.5641 9.78464 2.45128Z" fill="white"/>
<path d="M9.78459 14.8615C8.99484 14.7487 7.75381 14.523 6.85124 14.523C5.94868 14.523 4.70765 14.7487 3.9179 14.8615C3.12815 14.9743 2.56405 15.6512 2.45123 16.3281C2.33841 17.1179 2.11277 18.3589 2.11277 19.2614C2.11277 20.164 2.33841 21.405 2.45123 22.1947C2.56405 22.9845 3.24097 23.5486 3.9179 23.6614C4.70765 23.7742 5.94868 23.9998 6.85124 23.9998C7.75381 23.9998 8.99484 23.7742 9.78459 23.6614C10.5743 23.5486 11.1384 22.8716 11.2513 22.1947C11.3641 21.405 11.5897 20.164 11.5897 19.2614C11.5897 18.3589 11.3641 17.1179 11.2513 16.3281C11.1384 15.5384 10.5743 14.9743 9.78459 14.8615Z" fill="white"/>
<path d="M16.3282 11.2514C17.1179 11.3642 18.359 11.5899 19.2615 11.5899C20.1641 11.5899 21.4051 11.3642 22.1949 11.2514C22.9846 11.1386 23.5487 10.4617 23.6615 9.78475C23.7744 8.99501 24 7.754 24 6.85145C24 5.94889 23.7744 4.70788 23.6615 3.91814C23.5487 3.12841 22.8718 2.56431 22.1949 2.45149C21.4051 2.33867 20.1641 2.11303 19.2615 2.11303C18.359 2.11303 17.1179 2.33867 16.3282 2.45149C15.5384 2.56431 14.9743 3.24123 14.8615 3.91814C14.7487 4.70788 14.523 5.94889 14.523 6.85145C14.523 7.754 14.7487 8.99501 14.8615 9.78475C14.9743 10.5745 15.5384 11.1386 16.3282 11.2514Z" fill="white"/>
<path d="M22.1949 14.8615C21.4051 14.7487 20.1641 14.523 19.2615 14.523C18.359 14.523 17.1179 14.7487 16.3282 14.8615C15.5384 14.9743 14.9743 15.6512 14.8615 16.3281C14.7487 17.1179 14.523 18.3589 14.523 19.2614C14.523 20.164 14.7487 21.405 14.8615 22.1947C14.9743 22.9845 15.6513 23.5486 16.3282 23.6614C17.1179 23.7742 18.359 23.9998 19.2615 23.9998C20.1641 23.9998 21.4051 23.7742 22.1949 23.6614C22.9846 23.5486 23.5487 22.8716 23.6615 22.1947C23.7744 21.405 24 20.164 24 19.2614C24 18.3589 23.7744 17.1179 23.6615 16.3281C23.5487 15.5384 22.9846 14.9743 22.1949 14.8615Z" fill="white"/>
</svg>
