<svg width="26" height="26" viewBox="0 0 26 26" fill="none" xmlns="http://www.w3.org/2000/svg">
<path d="M12.994 1C12.9784 1.00043 12.9627 1.0015 12.9471 1.00364C12.8395 1.0165 12.7392 1.06536 12.663 1.14228L9.44266 4.36257H4.84452C4.71702 4.36215 4.59466 4.41229 4.50424 4.50208C4.41381 4.59208 4.36281 4.71422 4.36259 4.84172V9.44376L1.14143 12.6612V12.661C1.051 12.7512 1 12.8736 1 13.0013C1 13.129 1.051 13.2516 1.14143 13.3416L4.36259 16.5619V21.1611C4.36217 21.2891 4.41274 21.4121 4.50317 21.5025C4.59381 21.5929 4.71659 21.6435 4.84453 21.6431H9.44289L12.6632 24.8603H12.663C12.8503 25.0466 13.1526 25.0466 13.3399 24.8603L16.5611 21.6431H21.1594C21.2874 21.6435 21.4101 21.5929 21.5006 21.5025C21.591 21.4121 21.6418 21.2891 21.6412 21.1611V16.5619L24.8586 13.3416C24.9491 13.2516 25.0001 13.129 25.0001 13.0013C25.0001 12.8736 24.9491 12.7512 24.8586 12.661L21.6412 9.44354V4.84151V4.84172C21.6409 4.71422 21.5899 4.59208 21.4997 4.50208C21.4093 4.41229 21.2867 4.36215 21.1594 4.36257H16.5611L13.3399 1.14228C13.2484 1.05035 13.1237 0.999353 12.9941 1.00086L12.994 1ZM14.9833 7.71399L14.9835 7.71378C15.1459 7.71099 15.2989 7.7907 15.3895 7.92549C15.4802 8.06028 15.4965 8.23192 15.4324 8.38128L11.4632 17.9594C11.4203 18.0843 11.3278 18.1861 11.2076 18.2405C11.0871 18.2949 10.9496 18.2973 10.8274 18.2472C10.7053 18.197 10.6093 18.0984 10.5621 17.9752C10.515 17.8518 10.5208 17.7147 10.5782 17.5957L14.5474 8.01379V8.01358C14.6194 7.83529 14.791 7.71722 14.9835 7.71358L14.9833 7.71399ZM10.7618 7.71935C11.8164 7.71935 12.6818 8.58571 12.6818 9.64105C12.6818 10.6964 11.8164 11.5591 10.7618 11.5591C9.70731 11.5591 8.84182 10.6964 8.84182 9.64105C8.84182 8.58571 9.70731 7.71935 10.7618 7.71935ZM10.7618 8.68023C10.2261 8.68023 9.80183 9.10494 9.80183 9.64111C9.80183 10.1773 10.2261 10.602 10.7618 10.602C11.2975 10.602 11.7218 10.1773 11.7218 9.64111C11.7218 9.10497 11.2975 8.68023 10.7618 8.68023ZM4.33529 14.0125H4.33551C4.46472 14.0127 4.58837 14.065 4.67858 14.1578L6.14003 15.624V15.6242C6.23046 15.7142 6.28146 15.8366 6.28167 15.9645V16.7631C6.28167 17.0289 6.06696 17.244 5.8021 17.244C5.53724 17.244 5.32253 17.0289 5.32253 16.7631V16.1631L3.99887 14.8395C3.85766 14.703 3.81373 14.4938 3.88788 14.3117C3.96202 14.1295 4.13923 14.011 4.33552 14.0125L4.33529 14.0125ZM15.2398 14.4392C16.2952 14.4392 17.1579 15.3047 17.1579 16.3592C17.1579 17.4137 16.2952 18.2792 15.2398 18.2792C14.1845 18.2792 13.3179 17.4137 13.3179 16.3592C13.3179 15.3047 14.1843 14.4392 15.2398 14.4392ZM15.2398 15.3992C14.7037 15.3992 14.279 15.8235 14.279 16.3592C14.279 16.8949 14.7037 17.3192 15.2398 17.3192C15.776 17.3192 16.2007 16.8949 16.2007 16.3592C16.2007 15.8235 15.776 15.3992 15.2398 15.3992ZM5.79285 18.2042L5.79328 18.204C5.92314 18.2014 6.04849 18.2518 6.14085 18.3437C6.23299 18.4356 6.28421 18.561 6.28249 18.6915V19.6412C6.28271 19.7691 6.23235 19.8919 6.14213 19.9823C6.05213 20.0727 5.92999 20.1237 5.80249 20.1237C5.6752 20.1237 5.55306 20.0727 5.46306 19.9823C5.37285 19.8919 5.32249 19.7691 5.3227 19.6412V18.6915C5.31949 18.4268 5.52949 18.2091 5.79327 18.204L5.79285 18.2042Z" fill="white"/>
</svg>
