<svg width="26" height="26" viewBox="0 0 26 26" fill="none" xmlns="http://www.w3.org/2000/svg">
<g clip-path="url(#clip0_812_35)">
<path d="M25.9419 10.1108C25.9132 9.65055 25.6255 9.33418 25.1653 9.33418H24.6477C23.6986 9.33418 23.0372 10.4271 23.0372 10.4271C22.9796 10.571 22.8933 10.686 22.7783 10.8585C22.6634 10.4558 22.5769 10.1107 22.4907 9.79437C22.088 8.35632 21.4553 7.00455 20.5924 5.79658C19.9883 4.93369 19.1256 4.64624 18.1765 4.47347C17.7738 4.41589 17.3712 4.35851 16.9399 4.30093L16.451 2.40265C16.3934 2.17253 16.1633 2 15.9334 2H10.0086C9.74976 2 9.54834 2.17254 9.49097 2.40265L9.00206 4.30093C8.59941 4.35851 8.19675 4.3872 7.76543 4.47347C6.81632 4.646 5.95343 4.96238 5.34955 5.79658C4.48667 7.0332 3.85392 8.35632 3.45127 9.79437C3.365 10.1108 3.27873 10.4558 3.16357 10.8585C3.04862 10.6571 2.96215 10.5421 2.90477 10.4271C2.90477 10.4271 2.24331 9.33418 1.2942 9.33418H0.776601C0.316377 9.36286 0.0288638 9.67925 0 10.1108V11.0886C0 11.5775 0.345072 11.8939 0.833969 11.8939H2.30073H2.87591C2.90459 11.9226 2.90459 11.9515 2.93348 11.9802C2.87591 12.0089 2.78964 12.0378 2.76095 12.0951C1.52432 13.2744 0.862664 14.7125 0.891579 16.438C0.920268 17.4734 1.00654 18.4802 1.12169 19.5156C1.20796 20.2922 1.3805 21.0686 1.75444 21.7876C1.89828 22.104 2.09951 22.3341 2.44476 22.3917C2.61729 22.4204 2.61729 22.5355 2.61729 22.6505V23.916C2.61729 24.5201 2.96236 24.8651 3.56641 24.8651H5.09075C5.7522 24.8651 6.06857 24.5201 6.06857 23.8873V22.8806C8.39817 23.0531 10.6991 23.1394 13 23.1394C15.3009 23.1394 17.6305 23.0531 19.9314 22.8806V23.8873C19.9314 24.52 20.2765 24.8651 20.9093 24.8651H22.4336C23.0377 24.8651 23.3827 24.5201 23.3827 23.916V22.6505C23.3827 22.5066 23.4114 22.4204 23.5552 22.3917C23.9003 22.3341 24.1018 22.0753 24.2456 21.7876C24.5906 21.0686 24.7921 20.292 24.8783 19.5156C24.9933 18.5088 25.0797 17.4734 25.1084 16.438C25.1371 14.7122 24.4757 13.2742 23.2391 12.0951C23.1815 12.0376 23.1241 12.0376 23.0665 11.9802C23.0952 11.9515 23.0952 11.9226 23.1241 11.8939H23.6993H25.166C25.6549 11.8939 25.9713 11.5775 26 11.0886C25.9705 10.7724 25.9705 10.4271 25.9416 10.1108H25.9419ZM5.06136 17.7037C4.05462 17.7037 3.22065 16.8697 3.22065 15.863C3.22065 14.8563 4.05462 14.0223 5.06136 14.0223C6.0681 14.0223 6.90207 14.8563 6.90207 15.863C6.90207 16.8697 6.0681 17.7037 5.06136 17.7037ZM4.57245 11.405C4.57245 11.3188 4.60113 11.2036 4.63002 11.1173C5.00398 9.56434 5.57914 8.12628 6.38445 6.74559C6.44203 6.65932 6.47072 6.60175 6.5283 6.57306C6.58588 6.51548 6.64326 6.48679 6.72972 6.4581C7.24732 6.22799 8.80052 5.76778 12.9421 5.73907C17.0838 5.76776 18.6368 6.22799 19.1545 6.4581C19.2408 6.48679 19.2984 6.51568 19.3559 6.57306C19.4135 6.63064 19.4709 6.68801 19.4998 6.74559C20.3051 8.09736 20.8803 9.56413 21.2542 11.1173C21.2829 11.2323 21.2829 11.3474 21.3118 11.405C18.522 11.1749 15.7034 11.0311 12.9136 11.0311C10.1807 11.06 7.39091 11.1751 4.57232 11.405H4.57245ZM20.88 17.7037C19.8733 17.7037 19.0393 16.8697 19.0393 15.863C19.0393 14.8563 19.8733 14.0223 20.88 14.0223C21.8867 14.0223 22.7207 14.8563 22.7207 15.863C22.7207 16.8697 21.8867 17.7037 20.88 17.7037V17.7037Z" fill="white"/>
</g>
<defs>
<clipPath id="clip0_812_35">
<rect width="26" height="26" fill="white"/>
</clipPath>
</defs>
</svg>
