<svg width="280" height="271" viewBox="0 0 280 271" fill="none" xmlns="http://www.w3.org/2000/svg">
<path d="M11.0532 113.334C11.0532 113.334 136.627 -81.6912 268.947 113.334C268.947 113.334 157.7 -4.04526 11.0532 113.334Z" fill="#F4EC49"/>
<path d="M39.9654 112.351L32.8207 145.694C32.4606 147.218 32.2607 148.774 32.2242 150.339C32.2242 155.818 34.9622 159.746 41.742 159.746C49.1246 159.746 53.6519 153.436 55.2001 146.17L62.3448 112.351H75.9203L66.6405 157.129C65.9267 160.701 65.3302 164.035 65.3302 167.725C65.3225 168.6 65.3627 169.475 65.4508 170.346H52.1196C51.9489 169.202 51.8693 168.047 51.8816 166.891C51.8668 165.937 51.906 164.984 51.999 164.035C48.6646 169.156 42.4812 171.649 37.1132 171.649C24.9685 171.649 18.1792 163.791 18.1792 152.715C18.1941 150.553 18.4333 148.398 18.893 146.285L26.1583 112.338L39.9654 112.351Z" fill="white"/>
<path d="M88.1977 150.102C88.1977 156.174 91.7701 161.295 98.7942 161.295C104.394 161.295 107.011 157.96 107.011 154.632C107.011 152.253 105.584 149.988 102.132 148.439L94.746 145.225C86.8875 141.771 83.3246 136.412 83.3246 129.626C83.3246 119.623 91.7796 110.571 104.997 110.571C121.431 110.571 125.837 121.526 126.196 127.84L114.169 130.34C113.927 126.767 111.903 121.288 104.283 121.288C99.4002 121.288 96.4243 124.267 96.4243 127.84C96.4243 130.695 97.9725 132.484 100.472 133.55L108.087 136.885C116.542 140.578 120.593 146.533 120.593 153.439C120.593 161.774 113.931 172.135 98.68 172.135C80.5772 172.135 76.291 159.274 76.291 152.367L88.1977 150.102Z" fill="white"/>
<path d="M137.38 150.102C137.38 156.174 140.952 161.295 147.979 161.295C153.576 161.295 156.196 157.96 156.196 154.632C156.196 152.253 154.769 149.988 151.314 148.439L143.931 145.225C136.073 141.771 132.51 136.412 132.51 129.626C132.51 119.623 140.965 110.571 154.185 110.571C170.619 110.571 175.026 121.526 175.381 127.84L163.354 130.34C163.116 126.767 161.092 121.288 153.471 121.288C148.588 121.288 145.609 124.267 145.609 127.84C145.609 130.695 147.158 132.484 149.658 133.55L157.272 136.885C165.727 140.578 169.775 146.533 169.775 153.439C169.775 161.774 163.112 172.135 147.862 172.135C129.778 172.135 125.476 159.274 125.476 152.367L137.38 150.102Z" fill="white"/>
<path d="M176.206 170.346L188.579 112.351H202.275L189.902 170.346H176.206ZM200.498 82.8174C205.257 82.8174 208.595 86.2692 208.595 90.6759C208.595 96.3865 203.712 100.562 198.712 100.562C193.953 100.562 190.612 96.9893 190.612 92.5826C190.612 87.1036 195.378 82.8174 200.498 82.8174Z" fill="white"/>
<path d="M218.836 145.098C218.743 145.528 218.704 145.968 218.718 146.408C218.718 154.625 224.429 160.342 232.414 160.342C240.028 160.342 244.917 156.294 247.18 151.887L257.779 157.722C253.848 165.336 244.917 172.132 232.056 172.132C217.646 172.132 205.498 162.366 205.498 145.574C205.498 123.781 221.101 110.564 236.938 110.564C252.897 110.564 261.827 120.568 261.827 134.502C261.784 138.095 261.223 141.664 260.162 145.098H218.836ZM248.252 134.978C248.252 134.74 248.369 133.785 248.369 133.191C248.369 128.188 245.393 122.116 236.58 122.116C227.887 122.116 222.408 128.188 220.4 134.978H248.252Z" fill="white"/>
<path d="M277.646 160.27H277.503C277.368 160.251 277.239 160.207 277.121 160.138C277.004 160.069 276.901 159.978 276.819 159.869C276.737 159.761 276.678 159.637 276.644 159.506C276.61 159.374 276.602 159.237 276.621 159.102C277.494 152.776 277.932 146.398 277.931 140.013C277.931 63.9562 216.066 2.08122 140 2.08122C63.934 2.08122 2.06853 63.9467 2.06853 140.003C2.06848 146.389 2.50627 152.767 3.37881 159.093C3.41667 159.364 3.34502 159.64 3.17962 159.859C3.09772 159.967 2.99527 160.059 2.87811 160.128C2.76096 160.196 2.6314 160.241 2.49683 160.26C2.36225 160.279 2.22531 160.271 2.09381 160.237C1.9623 160.203 1.83882 160.143 1.73041 160.061C1.51145 159.896 1.36718 159.65 1.32932 159.378C0.444118 152.958 -2.79353e-05 146.484 1.31782e-09 140.003C1.3178e-09 62.8046 62.8173 0 140 0C217.183 0 280 62.8173 280 140.003C280 146.484 279.556 152.958 278.671 159.378C278.636 159.625 278.513 159.851 278.324 160.015C278.136 160.179 277.895 160.269 277.646 160.27Z" fill="white"/>
<path d="M128.005 190.028C122.072 195.298 112.776 215.158 106.177 223.658C108.814 221.025 123.081 205.098 128.845 198.233C134.794 191.205 139.915 189.143 143.972 189.032C147.668 188.921 150.889 191.212 153.785 193.509C156.006 195.285 158.544 197.275 160.66 198.902C163.588 201.186 166.859 203.128 170.521 203.737C178.887 205.127 182.424 203.065 184.033 199.613C177.437 204.235 164.54 194.93 159.321 189.987C145.486 175.492 133.934 184.756 128.005 190.028Z" fill="#F4EC49"/>
<path d="M120.136 241.323C122.773 240.006 122.04 239.156 125.971 235.038C120.006 245.746 123.432 245.168 124.254 245.441C129.197 247.088 146.078 251.244 153.207 258.997C156.323 262.17 157.88 263.918 157.595 265.26L147.03 256.472C141.757 251.19 128.394 248.747 123.185 248.198C118.616 246.808 118.864 243.128 120.136 241.323Z" fill="#F4EC49"/>
<path d="M100.025 228.227C104.167 224.783 107.838 220.81 110.942 216.409C114.093 211.929 115.549 208.563 116.954 205.305C118.36 202.046 119.67 199.026 122.484 195.343C125.726 191.101 133.182 181.348 143.077 180.841C150.749 180.451 156.317 185.72 161.716 190.819C167.262 196.056 172.503 200.996 179.664 199.946C183.255 199.416 188.474 197.237 188.937 194.524C189.029 193.978 188.915 193.525 188.747 192.839C188.419 191.655 188.271 190.429 188.309 189.201C188.309 188.947 188.509 182.995 190.882 182.687C192.132 182.513 192.687 183.782 193.522 185.688C194.212 187.345 195.027 188.948 195.958 190.482C198.271 194.201 201.923 198.119 206.818 202.122L207.617 202.757C209.632 204.372 211.221 205.647 211.31 207.789C211.396 209.841 210.016 212.084 208.103 213.011C206.19 213.937 204.635 213.258 202.808 212.487C201.171 211.799 199.131 210.939 196.145 210.93C194.534 210.93 191.789 210.93 189.435 212.532C189.03 212.823 188.644 213.141 188.28 213.484C187.808 213.899 187.148 214.48 186.028 215.387C184.181 216.907 183.261 217.662 182.567 218.112C179.968 219.803 176.992 220.333 174.6 220.765C172.938 221.063 171.218 221.371 170.936 221.967C170.905 222.027 170.88 222.09 170.86 222.154C170.603 223.048 170.567 223.991 170.755 224.902C171.272 227.262 170.006 232.919 169.753 233.861C168.004 240.333 158.052 243.471 154.819 243.823C153.947 243.921 153.096 243.918 152.754 243.268C152.294 242.383 153.147 241.818 154.562 240.879C156.815 239.388 160.59 236.891 160.72 233.398C160.733 232.815 160.646 232.235 160.463 231.681C160.136 230.576 159.988 229.426 160.025 228.274C160.058 226.767 160.302 225.272 160.749 223.832C161.015 222.881 161.11 222.471 160.945 222.278C160.78 222.084 160.2 222.145 159.216 222.303C157.753 222.576 156.262 222.677 154.775 222.605C154.373 224.217 153.769 225.772 152.979 227.233C149.534 233.487 142.957 236.282 138.154 238.322C135.663 239.378 133.077 240.473 133.138 241.371C133.173 241.97 134.784 242.541 137.018 243.334C140.737 244.594 144.356 246.134 147.843 247.941C154.334 251.317 158.569 254.68 160.425 257.931C162.789 262.056 163.493 267.319 162.668 269.632C162.595 269.903 162.464 270.155 162.282 270.37C162.101 270.584 161.874 270.756 161.618 270.872C161.455 270.938 161.28 270.973 161.104 270.974C160.152 270.974 159.384 269.86 158.226 268.179C156.658 265.79 154.837 263.576 152.795 261.577C147.275 256.32 140.952 254.045 134.838 251.85C131.663 250.73 128.417 249.824 125.121 249.137C121.193 248.258 118.823 247.728 118.306 245.511C117.852 243.556 119.933 241.234 124.083 236.608C126.101 234.359 127.589 232.893 128.674 231.821C130.355 230.165 131.196 229.331 132.008 227.621C134.07 223.277 133.89 217.989 132.614 217.383C131.792 217.002 129.657 219.286 127.17 221.926C123.997 225.301 119.635 229.93 113.087 235.016C107.624 239.264 104.613 241.602 100.149 242.817C99.5146 242.992 84.302 246.973 74.8064 236.713C70.7424 232.319 69.394 227.103 68.9784 223.503L68.6865 220.964L70.4061 222.849C73.4235 226.182 77.236 228.696 81.4879 230.156C85.7397 231.617 90.2923 231.977 94.7208 231.202C94.8272 231.184 94.9363 231.187 95.0416 231.211C95.147 231.234 95.2466 231.279 95.3349 231.341C95.4231 231.403 95.4982 231.482 95.5559 231.574C95.6135 231.665 95.6526 231.767 95.671 231.873C95.6893 231.98 95.6865 232.089 95.6627 232.194C95.6389 232.3 95.5946 232.399 95.5323 232.487C95.47 232.576 95.3909 232.651 95.2995 232.708C95.2082 232.766 95.1064 232.805 95 232.824C90.7344 233.571 86.3541 233.327 82.1978 232.11C78.0416 230.894 74.2208 228.738 71.0311 225.809C71.7934 229.456 73.515 232.834 76.0184 235.593C84.8413 245.13 99.1148 241.39 99.7176 241.228C103.696 240.146 106.38 238.141 112.091 233.715C118.537 228.706 122.843 224.134 125.983 220.796C129.505 217.056 131.443 214.994 133.334 215.895C136.006 217.164 135.663 223.791 133.509 228.328C132.573 230.301 131.605 231.256 129.845 232.995C128.712 234.109 127.306 235.498 125.32 237.709C122.037 241.374 119.664 244.02 119.927 245.14C120.19 246.26 121.926 246.726 125.498 247.532C128.861 248.232 132.173 249.156 135.412 250.298C141.688 252.554 148.176 254.886 153.959 260.422C156.081 262.502 157.974 264.802 159.607 267.284C160.055 267.991 160.562 268.659 161.123 269.28C161.643 268.372 161.624 263.344 159.02 258.788C157.322 255.815 153.309 252.668 147.107 249.438C143.687 247.67 140.14 246.161 136.494 244.924C133.347 243.81 131.615 243.198 131.516 241.507C131.399 239.448 133.972 238.357 137.544 236.843C142.126 234.898 148.401 232.233 151.57 226.475C152.257 225.219 152.789 223.884 153.157 222.5C151.431 222.3 149.239 221.824 147.306 220.244C145.206 218.525 144.4 216.415 143.918 215.168C142.839 212.354 141.453 205.682 144.334 204.185C146.942 202.836 151.377 206.701 153.411 210.073C155.803 214.039 155.466 218.141 155.339 219.686C155.339 219.892 155.276 220.365 155.165 221.022C156.447 221.062 157.73 220.964 158.991 220.727C160.308 220.511 161.45 220.327 162.24 221.263C162.985 222.145 162.7 223.166 162.37 224.331C161.965 225.629 161.743 226.978 161.71 228.338C161.675 229.333 161.803 230.328 162.091 231.282C162.319 231.999 162.427 232.75 162.408 233.503C162.208 237.548 158.344 240.359 155.926 241.989C159.603 241.148 166.846 238.353 168.163 233.464C168.585 231.904 169.527 227.021 169.15 225.289C168.898 224.105 168.945 222.877 169.286 221.716C169.329 221.571 169.385 221.43 169.451 221.294C170.086 219.933 171.957 219.603 174.315 219.178C176.558 218.779 179.353 218.277 181.672 216.767C182.287 216.364 183.185 215.628 184.971 214.162C186.085 213.246 186.732 212.678 187.192 212.259C187.606 211.878 188.044 211.523 188.503 211.196C191.279 209.293 194.334 209.308 196.152 209.293C199.464 209.293 201.669 210.244 203.449 210.98C205.292 211.754 206.228 212.1 207.389 211.539C208.725 210.904 209.727 209.28 209.667 207.868C209.613 206.536 208.575 205.647 206.589 204.061L205.78 203.407C200.742 199.283 196.97 195.235 194.562 191.352C193.593 189.749 192.744 188.077 192.024 186.348C191.759 185.67 191.436 185.016 191.056 184.394C190.628 184.883 190.035 186.932 189.971 189.245C189.936 190.324 190.066 191.403 190.355 192.443C190.602 193.203 190.677 194.008 190.574 194.8C189.911 198.69 183.687 201.018 179.917 201.574C171.986 202.741 166.187 197.294 160.6 192.018C155.206 186.942 150.108 182.116 143.176 182.5C134.042 182.966 126.91 192.294 123.867 196.279C121.114 199.876 119.835 202.836 118.474 205.971C117.034 209.302 115.542 212.744 112.297 217.36C108.858 222.249 99.9048 230.463 99.9048 230.463L99.4924 230.78C99.0165 231.272 97.8458 230.146 98.3217 229.648M145.514 205.536C145.357 205.531 145.201 205.565 145.06 205.635C143.82 206.269 144.007 210.869 145.422 214.565C145.872 215.746 146.555 217.525 148.315 218.969C149.99 220.343 151.935 220.723 153.48 220.872C153.598 220.209 153.645 219.73 153.661 219.53C153.775 218.131 154.083 214.413 151.967 210.901C150.124 207.855 147.015 205.536 145.514 205.536Z" fill="white"/>
</svg>
