<svg width="130" height="41" viewBox="0 0 130 41" fill="none" xmlns="http://www.w3.org/2000/svg">
<g clip-path="url(#clip0_813_122)">
<path d="M16.8278 17.276C15.1438 18.7577 12.5079 24.3432 10.6387 26.7302C11.3881 25.9872 15.4323 21.5121 17.069 19.5819C18.7573 17.6048 20.2088 17.0241 21.3588 16.9942C22.4054 16.9643 23.3185 17.6091 24.1411 18.2539C24.7743 18.7535 25.4935 19.3129 26.0922 19.7741C26.9235 20.4146 27.8495 20.9612 28.8874 21.132C31.2606 21.5249 32.2641 20.9441 32.7207 19.9748C30.8514 21.2729 27.1905 18.6595 25.7132 17.2675C21.7852 13.1894 18.5075 15.7942 16.8278 17.276Z" fill="#F4EC49"/>
<path d="M14.5923 31.701C15.3417 31.3295 15.1349 31.0903 16.2461 29.9331C14.5578 32.9478 15.5269 32.7813 15.7638 32.8625C17.1635 33.3236 21.9529 34.4936 23.9772 36.6757C24.8602 37.5682 25.3038 38.0593 25.2219 38.4393L22.2243 35.9626C20.7297 34.4808 16.9396 33.7891 15.458 33.6353C14.1615 33.2468 14.2348 32.2091 14.5923 31.701Z" fill="#F4EC49"/>
<path d="M8.88968 28.02C10.0741 27.0379 11.1164 25.9234 11.9864 24.6978C12.8779 23.4381 13.2914 22.4901 13.6919 21.5763C14.0882 20.6668 14.4629 19.8085 15.2597 18.7751C16.1814 17.5837 18.2962 14.838 21.1 14.6971C23.2751 14.586 24.8557 16.0678 26.389 17.5025C27.9611 18.9757 29.4513 20.3636 31.4799 20.069C32.4964 19.9195 33.978 19.3089 34.1115 18.5445C34.1373 18.3907 34.1072 18.2626 34.0555 18.0705C33.9952 17.8271 33.9177 17.5239 33.9306 17.0457C33.9306 16.9731 33.9866 15.2991 34.6585 15.2137C35.0117 15.1667 35.171 15.5212 35.4079 16.0593C35.5716 16.4307 35.774 16.8876 36.1013 17.4086C36.756 18.4548 37.794 19.5565 39.1808 20.6838L39.4091 20.8675C39.9819 21.3201 40.4299 21.6788 40.4557 22.2852C40.4816 22.8616 40.0896 23.4936 39.5469 23.7541C39.0129 24.0103 38.5649 23.8224 38.0438 23.6089C37.5786 23.4168 37.0015 23.1733 36.1573 23.1691C35.7008 23.1733 34.9212 23.1648 34.2536 23.6217C34.1373 23.6986 34.0598 23.7669 33.9263 23.8865C33.7928 24.0018 33.6033 24.1683 33.2888 24.4245C32.7634 24.8516 32.505 25.0651 32.3068 25.1932C31.5703 25.6672 30.7262 25.8166 30.0457 25.9405C29.5719 26.0259 29.0852 26.1113 29.0077 26.2778C28.9991 26.2949 28.9904 26.312 28.9861 26.3333C28.8785 26.6877 28.9345 27.0123 28.956 27.1062C29.1025 27.7681 28.7449 29.3609 28.6717 29.6256C28.1764 31.4447 25.351 32.3286 24.438 32.4269C24.1925 32.4525 23.947 32.4525 23.8522 32.2688C23.723 32.0212 23.9642 31.8632 24.3648 31.5985C25.0022 31.1799 26.0746 30.4754 26.1091 29.4932C26.1177 29.3011 26.0832 29.173 26.0359 29.0107C25.9755 28.7972 25.9023 28.5282 25.9109 28.0542C25.9195 27.4948 26.0316 27.102 26.1177 26.8116C26.1952 26.5425 26.221 26.4273 26.1737 26.3717C26.122 26.312 25.9626 26.3333 25.6827 26.3803C25.3769 26.4273 24.9677 26.4955 24.425 26.4657C24.3303 26.8457 24.1709 27.3069 23.9168 27.7681C22.9391 29.5274 21.0742 30.3131 19.7132 30.8853C19.0068 31.1842 18.2746 31.4917 18.2919 31.7436C18.3005 31.9144 18.7613 32.0724 19.3945 32.2945C20.131 32.5549 21.1431 32.9094 22.4654 33.5884C24.3087 34.5363 25.5061 35.4843 26.0359 36.3981C26.7077 37.5596 26.9058 39.0371 26.6733 39.6904C26.6087 39.8698 26.5096 39.9894 26.3761 40.0406C26.3244 40.0619 26.2771 40.0705 26.2296 40.0705C25.9583 40.0705 25.743 39.7588 25.4113 39.2848C25.0711 38.7937 24.6059 38.1233 23.8694 37.4272C22.3017 35.9369 20.5056 35.3007 18.7742 34.6815C17.6587 34.2844 16.7499 34.0837 16.0177 33.9214C14.9023 33.6738 14.2304 33.5243 14.0839 32.9009C13.9547 32.35 14.5448 31.6967 15.7206 30.3985C16.2934 29.7665 16.7155 29.3523 17.0213 29.0534C17.4994 28.588 17.7363 28.3531 17.9689 27.8706C18.5546 26.6493 18.5029 25.1633 18.1411 24.9925C17.9085 24.8857 17.3013 25.5263 16.5949 26.2692C15.6947 27.2172 14.4586 28.5196 12.598 29.9502C11.0475 31.1458 10.1947 31.8034 8.92844 32.145C8.74755 32.192 4.43191 33.315 1.74003 30.4284C0.585754 29.1943 0.202429 27.7254 0.0861402 26.7134L0 25.9789L0.486693 26.5084C1.14136 27.2215 2.2741 28.1738 3.94521 28.6648C5.04782 28.9894 6.23652 29.0534 7.38221 28.857C7.50709 28.8356 7.63201 28.921 7.65357 29.0449C7.67507 29.173 7.58896 29.2925 7.46403 29.3139C6.24947 29.5231 4.98751 29.4506 3.81601 29.1089C2.42484 28.7033 1.38685 27.9944 0.667586 27.3411C0.857096 28.1908 1.25765 29.2071 2.08029 30.0911C4.58265 32.7728 8.63123 31.7223 8.80351 31.6753C9.93195 31.3721 10.6943 30.8085 12.3094 29.5616C14.1399 28.1524 15.3588 26.8671 16.2503 25.9277C17.2496 24.8772 17.7966 24.2964 18.3349 24.5483C19.0929 24.9071 18.9939 26.7689 18.3866 28.0456C18.1196 28.6008 17.8439 28.8698 17.3443 29.3566C17.0256 29.6683 16.625 30.0612 16.0608 30.6846C15.1305 31.7137 14.4543 32.4567 14.5275 32.7728C14.605 33.0973 15.096 33.2211 16.1082 33.4475C16.8533 33.614 17.7793 33.8189 18.9207 34.2246C20.6995 34.8609 22.5429 35.5142 24.1795 37.0728C24.9505 37.803 25.4501 38.5247 25.7818 39.0029C25.9368 39.2293 26.1134 39.4812 26.2124 39.5623C26.3589 39.3062 26.3546 37.8927 25.6181 36.6116C25.1357 35.7747 23.9986 34.8907 22.2371 33.9812C20.945 33.315 19.9501 32.9649 19.2265 32.713C18.3349 32.4012 17.8439 32.2262 17.8138 31.7522C17.7793 31.1757 18.5115 30.8682 19.5193 30.4412C20.8201 29.8946 22.5989 29.1431 23.499 27.5247C23.7144 27.1318 23.8565 26.739 23.947 26.4059C23.456 26.3504 22.8357 26.218 22.2888 25.7696C21.6944 25.2871 21.4618 24.6936 21.3283 24.3391C21.0225 23.5491 20.6306 21.6703 21.4446 21.2518C22.1854 20.8717 23.443 21.9606 24.0202 22.9086C24.6964 24.0231 24.6016 25.1761 24.5671 25.6116C24.5628 25.6672 24.5499 25.8038 24.5155 25.9874C24.9806 26.0045 25.3209 25.949 25.6009 25.9063C25.9755 25.8465 26.2986 25.7952 26.5226 26.0557C26.7336 26.3034 26.6517 26.5895 26.5613 26.9183C26.4838 27.2002 26.3847 27.546 26.3761 28.0456C26.3675 28.4556 26.4278 28.6691 26.4838 28.8741C26.5312 29.0492 26.5828 29.2327 26.5742 29.4975C26.5312 30.6419 25.4329 31.4319 24.748 31.8846C25.7904 31.6497 27.8448 30.864 28.2195 29.489C28.3401 29.0492 28.6072 27.6741 28.4995 27.1874C28.465 27.0336 28.4004 26.6322 28.5382 26.1838C28.5511 26.1454 28.564 26.107 28.5856 26.0643C28.7665 25.68 29.2962 25.586 29.9638 25.4707C30.6013 25.3597 31.3937 25.2188 32.0527 24.7918C32.2293 24.6765 32.4834 24.4715 32.9874 24.0573C33.3017 23.8011 33.487 23.6388 33.6205 23.5235C33.7755 23.3912 33.8617 23.3143 33.9909 23.2246C34.7791 22.6865 35.6448 22.6951 36.1616 22.6908C37.1005 22.6951 37.7251 22.9556 38.229 23.1648C38.7501 23.3826 39.0172 23.4808 39.3445 23.3228C39.7235 23.1392 40.0078 22.6865 39.9906 22.2894C39.9733 21.9137 39.6804 21.6617 39.1162 21.2176L38.888 21.034C37.458 19.8768 36.3899 18.7366 35.7051 17.6478C35.3605 17.1011 35.1408 16.6058 34.9815 16.2428C34.8867 16.0251 34.7791 15.7817 34.7058 15.692C34.5853 15.8286 34.4173 16.4051 34.3957 17.0585C34.3828 17.4727 34.4474 17.7289 34.5034 17.9552C34.5551 18.1687 34.6068 18.3694 34.5637 18.6171C34.3742 19.7102 32.6083 20.3636 31.5402 20.5216C29.2876 20.8504 27.6466 19.3174 26.0617 17.8356C24.5327 16.4051 23.0855 15.0515 21.1216 15.1539C18.5287 15.2863 16.5087 17.9082 15.6431 19.027C14.8635 20.039 14.4974 20.8717 14.114 21.7514C13.7049 22.6865 13.2828 23.6559 12.3611 24.9541C11.3877 26.329 8.84657 28.6392 8.84657 28.6392L8.7303 28.7331C8.59677 28.8698 8.26515 28.5495 8.39868 28.4129M21.7935 21.6361C21.7417 21.6361 21.6987 21.6446 21.6642 21.6617C21.3111 21.8411 21.3671 23.1349 21.7676 24.1726C21.8968 24.5057 22.0906 25.0053 22.5902 25.4109C23.064 25.7952 23.6153 25.902 24.0546 25.949C24.0891 25.7611 24.102 25.6287 24.1063 25.5689C24.1408 25.1761 24.2269 24.1299 23.6239 23.1435C23.0985 22.2894 22.2199 21.6361 21.7935 21.6361Z" fill="white"/>
<path d="M7.25353 24.749C7.24923 24.749 7.24923 24.749 7.24493 24.749C7.13725 24.7447 7.05539 24.655 7.05974 24.5526C7.22767 19.5821 8.90743 14.65 11.7845 10.6616C14.976 6.24198 19.3519 3.37241 24.4342 2.36465C30.309 1.35261 36.4594 3.04788 41.3133 7.01063C46.2449 11.0374 49.1479 16.7637 49.2726 22.7206C49.277 22.8274 49.1909 22.9128 49.0832 22.9171C48.9798 22.9213 48.8894 22.8359 48.885 22.7292C48.7642 16.8833 45.9132 11.2637 41.0678 7.30953C36.3 3.41512 30.2615 1.74974 24.5074 2.7447C13.7269 4.88404 7.76609 15.3417 7.45167 24.5654C7.44737 24.6678 7.3612 24.749 7.25353 24.749Z" fill="white"/>
<path d="M9.70312 18.1814C9.70312 18.1814 27.6849 -9.50218 46.6271 18.1814C46.6271 18.1814 30.6998 1.51916 9.70312 18.1814Z" fill="#F4EC49"/>
<path d="M59.2556 9.8207L56.9775 20.3596C56.8649 20.8888 56.7895 21.3733 56.7895 21.828C56.7895 23.5571 57.6618 24.8018 59.8269 24.8018C62.1799 24.8018 63.6229 22.8043 64.1193 20.5087L66.3969 9.8207H70.727L67.7651 23.9745C67.5399 25.1 67.3441 26.1583 67.3441 27.321C67.3441 27.5446 67.3441 27.7384 67.3818 28.1483H63.1271C63.0894 27.9247 63.0517 27.5446 63.0517 27.0601C63.0517 26.7993 63.0517 26.4937 63.0894 26.1583C62.0296 27.7757 60.0521 28.5657 58.3456 28.5657C54.4741 28.5657 52.3091 26.0838 52.3091 22.5807C52.3091 21.9397 52.3845 21.2615 52.5348 20.546L54.8501 9.8207H59.2556Z" fill="white"/>
<path d="M74.6364 21.7535C74.6364 23.6765 75.7711 25.2938 78.0116 25.2938C79.7934 25.2938 80.6275 24.2429 80.6275 23.1846C80.6275 22.4318 80.1689 21.7163 79.0714 21.2244L76.7184 20.2107C74.215 19.1225 73.0726 17.4232 73.0726 15.2766C73.0726 12.1164 75.7711 9.25436 79.9814 9.25436C85.221 9.25436 86.6269 12.7201 86.7395 14.7102L82.9057 15.5002C82.8303 14.3748 82.1837 12.6382 79.7557 12.6382C78.1996 12.6382 77.2524 13.5773 77.2524 14.7102C77.2524 15.612 77.7487 16.1785 78.5451 16.5139L80.9736 17.5648C83.6721 18.7349 84.9576 20.6132 84.9576 22.797C84.9576 25.4354 82.8303 28.7074 77.9739 28.7074C72.2007 28.7074 70.8398 24.6454 70.8398 22.4616L74.6364 21.7535Z" fill="white"/>
<path d="M90.3103 21.7535C90.3103 23.6765 91.4455 25.2938 93.6859 25.2938C95.4672 25.2938 96.3019 24.2429 96.3019 23.1846C96.3019 22.4318 95.8432 21.7163 94.7457 21.2244L92.3927 20.2107C89.8893 19.1225 88.7469 17.4232 88.7469 15.2766C88.7469 12.1164 91.4455 9.25436 95.6552 9.25436C100.895 9.25436 102.301 12.7201 102.414 14.7102L98.5795 15.5002C98.5046 14.3748 97.858 12.6382 95.4295 12.6382C93.8734 12.6382 92.9262 13.5773 92.9262 14.7102C92.9262 15.612 93.4225 16.1785 94.2194 16.5139L96.6474 17.5648C99.3465 18.7349 100.632 20.6132 100.632 22.797C100.632 25.4354 98.5046 28.7074 93.6482 28.7074C87.8746 28.7074 86.5142 24.6454 86.5142 22.4616L90.3103 21.7535Z" fill="white"/>
<path d="M102.692 28.1485L106.639 9.82085H111.007L107.06 28.1485H102.692ZM110.435 0.481857C111.954 0.481857 113.014 1.57004 113.014 2.9638C113.014 4.7675 111.458 6.08671 109.864 6.08671C108.346 6.08671 107.286 4.96127 107.286 3.56752C107.286 1.83836 108.804 0.481857 110.435 0.481857Z" fill="white"/>
<path d="M116.284 20.1734C116.246 20.3598 116.246 20.4343 116.246 20.5908C116.246 23.1846 118.065 24.9957 120.614 24.9957C123.042 24.9957 124.598 23.7137 125.32 22.32L128.695 24.161C127.439 26.5684 124.598 28.7149 120.493 28.7149C115.9 28.7149 112.028 25.6292 112.028 20.3225C112.028 13.4357 117.005 9.25436 122.049 9.25436C127.139 9.25436 129.988 12.4146 129.988 16.8194C129.988 18.0642 129.725 19.3387 129.454 20.166H116.284V20.1734ZM125.658 16.9685C125.658 16.894 125.696 16.5959 125.696 16.4021C125.696 14.822 124.749 12.899 121.937 12.899C119.163 12.899 117.419 14.822 116.772 16.9611H125.658V16.9685Z" fill="white"/>
<path d="M56.6832 38.4933H54.2702L53.4056 39.984H52.2632L55.8036 34.0437H56.9466L57.9465 39.984H56.9161L56.6832 38.4933ZM54.8115 37.5617H56.5406L56.1796 35.1692L54.8115 37.5617Z" fill="white"/>
<path d="M60.5473 35.907L60.0365 38.2547C60.0138 38.374 59.9911 38.4784 59.9911 38.5827C59.9911 38.9703 60.1868 39.246 60.6677 39.246C61.194 39.246 61.51 38.7989 61.6226 38.292L62.1339 35.9144H63.0961L62.4345 39.0672C62.3818 39.3206 62.3441 39.5516 62.3441 39.8125C62.3441 39.8647 62.3441 39.9019 62.3519 39.9988H61.4047C61.3969 39.9466 61.3897 39.8647 61.3897 39.7528C61.3897 39.6933 61.3897 39.6262 61.3969 39.5516C61.1563 39.9094 60.7204 40.0883 60.3371 40.0883C59.4725 40.0883 58.9912 39.5367 58.9912 38.7541C58.9912 38.6125 59.0067 38.4634 59.0439 38.2995L59.5629 35.907H60.5473Z" fill="white"/>
<path d="M64.6368 38.5602C64.6368 38.985 64.8924 39.3502 65.3888 39.3502C65.787 39.3502 65.975 39.1117 65.975 38.8807C65.975 38.7167 65.8773 38.5527 65.6289 38.4484L65.1031 38.2248C64.5464 37.9789 64.2912 37.6062 64.2912 37.1292C64.2912 36.4286 64.8924 35.7876 65.8319 35.7876C66.9976 35.7876 67.3131 36.5553 67.3358 37.0024L66.4785 37.1814C66.4636 36.9279 66.321 36.5403 65.7797 36.5403C65.4337 36.5403 65.223 36.7491 65.223 37.0024C65.223 37.2037 65.3361 37.3304 65.5091 37.4049L66.0504 37.636C66.6515 37.8968 66.9372 38.3142 66.9372 38.7987C66.9372 39.3875 66.4635 40.118 65.381 40.118C64.0955 40.118 63.7949 39.2161 63.7949 38.7242L64.6368 38.5602Z" fill="white"/>
<path d="M68.7867 38.5602C68.7867 38.985 69.0423 39.3502 69.5387 39.3502C69.9369 39.3502 70.1249 39.1117 70.1249 38.8807C70.1249 38.7167 70.0272 38.5527 69.7788 38.4484L69.2526 38.2248C68.6963 37.9789 68.4407 37.6062 68.4407 37.1292C68.4407 36.4286 69.0423 35.7876 69.9818 35.7876C71.147 35.7876 71.463 36.5553 71.4853 37.0024L70.6284 37.1814C70.6135 36.9279 70.4704 36.5403 69.9291 36.5403C69.5836 36.5403 69.3729 36.7491 69.3729 37.0024C69.3729 37.2037 69.486 37.3304 69.6585 37.4049L70.1998 37.636C70.8014 37.8968 71.0871 38.3142 71.0871 38.7987C71.0871 39.3875 70.6135 40.118 69.5309 40.118C68.2454 40.118 67.9448 39.2161 67.9448 38.7242L68.7867 38.5602Z" fill="white"/>
<path d="M72.2075 39.9914L73.0871 35.9071H74.057L73.1774 39.9914H72.2075ZM73.9289 33.8276C74.2672 33.8276 74.5006 34.0735 74.5006 34.3791C74.5006 34.7816 74.1546 35.0723 73.8014 35.0723C73.4631 35.0723 73.2301 34.8189 73.2301 34.5133C73.2301 34.1257 73.5684 33.8276 73.9289 33.8276Z" fill="white"/>
<path d="M75.891 38.2101C75.8837 38.2549 75.8837 38.2698 75.8837 38.2996C75.8837 38.881 76.2897 39.2834 76.8532 39.2834C77.3944 39.2834 77.7405 39.0002 77.898 38.6872L78.65 39.0971C78.3716 39.6338 77.7405 40.1107 76.8232 40.1107C75.8006 40.1107 74.9365 39.425 74.9365 38.24C74.9365 36.7046 76.0413 35.7729 77.1692 35.7729C78.304 35.7729 78.9356 36.4735 78.9356 37.4574C78.9356 37.7331 78.8757 38.0164 78.8153 38.2027H75.891V38.2101ZM77.9811 37.5021C77.9811 37.4872 77.9884 37.4201 77.9884 37.3754C77.9884 37.0251 77.7782 36.5928 77.1538 36.5928C76.5376 36.5928 76.1466 37.0176 76.0036 37.4947H77.9811V37.5021Z" fill="white"/>
<path d="M84.9342 37.6138H84.0247L83.5134 39.984H82.4985L83.7691 34.0437H85.7911C86.8736 34.0437 87.4825 34.6996 87.4825 35.5642C87.4825 36.5704 86.8286 37.271 85.9264 37.5095L86.8813 39.9914H85.7988L84.9342 37.6138ZM85.2276 36.7344C85.9491 36.7344 86.4377 36.3244 86.4377 35.6686C86.4377 35.2214 86.1598 34.9232 85.5808 34.9232H84.5882L84.1977 36.7344H85.2276Z" fill="white"/>
<path d="M88.0771 39.9914L88.9567 35.9071H89.9266L89.0471 39.9914H88.0771ZM89.8063 33.8276C90.1446 33.8276 90.3775 34.0735 90.3775 34.3791C90.3775 34.7816 90.0315 35.0723 89.6782 35.0723C89.3399 35.0723 89.107 34.8189 89.107 34.5133C89.0997 34.1257 89.438 33.8276 89.8063 33.8276Z" fill="white"/>
<path d="M94.5724 39.0153C94.5048 39.3507 94.4821 39.6041 94.4821 39.783C94.4821 39.8054 94.4821 39.9246 94.4898 39.9842H93.5875C93.5803 39.9097 93.5803 39.8277 93.5803 39.7755C93.5803 39.6563 93.5875 39.5594 93.5953 39.4849C93.3546 39.7904 92.9786 40.0662 92.4601 40.0662C91.4152 40.0662 90.8213 39.2836 90.8213 38.2625C90.8213 36.906 91.7158 35.7955 92.9409 35.7955C93.6402 35.7955 94.0162 36.1085 94.1665 36.3768L94.6928 33.9172H95.6622L94.5724 39.0153ZM91.7985 38.2327C91.7985 38.829 92.114 39.2314 92.678 39.2314C93.3396 39.2314 93.8809 38.5681 93.8809 37.5992C93.8809 37.0476 93.5875 36.6526 93.0163 36.6526C92.2194 36.6526 91.7985 37.5023 91.7985 38.2327Z" fill="white"/>
<path d="M97.0155 38.2101C97.0078 38.2549 97.0078 38.2698 97.0078 38.2996C97.0078 38.881 97.4137 39.2834 97.9777 39.2834C98.519 39.2834 98.865 39.0002 99.0225 38.6872L99.7745 39.0971C99.4961 39.6338 98.865 40.1107 97.9477 40.1107C96.9251 40.1107 96.0605 39.425 96.0605 38.24C96.0605 36.7046 97.1658 35.7729 98.2933 35.7729C99.4285 35.7729 100.06 36.4735 100.06 37.4574C100.06 37.7331 100 38.0164 99.9398 38.2027H97.0155V38.2101ZM99.1052 37.5021C99.1052 37.4872 99.1129 37.4201 99.1129 37.3754C99.1129 37.0251 98.9022 36.5928 98.2783 36.5928C97.6621 36.5928 97.2711 37.0176 97.1281 37.4947H99.1052V37.5021Z" fill="white"/>
<path d="M106.795 38.4112C106.795 38.1205 106.66 37.8522 106.231 37.6584L105.48 37.323C104.758 37.0025 104.344 36.5106 104.344 35.7578C104.344 34.6995 105.269 33.9243 106.427 33.9243C107.96 33.9243 108.434 34.9902 108.434 35.6311L107.479 35.7951C107.479 35.5268 107.351 34.8038 106.381 34.8038C105.757 34.8038 105.381 35.1839 105.381 35.6386C105.381 35.9889 105.584 36.2274 105.886 36.3616L106.637 36.697C107.494 37.0771 107.855 37.6286 107.855 38.3068C107.855 39.2385 107.051 40.1106 105.78 40.1106C104.164 40.1106 103.555 39.0149 103.555 38.1504C103.555 38.0982 103.562 38.0535 103.562 38.0013L104.54 37.8373C104.532 37.8969 104.532 37.9566 104.532 38.0162C104.532 38.6199 104.886 39.2311 105.765 39.2311C106.396 39.2236 106.795 38.8882 106.795 38.4112Z" fill="white"/>
<path d="M111.479 39.9913L112.005 37.5764C112.02 37.487 112.043 37.3901 112.043 37.3156C112.043 36.9056 111.794 36.6522 111.351 36.6522C110.795 36.6522 110.472 37.1218 110.359 37.6137L109.84 39.9913H108.87L110.163 33.9243H111.141L110.644 36.2498C110.923 35.9292 111.329 35.7951 111.772 35.7951C112.576 35.7951 113.05 36.2945 113.05 37.0472C113.05 37.1963 113.035 37.3752 113.005 37.4721L112.456 39.9988H111.479V39.9913Z" fill="white"/>
<path d="M118.56 35.9069L117.891 39.0149C117.839 39.2684 117.809 39.5217 117.809 39.7826C117.809 39.8274 117.809 39.8944 117.816 39.9838H116.906C116.899 39.9093 116.899 39.8646 116.899 39.8199C116.899 39.723 116.899 39.6708 116.914 39.4845C116.681 39.7901 116.297 40.0659 115.779 40.0659C114.734 40.0659 114.14 39.2832 114.14 38.2621C114.14 36.9056 115.035 35.7951 116.26 35.7951C116.997 35.7951 117.357 36.1305 117.493 36.3914L117.606 35.9069H118.56ZM115.117 38.2323C115.117 38.8286 115.433 39.2311 115.997 39.2311C116.658 39.2311 117.2 38.5678 117.2 37.5988C117.2 37.0473 116.906 36.6523 116.335 36.6523C115.538 36.6523 115.117 37.5019 115.117 38.2323Z" fill="white"/>
<path d="M122.026 36.8534C121.455 36.8534 120.929 37.1515 120.726 38.0757L120.312 39.9838H119.35L120.072 36.6075C120.154 36.2199 120.162 35.9367 120.162 35.9069H121.109C121.109 36.0261 121.094 36.3093 121.049 36.4659C121.365 35.9963 121.891 35.8621 122.289 35.8621C122.402 35.8621 122.5 35.8696 122.583 35.8845L122.372 36.8907C122.252 36.8683 122.139 36.8534 122.026 36.8534Z" fill="white"/>
<path d="M123.988 38.2101C123.98 38.2549 123.98 38.2698 123.98 38.2996C123.98 38.881 124.386 39.2834 124.95 39.2834C125.492 39.2834 125.837 39.0002 125.995 38.6872L126.747 39.0971C126.469 39.6338 125.837 40.1107 124.92 40.1107C123.898 40.1107 123.033 39.425 123.033 38.24C123.033 36.7046 124.138 35.7729 125.266 35.7729C126.401 35.7729 127.033 36.4735 127.033 37.4574C127.033 37.7331 126.972 38.0164 126.912 38.2027H123.988V38.2101ZM126.078 37.5021C126.078 37.4872 126.086 37.4201 126.086 37.3754C126.086 37.0251 125.875 36.5928 125.251 36.5928C124.634 36.5928 124.243 37.0176 124.101 37.4947H126.078V37.5021Z" fill="white"/>
</g>
<defs>
<clipPath id="clip0_813_122">
<rect width="130" height="40.5948" fill="white"/>
</clipPath>
</defs>
</svg>
