<svg width="330" height="309" viewBox="0 0 330 309" fill="none" xmlns="http://www.w3.org/2000/svg">
<g opacity="0.03">
<path d="M4 389.896H65.2548V90.2424L4 127.515V389.896Z" stroke="white" stroke-width="6.96825" stroke-linecap="square" stroke-linejoin="bevel"/>
<path d="M17.5767 309.23L52.2226 303.974V314.774L17.5767 319.998V309.23Z" fill="white"/>
<path d="M17.5767 279.681L52.2226 271.829V282.629L17.5767 290.481V279.681Z" fill="white"/>
<path d="M17.5767 250.164L52.2226 239.685V250.485L17.5767 260.965V250.164Z" fill="white"/>
<path d="M17.5767 220.648L52.2226 207.54V218.34L17.5767 231.448V220.648Z" fill="white"/>
<path d="M17.5767 191.131L52.2226 175.395V186.196L17.5767 201.899V191.131Z" fill="white"/>
<path d="M17.5767 161.582L52.2226 143.251V154.019L17.5767 172.383V161.582Z" fill="white"/>
<path d="M17.5767 132.066L52.2226 111.106V121.906L17.5767 142.866V132.066Z" fill="white"/>
<path d="M103.999 389.896H65.2546V90.2424L103.999 96.9406V389.896Z" stroke="white" stroke-width="6.96825" stroke-linecap="square" stroke-linejoin="bevel"/>
<path d="M325.58 389.896H264.293V90.2424L325.58 127.515V389.896Z" stroke="white" stroke-width="6.96825" stroke-linecap="square" stroke-linejoin="bevel"/>
<path d="M311.971 309.23L277.357 303.974V314.774L311.971 319.998V309.23Z" fill="white"/>
<path d="M311.971 279.681L277.357 271.829V282.629L311.971 290.481V279.681Z" fill="white"/>
<path d="M311.971 250.164L277.357 239.685V250.485L311.971 260.965V250.164Z" fill="white"/>
<path d="M311.971 220.648L277.357 207.54V218.34L311.971 231.448V220.648Z" fill="white"/>
<path d="M311.971 191.131L277.357 175.395V186.196L311.971 201.899V191.131Z" fill="white"/>
<path d="M311.971 161.582L277.357 143.251V154.019L311.971 172.383V161.582Z" fill="white"/>
<path d="M311.971 132.066L277.357 111.106V121.906L311.971 142.866V132.066Z" fill="white"/>
<path d="M225.58 389.896H264.293V90.2424L225.58 96.9406V389.896Z" stroke="white" stroke-width="6.96825" stroke-linecap="square" stroke-linejoin="bevel"/>
<path d="M225.1 389.896H104.448V36.401L110.852 32.9398L160.003 6.59593L164.774 4L225.1 36.401V389.896Z" stroke="white" stroke-width="6.96825" stroke-linecap="square" stroke-linejoin="bevel"/>
<path d="M110.723 53.7713L159.843 27.4275" stroke="white" stroke-width="6.96825" stroke-linecap="square" stroke-linejoin="bevel"/>
<path d="M110.595 76.8141L160.002 52.3291" stroke="white" stroke-width="6.96825" stroke-linecap="square" stroke-linejoin="bevel"/>
<path d="M110.435 99.8569L160.163 77.2627" stroke="white" stroke-width="6.96825" stroke-linecap="square" stroke-linejoin="bevel"/>
<path d="M110.307 122.9L160.323 102.197" stroke="white" stroke-width="6.96825" stroke-linecap="square" stroke-linejoin="bevel"/>
<path d="M110.179 145.943L160.483 127.13" stroke="white" stroke-width="6.96825" stroke-linecap="square" stroke-linejoin="bevel"/>
<path d="M110.051 168.986L160.643 152.064" stroke="white" stroke-width="6.96825" stroke-linecap="square" stroke-linejoin="bevel"/>
<path d="M109.923 192.06L160.803 176.966" stroke="white" stroke-width="6.96825" stroke-linecap="square" stroke-linejoin="bevel"/>
<path d="M109.763 215.103L160.963 201.899" stroke="white" stroke-width="6.96825" stroke-linecap="square" stroke-linejoin="bevel"/>
<path d="M109.635 238.146L161.123 226.833" stroke="white" stroke-width="6.96825" stroke-linecap="square" stroke-linejoin="bevel"/>
<path d="M109.507 261.189L161.284 251.767" stroke="white" stroke-width="6.96825" stroke-linecap="square" stroke-linejoin="bevel"/>
<path d="M109.379 284.232L161.444 276.701" stroke="white" stroke-width="6.96825" stroke-linecap="square" stroke-linejoin="bevel"/>
<path d="M109.219 307.275L161.604 301.602" stroke="white" stroke-width="6.96825" stroke-linecap="square" stroke-linejoin="bevel"/>
<path d="M164.774 5.53833V389.896" stroke="white" stroke-width="6.96825" stroke-linecap="square" stroke-linejoin="bevel"/>
</g>
</svg>
