<svg width="62" height="51" viewBox="0 0 62 51" fill="none" xmlns="http://www.w3.org/2000/svg">
<path d="M40.1316 0.276459C38.7924 0.106065 37.4439 0.0188998 36.0939 0.0154634C24.9368 -0.00417788 12.4824 0.00048275 1.23111 0.00048275C1.06913 0.000482034 0.908742 0.0324629 0.759139 0.0945924C0.609535 0.156722 0.473657 0.247779 0.35929 0.362545C0.244924 0.47731 0.154318 0.613529 0.092665 0.763393C0.0310119 0.913258 -0.000476119 1.07382 5.44109e-06 1.23588V9.06742C-0.000345053 9.22953 0.0312949 9.39013 0.0931107 9.53999C0.154927 9.68984 0.245702 9.82602 0.360232 9.9407C0.474762 10.0554 0.610792 10.1463 0.760522 10.2083C0.910253 10.2703 1.07074 10.302 1.23277 10.3018C12.5263 10.2762 25.023 10.2712 36.2244 10.2985C42.9622 10.3105 48.6189 14.3013 50.7926 20.4793C54.2351 30.2563 47.118 40.4172 36.62 40.6985C35.0508 40.7411 33.4813 40.7208 31.8596 40.7111C31.5337 40.7091 31.2217 40.5782 30.9919 40.3469C30.7621 40.1157 30.633 39.8029 30.6328 39.4767V29.7813C30.6328 29.4539 30.5028 29.1399 30.2715 28.9084C30.0401 28.6769 29.7263 28.5469 29.3991 28.5469H21.5646C21.4025 28.5467 21.242 28.5786 21.0922 28.6406C20.9424 28.7025 20.8062 28.7934 20.6916 28.9081C20.5769 29.0227 20.4859 29.1588 20.4238 29.3087C20.3618 29.4585 20.3298 29.6191 20.3298 29.7813V49.7598C20.3269 50.0818 20.451 50.392 20.6753 50.6231C20.8995 50.8541 21.2058 50.9874 21.5277 50.9938H21.5396C26.3236 50.998 31.1091 50.998 35.896 50.9938C49.4118 50.9655 59.8858 41.8533 61.7737 28.4856C63.6513 15.1991 53.5051 1.95762 40.1316 0.276459Z" fill="#2A4B9B"/>
<path d="M8.90686 28.5732H1.23376C0.552375 28.5732 0 29.1259 0 29.8076V49.6976C0 50.3793 0.552375 50.932 1.23376 50.932H8.90686C9.58825 50.932 10.1406 50.3793 10.1406 49.6976V29.8076C10.1406 29.1259 9.58825 28.5732 8.90686 28.5732Z" fill="#2A4B9B"/>
<path d="M31.0002 26.2957V23.531C31.0001 23.4037 30.9662 23.2786 30.9019 23.1687C30.8376 23.0589 30.7452 22.9681 30.6342 22.9058L16.726 15.1052C16.3517 14.8954 15.9298 14.7852 15.5008 14.7852C15.0717 14.7852 14.6498 14.8954 14.2755 15.1052L8.87259 18.1346C8.82633 18.1606 8.77405 18.174 8.721 18.1735C8.66794 18.1729 8.61596 18.1584 8.57025 18.1315C8.52454 18.1045 8.48671 18.066 8.46053 18.0198C8.43435 17.9736 8.42075 17.9214 8.42108 17.8683V15.8859C8.42108 15.7918 8.40256 15.6986 8.36657 15.6117C8.33059 15.5248 8.27784 15.4458 8.21136 15.3793C8.14487 15.3128 8.06593 15.26 7.97906 15.224C7.89218 15.188 7.79907 15.1695 7.70504 15.1695H4.84589C4.75184 15.1694 4.65871 15.1879 4.57182 15.2239C4.48493 15.2599 4.40598 15.3127 4.33948 15.3792C4.27298 15.4457 4.22024 15.5247 4.18427 15.6117C4.1483 15.6986 4.12981 15.7918 4.12985 15.8859V20.3754C4.1298 20.5027 4.09586 20.6277 4.03154 20.7375C3.96721 20.8473 3.87482 20.938 3.76385 21.0003L0.366004 22.9058C0.25501 22.9681 0.162602 23.0589 0.0982767 23.1687C0.0339518 23.2786 3.10471e-05 23.4037 9.08229e-07 23.531V26.2957C-0.000197964 26.4207 0.0322664 26.5435 0.0941717 26.652C0.156077 26.7605 0.24527 26.851 0.352899 26.9143C0.460527 26.9777 0.582847 27.0118 0.707718 27.0132C0.832589 27.0147 0.955668 26.9835 1.06474 26.9226L14.2881 19.5987C14.6598 19.3928 15.0777 19.2847 15.5026 19.2847C15.9275 19.2847 16.3454 19.3928 16.717 19.5987L29.9404 26.9226C30.0494 26.9821 30.1719 27.0123 30.296 27.0102C30.4201 27.0081 30.5415 26.9738 30.6484 26.9106C30.7552 26.8473 30.8438 26.7575 30.9055 26.6497C30.9672 26.5419 30.9998 26.4199 31.0002 26.2957Z" fill="#2A4B9B"/>
</svg>
