<svg width="12" height="11" viewBox="0 0 12 11" fill="none" xmlns="http://www.w3.org/2000/svg">
<path d="M10.8976 0.998388C10.619 1.00765 10.355 1.12531 10.1618 1.32614C8.08865 3.40376 6.19741 5.4476 4.19479 7.4873L1.73969 5.52737C1.51795 5.34999 1.23484 5.26786 0.952474 5.29922C0.670263 5.33057 0.412081 5.47287 0.234563 5.69462C0.0571741 5.91636 -0.0248039 6.19946 0.00655615 6.48183C0.0379128 6.76404 0.180065 7.02238 0.401806 7.19974L3.61274 9.76845C3.81865 9.9327 4.07771 10.0153 4.34051 10.0003C4.60346 9.98556 4.85162 9.87446 5.03766 9.68811C7.343 7.37785 9.41218 5.10451 11.6736 2.83813H11.6734C11.8817 2.63685 11.9995 2.3597 12 2.06988C12.0004 1.7802 11.8834 1.50276 11.6755 1.3009C11.4678 1.09902 11.1871 0.989867 10.8976 0.998525L10.8976 0.998388Z" fill="white"/>
</svg>
