<svg width="12" height="12" viewBox="0 0 12 12" fill="none" xmlns="http://www.w3.org/2000/svg">
<path d="M11.5 1.49999H6.5V0.499993C6.5 0.32131 6.40469 0.15625 6.25 0.0669643C6.09531 -0.0223214 5.90468 -0.0223214 5.75 0.0669643C5.59531 0.15625 5.5 0.321316 5.5 0.499993V1.49999H0.499993C0.32131 1.49999 0.15625 1.59531 0.0669643 1.74999C-0.0223214 1.90468 -0.0223214 2.09531 0.0669643 2.24999C0.15625 2.40468 0.321316 2.49999 0.499993 2.49999H0.999994V10.5C1.00033 10.8978 1.15848 11.2791 1.43974 11.5603C1.72087 11.8415 2.10225 11.9997 2.49999 12H9.5C9.89777 11.9997 10.2791 11.8415 10.5603 11.5603C10.8415 11.2791 10.9997 10.8977 11 10.5V2.49999H11.5C11.6787 2.49999 11.8437 2.40468 11.933 2.24999C12.0223 2.09531 12.0223 1.90468 11.933 1.74999C11.8437 1.59531 11.6787 1.49999 11.5 1.49999ZM3.24999 9.25V4.25C3.24999 4.07131 3.34531 3.90625 3.49999 3.81697C3.65468 3.72768 3.84531 3.72768 4 3.81697C4.15468 3.90625 4.25 4.07132 4.25 4.25V9.25C4.25 9.42868 4.15468 9.59374 4 9.68303C3.84531 9.77231 3.65468 9.77231 3.49999 9.68303C3.34531 9.59374 3.24999 9.42868 3.24999 9.25ZM5.5 9.25V4.25C5.5 4.07131 5.59531 3.90625 5.75 3.81697C5.90468 3.72768 6.09531 3.72768 6.25 3.81697C6.40468 3.90625 6.5 4.07132 6.5 4.25V9.25C6.5 9.42868 6.40469 9.59374 6.25 9.68303C6.09531 9.77231 5.90468 9.77231 5.75 9.68303C5.59531 9.59374 5.5 9.42868 5.5 9.25ZM8.75 9.25C8.75 9.42868 8.65469 9.59374 8.5 9.68303C8.34531 9.77231 8.15468 9.77231 8 9.68303C7.84531 9.59374 7.75 9.42868 7.75 9.25V4.25C7.75 4.07131 7.84531 3.90625 8 3.81697C8.15469 3.72768 8.34531 3.72768 8.5 3.81697C8.65468 3.90625 8.75 4.07132 8.75 4.25V9.25Z" fill="#2A4B9B"/>
</svg>
