<svg width="21" height="20" viewBox="0 0 21 20" fill="none" xmlns="http://www.w3.org/2000/svg">
<rect y="2.58411" width="17.416" height="17.416" rx="2.04894" fill="#424458"/>
<path d="M7.9624 13.4653V10.9162C7.9624 10.6312 7.89448 10.4102 7.75863 10.253C7.62545 10.0932 7.44033 10.0133 7.20327 10.0133C7.05144 10.0133 6.91959 10.0492 6.80772 10.1212C6.69585 10.1904 6.60795 10.289 6.54402 10.4168C6.48276 10.542 6.45213 10.6872 6.45213 10.8523L5.99665 10.5487C5.99665 10.253 6.0659 9.99197 6.20441 9.76557C6.34558 9.53916 6.53337 9.36336 6.76777 9.23817C7.00483 9.11032 7.2672 9.04639 7.55487 9.04639C8.04764 9.04639 8.41921 9.19289 8.66959 9.48589C8.92263 9.77622 9.04916 10.1571 9.04916 10.6286V13.4653H7.9624ZM2.76035 13.4653V9.15027H3.71926V10.5806H3.8551V13.4653H2.76035ZM5.36537 13.4653V10.9162C5.36537 10.6312 5.29745 10.4102 5.16161 10.253C5.02842 10.0932 4.8433 10.0133 4.60624 10.0133C4.37983 10.0133 4.19738 10.0919 4.05887 10.249C3.92302 10.4035 3.8551 10.6046 3.8551 10.8523L3.39962 10.5327C3.39962 10.2503 3.47021 9.9973 3.61138 9.77356C3.75255 9.54981 3.94167 9.37268 4.17873 9.24217C4.41846 9.11165 4.68615 9.04639 4.98181 9.04639C5.32009 9.04639 5.59711 9.11831 5.81286 9.26214C6.03128 9.40598 6.19243 9.59776 6.29631 9.83748C6.40019 10.0772 6.45213 10.3409 6.45213 10.6286V13.4653H5.36537Z" fill="white"/>
<path d="M11.6189 9.59588V8.9972L13.1511 7.63748C13.2661 7.53601 13.3473 7.44046 13.3947 7.35083C13.442 7.2612 13.4657 7.17748 13.4657 7.09969C13.4657 6.98807 13.4429 6.88914 13.3972 6.80288C13.3515 6.71494 13.2873 6.64645 13.2044 6.59741C13.1215 6.54667 13.0243 6.5213 12.9127 6.5213C12.796 6.5213 12.6928 6.54836 12.6032 6.60248C12.5152 6.65491 12.4467 6.72509 12.3977 6.81303C12.3487 6.89928 12.3258 6.99314 12.3292 7.09461H11.6189C11.6189 6.84432 11.6739 6.62785 11.7838 6.4452C11.8937 6.26255 12.0468 6.12134 12.243 6.02156C12.4391 5.92178 12.6674 5.87189 12.9279 5.87189C13.1663 5.87189 13.3794 5.92431 13.5672 6.02917C13.7566 6.13233 13.9054 6.27693 14.0136 6.46296C14.1219 6.64899 14.176 6.86461 14.176 7.10983C14.176 7.29079 14.1506 7.44131 14.0999 7.56138C14.0491 7.67976 13.9739 7.78969 13.8741 7.89116C13.7743 7.99094 13.6517 8.10425 13.5063 8.23109L12.5169 9.09867L12.4611 8.94646H14.176V9.59588H11.6189Z" fill="white"/>
<path fill-rule="evenodd" clip-rule="evenodd" d="M17.3584 0.738463C17.3982 0.778624 17.4177 0.833398 17.4159 0.888174L17.4159 0.888188C17.4168 0.941153 17.3982 0.994973 17.3592 1.03609L16.6993 1.71612C16.6613 1.75538 16.6108 1.77453 16.5612 1.77453C16.5107 1.77453 16.4611 1.75538 16.423 1.71612C16.3468 1.63761 16.3468 1.51072 16.423 1.43221L16.7622 1.08259L12.0988 1.08259L11.4 1.08259C11.4 1.08259 11.3999 1.08259 11.3998 1.08259H0.653774L0.993019 1.43221C1.0692 1.51072 1.0692 1.63761 0.993019 1.71612C0.954929 1.75538 0.905348 1.77453 0.854844 1.77453C0.805263 1.77453 0.754754 1.75538 0.71667 1.71612L0.0568162 1.03609C0.0178455 0.994973 -0.000771748 0.941138 0.000109637 0.888174C-0.00165123 0.833398 0.0178104 0.778624 0.0576613 0.738463L0.721085 0.0584306C0.797265 -0.020079 0.920387 -0.0191719 0.996568 0.0593379C1.07275 0.137848 1.07187 0.264735 0.995688 0.343246L0.667061 0.68097L11.4 0.68097L12.0988 0.68097C12.0988 0.68097 12.0989 0.68097 12.0989 0.68097H16.749L16.4203 0.343246C16.3441 0.264735 16.3433 0.137848 16.4194 0.0593379C16.4956 -0.0191719 16.6187 -0.020079 16.6949 0.0584306L17.3584 0.738463Z" fill="#424458"/>
<path fill-rule="evenodd" clip-rule="evenodd" d="M19.9568 2.35356C19.9167 2.31371 19.8619 2.29425 19.8071 2.29601C19.7542 2.29513 19.7003 2.31374 19.6592 2.35271L18.9792 3.01257C18.9399 3.05065 18.9208 3.10116 18.9208 3.15074C18.9208 3.20125 18.9399 3.25083 18.9792 3.28892C19.0577 3.3651 19.1846 3.3651 19.2631 3.28892L19.6127 2.94967L19.6127 13.6955C19.6127 13.6956 19.6127 13.6958 19.6127 13.6959L19.6127 19.0581L19.2631 18.7189C19.1846 18.6427 19.0577 18.6427 18.9792 18.7189C18.9399 18.757 18.9208 18.8066 18.9208 18.8571C18.9208 18.9066 18.9399 18.9572 18.9792 18.9952L19.6592 19.6551C19.7003 19.6941 19.7542 19.7127 19.8071 19.7118L19.8071 19.7118C19.8619 19.7136 19.9167 19.6941 19.9568 19.6542L20.6369 18.9908C20.7154 18.9146 20.7145 18.7915 20.636 18.7153C20.5575 18.6392 20.4306 18.64 20.3521 18.7162L20.0143 19.0448L20.0143 14.3952C20.0143 14.395 20.0143 14.3949 20.0143 14.3947L20.0143 2.96296L20.3521 3.29159C20.4306 3.36777 20.5575 3.36865 20.636 3.29247C20.7145 3.21629 20.7154 3.09316 20.6369 3.01698L19.9568 2.35356Z" fill="#424458"/>
</svg>
