<svg width="20" height="16" viewBox="0 0 20 16" fill="none" xmlns="http://www.w3.org/2000/svg">
<path fill-rule="evenodd" clip-rule="evenodd" d="M1.92583 0.750182C0.867549 0.750182 0 1.62728 0 2.69063V12.9159V12.9231C0.00145998 12.9354 0.00389324 12.9475 0.00729973 12.9594C0.00713753 12.9618 0.00713753 12.9643 0.00729973 12.9667C0.011842 12.987 0.0193035 13.0064 0.0290367 13.0248V13.0321C0.0337409 13.0371 0.0384453 13.0418 0.0434743 13.0465V13.0536C0.0559649 13.07 0.0707265 13.0848 0.0871111 13.0973H0.0942489C0.109497 13.1115 0.126692 13.1239 0.145186 13.1336H0.152486C0.15719 13.1362 0.162057 13.1385 0.167085 13.1407H0.174223C0.193202 13.1456 0.212831 13.148 0.232457 13.148C0.242028 13.1485 0.25176 13.1485 0.261494 13.148H19.7378C19.7523 13.1493 19.7669 13.1493 19.7813 13.148H19.7886C19.8248 13.144 19.8597 13.1315 19.8903 13.1117C19.949 13.072 19.9865 13.0079 19.992 12.9372V12.93C19.9922 12.9252 19.9922 12.9205 19.992 12.9156C19.994 12.8987 19.994 12.8817 19.992 12.8647V2.69045C19.992 1.62714 19.1245 0.75 18.0662 0.75H1.92533L1.92583 0.750182ZM4.68009 2.4653H7.5797C8.31324 2.4653 8.90226 3.10055 8.90226 3.8534V5.94629H8.90243C8.90372 5.96089 8.90372 5.97549 8.90243 5.98993C8.90145 6.00469 8.89902 6.01929 8.89529 6.03357C8.8935 6.0433 8.89107 6.05303 8.88799 6.0626C8.88182 6.07542 8.87452 6.08759 8.86609 6.09894C8.86171 6.10656 8.85701 6.11386 8.85181 6.12084C8.8231 6.15491 8.7853 6.18021 8.7428 6.19351H8.73551C8.72837 6.19627 8.72107 6.1987 8.71361 6.20065C8.69933 6.20454 8.68473 6.20681 8.66997 6.20795H3.59699H3.59715C3.54183 6.20957 3.48782 6.19157 3.4445 6.15701C3.43964 6.15247 3.43477 6.1476 3.43023 6.14258C3.42487 6.1356 3.42017 6.1283 3.41579 6.12068C3.41076 6.11613 3.40589 6.11127 3.40135 6.10624C3.38335 6.08012 3.37102 6.05044 3.36502 6.01913C3.3595 5.99025 3.3595 5.96073 3.36502 5.93185C3.36469 5.92455 3.36469 5.91725 3.36502 5.91012V3.85356C3.36502 3.10021 3.94868 2.46546 4.68044 2.46546L4.68009 2.4653ZM12.2962 2.4653H15.1885C15.922 2.4653 16.5112 3.10005 16.5112 3.8534V5.92457H16.5114C16.5117 5.93187 16.5117 5.93917 16.5114 5.94647C16.5119 5.95605 16.5119 5.96578 16.5114 5.97551C16.5124 5.98751 16.5124 5.99968 16.5114 6.01185C16.5085 6.0292 16.5036 6.0464 16.497 6.06262C16.4908 6.07544 16.4835 6.0876 16.4751 6.09896C16.4707 6.10658 16.4657 6.11388 16.4605 6.12086C16.427 6.16158 16.381 6.1898 16.3297 6.20083C16.3153 6.20456 16.3007 6.207 16.2861 6.20797C16.2837 6.20813 16.2812 6.20813 16.2788 6.20797H11.2058H11.206C11.2011 6.20813 11.1964 6.20813 11.1915 6.20797C11.1891 6.20813 11.1868 6.20813 11.1844 6.20797C11.1769 6.20602 11.1696 6.20359 11.1625 6.20083C11.1085 6.19126 11.0595 6.16304 11.0244 6.12086C11.0194 6.11632 11.0145 6.11145 11.01 6.10642C10.9889 6.07382 10.9764 6.03618 10.9737 5.99741C10.9706 5.97584 10.9706 5.95377 10.9737 5.93204V3.85355C10.9737 3.1002 11.5629 2.46546 12.2964 2.46546L12.2962 2.4653Z" fill="#424458"/>
<path fill-rule="evenodd" clip-rule="evenodd" d="M0.233597 13.8064C0.10561 13.8064 0.00195312 13.9109 0.00195312 14.0398V15.4029C0.00195312 15.5319 0.10561 15.6363 0.233597 15.6363H3.03782C3.1658 15.6363 3.26946 15.5319 3.26946 15.4029V14.0398C3.26946 13.9109 3.1658 13.8064 3.03782 13.8064H0.233597Z" fill="#424458"/>
<path fill-rule="evenodd" clip-rule="evenodd" d="M16.9641 13.8064C16.8361 13.8064 16.7324 13.9109 16.7324 14.0398V15.4029C16.7324 15.5319 16.8361 15.6363 16.9641 15.6363H19.7683C19.8963 15.6363 19.9999 15.5319 19.9999 15.4029V14.0398C19.9999 13.9109 19.8963 13.8064 19.7683 13.8064H16.9641Z" fill="#424458"/>
</svg>
