<svg width="17" height="20" viewBox="0 0 17 20" fill="none" xmlns="http://www.w3.org/2000/svg">
<path fill-rule="evenodd" clip-rule="evenodd" d="M8.35725 0C4.01772 0 0.5 3.51772 0.5 7.85725C0.5 11.9185 2.99556 15.9112 7.91106 19.8436C8.17204 20.0521 8.54259 20.0521 8.80354 19.8436C13.7189 15.9111 16.2146 11.9183 16.2146 7.85725C16.2146 3.51772 12.6969 0 8.35735 0H8.35725ZM8.35725 4.28577C6.38475 4.28577 4.78577 5.88475 4.78577 7.85725C4.78577 9.82976 6.38475 11.4287 8.35725 11.4287C10.3298 11.4287 11.9287 9.82976 11.9287 7.85725C11.9287 5.88475 10.3298 4.28577 8.35725 4.28577Z" fill="#2A4B9B"/>
</svg>
