<svg width="20" height="20" viewBox="0 0 20 20" fill="none" xmlns="http://www.w3.org/2000/svg">
<path d="M19.1663 10.8333V10.8331L17.917 10.833V0.833359C17.917 0.373907 17.5432 0 17.0836 0H13.7504C13.2908 0 12.917 0.373911 12.917 0.833359V2.12071C11.7357 2.31961 10.833 3.34613 10.833 4.58319V4.99988H15.833V4.58319C15.833 3.34644 14.9309 2.32024 13.7504 2.12087L13.7502 0.833359H17.0835V10.8334L0.832624 10.8332V10.8335H0V11.6669H0.83274V16.2502C0.83274 17.8585 2.1411 19.1668 3.74936 19.1668H4.58334V20.0003H5.4167V19.1668H14.5833V20.0003H15.4167V19.1668H16.2494C17.8578 19.1668 19.166 17.8584 19.166 16.2502V11.6669H20V10.8335L19.1663 10.8333Z" fill="#424458"/>
<path d="M13.1745 6.63268C13.2245 6.65384 13.2786 6.66608 13.3327 6.66608C13.387 6.66608 13.4411 6.65384 13.4913 6.63268C13.5454 6.61198 13.5871 6.58311 13.6288 6.54518C13.6663 6.50361 13.6995 6.45767 13.7204 6.40764C13.7411 6.35807 13.7494 6.30351 13.7494 6.2494C13.7494 6.1953 13.7411 6.14119 13.7204 6.09117C13.6953 6.04114 13.6663 5.9955 13.6288 5.95363C13.4702 5.79947 13.1955 5.79947 13.0412 5.95363C12.9994 5.99111 12.9704 6.04114 12.9494 6.09117C12.9287 6.14119 12.916 6.1953 12.916 6.2494C12.916 6.30351 12.9286 6.35807 12.9494 6.40764C12.9704 6.45767 12.9994 6.50361 13.0412 6.54518C13.0786 6.58311 13.1244 6.61198 13.1745 6.63268H13.1745Z" fill="#424458"/>
<path d="M12.9494 9.74101C12.9704 9.79104 12.9994 9.83699 13.0369 9.87855C13.0786 9.91633 13.1244 9.94535 13.1745 9.96606C13.2245 9.98721 13.2786 9.99946 13.3327 9.99946C13.387 9.99946 13.4411 9.98721 13.4912 9.96606C13.5453 9.94535 13.5911 9.91648 13.6288 9.87855C13.6663 9.83699 13.6995 9.79104 13.7204 9.74101C13.7411 9.69144 13.7494 9.63688 13.7494 9.58278C13.7494 9.52867 13.7411 9.47456 13.7163 9.42454C13.6953 9.37451 13.6663 9.32887 13.6288 9.28701C13.4746 9.13285 13.1955 9.13285 13.0369 9.28701C12.9994 9.32887 12.9704 9.37451 12.9494 9.42454C12.9287 9.47457 12.916 9.52867 12.916 9.58278C12.916 9.63673 12.9287 9.69129 12.9494 9.74101H12.9494Z" fill="#424458"/>
<path d="M12.9496 8.07425C12.9706 8.12427 12.9996 8.17022 13.0371 8.21178C13.0788 8.24957 13.1246 8.27858 13.1746 8.29929C13.2246 8.32045 13.2787 8.33269 13.3328 8.33269C13.3871 8.33269 13.4412 8.32045 13.4914 8.29929C13.5455 8.27858 13.5872 8.24972 13.6289 8.21178C13.6664 8.17022 13.6997 8.12427 13.7205 8.07425C13.7412 8.02468 13.7495 7.97012 13.7495 7.91601C13.7495 7.8078 13.708 7.69958 13.6289 7.62024C13.6079 7.60361 13.5872 7.58684 13.5662 7.57021C13.5411 7.55359 13.5163 7.54134 13.4914 7.53273C13.4663 7.52049 13.4414 7.51202 13.4163 7.50794C13.3622 7.4954 13.3081 7.4954 13.2537 7.50794C13.2246 7.51202 13.1996 7.52049 13.1745 7.53273C13.1494 7.54134 13.1244 7.55344 13.1037 7.57021C13.0786 7.58684 13.0579 7.60361 13.0369 7.62024C12.9621 7.69959 12.916 7.8078 12.916 7.91601C12.9162 7.97012 12.9289 8.02468 12.9496 8.07425H12.9496Z" fill="#424458"/>
<path d="M14.9992 7.91595C15.1116 7.91595 15.2159 7.87439 15.2953 7.79504C15.3327 7.75348 15.366 7.70754 15.3869 7.65751C15.4076 7.60794 15.4159 7.55338 15.4159 7.49927C15.4159 7.44517 15.4076 7.39106 15.3869 7.34104C15.3618 7.29101 15.3328 7.24536 15.2953 7.2035C15.2576 7.16602 15.2118 7.1367 15.1577 7.11599C15.0077 7.04919 14.8243 7.08713 14.7034 7.2035C14.6286 7.28285 14.5825 7.39106 14.5825 7.49927C14.5825 7.55338 14.5951 7.60794 14.6159 7.65751C14.6369 7.70754 14.6659 7.75348 14.7034 7.79504C14.7825 7.87439 14.8866 7.91595 14.9992 7.91595H14.9992Z" fill="#424458"/>
<path d="M14.6159 9.32428C14.6369 9.3743 14.6659 9.42025 14.7034 9.46181C14.7826 9.54116 14.8868 9.58272 14.9992 9.58272C15.1116 9.58272 15.2159 9.54116 15.2953 9.46181C15.3327 9.42025 15.366 9.3743 15.3869 9.32428C15.4076 9.27471 15.4159 9.22014 15.4159 9.16604C15.4159 9.05783 15.3701 8.94961 15.2953 8.87027C15.1784 8.75798 14.9951 8.71611 14.841 8.78276C14.7909 8.80347 14.7451 8.83279 14.7034 8.87027C14.6286 8.94962 14.5825 9.05783 14.5825 9.16604C14.5825 9.22014 14.5951 9.27456 14.6159 9.32428H14.6159Z" fill="#424458"/>
<path d="M11.3742 7.7953C11.4534 7.87464 11.5575 7.91621 11.6657 7.91621C11.72 7.91621 11.7741 7.90804 11.8243 7.8828C11.8784 7.8621 11.9201 7.83323 11.9618 7.7953C11.9993 7.75374 12.0325 7.70779 12.0534 7.65776C12.0741 7.60819 12.0824 7.55363 12.0824 7.49953C12.0824 7.39131 12.0408 7.2831 11.9618 7.20375C11.8033 7.04959 11.5241 7.04959 11.3742 7.20375C11.3325 7.24562 11.3034 7.29126 11.2824 7.34129C11.2617 7.39132 11.249 7.44542 11.249 7.49953C11.249 7.55363 11.2616 7.60819 11.2824 7.65776C11.3034 7.70779 11.3325 7.75374 11.3742 7.7953L11.3742 7.7953Z" fill="#424458"/>
<path d="M11.2824 9.32438C11.3034 9.37441 11.3325 9.42035 11.3742 9.46191C11.4117 9.4997 11.4574 9.52872 11.5075 9.54942C11.5575 9.57058 11.6116 9.58282 11.6657 9.58282C11.72 9.58282 11.7741 9.57058 11.8243 9.54942C11.8741 9.52872 11.9201 9.49985 11.9618 9.46191C11.9993 9.42035 12.0325 9.37441 12.0534 9.32438C12.0741 9.27481 12.0824 9.22025 12.0824 9.16614C12.0824 9.11204 12.0741 9.05793 12.0493 9.0079C12.0283 8.95788 11.9993 8.91223 11.9618 8.87037C11.9242 8.83289 11.8784 8.80357 11.8243 8.78286C11.6742 8.71606 11.4868 8.754 11.3742 8.87037C11.3325 8.91223 11.3034 8.95788 11.2824 9.0079C11.2617 9.05793 11.249 9.11204 11.249 9.16614C11.249 9.22025 11.2617 9.27466 11.2824 9.32438H11.2824Z" fill="#424458"/>
</svg>
