<svg width="14" height="8" viewBox="0 0 14 8" fill="none" xmlns="http://www.w3.org/2000/svg">
<path d="M7.03031 7.85974C7.26937 7.85419 7.49784 7.76008 7.6714 7.59577L13.7051 1.80339C13.9531 1.56332 14.0546 1.20945 13.9715 0.874407C13.8881 0.539388 13.6329 0.27405 13.3012 0.177941C12.9698 0.0818114 12.6122 0.169525 12.3627 0.408249L7 5.55933L1.63731 0.408249C1.38781 0.169525 1.03023 0.0818157 0.698759 0.177941C0.367106 0.274072 0.111893 0.539392 0.0285406 0.874407C-0.0546255 1.20943 0.0468903 1.56329 0.294873 1.80339L6.3286 7.59577C6.51733 7.77472 6.77019 7.86985 7.02994 7.85974H7.03031Z" fill="#60BD62"/>
</svg>
