<svg width="12" height="12" viewBox="0 0 12 12" fill="none" xmlns="http://www.w3.org/2000/svg">
<path d="M10.6667 10.9229H6.56409C6.2564 10.9229 6.05127 11.128 6.05127 11.4357C6.05127 11.7434 6.2564 11.9485 6.56409 11.9485H10.6667C10.9743 11.9485 11.1795 11.7434 11.1795 11.4357C11.1795 11.128 10.9231 10.9229 10.6667 10.9229Z" fill="#2A4B9B"/>
<path d="M5.64103 2.66699L0.153846 8.15417C0.0512819 8.25674 0 8.3593 0 8.51315L0.051282 11.4362C0.051282 11.6926 0.25641 11.949 0.564102 11.949L3.48718 12.0003C3.64103 12.0003 3.74359 11.949 3.84615 11.8465L9.33333 6.3593L5.64103 2.66699Z" fill="#2A4B9B"/>
<path d="M11.8461 3.1282L8.87171 0.153846C8.66658 -0.051282 8.35889 -0.051282 8.15376 0.153846L6.35889 1.94872L10.0512 5.64103L11.8461 3.84615C12.0512 3.64103 12.0512 3.33333 11.8461 3.1282Z" fill="#2A4B9B"/>
</svg>
