<svg width="20" height="20" viewBox="0 0 20 20" fill="none" xmlns="http://www.w3.org/2000/svg">
<path d="M9.9998 0C4.48574 0 0 4.48591 0 9.9998C0 11.8334 0.500901 13.6216 1.45044 15.1843L0.0206317 19.4734C-0.02724 19.6172 0.0100909 19.7758 0.117256 19.8827C0.193458 19.9592 0.295789 20 0.400093 20C0.442476 20 0.485076 19.9934 0.526581 19.9796L4.81573 18.5498C6.37816 19.4989 8.16635 19.9998 9.99997 19.9998C15.514 19.9998 19.9998 15.5138 19.9998 9.99996C19.9998 4.48607 15.5139 0.000158263 9.99997 0.000158263L9.9998 0ZM9.9998 19.2002C8.254 19.2002 6.55322 18.7066 5.0813 17.773C5.01652 17.732 4.94208 17.7109 4.86698 17.7109C4.82437 17.7109 4.78177 17.7177 4.74049 17.7313L1.03239 18.9676L2.2687 15.2595C2.30691 15.1456 2.29132 15.0202 2.2272 14.9187C1.29327 13.4467 0.799805 11.746 0.799805 10.0002C0.799805 4.92734 4.92689 0.80037 9.99964 0.80037C15.0724 0.80037 19.1995 4.92745 19.1995 10.0002C19.1995 15.073 15.0724 19.2 9.99964 19.2L9.9998 19.2002Z" fill="black"/>
<path d="M10.1869 2.30331C8.85248 2.25522 7.574 2.74074 6.61501 3.66437C5.65033 4.59284 5.11914 5.84164 5.11914 7.18055C5.11914 7.40146 5.29833 7.58065 5.51924 7.58065H7.37327C7.59418 7.58065 7.77315 7.40146 7.77315 7.18055C7.77315 6.56964 8.01559 6 8.45568 5.57618C8.87269 5.17476 9.42103 4.95364 10.0001 4.95364L10.0877 4.95518C11.223 4.99866 12.1816 5.9574 12.2246 7.09208C12.2613 8.0572 11.6798 8.9312 10.7773 9.26715C9.49903 9.74412 8.67265 10.9082 8.67265 12.2328V13.5919C8.67265 13.8128 8.85184 13.992 9.07276 13.992H10.9266C11.1475 13.992 11.3267 13.8128 11.3267 13.5919V12.2328C11.3267 12.0277 11.4749 11.8397 11.7046 11.7543C13.6823 11.0167 14.957 9.10246 14.8765 6.99169C14.7803 4.45976 12.7211 2.40015 10.187 2.30334L10.1869 2.30331ZM11.4252 11.0051C10.8793 11.2086 10.5269 11.6906 10.5269 12.2333V13.1925H9.47306V12.2333C9.47306 11.246 10.0949 10.3762 11.057 10.0173C12.2834 9.56058 13.074 8.37301 13.0244 7.06204C12.9657 5.51918 11.6622 4.21563 10.1167 4.15615L10.0001 4.15395C9.21327 4.15395 8.46772 4.45458 7.90095 5.00007C7.40005 5.4823 7.08755 6.10377 6.99907 6.78079H5.93843C6.0311 5.81414 6.46019 4.9239 7.17013 4.24092C7.93389 3.50527 8.93831 3.10012 9.99766 3.10012C10.0517 3.10012 10.1064 3.10122 10.1586 3.10297C12.2755 3.18378 13.9967 4.90561 14.0771 7.02256C14.1445 8.78787 13.0788 10.3883 11.4252 11.0052L11.4252 11.0051Z" fill="black"/>
<path d="M10.9263 15.0459H9.07247C8.85155 15.0459 8.67236 15.2251 8.67236 15.446V17.3C8.67236 17.5209 8.85155 17.7001 9.07247 17.7001H10.9263C11.1472 17.7001 11.3264 17.5209 11.3264 17.3V15.446C11.3264 15.2251 11.1472 15.0459 10.9263 15.0459ZM10.5264 16.8999H9.4726V15.8459H10.5264V16.8999Z" fill="black"/>
</svg>
