<svg width="16" height="12" viewBox="0 0 16 12" fill="none" xmlns="http://www.w3.org/2000/svg">
<path fill-rule="evenodd" clip-rule="evenodd" d="M1.54067 0.000145995C0.694039 0.000145995 0 0.701825 0 1.55251V9.73273V9.73844C0.00116798 9.7483 0.00311459 9.75804 0.00583979 9.76751C0.00571002 9.76946 0.00571002 9.7714 0.00583979 9.77335C0.0094736 9.78957 0.0154428 9.80515 0.0232294 9.81981V9.82565C0.0269927 9.82967 0.0307563 9.83344 0.0347794 9.8372V9.84291C0.0447719 9.85602 0.0565812 9.86783 0.0696889 9.87782H0.0753991C0.0875979 9.88924 0.101354 9.8991 0.116149 9.90689H0.121989C0.125752 9.90896 0.129645 9.91078 0.133668 9.9126H0.139379C0.154562 9.91649 0.170265 9.91844 0.185966 9.91844C0.193622 9.91883 0.201408 9.91883 0.209195 9.91844H15.7903C15.8018 9.91948 15.8135 9.91948 15.825 9.91844H15.8309C15.8598 9.91519 15.8877 9.9052 15.9123 9.88937C15.9592 9.85757 15.9892 9.80631 15.9936 9.74973V9.74402C15.9937 9.74013 15.9937 9.73637 15.9936 9.73247C15.9952 9.71898 15.9952 9.70535 15.9936 9.69172V1.55236C15.9936 0.701713 15.2996 0 14.453 0H1.54027L1.54067 0.000145995ZM3.74407 1.37224H6.06376C6.65059 1.37224 7.12181 1.88044 7.12181 2.48272V4.15704H7.12194C7.12298 4.16872 7.12298 4.18039 7.12194 4.19195C7.12116 4.20375 7.11922 4.21543 7.11623 4.22685C7.1148 4.23464 7.11286 4.24243 7.11039 4.25008C7.10546 4.26034 7.09962 4.27007 7.09287 4.27915C7.08937 4.28525 7.0856 4.29109 7.08145 4.29667C7.05848 4.32392 7.02824 4.34417 6.99424 4.35481H6.9884C6.98269 4.35702 6.97685 4.35896 6.97089 4.36052C6.95947 4.36364 6.94779 4.36545 6.93598 4.36636H2.87759H2.87772C2.83347 4.36766 2.79025 4.35325 2.7556 4.32561C2.75171 4.32198 2.74782 4.31808 2.74418 4.31406C2.7399 4.30848 2.73614 4.30264 2.73263 4.29654C2.72861 4.29291 2.72472 4.28901 2.72108 4.28499C2.70668 4.2641 2.69681 4.24035 2.69201 4.2153C2.6876 4.1922 2.6876 4.16859 2.69201 4.14548C2.69175 4.13964 2.69175 4.1338 2.69201 4.12809V2.48285C2.69201 1.88017 3.15895 1.37237 3.74435 1.37237L3.74407 1.37224ZM9.83697 1.37224H12.1508C12.7376 1.37224 13.209 1.88004 13.209 2.48272V4.13966H13.2091C13.2094 4.1455 13.2094 4.15134 13.2091 4.15718C13.2095 4.16484 13.2095 4.17262 13.2091 4.18041C13.2099 4.19001 13.2099 4.19975 13.2091 4.20948C13.2068 4.22336 13.2029 4.23712 13.1976 4.2501C13.1926 4.26035 13.1868 4.27008 13.1801 4.27917C13.1765 4.28527 13.1725 4.29111 13.1684 4.29669C13.1416 4.32926 13.1048 4.35184 13.0638 4.36067C13.0522 4.36365 13.0405 4.3656 13.0289 4.36638C13.0269 4.36651 13.025 4.36651 13.023 4.36638H8.96464H8.96477C8.96088 4.36651 8.95712 4.36651 8.95322 4.36638C8.95128 4.36651 8.94946 4.36651 8.94751 4.36638C8.94154 4.36482 8.9357 4.36287 8.92999 4.36067C8.88678 4.35301 8.84758 4.33043 8.81956 4.29669C8.81553 4.29305 8.81164 4.28916 8.80801 4.28514C8.79114 4.25905 8.78114 4.22895 8.77894 4.19793C8.77647 4.18067 8.77647 4.16302 8.77894 4.14563V2.48284C8.77894 1.88016 9.25029 1.37237 9.83712 1.37237L9.83697 1.37224Z" fill="#424458"/>
<path fill-rule="evenodd" clip-rule="evenodd" d="M0.18678 10.4451C0.0843901 10.4451 0.00146484 10.5286 0.00146484 10.6318V11.7223C0.00146484 11.8255 0.0843901 11.909 0.18678 11.909H2.43015C2.53254 11.909 2.61547 11.8255 2.61547 11.7223V10.6318C2.61547 10.5286 2.53254 10.4451 2.43015 10.4451H0.18678Z" fill="#424458"/>
<path fill-rule="evenodd" clip-rule="evenodd" d="M13.5713 10.4451C13.4689 10.4451 13.386 10.5286 13.386 10.6318V11.7223C13.386 11.8255 13.4689 11.909 13.5713 11.909H15.8147C15.9171 11.909 16 11.8255 16 11.7223V10.6318C16 10.5286 15.9171 10.4451 15.8147 10.4451H13.5713Z" fill="#424458"/>
</svg>
