<svg width="17" height="16" viewBox="0 0 17 16" fill="none" xmlns="http://www.w3.org/2000/svg">
<rect y="2.06714" width="13.9328" height="13.9328" rx="2.04894" fill="#424458"/>
<path d="M7.52051 12.3721V9.82299C7.52051 9.53798 7.45258 9.3169 7.31674 9.15975C7.18356 8.99993 6.99844 8.92002 6.76137 8.92002C6.60955 8.92002 6.4777 8.95598 6.36583 9.0279C6.25395 9.09715 6.16606 9.19571 6.10213 9.32356C6.04087 9.44875 6.01023 9.59392 6.01023 9.75906L5.55476 9.45541C5.55476 9.15975 5.62401 8.89871 5.76252 8.6723C5.90369 8.4459 6.09147 8.2701 6.32587 8.14491C6.56293 8.01705 6.8253 7.95313 7.11297 7.95313C7.60574 7.95313 7.97732 8.09963 8.2277 8.39262C8.48074 8.68296 8.60726 9.06386 8.60726 9.53532V12.3721H7.52051ZM2.31846 12.3721V8.05701H3.27736V9.48737H3.41321V12.3721H2.31846ZM4.92348 12.3721V9.82299C4.92348 9.53798 4.85556 9.3169 4.71971 9.15975C4.58653 8.99993 4.40141 8.92002 4.16435 8.92002C3.93794 8.92002 3.75548 8.9986 3.61697 9.15575C3.48113 9.31024 3.41321 9.51134 3.41321 9.75906L2.95773 9.43943C2.95773 9.15708 3.02831 8.90404 3.16948 8.6803C3.31066 8.45655 3.49977 8.27942 3.73684 8.1489C3.97656 8.01839 4.24425 7.95313 4.53992 7.95313C4.8782 7.95313 5.15521 8.02505 5.37097 8.16888C5.58938 8.31272 5.75053 8.5045 5.85441 8.74422C5.95829 8.98395 6.01023 9.24765 6.01023 9.53532V12.3721H4.92348Z" fill="white"/>
<path d="M9.34572 8.67559V8.07691L10.8779 6.7172C10.9929 6.61573 11.0741 6.52017 11.1215 6.43054C11.1688 6.34091 11.1925 6.25719 11.1925 6.1794C11.1925 6.06778 11.1697 5.96885 11.124 5.8826C11.0783 5.79465 11.0141 5.72616 10.9312 5.67712C10.8483 5.62638 10.7511 5.60101 10.6395 5.60101C10.5228 5.60101 10.4196 5.62807 10.33 5.68219C10.242 5.73462 10.1736 5.8048 10.1245 5.89274C10.0755 5.97899 10.0526 6.07285 10.056 6.17433H9.34572C9.34572 5.92403 9.40068 5.70756 9.51061 5.52491C9.62054 5.34226 9.77359 5.20105 9.96977 5.10127C10.1659 5.00149 10.3943 4.9516 10.6547 4.9516C10.8932 4.9516 11.1062 5.00403 11.294 5.10888C11.4834 5.21204 11.6322 5.35664 11.7404 5.54267C11.8487 5.7287 11.9028 5.94432 11.9028 6.18955C11.9028 6.3705 11.8774 6.52102 11.8267 6.64109C11.776 6.75948 11.7007 6.8694 11.6009 6.97087C11.5011 7.07065 11.3785 7.18396 11.2331 7.3108L10.2437 8.17838L10.1879 8.02617H11.9028V8.67559H9.34572Z" fill="white"/>
<path fill-rule="evenodd" clip-rule="evenodd" d="M13.8867 0.59077C13.9186 0.622899 13.9341 0.666718 13.9327 0.710539L13.9327 0.710551C13.9334 0.752922 13.9185 0.795978 13.8874 0.828872L13.3595 1.3729C13.329 1.4043 13.2886 1.41962 13.2489 1.41962C13.2085 1.41962 13.1689 1.4043 13.1384 1.3729C13.0774 1.31009 13.0774 1.20858 13.1384 1.14577L13.4098 0.866076H9.67902H9.12002H0.523019L0.794415 1.14577C0.855359 1.20858 0.855359 1.31009 0.794415 1.3729C0.763944 1.4043 0.724278 1.41962 0.683875 1.41962C0.64421 1.41962 0.603804 1.4043 0.573336 1.3729L0.045453 0.828872C0.0142764 0.795978 -0.000617399 0.752911 8.77093e-05 0.710539C-0.00132099 0.666718 0.0142483 0.622899 0.0461291 0.59077L0.576868 0.0467445C0.637812 -0.0160632 0.73631 -0.0153375 0.797255 0.0474703C0.858199 0.110278 0.857495 0.211788 0.79655 0.274597L0.533649 0.544776H9.12002H9.67902H13.3992L13.1363 0.274597C13.0753 0.211788 13.0746 0.110278 13.1356 0.0474703C13.1965 -0.0153375 13.295 -0.0160632 13.3559 0.0467445L13.8867 0.59077Z" fill="#424458"/>
<path fill-rule="evenodd" clip-rule="evenodd" d="M15.9654 1.8828C15.9333 1.85092 15.8894 1.83535 15.8456 1.83676C15.8032 1.83605 15.7602 1.85095 15.7273 1.88212L15.1833 2.41001C15.1519 2.44047 15.1365 2.48088 15.1365 2.52055C15.1365 2.56095 15.1519 2.60061 15.1833 2.63108C15.2461 2.69203 15.3476 2.69203 15.4104 2.63108L15.6901 2.35969L15.6901 10.9567L15.6901 11.5157L15.6901 15.2465L15.4104 14.9751C15.3476 14.9141 15.2461 14.9141 15.1833 14.9751C15.1519 15.0055 15.1365 15.0452 15.1365 15.0856C15.1365 15.1253 15.1519 15.1657 15.1833 15.1961L15.7273 15.724C15.7602 15.7552 15.8032 15.7701 15.8456 15.7694L15.8456 15.7694C15.8894 15.7708 15.9333 15.7552 15.9654 15.7233L16.5094 15.1926C16.5722 15.1317 16.5715 15.0332 16.5087 14.9722C16.4459 14.9113 16.3444 14.912 16.2816 14.9729L16.0114 15.2358L16.0114 11.5158C16.0114 11.5158 16.0114 11.5157 16.0114 11.5157L16.0114 10.9567L16.0114 2.37032L16.2816 2.63322C16.3444 2.69416 16.4459 2.69487 16.5087 2.63392C16.5715 2.57298 16.5722 2.47448 16.5094 2.41354L15.9654 1.8828Z" fill="#424458"/>
</svg>
