<svg width="10" height="6" viewBox="0 0 10 6" fill="none" xmlns="http://www.w3.org/2000/svg">
<path d="M9.28884 0.142897H0.718359C0.528131 0.141702 0.345299 0.216548 0.210436 0.350823C0.0755673 0.484976 -0.000119234 0.667442 1.40996e-07 0.857676C0.000119699 1.0479 0.0761641 1.23025 0.211272 1.36416L4.49651 5.6494C4.63031 5.78248 4.81132 5.85709 5 5.85709C5.18867 5.85709 5.36969 5.78248 5.50348 5.6494L9.78872 1.36416C9.92323 1.23084 9.99928 1.04947 9.99999 0.860063C10.0008 0.670671 9.92634 0.488686 9.7929 0.35419C9.65959 0.21968 9.47822 0.143635 9.28881 0.142919L9.28884 0.142897Z" fill="#B6BAC6"/>
</svg>
