<svg width="12" height="8" viewBox="0 0 12 8" fill="none" xmlns="http://www.w3.org/2000/svg">
<path d="M5.97402 7.68341C5.76911 7.67834 5.57328 7.59229 5.42452 7.44207L0.252749 2.14624C0.0401931 1.92675 -0.046822 1.60322 0.0244634 1.2969C0.095893 0.990602 0.314655 0.748011 0.598936 0.660141C0.883066 0.572251 1.18955 0.652445 1.40341 0.870706L6 5.58021L10.5966 0.870706C10.8105 0.652446 11.1169 0.572256 11.4011 0.660141C11.6853 0.74803 11.9041 0.990606 11.9755 1.2969C12.0468 1.6032 11.9598 1.92673 11.7473 2.14624L6.57548 7.44207C6.41372 7.60568 6.19698 7.69265 5.97434 7.68341H5.97402Z" fill="#B6BAC6"/>
</svg>
