<svg width="48" height="48" viewBox="0 0 48 48" fill="none" xmlns="http://www.w3.org/2000/svg">
<g clip-path="url(#clip0_473_6709)">
<path d="M48 24.04C48 30.4052 45.4714 36.5097 40.9706 41.0106C36.4697 45.5115 30.3652 48.04 24 48.04C17.6348 48.04 11.5303 45.5115 7.02943 41.0106C2.52856 36.5097 0 30.4052 0 24.04C0 17.6748 2.52856 11.5704 7.02943 7.06948C11.5303 2.5686 17.6348 0.0400391 24 0.0400391C30.3652 0.0400391 36.4697 2.5686 40.9706 7.06948C45.4714 11.5704 48 17.6748 48 24.04Z" fill="#006B35"/>
<path d="M36.92 34.2001L36.72 34.1301C36.5038 34.1102 36.2862 34.1102 36.07 34.1301H35.35H33.89C33.7268 34.1201 33.5632 34.1201 33.4 34.1301V34.0401C33.4 33.9401 33.52 33.9701 33.58 33.8401C33.5918 33.798 33.5946 33.7539 33.5881 33.7106C33.5817 33.6673 33.5661 33.6259 33.5425 33.589C33.5189 33.5522 33.4877 33.5208 33.4511 33.4968C33.4145 33.4729 33.3732 33.457 33.33 33.4501H33.26C33.26 33.4501 33.26 33.4501 33.26 33.3701C33.26 33.1701 33.01 33.1001 32.86 33.2101C32.7975 33.2625 32.7526 33.3327 32.7311 33.4114C32.7097 33.49 32.7128 33.5733 32.74 33.6501C32.754 33.7326 32.7775 33.8131 32.81 33.8901C32.81 33.8901 32.89 34.1301 32.87 34.1301L11.09 33.8701C11.3805 34.3137 11.7835 34.6723 12.2578 34.9095C12.7321 35.1466 13.2608 35.2538 13.79 35.2201H32.79C32.7963 35.4521 32.823 35.6829 32.87 35.9101C32.8937 36.0427 32.9375 36.1709 33 36.2901C33.031 36.3636 33.0877 36.4233 33.1594 36.4582C33.2311 36.4932 33.313 36.5009 33.39 36.4801C33.4383 36.4649 33.4821 36.4376 33.517 36.4009C33.552 36.3642 33.5771 36.3192 33.59 36.2701H36.26C36.26 36.2701 36.36 36.3501 36.39 36.3801C36.423 36.4301 36.4676 36.4712 36.52 36.5001C36.6661 36.5809 36.8355 36.6092 37 36.5801C37.26 36.5801 37.55 36.3601 37.55 35.3401C37.5684 35.1093 37.5185 34.8781 37.4065 34.6753C37.2945 34.4726 37.1253 34.3074 36.92 34.2001ZM36.14 35.6401C36.01 35.7601 35.3 35.7201 35.3 35.7201C35.3 35.7201 35.17 35.4701 34.97 35.4701C34.8129 35.4879 34.6691 35.567 34.57 35.6901C34.2071 35.7149 33.8429 35.7149 33.48 35.6901C33.4322 35.6192 33.4068 35.5356 33.4068 35.4501C33.4068 35.3646 33.4322 35.2811 33.48 35.2101H36.08C36.08 35.2101 36.26 35.5201 36.14 35.6401Z" fill="white"/>
<path d="M6.70002 21.04C6.59002 21.04 6.24002 21.66 6.10002 22.36C6.01948 22.6648 6.01948 22.9853 6.10002 23.29C6.10002 23.42 6.31002 24.02 6.69002 24.05C7.07002 24.08 7.28002 23.68 7.37002 23.42C7.46002 23.16 7.42002 22.75 7.31002 22.72C7.20002 22.69 7.16002 22.88 6.95002 22.9C6.88167 22.9215 6.80837 22.9215 6.74002 22.9C6.60002 22.79 6.67002 22.51 6.74002 22.33C6.79002 21.77 6.80002 21.09 6.70002 21.04Z" fill="white"/>
<path d="M9.41002 18.2402C9.41002 18.1002 9.10002 17.9102 8.82002 17.8602C8.56268 17.829 8.30183 17.8742 8.07002 17.9902C7.46253 18.297 6.97375 18.7963 6.68002 19.4102C6.58002 19.5602 6.57002 19.6002 6.58002 19.6302C6.72002 19.8502 8.43002 18.6902 9.25002 18.3702C9.29002 18.3502 9.40002 18.3102 9.41002 18.2402Z" fill="white"/>
<path d="M7.41999 12.5903C7.27999 12.4403 7.03999 12.1603 7.08999 11.9503C7.10918 11.897 7.14105 11.8491 7.18286 11.8107C7.22466 11.7724 7.27516 11.7448 7.33 11.7303C7.57 11.6703 7.79 11.9403 7.82 11.9803C7.92213 12.1488 7.98267 12.3392 7.99658 12.5357C8.01049 12.7322 7.97738 12.9292 7.9 13.1103C7.83 13.2703 7.70999 13.4603 7.63999 13.4503C7.56999 13.4403 7.56 13.1503 7.55 13.0803C7.57617 12.9651 7.57617 12.8455 7.55 12.7303C7.518 12.6743 7.47351 12.6264 7.41999 12.5903Z" fill="white"/>
<path d="M6.31 13.6705C6.25831 14.0487 6.25831 14.4322 6.31 14.8105C6.44 15.5105 6.31 15.4804 6.45 16.0004C6.59 16.5204 6.67 16.7605 6.98 16.8705C7.12868 16.9239 7.29132 16.9239 7.44 16.8705C7.79 16.6905 7.86 16.1805 7.89 15.9205C7.89 15.5005 7.83 15.3804 7.89 15.0204C7.95 14.6604 8.11 14.5304 8.18 14.5404C8.25759 15.1641 8.29767 15.7919 8.3 16.4205C8.36 16.9005 8.43 17.1204 8.61 17.2304C8.79 17.3404 9.1 17.2804 9.31 17.5004C9.39221 17.59 9.44765 17.7009 9.47 17.8204C9.57239 18.4617 9.60258 19.1125 9.56 19.7605C9.56 20.6205 9.7 20.6704 9.73 20.6804C9.76 20.6904 10.12 20.4404 10.23 20.2504C10.4263 19.8329 10.4992 19.368 10.44 18.9104C10.443 18.4622 10.4129 18.0143 10.35 17.5704C10.28 17.1804 10.2 16.8605 10.35 16.6905C10.4412 16.6197 10.5548 16.5842 10.67 16.5904C10.91 16.5904 10.98 16.7504 11.23 16.8404C11.4974 16.9137 11.7824 16.8852 12.03 16.7605C12.2698 16.6569 12.4722 16.4824 12.61 16.2605C12.7806 15.9561 12.8237 15.5965 12.73 15.2605C12.6859 14.9164 12.5951 14.5799 12.46 14.2605C12.46 14.2605 12.46 14.0505 12.46 13.9905C12.46 13.9305 12.55 13.9904 12.61 13.9304C12.67 13.8704 12.61 13.8504 12.61 13.7304C12.595 13.5024 12.5074 13.2851 12.36 13.1104C12.23 12.9804 11.91 12.7204 11.66 12.8404C11.41 12.9604 11.4 13.3104 11.39 13.4704C11.3852 13.9057 11.5068 14.3329 11.74 14.7004C11.93 15.0204 12.11 15.2104 12.05 15.4604C12.0415 15.5107 12.0229 15.5588 11.9954 15.6017C11.9679 15.6447 11.9321 15.6816 11.89 15.7104C11.74 15.7804 11.54 15.6404 11.4 15.5404C11.2072 15.4268 11.051 15.2602 10.95 15.0605C10.82 14.7405 11.01 14.6305 10.95 14.0605C10.9592 13.7514 10.8562 13.4495 10.66 13.2104C10.5735 13.1112 10.4513 13.0501 10.32 13.0404C9.88 13.0404 9.93 13.6404 9.96 13.9504C9.97876 14.1328 10.0122 14.3134 10.06 14.4905C10.0823 14.5653 10.1091 14.6387 10.14 14.7104C10.24 14.9704 10.36 15.2205 10.25 15.3705C10.14 15.5205 10.19 15.4404 10.14 15.4304C10.09 15.4204 9.99 15.2205 9.95 15.0305C9.88741 14.7373 9.84729 14.4397 9.83 14.1404C9.83 14.1404 9.83 13.6604 9.71 13.1404C9.59 12.6204 9.48 11.9504 9.18 11.9104C8.88 11.8704 8.85 12.0704 8.78 12.2304C8.71 12.3904 8.78 12.7304 8.92 13.2304C9.06 13.7304 8.92 13.5704 9.06 14.2304C9.22 15.1104 9.4 15.4504 9.19 15.7504C9.19 15.7504 9.07 15.9304 8.97 15.9104C8.87 15.8904 8.77 15.4704 8.75 15.2904C8.72286 14.941 8.72286 14.5899 8.75 14.2405C8.75 13.7705 8.75 13.6305 8.65 13.4905C8.55 13.3505 8.47 13.2304 8.25 13.2504C8.03 13.2704 7.93 13.4904 7.77 13.7904C7.57833 14.1225 7.45588 14.4898 7.41 14.8705C7.41 15.3205 7.41 15.5804 7.28 15.7104C7.23293 15.732 7.18177 15.7432 7.13 15.7432C7.07822 15.7432 7.02707 15.732 6.98 15.7104C6.77 15.6204 6.72 15.3004 6.65 14.8204C6.64199 14.5346 6.59143 14.2514 6.5 13.9804C6.5 13.9804 6.43 13.6805 6.28 13.6205C6.25096 13.6097 6.21905 13.6097 6.19 13.6205C6.19287 13.6328 6.19864 13.6443 6.20684 13.654C6.21504 13.6638 6.22544 13.6714 6.23717 13.6762C6.2489 13.6811 6.26162 13.6832 6.27428 13.6821C6.28695 13.6811 6.29919 13.6771 6.31 13.6705Z" fill="white"/>
<path d="M10.43 12.0398C10.3958 12.1063 10.3779 12.18 10.3779 12.2548C10.3779 12.3295 10.3958 12.4033 10.43 12.4698C10.457 12.5519 10.5001 12.6277 10.5567 12.693C10.6134 12.7582 10.6825 12.8115 10.76 12.8498C10.8528 12.8914 10.9533 12.913 11.055 12.913C11.1567 12.913 11.2572 12.8914 11.35 12.8498C11.5163 12.8158 11.6631 12.7191 11.76 12.5798C11.8268 12.4684 11.8582 12.3394 11.85 12.2098C11.85 12.1298 11.85 11.9098 11.75 11.8798C11.65 11.8498 11.58 11.8798 11.53 11.9998C11.48 12.1198 11.53 12.1598 11.45 12.1798C11.37 12.1998 11.35 12.1798 11.31 12.1098C11.27 12.0398 11.31 11.9198 11.23 11.8798C11.1986 11.8509 11.1576 11.835 11.115 11.835C11.0724 11.835 11.0314 11.8509 11 11.8798C10.92 11.9698 11 12.1198 10.93 12.1298C10.86 12.1398 10.85 12.1298 10.82 12.0298C10.79 11.9298 10.75 11.8798 10.71 11.8598C10.67 11.8398 10.49 11.9098 10.43 12.0398Z" fill="white"/>
<path d="M17.38 17.1098C17.38 17.0098 17.15 16.9898 17.01 17.0298C16.9621 17.0336 16.9156 17.0482 16.874 17.0724C16.8325 17.0967 16.7969 17.13 16.77 17.1698C16.71 17.2698 16.77 17.3498 16.67 17.4798C16.57 17.6098 16.59 17.6098 16.54 17.6098C16.49 17.6098 16.48 17.4598 16.38 17.3398C16.3136 17.276 16.2302 17.2326 16.1397 17.2149C16.0493 17.1971 15.9557 17.2058 15.87 17.2398C15.79 17.2398 15.8 17.3298 15.56 17.6798C15.46 17.8398 15.43 17.8798 15.37 17.9098C15.3099 17.947 15.2407 17.9667 15.17 17.9667C15.0994 17.9667 15.0301 17.947 14.97 17.9098C14.86 17.7998 14.97 17.6498 14.88 17.4498C14.8441 17.3794 14.7898 17.3199 14.723 17.2777C14.6561 17.2354 14.5791 17.212 14.5 17.2098C14.36 17.2098 14.32 17.2998 14.25 17.2898C14.18 17.2798 14.14 16.6998 14.04 15.9298C14.0077 15.4978 13.9374 15.0695 13.83 14.6498C13.76 14.4098 13.67 14.1698 13.83 14.0498C13.99 13.9298 14.24 14.0498 14.35 13.9698C14.46 13.8898 14.25 13.6298 14.05 13.0598C13.9699 12.6956 13.8093 12.354 13.58 12.0598C13.5127 11.9942 13.4239 11.9552 13.33 11.9498C13.2719 11.9354 13.2111 11.936 13.1533 11.9518C13.0955 11.9675 13.0427 11.9979 13 12.0398C12.8701 12.0844 12.7626 12.1776 12.7 12.2998C12.6462 12.4416 12.6462 12.5981 12.7 12.7398C12.8404 13.1046 12.941 13.4835 13 13.8698C13.07 14.2598 13 14.0998 13.23 15.3898C13.29 15.7498 13.33 16.0098 13.4 16.5498C13.53 17.4298 13.55 17.7698 13.4 17.8798C13.347 17.9055 13.2889 17.9188 13.23 17.9188C13.1711 17.9188 13.113 17.9055 13.06 17.8798C12.75 17.7698 12.78 17.4498 12.51 17.3198C12.24 17.1898 11.92 17.3198 11.74 17.4498C11.4444 17.5933 11.2102 17.8381 11.08 18.1398C10.9844 18.3269 10.9413 18.5363 10.9554 18.7459C10.9694 18.9555 11.0402 19.1573 11.16 19.3298C11.2695 19.4525 11.4095 19.544 11.5659 19.595C11.7222 19.6459 11.8893 19.6545 12.05 19.6198C12.32 19.5498 12.52 19.3098 12.6 19.3798C12.68 19.4498 12.6 19.4598 12.6 19.4798C12.57 19.7509 12.485 20.0129 12.35 20.2498C12.1384 20.5496 11.8569 20.7932 11.53 20.9598C11 21.2698 10.69 21.4498 10.31 21.3698C10.1233 21.3203 9.95082 21.2276 9.80662 21.099C9.66242 20.9704 9.55053 20.8097 9.48002 20.6298C9.35002 20.2498 9.48001 19.9398 9.28001 19.4698C9.19001 19.2998 9.13001 19.2898 9.10001 19.2898C9.07001 19.2898 8.81001 19.8598 8.77001 20.1398C8.67617 20.5645 8.71456 21.0077 8.88001 21.4098C9.02869 21.7537 9.27571 22.046 9.59001 22.2498C9.95907 22.4734 10.3905 22.5716 10.82 22.5298C11.2567 22.4592 11.6652 22.2688 12 21.9798C12.4725 21.6518 12.8239 21.1774 13 20.6298C13.13 20.0898 13 19.6298 13.32 19.3498C13.32 19.3498 13.46 19.2398 13.53 19.2798C13.6 19.3198 13.53 19.8698 13.53 20.0898C13.4387 20.6017 13.2485 21.0908 12.97 21.5298C12.7038 21.9694 12.3371 22.3395 11.9 22.6098C11.4703 22.8577 10.9859 22.9951 10.49 23.0098C10.2141 23.0388 9.93518 23.0072 9.67268 22.9174C9.41019 22.8276 9.17041 22.6817 8.97002 22.4898C8.82864 22.3072 8.72959 22.0954 8.68002 21.8698C8.65228 21.5261 8.57132 21.1887 8.44002 20.8698C8.34002 20.7098 8.29001 20.6998 8.28001 20.7098C8.09001 20.7098 8.00002 21.5498 8.00002 21.6298C7.92795 22.047 7.95536 22.4753 8.08002 22.8798C8.21145 23.282 8.46703 23.6321 8.81001 23.8798C9.25193 24.1226 9.76233 24.2106 10.26 24.1298C10.8638 24.1023 11.4557 23.9526 12 23.6898C12.4119 23.4943 12.79 23.2344 13.12 22.9198C13.5267 22.567 13.8365 22.1161 14.02 21.6098C14.1242 21.2867 14.1781 20.9494 14.18 20.6098C14.18 19.9598 14.06 19.0998 14.18 19.0298H14.26C14.32 19.0298 14.35 19.0898 14.39 19.1198C14.4633 19.162 14.5456 19.186 14.63 19.1898C14.7617 19.2195 14.8983 19.2195 15.03 19.1898C15.1406 19.1612 15.2454 19.1139 15.34 19.0498C15.55 18.9298 15.56 18.8798 15.68 18.8398C15.8 18.7998 15.83 18.8398 16.06 18.8398C16.2569 18.886 16.4579 18.9128 16.66 18.9198C16.7741 18.8973 16.8814 18.8485 16.9734 18.7773C17.0653 18.7062 17.1395 18.6146 17.19 18.5098C17.42 18.0898 17.12 17.6598 17.31 17.2898C17.3386 17.2705 17.3606 17.2429 17.3731 17.2108C17.3856 17.1786 17.388 17.1434 17.38 17.1098ZM12.14 18.6898C12.0861 18.7412 12.0145 18.7698 11.94 18.7698C11.8656 18.7698 11.7939 18.7412 11.74 18.6898C11.6919 18.6491 11.6595 18.5928 11.6486 18.5307C11.6376 18.4686 11.6487 18.4046 11.68 18.3498C11.7212 18.2992 11.7794 18.2652 11.8438 18.2542C11.9081 18.2432 11.9743 18.2558 12.03 18.2898C12.0702 18.314 12.1039 18.3476 12.1283 18.3876C12.1527 18.4277 12.167 18.473 12.17 18.5198C12.1805 18.5783 12.1699 18.6385 12.14 18.6898Z" fill="white"/>
<path d="M15.44 20.0403C15.64 20.3103 15.72 20.2803 15.78 20.4103C15.84 20.5403 15.63 20.9603 15.78 21.0703C15.8142 21.0927 15.8541 21.1046 15.895 21.1046C15.9358 21.1046 15.9758 21.0927 16.01 21.0703C16.23 20.9703 16.23 20.5603 16.22 20.4303C16.2259 20.1822 16.1484 19.9393 16 19.7403C15.92 19.6503 15.77 19.4803 15.6 19.5103C15.5384 19.5228 15.4818 19.5532 15.4373 19.5977C15.3929 19.6421 15.3625 19.6987 15.35 19.7603C15.31 19.8103 15.31 19.8803 15.44 20.0403Z" fill="white"/>
<path d="M26.15 22.6704C26.15 22.5204 26.15 22.3204 26.08 22.2504C26.01 22.1804 25.84 22.2504 25.7 22.3304C25.56 22.4104 25.22 22.5704 25.26 22.7704C25.2793 22.8273 25.3136 22.8778 25.3594 22.9166C25.4053 22.9553 25.4608 22.9809 25.52 22.9904C25.62 22.9904 25.67 22.9904 25.72 22.9904C25.77 22.9904 25.72 23.1904 25.72 23.3604C25.7361 23.413 25.7632 23.4615 25.7994 23.5029C25.8356 23.5442 25.8801 23.5775 25.93 23.6004C26.08 23.6604 26.21 23.6004 26.41 23.5004C27.01 23.2604 27.29 23.3604 27.41 23.1704C27.4268 23.1052 27.4243 23.0366 27.403 22.9728C27.3818 22.9089 27.3425 22.8525 27.29 22.8104C27.15 22.7104 26.89 22.8104 26.52 22.9204C26.15 23.0304 26.17 23.0604 26.12 23.0104C26.07 22.9604 26.13 22.8704 26.15 22.6704Z" fill="white"/>
<path d="M16.66 15.2403C16.66 15.1503 16.66 15.1203 16.66 15.0403C16.66 14.9603 16.66 14.9003 16.57 14.8703C16.48 14.8403 16.31 14.9803 16.22 15.1203C16.1583 15.223 16.1257 15.3405 16.1257 15.4603C16.1257 15.5801 16.1583 15.6976 16.22 15.8003C16.2601 15.8681 16.3136 15.927 16.3772 15.9734C16.4408 16.0198 16.5132 16.0528 16.59 16.0703C16.6808 16.0912 16.7752 16.0904 16.8656 16.0678C16.956 16.0452 17.0397 16.0015 17.11 15.9403C17.22 15.8403 17.31 15.6803 17.26 15.6203C17.21 15.5603 17.18 15.6203 17 15.6203C16.82 15.6203 16.74 15.6203 16.68 15.5603C16.62 15.5003 16.65 15.3103 16.66 15.2403Z" fill="white"/>
<path d="M22.32 16.8901C22.26 16.8401 22.14 16.7901 22.07 16.8401C22 16.8901 22.07 17.2001 22.07 17.2101C22.1019 17.3196 22.158 17.4205 22.2342 17.5053C22.3103 17.5901 22.4046 17.6567 22.51 17.7001C22.5995 17.7407 22.6967 17.7618 22.795 17.7618C22.8933 17.7618 22.9905 17.7407 23.08 17.7001C23.1957 17.6277 23.2837 17.5185 23.33 17.3901C23.42 17.1801 23.45 16.8601 23.33 16.7901C23.2683 16.7739 23.2031 16.7778 23.1437 16.8012C23.0844 16.8245 23.034 16.8662 23 16.9201C22.95 16.9901 22.95 17.0801 22.93 17.0801C22.91 17.0801 22.93 16.9001 22.81 16.8401C22.7869 16.8279 22.7611 16.8215 22.735 16.8215C22.7088 16.8215 22.6831 16.8279 22.66 16.8401C22.56 16.8401 22.59 17.0501 22.53 17.0701C22.47 17.0901 22.43 16.9501 22.32 16.8901Z" fill="white"/>
<path d="M17.5 12.34C17.5008 12.2333 17.4711 12.1286 17.4144 12.0383C17.3577 11.9479 17.2764 11.8757 17.18 11.83C17.0519 11.7683 16.9065 11.7525 16.7681 11.7852C16.6298 11.818 16.5068 11.8974 16.42 12.01C16.3541 12.113 16.3191 12.2327 16.3191 12.355C16.3191 12.4772 16.3541 12.597 16.42 12.7C16.52 12.84 16.69 12.92 16.74 13.1C16.7515 13.1233 16.7575 13.149 16.7575 13.175C16.7575 13.201 16.7515 13.2266 16.74 13.25C16.7338 13.2737 16.7226 13.2958 16.7071 13.3148C16.6915 13.3338 16.6721 13.3492 16.65 13.36C16.3507 13.6752 16.015 13.9539 15.65 14.19C15.21 14.45 15.17 14.55 14.8 14.76C14.71 14.76 14.54 14.98 14.59 15.07C14.64 15.16 15.29 15.23 15.69 15.07C16.09 14.91 16.08 14.6 16.81 14.02C17.1 13.78 17.48 13.55 17.42 13.32C17.36 13.09 17.33 13.16 17.33 13C17.3154 12.9206 17.3154 12.8393 17.33 12.76C17.43 12.47 17.49 12.45 17.5 12.34ZM17.06 12.76C16.98 12.81 16.84 12.76 16.76 12.66C16.68 12.56 16.67 12.42 16.76 12.36C16.85 12.3 16.97 12.36 17.04 12.36C17.11 12.36 17.14 12.7 17.06 12.76Z" fill="white"/>
<path d="M17.92 12.7104C17.73 12.7104 17.73 13.5605 17.78 14.1205C17.85 14.8605 17.92 15.7705 18.51 16.0105C18.6401 16.0725 18.7842 16.0996 18.9279 16.0891C19.0717 16.0786 19.2103 16.0308 19.33 15.9504C19.59 15.7305 19.44 15.3904 19.71 14.7304C19.81 14.4804 19.98 14.1605 20.06 14.1905C20.14 14.2205 19.88 14.8704 20.14 15.5504C20.14 15.6104 20.46 16.3704 21.04 16.4604C21.4656 16.4706 21.8796 16.3208 22.2 16.0405C22.44 15.8505 22.61 15.6105 22.83 15.6505C22.9254 15.676 23.0097 15.7322 23.07 15.8105C23.15 15.8805 23.71 16.4104 24.17 16.3404C24.2985 16.3051 24.4187 16.2445 24.5235 16.1621C24.6282 16.0796 24.7154 15.9771 24.78 15.8604C24.92 15.6205 24.92 15.4004 25.05 15.3805C25.18 15.3605 25.26 15.4504 25.32 15.5504C25.38 15.6504 25.32 15.7604 25.39 15.8204C25.46 15.8804 25.62 15.8204 25.66 15.8204C25.78 15.7605 25.8853 15.6747 25.9683 15.5692C26.0513 15.4637 26.1099 15.3412 26.14 15.2104C26.14 15.0804 26.26 14.8604 26.14 14.7904C26.02 14.7204 25.97 14.7904 25.72 14.8604C25.5866 14.9137 25.4434 14.9375 25.3 14.9304C25.15 14.9304 25.06 14.7604 24.93 14.5204C24.58 13.8704 24.37 13.5204 24.53 13.2304C24.53 13.2304 24.65 13.0205 24.79 13.0305C24.93 13.0405 24.88 13.0305 24.91 13.0305C24.9321 12.8446 24.9081 12.6561 24.84 12.4817C24.772 12.3073 24.6621 12.1523 24.52 12.0305C24.41 11.9405 24.17 11.7205 23.92 11.7805C23.67 11.8405 23.47 12.4005 23.46 12.6905C23.4806 13.05 23.6018 13.3965 23.81 13.6905C24 14.0405 24.06 14.0504 24.12 14.2704C24.18 14.4904 24.25 15.0304 23.99 15.1804C23.9002 15.2229 23.8004 15.2398 23.7015 15.2292C23.6027 15.2187 23.5088 15.181 23.43 15.1205C23.16 14.9405 23.1 14.6005 23.02 14.1205C23.02 13.7905 22.97 13.4904 22.95 13.0204C22.9568 12.7239 22.9232 12.4279 22.85 12.1404C22.78 11.9304 22.7 11.6305 22.53 11.6005C22.36 11.5705 22.17 11.9204 22.13 12.0004C22.0315 12.1919 21.9834 12.4053 21.99 12.6205C21.99 12.9405 22.14 13.0105 22.23 13.4005C22.2655 13.6324 22.2655 13.8685 22.23 14.1005C22.2731 14.4315 22.1911 14.7667 22 15.0404C21.9217 15.1105 21.8297 15.1635 21.7299 15.1962C21.6301 15.2289 21.5245 15.2406 21.42 15.2304C21.3106 15.199 21.2093 15.1443 21.123 15.0701C21.0367 14.9959 20.9674 14.9039 20.92 14.8004C20.78 14.5304 20.85 14.3604 20.92 13.7004C20.92 12.7004 20.83 12.5904 20.75 12.5404C20.6706 12.5016 20.5834 12.4814 20.495 12.4814C20.4066 12.4814 20.3194 12.5016 20.24 12.5404C19.54 12.8304 19.36 14.0305 19.33 14.2405C19.3394 14.3235 19.3394 14.4074 19.33 14.4905C19.26 14.8305 19.2 15.0804 19.08 15.1104C18.96 15.1404 18.81 14.9305 18.75 14.8505C18.5858 14.5883 18.4895 14.2892 18.47 13.9804C18.4 13.4504 18.47 13.2304 18.28 12.9804C18.08 12.8304 18 12.7004 17.92 12.7104Z" fill="white"/>
<path d="M19.08 11.4797C18.83 11.5397 18.68 11.9297 18.65 11.9797C18.5808 12.1437 18.5566 12.3232 18.58 12.4997C18.58 12.6197 18.58 12.7797 18.74 12.8397C18.8107 12.8554 18.8843 12.8515 18.953 12.8287C19.0217 12.8058 19.0828 12.7646 19.13 12.7097C19.2 12.6397 19.29 12.4997 19.25 12.4297C19.21 12.3597 19.09 12.4297 19.01 12.3297C18.93 12.2297 19.01 12.0597 19.01 12.0297C19.01 11.9997 19.17 11.8397 19.22 11.6497C19.27 11.4597 19.22 11.5097 19.22 11.4897C19.2001 11.4748 19.1763 11.466 19.1515 11.4642C19.1267 11.4624 19.1018 11.4678 19.08 11.4797Z" fill="white"/>
<path d="M21.33 11.57C21.33 11.57 21.12 11.74 21.07 12.15C21.02 12.56 21.07 12.39 21.07 12.79C21.07 13.02 21.16 13.13 21.21 13.15C21.26 13.17 21.41 13.02 21.43 12.99C21.6385 12.6671 21.727 12.2814 21.68 11.9C21.68 11.75 21.68 11.62 21.59 11.58C21.5504 11.5582 21.5063 11.5459 21.4612 11.5442C21.4161 11.5424 21.3711 11.5513 21.33 11.57Z" fill="white"/>
<path d="M30.68 19.6995C30.3761 18.9671 29.9938 18.2697 29.54 17.6195C29.14 16.9495 28.74 16.3095 28.34 15.6795C28.28 14.9995 28.22 14.4095 28.17 14.0595C28.1762 14.0267 28.1891 13.9954 28.2081 13.9679C28.227 13.9403 28.2515 13.9171 28.28 13.8995C28.34 13.8995 28.4 13.8995 28.44 13.8995C28.48 13.8995 28.44 13.5395 28.44 13.5395C28.2303 12.9862 27.9182 12.4773 27.52 12.0395C27.44 11.9395 27.34 11.7495 27.22 11.7595C27.1 11.7695 26.96 12.1395 26.94 12.3695C26.9031 12.5678 26.9031 12.7712 26.94 12.9695C26.821 12.7699 26.6873 12.5793 26.54 12.3995C26.3428 12.1574 26.1179 11.9393 25.87 11.7495C25.47 11.4295 25.36 11.4395 25.31 11.4595C25.26 11.4795 25.17 11.6395 25.12 11.8695C25.0251 12.1277 25.0251 12.4113 25.12 12.6695C25.1544 12.7673 25.2051 12.8586 25.27 12.9395C26.0575 13.8589 26.7857 14.8275 27.45 15.8395C27.66 18.1395 27.75 21.0495 27.71 21.8395C27.71 22.1095 27.66 22.8395 27.86 22.8395C28.06 22.8395 28.3 22.4595 28.42 22.2495C28.703 21.7377 28.7851 21.1386 28.65 20.5695C28.65 20.5695 28.54 19.0495 28.42 17.4495C28.64 17.8395 28.84 18.1995 29.01 18.5395C29.4559 19.5309 29.9879 20.4812 30.6 21.3795C30.87 21.4695 31 20.4095 30.68 19.6995ZM26.68 13.2895C26.68 13.2895 26.68 13.2195 26.68 13.1995C26.68 13.1795 26.97 13.2595 27.03 13.1995C27.09 13.3795 27.16 13.5095 27.17 13.5495C27.18 13.5895 27.26 13.9295 27.3 14.1595L26.68 13.2895Z" fill="white"/>
<path d="M28.75 12.2604C28.75 12.4604 28.92 12.5104 29.12 12.8904C29.2093 13.0629 29.2701 13.2486 29.3 13.4404C29.35 13.7704 29.3 13.9704 29.3 13.9904C29.3 14.0104 29.56 13.7804 29.65 13.5104C29.7217 13.3109 29.7481 13.0979 29.7274 12.8869C29.7066 12.6759 29.6392 12.4722 29.53 12.2904C29.44 12.1604 29.26 11.8804 29.03 11.9104C28.955 11.9364 28.889 11.983 28.8394 12.045C28.7899 12.1069 28.7589 12.1816 28.75 12.2604Z" fill="white"/>
<path d="M29.07 14.9503C28.98 14.8703 29.01 14.7603 28.96 14.7403C28.91 14.7203 28.77 14.8203 28.71 14.9503C28.6748 15.0434 28.6646 15.1441 28.6804 15.2423C28.6962 15.3405 28.7374 15.4329 28.8 15.5103C28.8849 15.5921 28.9884 15.6522 29.1016 15.6852C29.2148 15.7183 29.3343 15.7235 29.45 15.7003C29.5533 15.6913 29.6534 15.6598 29.7432 15.608C29.8331 15.5562 29.9105 15.4853 29.97 15.4003C30.028 15.3196 30.0616 15.224 30.0669 15.1247C30.0723 15.0255 30.049 14.9268 30 14.8403C29.95 14.8403 29.87 14.7403 29.82 14.7603C29.77 14.7803 29.82 14.9903 29.71 15.0103C29.6 15.0303 29.58 14.9303 29.55 14.8803C29.52 14.8303 29.55 14.7103 29.46 14.6903C29.37 14.6703 29.3 14.7603 29.25 14.8503C29.2 14.9403 29.25 14.9703 29.19 14.9903C29.1683 14.9928 29.1463 14.9905 29.1256 14.9836C29.1048 14.9767 29.0859 14.9653 29.07 14.9503Z" fill="white"/>
<path d="M34.78 15.7798C34.67 15.7298 34.69 15.6098 34.6 15.5398C34.5261 15.509 34.4446 15.5011 34.3662 15.5172C34.2877 15.5332 34.2159 15.5725 34.16 15.6298C34.1147 15.6848 34.0822 15.7493 34.0649 15.8185C34.0476 15.8877 34.0459 15.9599 34.06 16.0298C34.06 16.1398 34.12 16.3298 34.73 16.8698C35.16 17.2498 35.26 17.2698 35.33 17.2398C35.4 17.2098 35.43 17.0798 35.46 16.9298C35.53 16.4898 35.35 16.2698 35.46 16.1198C35.57 15.9698 35.67 16.0598 35.78 15.9098C35.822 15.8466 35.8493 15.7748 35.86 15.6998C35.86 15.5198 35.86 15.1598 35.61 15.0398C35.5321 14.9982 35.4432 14.9817 35.3555 14.9924C35.2679 15.0032 35.1856 15.0407 35.12 15.0998C34.98 15.2898 35.23 15.6398 35.12 15.7498C35.0547 15.7687 34.9853 15.7687 34.92 15.7498C34.876 15.7696 34.8283 15.7798 34.78 15.7798Z" fill="white"/>
<path d="M38.51 23.1705C38.51 23.0305 38.64 22.9905 38.65 22.9005C38.66 22.8105 38.4 22.6005 38.15 22.6205C37.9 22.6405 37.79 22.7505 37.79 22.8505C37.79 22.9505 38.1 22.9805 38.17 23.1905C38.1982 23.2748 38.1982 23.3661 38.17 23.4505C38.06 23.7105 37.8 23.7205 37.79 23.8905C37.7914 23.944 37.8082 23.9961 37.8383 24.0404C37.8685 24.0847 37.9107 24.1194 37.96 24.1405C38.13 24.2105 38.23 24.0205 38.7 23.8305C38.93 23.7405 39.06 23.7205 39.09 23.6205C39.0964 23.5702 39.0885 23.5192 39.0673 23.4733C39.0461 23.4273 39.0123 23.3882 38.97 23.3605C38.83 23.2805 38.67 23.3605 38.58 23.3605C38.5552 23.3358 38.5361 23.306 38.524 23.2732C38.5119 23.2404 38.5071 23.2053 38.51 23.1705Z" fill="white"/>
<path d="M33.61 19.57C33.61 19.57 33.49 18.57 33.15 16.08C33.05 15.35 32.91 14.63 32.84 13.9H33.04C33.11 13.9 33.29 13.9 33.35 13.9C33.41 13.9 33.27 13.62 33.23 13.55L33 13.04L32.59 12.28C32.54 12.18 32.41 11.79 32.26 11.8C32.11 11.81 31.96 12.55 31.93 13.04C31.8806 13.6442 31.9313 14.2523 32.08 14.84C32.5422 16.8782 32.8266 18.9526 32.93 21.04C32.93 21.58 32.83 22.36 33.02 22.41C33.21 22.46 33.42 22.03 33.55 21.73C33.7953 21.034 33.8163 20.2786 33.61 19.57Z" fill="white"/>
<path d="M30.62 11.9295C30.4074 12.2628 30.2835 12.6449 30.26 13.0395C30.26 13.5695 30.4 13.6695 30.48 14.5095C30.48 14.6995 30.48 14.8295 30.48 14.9495C30.6 17.6095 30.82 18.7095 30.89 19.7595C30.9948 20.2894 31.0317 20.8304 31 21.3695C30.9389 21.6264 30.8032 21.8595 30.61 22.0395C29.9697 22.6223 29.269 23.1352 28.52 23.5695C28.45 23.5695 28.28 23.5695 28.25 23.7095C28.22 23.8495 28.4 23.9995 28.55 24.0795C28.7421 24.171 28.9522 24.2185 29.165 24.2185C29.3778 24.2185 29.5879 24.171 29.78 24.0795C30.4597 23.7504 30.9964 23.1853 31.29 22.4895C31.5172 21.9836 31.6558 21.4424 31.7 20.8895C31.8554 19.1162 31.7203 17.3294 31.3 15.5995C31.3 15.5995 30.88 14.0095 31.15 13.9195C31.15 13.9195 31.25 13.9195 31.32 13.9195C31.39 13.9195 31.45 13.6995 31.46 13.6595C31.4605 13.4601 31.4013 13.2651 31.29 13.0995C30.9 12.3895 30.84 11.8995 30.68 11.9195C30.6596 11.9194 30.6393 11.9228 30.62 11.9295Z" fill="white"/>
<path d="M36.36 18.1698C36.55 17.9798 36.56 17.2698 36.36 17.3298C36.36 17.3298 34.87 18.3298 34.72 18.4398C34.57 18.5498 34.46 18.6998 34.46 18.8798C34.46 19.0598 34.41 19.2798 34.46 19.3198C35.1255 18.9922 35.7612 18.6074 36.36 18.1698Z" fill="white"/>
<path d="M35.85 18.7103C35.75 18.8103 35.85 19.3403 35.85 19.4903C35.9208 19.8195 35.9642 20.1539 35.98 20.4903C35.98 20.5803 36.07 20.8903 36.2 20.7503C36.3919 20.5172 36.5194 20.2379 36.57 19.9403C36.4946 19.5012 36.3705 19.0719 36.2 18.6603C36.1423 18.6378 36.0797 18.6306 36.0184 18.6394C35.9571 18.6481 35.8991 18.6725 35.85 18.7103Z" fill="white"/>
<path d="M39.73 13.9701C39.73 14.1101 39.73 14.33 39.78 14.59C39.83 14.85 39.78 15.15 39.78 15.16C39.78 15.17 40.05 14.86 40.12 14.5C40.1752 14.1612 40.13 13.8136 39.99 13.5C39.9 13.23 39.82 13.0101 39.64 12.9701C39.5817 12.9566 39.5209 12.9599 39.4643 12.9793C39.4077 12.9987 39.3578 13.0336 39.32 13.0801C39.2 13.2401 39.32 13.4801 39.38 13.5801C39.4544 13.7426 39.5765 13.8786 39.73 13.9701Z" fill="white"/>
<path d="M39.06 22.1103C39.3 21.7803 39.46 21.7003 39.54 21.3303C39.5902 20.8487 39.6103 20.3644 39.6 19.8803C39.96 20.4403 40.29 20.9803 40.6 21.4603L41 22.0403C41.1735 21.475 41.1453 20.867 40.92 20.3203C40.5236 19.6258 40.0827 18.9577 39.6 18.3203C39.5832 17.4476 39.4929 16.5778 39.33 15.7203C39 14.1903 38.91 14.0403 39.14 14.0403C39.37 14.0403 38.81 12.5103 38.6 12.1303C38.39 11.7503 38.11 11.8703 38.03 11.9503C37.9432 12.0074 37.8764 12.09 37.8388 12.1868C37.8012 12.2835 37.7946 12.3896 37.82 12.4903C37.97 13.3303 38.11 14.1903 38.23 15.0803C38.31 15.6703 38.39 16.2503 38.45 16.8303L37.45 15.5103C37.38 14.5903 37.34 13.9203 37.34 13.8803C37.34 13.8403 37.59 13.7703 37.59 13.6703C37.4879 13.3275 37.3253 13.0058 37.11 12.7203C36.65 12.2503 36.73 11.8203 36.57 11.8303C36.41 11.8403 36.27 12.1403 36.27 12.2303C36.27 12.7003 36.36 13.3703 36.4 14.0403C36.2374 13.8174 36.0904 13.5835 35.96 13.3403C35.96 13.1703 35.96 13.1703 36.06 13.1703C36.1012 13.1699 36.1417 13.1597 36.1782 13.1406C36.2148 13.1215 36.2462 13.094 36.27 13.0603C36.27 13.0603 34.72 11.2603 34.83 11.8303C34.83 11.8303 34.46 12.9603 34.93 13.5503C35.1 13.7603 35.74 14.5503 36.55 15.6703C36.5694 15.8559 36.6028 16.0397 36.65 16.2203C36.8895 17.815 36.9698 19.4296 36.89 21.0403C36.89 21.2303 36.69 21.6803 36.41 21.7203C36.13 21.7603 36.01 21.5303 35.87 21.3803C35.48 20.9603 35.45 20.6803 35.19 20.6003C35.1062 20.5806 35.0189 20.5812 34.9354 20.6021C34.8519 20.623 34.7746 20.6635 34.71 20.7203C34.53 20.8603 34.37 21.0303 34.11 21.7203C33.85 22.4103 33.83 22.7203 33.6 22.9403C33.5291 22.9927 33.4475 23.0288 33.3611 23.0461C33.2747 23.0633 33.1855 23.0614 33.1 23.0403C32.64 22.9603 32.5 22.0403 32.44 21.8303C32.3768 21.5 32.3768 21.1606 32.44 20.8303C32.2638 21.2147 32.1726 21.6325 32.1726 22.0553C32.1726 22.4781 32.2638 22.8959 32.44 23.2803C32.76 23.8203 33.44 24.2803 33.75 24.1103C34.06 23.9403 34.28 23.4103 34.46 22.4603C34.4901 22.3176 34.566 22.1886 34.6761 22.093C34.7862 21.9973 34.9245 21.9402 35.07 21.9303C35.53 21.9303 35.68 22.6903 36.28 22.8403C36.5249 22.8646 36.7721 22.8291 37.0003 22.7368C37.2285 22.6445 37.4309 22.4981 37.59 22.3103C37.85 22.0303 38.03 21.4103 37.74 18.5203C37.74 18.0203 37.65 17.5203 37.61 16.9903C37.94 17.4403 38.27 17.9103 38.61 18.3803C38.72 19.7203 38.79 21.0103 38.81 22.2503C38.81 22.2703 38.82 22.4403 39.06 22.1103Z" fill="white"/>
<path d="M41.44 13.72C41.56 13.59 42.03 13.92 41.96 13.59C41.89 13.26 41.04 11.72 40.65 11.78C40.51 11.78 40.37 12.26 40.37 12.46C40.37 12.66 40.48 13.72 40.58 14.46C40.9146 16.8944 41.1249 19.3442 41.21 21.8C41.0434 22.2798 40.7537 22.7074 40.37 23.04C40.1 23.31 38.88 23.8 38.88 24.12C38.88 24.44 39.51 24.41 40.13 24.2C40.5314 24.1037 40.8986 23.8989 41.1914 23.6079C41.4842 23.3168 41.6913 22.9509 41.79 22.55C41.9779 20.8263 42.0047 19.0888 41.87 17.36C41.6575 16.1559 41.5139 14.9406 41.44 13.72Z" fill="white"/>
<path d="M27.56 19.5996C27.56 19.4996 27.22 19.5296 27.14 19.5396C26.0631 19.6066 24.9823 19.5798 23.91 19.4596C23.91 19.4596 24.14 19.4596 24.49 19.3296C24.963 19.2197 25.4022 18.9966 25.77 18.6796C25.9511 18.5542 26.1041 18.3926 26.2195 18.2049C26.3348 18.0173 26.4099 17.8077 26.44 17.5896C26.4566 17.3524 26.4052 17.1154 26.2918 16.9064C26.1785 16.6973 26.0079 16.525 25.8 16.4096C25.6233 16.3087 25.4234 16.2557 25.22 16.2557C25.0166 16.2557 24.8167 16.3087 24.64 16.4096C24.3193 16.6825 24.1182 17.0702 24.08 17.4896C23.96 17.9796 24.08 18.0596 23.96 18.2296C23.66 18.6596 22.96 18.2296 22.16 18.6496C21.7441 18.8474 21.3961 19.164 21.16 19.5596C21.16 19.3596 21.1 19.1296 21.06 18.8396C20.82 17.2996 20.56 16.8396 20.3 16.5696C20.2 16.4696 19.94 16.1896 19.75 16.2496C19.56 16.3096 19.51 16.8696 19.51 16.9996C19.5713 17.5336 19.7379 18.0502 20 18.5196C20.1925 18.9493 20.3076 19.4097 20.34 19.8796C20.3424 20.4857 20.1611 21.0784 19.82 21.5796C19.4663 22.1127 18.9759 22.5409 18.4 22.8196C18.2529 22.9137 18.0857 22.9718 17.912 22.9892C17.7382 23.0066 17.5628 22.9827 17.4 22.9196C17.3215 22.8668 17.2557 22.7972 17.2073 22.716C17.1588 22.6347 17.129 22.5437 17.12 22.4496L17.22 22.3896C17.6278 22.1313 18.0037 21.8259 18.34 21.4796C18.8659 21.0213 19.2189 20.3965 19.34 19.7096C19.4026 19.1726 19.2828 18.6302 19 18.1696C19 18.1696 18.87 18.0196 18.9 17.9696C18.93 17.9196 19.11 18.0396 19.18 17.9696C19.25 17.8996 19.18 17.5596 18.97 17.3096C18.9022 17.1779 18.806 17.063 18.6885 16.9731C18.5709 16.8832 18.4348 16.8205 18.29 16.7896C18.1794 16.7765 18.0673 16.7917 17.9641 16.8337C17.861 16.8756 17.7701 16.943 17.7 17.0296C17.48 17.3596 17.77 17.8396 17.83 17.9296C17.99 18.1796 18.09 18.1296 18.26 18.3896C18.4159 18.6236 18.4994 18.8983 18.5 19.1796C18.502 19.4179 18.4508 19.6536 18.35 19.8696C18.0386 20.4708 17.5726 20.9782 17 21.3396C17 20.6396 17.08 20.2396 17 20.2096C16.92 20.1796 16.59 20.7896 16.42 21.4496C16.42 21.5596 16.37 21.6696 16.34 21.7796C15.7 22.1796 15.7 22.1396 15.1 22.5196C14.65 22.7996 13.1 23.7796 13.2 23.9696C13.3 24.1596 15.34 23.3496 15.45 23.3096L16.25 22.9496C16.2797 23.1256 16.348 23.293 16.45 23.4396C16.6182 23.6729 16.8411 23.8615 17.0991 23.9888C17.3572 24.116 17.6424 24.1781 17.93 24.1696C18.4489 24.1102 18.9338 23.8818 19.31 23.5196C19.9403 23.0869 20.4552 22.5067 20.81 21.8296C20.8374 21.7816 20.8609 21.7314 20.88 21.6796C20.9111 21.8507 20.9685 22.0159 21.05 22.1696C21.1797 22.3834 21.3494 22.5702 21.55 22.7196C21.9432 23.0719 22.3973 23.3498 22.89 23.5396C23.22 23.6596 23.83 23.8796 24.16 23.6796C24.2556 23.6201 24.3347 23.5376 24.39 23.4396C24.4327 23.3199 24.4327 23.1892 24.39 23.0696C24.31 22.8296 24.01 22.8896 23.75 22.5896C23.75 22.5896 23.5 22.2896 23.57 22.0496C23.64 21.8096 23.84 21.7596 24.19 21.6496C24.8736 21.4722 25.5686 21.3419 26.27 21.2596C26.71 21.1796 26.98 21.1196 27.09 20.9096C27.2 20.6996 27.09 20.6096 27.16 20.3296C27.2542 20.1204 27.3716 19.9225 27.51 19.7396C27.51 19.7396 27.57 19.6396 27.56 19.5996ZM24.79 17.4996C24.8331 17.4546 24.8899 17.4253 24.9514 17.4163C25.013 17.4072 25.0758 17.4189 25.13 17.4496C25.25 17.5096 25.29 17.6296 25.34 17.7996C25.39 17.9696 25.34 17.9196 25.34 17.9296C25.34 17.9396 25.14 17.9296 25.03 17.9296C24.92 17.9296 24.72 17.6096 24.79 17.4996ZM22.7 21.4096C22.58 21.6696 22.7 21.9296 22.58 22.0296C22.46 22.1296 22.36 22.0296 22.25 22.0296C22.0395 21.9496 21.8542 21.8146 21.7135 21.6388C21.5728 21.4629 21.4818 21.2525 21.45 21.0296C21.45 20.9496 21.45 20.4996 21.65 20.3696C21.85 20.2396 21.92 20.4396 22.3 20.4996C22.85 20.5896 23.11 20.3396 23.35 20.4996C23.4009 20.5357 23.4421 20.5837 23.47 20.6395C23.4979 20.6954 23.5117 20.7572 23.51 20.8196C23.46 21.0996 22.89 21.0396 22.7 21.4096Z" fill="white"/>
</g>
<defs>
<clipPath id="clip0_473_6709">
<rect width="48" height="48" fill="white"/>
</clipPath>
</defs>
</svg>
