<svg width="16" height="15" viewBox="0 0 16 15" fill="none" xmlns="http://www.w3.org/2000/svg">
<path d="M8 14.3936C7.484 13.9362 6.9008 13.4605 6.284 12.9543H6.276C4.10401 11.1792 1.64241 9.17065 0.555217 6.76387C0.198032 5.99764 0.00874142 5.16398 9.12476e-06 4.31871C-0.0023763 3.15889 0.463034 2.04705 1.29106 1.23449C2.11909 0.421925 3.23984 -0.0227734 4.40001 0.000898967C5.34451 0.00239005 6.26867 0.275225 7.0624 0.786901C7.41118 1.01316 7.72674 1.28685 8 1.60009C8.27479 1.28808 8.59044 1.01455 8.9384 0.786901C9.73178 0.275124 10.6557 0.00227311 11.6 0.000898967C12.7602 -0.0227734 13.8809 0.421925 14.7089 1.23449C15.537 2.04705 16.0024 3.15889 16 4.31871C15.9918 5.16533 15.8025 6.00041 15.4448 6.76787C14.3576 9.17465 11.8968 11.1824 9.7248 12.9543L9.7168 12.9607C9.0992 13.4637 8.5168 13.9394 8.0008 14.4L8 14.3936ZM4.40001 1.60009C3.65482 1.59077 2.93607 1.87582 2.40001 2.39329C1.88352 2.90036 1.59486 3.59511 1.59995 4.31871C1.60908 4.9348 1.74868 5.54197 2.00961 6.10021C2.52282 7.13865 3.2153 8.07845 4.05521 8.8764C4.84801 9.67599 5.76 10.45 6.5488 11.1009C6.7672 11.2808 6.9896 11.4623 7.212 11.6438L7.352 11.7581C7.5656 11.9325 7.7864 12.1132 8 12.2907L8.0104 12.2811L8.0152 12.2771H8.02L8.0272 12.2715H8.0312H8.0352L8.0496 12.2595L8.0824 12.2331L8.088 12.2283L8.0968 12.2219H8.1016L8.1088 12.2155L8.64 11.7797L8.7792 11.6654C9.004 11.4823 9.2264 11.3008 9.4448 11.1209C10.2336 10.47 11.1464 9.69678 11.9392 8.89319C12.7792 8.09564 13.4717 7.15608 13.9848 6.1178C14.2504 5.55472 14.392 4.9412 14.4 4.31871C14.4033 3.59735 14.1148 2.90526 13.6 2.39968C13.065 1.87988 12.3461 1.59248 11.6 1.60009C10.6895 1.59236 9.81915 1.97379 9.208 2.64836L8 4.03965L6.792 2.64836C6.18085 1.97379 5.31047 1.59236 4.40001 1.60009Z" fill="#424458"/>
</svg>
