<svg width="16" height="15" viewBox="0 0 16 15" fill="none" xmlns="http://www.w3.org/2000/svg">
<path d="M8 14.4009C7.484 13.9433 6.9008 13.4673 6.284 12.9609H6.276C4.10401 11.1849 1.64241 9.17528 0.555217 6.76728C0.198032 6.00067 0.00874142 5.16659 9.12476e-06 4.32089C-0.0023763 3.16048 0.463034 2.04808 1.29106 1.23511C2.11909 0.422138 3.23984 -0.0227849 4.40001 0.00089942C5.34451 0.00239126 6.26867 0.275364 7.0624 0.787297C7.41118 1.01367 7.72674 1.2875 8 1.6009C8.27479 1.28873 8.59043 1.01506 8.9384 0.787297C9.73179 0.275263 10.6557 0.00227426 11.6 0.00089942C12.7602 -0.0227849 13.8809 0.422138 14.7089 1.23511C15.537 2.04808 16.0024 3.16048 16 4.32089C15.9918 5.16794 15.8025 6.00344 15.4448 6.77128C14.3576 9.17928 11.8968 11.1881 9.7248 12.9609L9.7168 12.9673C9.0992 13.4705 8.5168 13.9465 8.0008 14.4073L8 14.4009ZM4.40001 1.6009C3.65482 1.59157 2.93607 1.87677 2.40001 2.39449C1.88352 2.90182 1.59486 3.59693 1.59995 4.32089C1.60908 4.93729 1.74868 5.54477 2.00961 6.10328C2.52282 7.14225 3.2153 8.08252 4.05521 8.88088C4.84801 9.68088 5.76 10.4553 6.5488 11.1065C6.7672 11.2865 6.9896 11.4681 7.212 11.6497L7.352 11.7641C7.5656 11.9385 7.7864 12.1193 8 12.2969L8.0104 12.2873L8.0152 12.2833H8.02L8.0272 12.2777H8.0312H8.0352L8.0496 12.2657L8.0824 12.2393L8.088 12.2345L8.0968 12.2281H8.1016L8.1088 12.2217L8.64 11.7857L8.7792 11.6713C9.004 11.4881 9.2264 11.3065 9.4448 11.1265C10.2336 10.4753 11.1464 9.70168 11.9392 8.89768C12.7792 8.09973 13.4717 7.15969 13.9848 6.12088C14.2504 5.55753 14.392 4.94369 14.4 4.32089C14.4033 3.59916 14.1148 2.90673 13.6 2.40089C13.065 1.88083 12.3461 1.59328 11.6 1.6009C10.6895 1.59316 9.81914 1.97479 9.208 2.64969L8 4.04169L6.792 2.64969C6.18085 1.97479 5.31047 1.59316 4.40001 1.6009Z" fill="white"/>
</svg>
