<svg width="16" height="16" viewBox="0 0 16 16" fill="none" xmlns="http://www.w3.org/2000/svg">
<path d="M7.99551 15.875C5.84731 15.875 5.59406 15.8636 4.75574 15.827C4.102 15.8055 3.45672 15.6726 2.84768 15.434C1.79394 15.0239 0.960704 14.1904 0.551026 13.1365C0.321628 12.5252 0.197898 11.8794 0.185133 11.2267C0.13623 10.3901 0.13623 10.1159 0.13623 7.98428C0.13623 5.82996 0.147583 5.57847 0.185133 4.74451C0.198177 4.09264 0.321903 3.44774 0.551026 2.83733C0.96026 1.78202 1.79485 0.947755 2.8503 0.538922C3.4604 0.30856 4.10547 0.184507 4.75749 0.172156C5.59144 0.125 5.86565 0.125 7.99551 0.125C10.1612 0.125 10.4101 0.136352 11.2353 0.172156C11.889 0.184614 12.5358 0.308654 13.1477 0.538922C14.2029 0.948218 15.0373 1.78233 15.447 2.83733C15.6803 3.45663 15.8046 4.11162 15.8146 4.77333C15.8635 5.6099 15.8635 5.88323 15.8635 8.01397C15.8635 10.1447 15.8513 10.4242 15.8146 11.2511C15.8016 11.9045 15.6776 12.5509 15.4479 13.1627C15.0371 14.2173 14.2027 15.0512 13.1477 15.4611C12.5366 15.69 11.8912 15.8138 11.2388 15.827C10.4048 15.875 10.1315 15.875 7.99551 15.875ZM7.96582 1.50736C5.82984 1.50736 5.60804 1.51784 4.77408 1.55539C4.27631 1.56198 3.78336 1.65384 3.31662 1.82697C2.62741 2.0907 2.08204 2.63385 1.8155 3.32198C1.64103 3.7938 1.54916 4.29215 1.54391 4.79516C1.49763 5.64134 1.49763 5.86315 1.49763 7.98428C1.49763 10.0801 1.50549 10.3342 1.54391 11.1751C1.55173 11.6731 1.64355 12.1661 1.8155 12.6335C2.08243 13.3212 2.6277 13.8639 3.31662 14.1276C3.78304 14.3019 4.27619 14.3938 4.77408 14.3992C5.61939 14.4481 5.84207 14.4481 7.96582 14.4481C10.1079 14.4481 10.3297 14.4376 11.1567 14.3992C11.6548 14.3931 12.1481 14.3013 12.615 14.1276C13.3001 13.8616 13.8419 13.3201 14.1083 12.6352C14.2824 12.163 14.3743 11.6644 14.3799 11.1612H14.3895C14.427 10.3263 14.427 10.1037 14.427 7.97031C14.427 5.83695 14.4174 5.61252 14.3799 4.77857C14.372 4.28121 14.2802 3.78874 14.1083 3.32198C13.8425 2.6361 13.3006 2.09357 12.615 1.82697C12.1482 1.65297 11.6548 1.56108 11.1567 1.55539C10.3123 1.50736 10.0913 1.50736 7.96582 1.50736ZM7.99551 12.0178C6.36252 12.0189 4.88971 11.0361 4.26398 9.52772C3.63824 8.01937 3.98283 6.2826 5.13703 5.1274C6.29123 3.9722 8.0277 3.62611 9.53659 4.25054C11.0455 4.87497 12.0296 6.34692 12.0299 7.97991C12.0275 10.2076 10.2232 12.0135 7.99551 12.0178ZM7.99551 5.35841C6.54866 5.35841 5.37575 6.53131 5.37575 7.97817C5.37575 9.42502 6.54866 10.5979 7.99551 10.5979C9.44236 10.5979 10.6153 9.42502 10.6153 7.97817C10.6119 6.53271 9.44097 5.36177 7.99551 5.35841ZM12.1871 4.73578C11.6679 4.73385 11.2483 4.31189 11.2493 3.79267C11.2502 3.27345 11.6714 2.85305 12.1906 2.85305C12.7098 2.85305 13.131 3.27345 13.132 3.79266C13.1322 4.04317 13.0327 4.28345 12.8554 4.46042C12.6781 4.63739 12.4376 4.73647 12.1871 4.73578Z" fill="white"/>
</svg>
