<svg width="30" height="16" viewBox="0 0 30 16" fill="none" xmlns="http://www.w3.org/2000/svg">
<path d="M0 7.96166C0.0270016 8.24077 0.147493 8.57096 0.317607 8.75057L6.12394 15.0619C6.68996 15.6222 7.57157 15.6724 8.16526 15.2591C8.75895 14.8459 8.86697 14.0003 8.39208 13.4841L4.47585 9.224L28.5483 9.224C29.3499 9.224 30 8.65873 30 7.96166C30 7.26459 29.3499 6.69932 28.5483 6.69932L4.47585 6.69932L8.39208 2.43925C8.8673 1.92299 8.74107 1.09621 8.16526 0.664186C7.53984 0.194592 6.59882 0.345156 6.12394 0.861415L0.317607 7.17274C0.0718887 7.43425 0.00438938 7.6262 0 7.96166Z" fill="white"/>
</svg>
