<svg width="16" height="13" viewBox="0 0 16 13" fill="none" xmlns="http://www.w3.org/2000/svg">
<path d="M1.05058 5.25287C1.32921 5.25287 1.59642 5.36355 1.79345 5.56058C1.99047 5.7576 2.10115 6.02482 2.10115 6.30345C2.10115 6.58208 1.99047 6.8493 1.79345 7.04632C1.59642 7.24334 1.32921 7.35402 1.05058 7.35402C0.771946 7.35402 0.504728 7.24334 0.307707 7.04632C0.110686 6.8493 0 6.58208 0 6.30345C0 6.02482 0.110686 5.7576 0.307707 5.56058C0.504728 5.36355 0.771946 5.25287 1.05058 5.25287Z" fill="#424458"/>
<path d="M1.05058 10.5058C1.32921 10.5058 1.59642 10.6165 1.79345 10.8135C1.99047 11.0105 2.10115 11.2777 2.10115 11.5564C2.10115 11.835 1.99047 12.1022 1.79345 12.2992C1.59642 12.4963 1.32921 12.607 1.05058 12.607C0.771946 12.607 0.504728 12.4963 0.307707 12.2992C0.110686 12.1022 0 11.835 0 11.5564C0 11.2777 0.110686 11.0105 0.307707 10.8135C0.504728 10.6165 0.771946 10.5058 1.05058 10.5058Z" fill="#424458"/>
<path d="M1.05058 0C1.32921 0 1.59642 0.110685 1.79345 0.307707C1.99047 0.504728 2.10115 0.771947 2.10115 1.05058C2.10115 1.32921 1.99047 1.59643 1.79345 1.79345C1.59642 1.99047 1.32921 2.10115 1.05058 2.10115C0.771946 2.10115 0.504728 1.99047 0.307707 1.79345C0.110686 1.59643 0 1.32921 0 1.05058C0 0.771947 0.110686 0.504728 0.307707 0.307707C0.504728 0.110685 0.771946 0 1.05058 0Z" fill="#424458"/>
<path d="M14.9493 0C15.2279 0 15.4951 0.110685 15.6922 0.307707C15.8892 0.504728 15.9999 0.771947 15.9999 1.05058C15.9999 1.32921 15.8892 1.59643 15.6922 1.79345C15.4951 1.99047 15.2279 2.10115 14.9493 2.10115H4.08329C3.80466 2.10115 3.53744 1.99047 3.34042 1.79345C3.1434 1.59643 3.03271 1.32921 3.03271 1.05058C3.03271 0.771947 3.1434 0.504728 3.34042 0.307707C3.53744 0.110685 3.80466 0 4.08329 0H14.9493Z" fill="#424458"/>
<path d="M14.9493 5.25287C15.2279 5.25287 15.4951 5.36355 15.6922 5.56058C15.8892 5.7576 15.9999 6.02482 15.9999 6.30345C15.9999 6.58208 15.8892 6.8493 15.6922 7.04632C15.4951 7.24334 15.2279 7.35402 14.9493 7.35402H4.08329C3.80466 7.35402 3.53744 7.24334 3.34042 7.04632C3.1434 6.8493 3.03271 6.58208 3.03271 6.30345C3.03271 6.02482 3.1434 5.7576 3.34042 5.56058C3.53744 5.36355 3.80466 5.25287 4.08329 5.25287H14.9493Z" fill="#424458"/>
<path d="M14.9493 10.5058C15.2279 10.5058 15.4951 10.6165 15.6922 10.8135C15.8892 11.0105 15.9999 11.2777 15.9999 11.5564C15.9999 11.835 15.8892 12.1022 15.6922 12.2992C15.4951 12.4963 15.2279 12.607 14.9493 12.607H4.08329C3.80466 12.607 3.53744 12.4963 3.34042 12.2992C3.1434 12.1022 3.03271 11.835 3.03271 11.5564C3.03271 11.2777 3.1434 11.0105 3.34042 10.8135C3.53744 10.6165 3.80466 10.5058 4.08329 10.5058H14.9493Z" fill="#424458"/>

</svg>
