<svg width="375" height="211" viewBox="0 0 375 211" fill="none" xmlns="http://www.w3.org/2000/svg">
<g clip-path="url(#clip0_473_6284)">
<path style="mix-blend-mode:multiply" opacity="0.7" d="M24.9343 113.501V109.583H85.3925V113.501H82.3037V133.219H85.3925V137.142H82.3037V156.86H85.3925V160.783H82.3037V177.343H166.537V96.8171H164.294V92.8984H269.254V96.8171H266.752V207.355H282.097V165.965H279.381V162.042H282.097V134.775H279.381L276.561 130.852H289.105V124.367H294.88V113.586H297.998V124.367H312.741V130.852H356.238L353.413 134.775H350.702V162.042H353.413V165.965H350.702V209.906H28.1674V160.783H24.9343V156.86H28.1674V137.142H24.9343V133.219H28.1674V113.501H24.9343Z" fill="url(#paint0_linear_473_6284)"/>
<path d="M156.127 119.11H106.343V141.165H156.127V119.11Z" fill="#F0F6FB"/>
<path d="M156.127 141.166H177.286V119.111H156.127V141.166Z" fill="#D2D6D9"/>
<path d="M181.25 119.11H103.07V122.95H181.25V119.11Z" fill="#C4C6CC"/>
<path d="M181.25 119.11H159.002V122.95H181.25V119.11Z" fill="#A1AAB3"/>
<path d="M148.039 127.301H139.35V141.165H148.039V127.301Z" fill="#878F96"/>
<path style="mix-blend-mode:screen" opacity="0.5" d="M140.439 141.166L143.866 127.769L148.029 128.41V141.166H140.439Z" fill="url(#paint1_linear_473_6284)"/>
<path d="M140.434 127.301H139.35V141.165H140.434V127.301Z" fill="#D2D6D9"/>
<path d="M131.272 127.301H114.425V136.053H131.272V127.301Z" fill="#04609E"/>
<path d="M117.295 127.301H114.425V136.053H117.295V127.301Z" fill="#D2D6D9"/>
<g style="mix-blend-mode:screen" opacity="0.8">
<path style="mix-blend-mode:screen" opacity="0.8" d="M120.21 127.301L117.295 131.006V136.053H119.23L126.149 127.301H120.21Z" fill="url(#paint2_linear_473_6284)"/>
<path style="mix-blend-mode:screen" opacity="0.8" d="M130.466 127.301L123.423 136.053H126.244L131.267 129.802V127.301H130.466Z" fill="url(#paint3_linear_473_6284)"/>
</g>
<path style="mix-blend-mode:multiply" d="M114.425 128.474L117.295 131.428L130.173 132.816V127.301H114.425V128.474Z" fill="url(#paint4_linear_473_6284)"/>
<path style="mix-blend-mode:multiply" opacity="0.8" d="M106.343 124.238L156.102 126.073L177.281 130.345V122.95H106.343V124.238Z" fill="url(#paint5_linear_473_6284)"/>
<path d="M110.501 141.325H53.0222V210.279H110.501V141.325Z" fill="#F0F6FB"/>
<path d="M110.506 210.279H177.306V141.325H110.506L110.506 210.279Z" fill="#DBDFE2"/>
<path d="M180.509 139.38H48.4014L49.8189 143.274H180.509V139.38Z" fill="#C4C6CC"/>
<path d="M180.509 139.38H110.501V143.274H180.509V139.38Z" fill="#A1AAB3"/>
<path d="M180.509 172.326H49.819V176.221H180.509V172.326Z" fill="#C4C6CC"/>
<path d="M180.509 172.326H110.501V176.221H180.509V172.326Z" fill="#A1AAB3"/>
<path d="M103.722 184.748H92.5352V210.279H103.722V184.748Z" fill="#B7C1CB"/>
<g style="mix-blend-mode:multiply">
<path d="M103.722 185.116H95.415V210.279H96.3601V186.066H103.722V185.116Z" fill="#B7C1CB"/>
</g>
<path d="M95.047 184.748H92.5352V210.279H95.047V184.748Z" fill="#DBDFE2"/>
<path d="M103.722 184.748H95.047V210.279H95.992V185.698H103.722V184.748Z" fill="white"/>
<path d="M177.321 207.151H110.501V210.28H178.738L177.321 207.151Z" fill="#39312B"/>
<path d="M110.501 207.151H53.0222L51.6046 210.28H110.501V207.151Z" fill="#5B4E42"/>
<g opacity="0.8">
<path opacity="0.8" d="M86.7803 184.748H60.9009V195.947H86.7803V184.748Z" fill="#04609E"/>
</g>
<path d="M63.4127 184.748H60.9009V195.947H63.4127V184.748Z" fill="#DBDFE2"/>
<g style="mix-blend-mode:screen" opacity="0.5">
<path style="mix-blend-mode:screen" opacity="0.5" d="M70.6946 184.748L63.4127 192.386V195.952H67.7351L78.5683 184.748H70.6946Z" fill="url(#paint6_linear_473_6284)"/>
<path style="mix-blend-mode:screen" opacity="0.5" d="M80.9757 184.748L69.9037 195.952H73.659L84.726 184.748H80.9757Z" fill="url(#paint7_linear_473_6284)"/>
</g>
<path style="mix-blend-mode:multiply" opacity="0.8" d="M53.0222 144.587L110.501 146.442L177.301 150.779V143.274H53.0222V144.587Z" fill="url(#paint8_linear_473_6284)"/>
<path style="mix-blend-mode:multiply" opacity="0.8" d="M53.0222 177.533L110.501 179.392L177.301 183.729V176.22H53.0222V177.533Z" fill="url(#paint9_linear_473_6284)"/>
<path opacity="0.8" d="M70.9234 147.477H60.9009V167.955H70.9234V147.477Z" fill="#04609E"/>
<g style="mix-blend-mode:screen" opacity="0.4">
<path style="mix-blend-mode:screen" opacity="0.4" d="M70.9233 155.572L67.8195 154.926L65.7703 161.878L70.9233 162.952V155.572Z" fill="url(#paint10_linear_473_6284)"/>
<path style="mix-blend-mode:screen" opacity="0.4" d="M64.3528 166.703H70.9233V163.679L65.5714 162.564L64.3528 166.703Z" fill="url(#paint11_linear_473_6284)"/>
</g>
<path d="M63.4077 147.477H60.9009V167.955H63.4077V147.477Z" fill="#DBDFE2"/>
<g style="mix-blend-mode:screen" opacity="0.5">
<path style="mix-blend-mode:screen" opacity="0.5" d="M63.4077 161.112L70.9233 153.33V149.53H70.8388L63.4077 157.323V161.112Z" fill="url(#paint12_linear_473_6284)"/>
<path style="mix-blend-mode:screen" opacity="0.5" d="M63.4077 163.892L70.9233 156.373V154.578L63.4077 162.097V163.892Z" fill="url(#paint13_linear_473_6284)"/>
</g>
<path opacity="0.8" d="M86.7753 147.477H76.7528V167.955H86.7753V147.477Z" fill="#04609E"/>
<g style="mix-blend-mode:screen" opacity="0.4">
<path style="mix-blend-mode:screen" opacity="0.4" d="M86.7753 155.572L83.6716 154.926L81.6223 161.878L86.7753 162.952V155.572Z" fill="url(#paint14_linear_473_6284)"/>
<path style="mix-blend-mode:screen" opacity="0.4" d="M80.2047 166.703H86.7753V163.679L81.4233 162.564L80.2047 166.703Z" fill="url(#paint15_linear_473_6284)"/>
</g>
<path d="M79.2597 147.477H76.7528V167.955H79.2597V147.477Z" fill="#DBDFE2"/>
<g style="mix-blend-mode:screen" opacity="0.5">
<path style="mix-blend-mode:screen" opacity="0.5" d="M79.2598 161.112L86.7754 153.33V149.53H86.6908L79.2598 157.323V161.112Z" fill="url(#paint16_linear_473_6284)"/>
<path style="mix-blend-mode:screen" opacity="0.5" d="M79.2598 163.892L86.7754 156.373V154.578L79.2598 162.097V163.892Z" fill="url(#paint17_linear_473_6284)"/>
</g>
<path opacity="0.8" d="M102.627 147.477H92.6047V167.955H102.627V147.477Z" fill="#04609E"/>
<g style="mix-blend-mode:screen" opacity="0.4">
<path style="mix-blend-mode:screen" opacity="0.4" d="M102.627 155.572L99.5234 154.926L97.4791 161.878L102.627 162.952V155.572Z" fill="url(#paint18_linear_473_6284)"/>
<path style="mix-blend-mode:screen" opacity="0.4" d="M96.0566 166.703H102.627V163.679L97.2753 162.564L96.0566 166.703Z" fill="url(#paint19_linear_473_6284)"/>
</g>
<path d="M95.1116 147.477H92.6047V167.955H95.1116V147.477Z" fill="#DBDFE2"/>
<g style="mix-blend-mode:screen" opacity="0.5">
<path style="mix-blend-mode:screen" opacity="0.5" d="M95.1117 161.112L102.627 153.33V149.53H102.543L95.1117 157.323V161.112Z" fill="url(#paint20_linear_473_6284)"/>
<path style="mix-blend-mode:screen" opacity="0.5" d="M95.1117 163.892L102.627 156.373V154.578L95.1117 162.097V163.892Z" fill="url(#paint21_linear_473_6284)"/>
</g>
<path style="mix-blend-mode:multiply" d="M60.9009 148.665L63.4077 151.659L70.9234 153.061V147.477H60.9009V148.665Z" fill="url(#paint22_linear_473_6284)"/>
<path style="mix-blend-mode:multiply" d="M76.7528 148.665L79.2597 151.659L86.7753 153.061V147.477H76.7528V148.665Z" fill="url(#paint23_linear_473_6284)"/>
<path style="mix-blend-mode:multiply" d="M92.6047 148.665L95.1116 151.659L102.627 153.061V147.477H92.6047V148.665Z" fill="url(#paint24_linear_473_6284)"/>
<path style="mix-blend-mode:multiply" d="M60.9009 185.937L63.4077 188.93L76.2803 190.338V184.748H60.9009V185.937Z" fill="url(#paint25_linear_473_6284)"/>
<path d="M195.779 188.597C192.295 188.594 188.864 189.445 185.786 191.077C182.709 192.709 180.079 195.071 178.127 197.956C176.156 197.124 174.01 196.793 171.879 196.991C169.749 197.19 167.701 197.912 165.918 199.093C164.134 200.275 162.671 201.879 161.658 203.763C160.645 205.647 160.113 207.752 160.111 209.891H217.097C217.093 204.241 214.846 198.824 210.848 194.831C206.85 190.838 201.43 188.595 195.779 188.597Z" fill="url(#paint26_linear_473_6284)"/>
<path d="M135.614 19.7822C135.545 14.0882 138.479 11.1293 144.567 11.0597C144.567 11.0597 146.413 0 158.992 0C169.283 0 170.725 8.68764 170.88 8.35446C175.794 6.86259 179.48 7.61849 183.17 11.7957C189.432 10.5674 196.873 13.2578 197.789 19.7822C197.789 24.4617 135.614 24.4617 135.614 19.7822Z" fill="url(#paint27_linear_473_6284)"/>
<path d="M287.722 48.0928H254.725V70.3962H287.722V48.0928Z" fill="#C47357"/>
<path d="M287.717 70.3965H302.629V48.0931H287.717V70.3965Z" fill="#8F4D3E"/>
<path style="mix-blend-mode:multiply" d="M254.725 53.0557L287.722 56.0842L302.634 62.0019V51.9766H254.725V53.0557Z" fill="url(#paint28_linear_473_6284)"/>
<path d="M275.621 56.3779H266.832V70.3965H275.621V56.3779Z" fill="#39312B"/>
<path style="mix-blend-mode:screen" opacity="0.3" d="M267.941 70.3966L271.408 58.6357L275.616 59.2772V70.3966H267.941Z" fill="url(#paint29_linear_473_6284)"/>
<path d="M267.931 56.3779H266.832V70.3965H267.931V56.3779Z" fill="#8F4D3E"/>
<path d="M260.898 70.3965H203.613V209.906H260.898V70.3965Z" fill="#C47357"/>
<path d="M260.898 209.906H327.474V70.3966H260.898V209.906Z" fill="#8F4D3E"/>
<path d="M205.971 112.263H202.971V115.192H205.971V112.263Z" fill="#E9DCCE"/>
<path d="M207.319 116.679H202.971V119.608H207.319V116.679Z" fill="#E9DCCE"/>
<path d="M205.971 121.095H202.971V124.024H205.971V121.095Z" fill="#E9DCCE"/>
<path d="M207.319 125.511H202.971V128.44H207.319V125.511Z" fill="#E9DCCE"/>
<path d="M205.971 129.927H202.971V132.856H205.971V129.927Z" fill="#E9DCCE"/>
<path d="M207.319 134.338H202.971V137.268H207.319V134.338Z" fill="#E9DCCE"/>
<path d="M205.971 145.1H202.971V148.029H205.971V145.1Z" fill="#E9DCCE"/>
<path d="M207.319 149.516H202.971V152.445H207.319V149.516Z" fill="#E9DCCE"/>
<path d="M205.971 153.931H202.971V156.86H205.971V153.931Z" fill="#E9DCCE"/>
<path d="M207.319 158.347H202.971V161.276H207.319V158.347Z" fill="#E9DCCE"/>
<path d="M205.971 162.763H202.971V165.692H205.971V162.763Z" fill="#E9DCCE"/>
<path d="M207.319 167.179H202.971V170.108H207.319V167.179Z" fill="#E9DCCE"/>
<path d="M205.971 177.936H202.971V180.865H205.971V177.936Z" fill="#E9DCCE"/>
<path d="M207.319 182.352H202.971V185.281H207.319V182.352Z" fill="#E9DCCE"/>
<path d="M205.971 186.768H202.971V189.697H205.971V186.768Z" fill="#E9DCCE"/>
<path d="M207.319 191.183H202.971V194.112H207.319V191.183Z" fill="#E9DCCE"/>
<path d="M205.971 195.599H202.971V198.528H205.971V195.599Z" fill="#E9DCCE"/>
<path d="M207.319 200.015H202.971V202.944H207.319V200.015Z" fill="#E9DCCE"/>
<path d="M205.971 77.6416H202.971V80.5713H205.971V77.6416Z" fill="#E9DCCE"/>
<path d="M207.319 82.0576H202.971V84.9873H207.319V82.0576Z" fill="#E9DCCE"/>
<path d="M205.971 86.4736H202.971V89.4033H205.971V86.4736Z" fill="#E9DCCE"/>
<path d="M207.319 90.8896H202.971V93.8193H207.319V90.8896Z" fill="#E9DCCE"/>
<path d="M205.971 95.3057H202.971V98.2353H205.971V95.3057Z" fill="#E9DCCE"/>
<path d="M207.319 99.7217H202.971V102.651H207.319V99.7217Z" fill="#E9DCCE"/>
<path d="M325.116 170.107H328.116V167.178H325.116V170.107Z" fill="#CCBDAD"/>
<path d="M323.768 165.692H328.116V162.763H323.768V165.692Z" fill="#CCBDAD"/>
<path d="M325.116 161.276H328.116V158.347H325.116V161.276Z" fill="#CCBDAD"/>
<path d="M323.768 156.865H328.116V153.936H323.768V156.865Z" fill="#CCBDAD"/>
<path d="M325.116 152.449H328.116V149.52H325.116V152.449Z" fill="#CCBDAD"/>
<path d="M323.768 148.033H328.116V145.104H323.768V148.033Z" fill="#CCBDAD"/>
<path d="M325.116 137.271H328.116V134.342H325.116V137.271Z" fill="#CCBDAD"/>
<path d="M323.768 132.855H328.116V129.926H323.768V132.855Z" fill="#CCBDAD"/>
<path d="M325.116 128.44H328.116V125.511H325.116V128.44Z" fill="#CCBDAD"/>
<path d="M323.768 124.024H328.116V121.095H323.768V124.024Z" fill="#CCBDAD"/>
<path d="M325.116 119.608H328.116V116.679H325.116V119.608Z" fill="#CCBDAD"/>
<path d="M323.768 115.192H328.116V112.263H323.768V115.192Z" fill="#CCBDAD"/>
<path d="M325.116 102.655H328.116V99.7256H325.116V102.655Z" fill="#CCBDAD"/>
<path d="M323.768 98.2393H328.116V95.3096H323.768V98.2393Z" fill="#CCBDAD"/>
<path d="M325.116 93.8184H328.116V90.8887H325.116V93.8184Z" fill="#CCBDAD"/>
<path d="M323.768 89.4023H328.116V86.4727H323.768V89.4023Z" fill="#CCBDAD"/>
<path d="M325.116 84.9863H328.116V82.0567H325.116V84.9863Z" fill="#CCBDAD"/>
<path d="M323.768 80.5713H328.116V77.6416H323.768V80.5713Z" fill="#CCBDAD"/>
<path d="M325.116 202.949H328.116V200.02H325.116V202.949Z" fill="#CCBDAD"/>
<path d="M323.768 198.528H328.116V195.599H323.768V198.528Z" fill="#CCBDAD"/>
<path d="M325.116 194.112H328.116V191.183H325.116V194.112Z" fill="#CCBDAD"/>
<path d="M323.768 189.696H328.116V186.767H323.768V189.696Z" fill="#CCBDAD"/>
<path d="M325.116 185.28H328.116V182.351H325.116V185.28Z" fill="#CCBDAD"/>
<path d="M323.768 180.864H328.116V177.935H323.768V180.864Z" fill="#CCBDAD"/>
<path d="M258.018 98.2393H262.365V95.3096H258.018V98.2393Z" fill="#E9DCCE"/>
<path d="M258.018 89.4023H262.365V86.4727H258.018V89.4023Z" fill="#E9DCCE"/>
<path d="M258.018 80.292H262.365V77.3623H258.018V80.292Z" fill="#E9DCCE"/>
<path d="M259.426 84.9863H263.773V82.0567H259.426V84.9863Z" fill="#E9DCCE"/>
<path d="M259.426 93.8184H263.773V90.8887H259.426V93.8184Z" fill="#E9DCCE"/>
<path d="M259.426 102.655H263.773V99.7256H259.426V102.655Z" fill="#E9DCCE"/>
<path d="M258.018 133.14H262.365V130.21H258.018V133.14Z" fill="#E9DCCE"/>
<path d="M258.018 124.312H262.365V121.383H258.018V124.312Z" fill="#E9DCCE"/>
<path d="M258.018 115.192H262.365V112.263H258.018V115.192Z" fill="#E9DCCE"/>
<path d="M259.426 119.896H263.773V116.967H259.426V119.896Z" fill="#E9DCCE"/>
<path d="M259.426 128.729H263.773V125.799H259.426V128.729Z" fill="#E9DCCE"/>
<path d="M259.426 137.556H263.773V134.626H259.426V137.556Z" fill="#E9DCCE"/>
<path d="M258.018 166.005H262.365V163.075H258.018V166.005Z" fill="#E9DCCE"/>
<path d="M258.018 157.174H262.365V154.244H258.018V157.174Z" fill="#E9DCCE"/>
<path d="M258.018 148.058H262.365V145.128H258.018V148.058Z" fill="#E9DCCE"/>
<path d="M259.426 152.763H263.773V149.833H259.426V152.763Z" fill="#E9DCCE"/>
<path d="M259.426 161.589H263.773V158.659H259.426V161.589Z" fill="#E9DCCE"/>
<path d="M259.426 170.421H263.773V167.491H259.426V170.421Z" fill="#E9DCCE"/>
<path d="M258.018 198.816H262.365V195.887H258.018V198.816Z" fill="#E9DCCE"/>
<path d="M258.018 189.984H262.365V187.055H258.018V189.984Z" fill="#E9DCCE"/>
<path d="M258.018 180.864H262.365V177.935H258.018V180.864Z" fill="#E9DCCE"/>
<path d="M259.426 185.568H263.773V182.639H259.426V185.568Z" fill="#E9DCCE"/>
<path d="M259.426 194.4H263.773V191.471H259.426V194.4Z" fill="#E9DCCE"/>
<path d="M259.426 203.232H263.773V200.303H259.426V203.232Z" fill="#E9DCCE"/>
<path d="M262.365 95.3057H260.898V98.2353H262.365V95.3057Z" fill="#CCBDAD"/>
<path d="M262.365 86.4736H260.898V89.4033H262.365V86.4736Z" fill="#CCBDAD"/>
<path d="M262.365 77.3584H260.898V80.288H262.365V77.3584Z" fill="#CCBDAD"/>
<path d="M263.778 82.0576H260.898V84.9873H263.778V82.0576Z" fill="#CCBDAD"/>
<path d="M263.778 90.8896H260.898V93.8193H263.778V90.8896Z" fill="#CCBDAD"/>
<path d="M263.778 99.7217H260.898V102.651H263.778V99.7217Z" fill="#CCBDAD"/>
<path d="M262.365 130.21H260.898V133.14H262.365V130.21Z" fill="#CCBDAD"/>
<path d="M262.365 121.379H260.898V124.309H262.365V121.379Z" fill="#CCBDAD"/>
<path d="M262.365 112.263H260.898V115.192H262.365V112.263Z" fill="#CCBDAD"/>
<path d="M263.778 116.963H260.898V119.893H263.778V116.963Z" fill="#CCBDAD"/>
<path d="M263.778 125.794H260.898V128.724H263.778V125.794Z" fill="#CCBDAD"/>
<path d="M263.778 134.626H260.898V137.556H263.778V134.626Z" fill="#CCBDAD"/>
<path d="M262.365 163.076H260.898V166.006H262.365V163.076Z" fill="#CCBDAD"/>
<path d="M262.365 154.244H260.898V157.174H262.365V154.244Z" fill="#CCBDAD"/>
<path d="M262.365 145.129H260.898V148.059H262.365V145.129Z" fill="#CCBDAD"/>
<path d="M263.778 149.828H260.898V152.758H263.778V149.828Z" fill="#CCBDAD"/>
<path d="M263.778 158.66H260.898V161.59H263.778V158.66Z" fill="#CCBDAD"/>
<path d="M263.778 167.492H260.898V170.422H263.778V167.492Z" fill="#CCBDAD"/>
<path d="M262.365 195.888H260.898V198.817H262.365V195.888Z" fill="#CCBDAD"/>
<path d="M262.365 187.056H260.898V189.985H262.365V187.056Z" fill="#CCBDAD"/>
<path d="M262.365 177.936H260.898V180.865H262.365V177.936Z" fill="#CCBDAD"/>
<path d="M263.778 182.64H260.898V185.569H263.778V182.64Z" fill="#CCBDAD"/>
<path d="M263.778 191.472H260.898V194.401H263.778V191.472Z" fill="#CCBDAD"/>
<path d="M263.778 200.299H260.898V203.228H263.778V200.299Z" fill="#CCBDAD"/>
<path d="M306.648 48.0928H251.418V51.9724H306.648V48.0928Z" fill="#E9DCCE"/>
<path d="M306.643 48.0928H290.632V51.9724H306.643V48.0928Z" fill="#B98E83"/>
<path d="M332.08 70.3965H199.007L200.42 74.2811H330.667L332.08 70.3965Z" fill="#E9DCCE"/>
<path d="M332.08 70.3965H260.898V74.2811H330.667L332.08 70.3965Z" fill="#B98E83"/>
<path d="M330.672 106.405H200.42V110.285H330.672V106.405Z" fill="#E1AC9D"/>
<path d="M330.672 106.405H260.898V110.285H330.672V106.405Z" fill="#B98E83"/>
<path d="M330.672 139.246H200.42V143.126H330.672V139.246Z" fill="#E1AC9D"/>
<path d="M330.672 139.246H260.898V143.126H330.672V139.246Z" fill="#B98E83"/>
<path d="M330.672 172.082H200.42V175.962H330.672V172.082Z" fill="#E1AC9D"/>
<path d="M330.672 172.082H260.898V175.962H330.672V172.082Z" fill="#B98E83"/>
<path d="M222.469 65.4531H208.502V70.3962H222.469V65.4531Z" fill="#39312B"/>
<path d="M222.464 65.4531H217.088V70.3962H222.464V65.4531Z" fill="#26211D"/>
<g opacity="0.8">
<path opacity="0.8" d="M236.063 184.47H211.467V206.768H236.063V184.47Z" fill="#04609E"/>
</g>
<path d="M213.969 184.47H211.467V206.768H213.969V184.47Z" fill="#8F4D3E"/>
<path d="M236.063 185.41V184.465H213.969V206.768H214.914V199.473H236.063V198.528H214.914V185.41H236.063Z" fill="white"/>
<path style="mix-blend-mode:multiply" d="M211.467 193.615L213.969 196.594L236.063 203.233V184.465H211.467V193.615Z" fill="url(#paint30_linear_473_6284)"/>
<path d="M253.044 184.465H244.494V209.906H253.044V184.465Z" fill="#39312B"/>
<path d="M246.996 184.465H244.494V209.906H246.996V184.465Z" fill="#8F4D3E"/>
<path opacity="0.8" d="M221.37 80.9434H211.358V101.402H221.37V80.9434Z" fill="#04609E"/>
<g style="mix-blend-mode:screen" opacity="0.4">
<path style="mix-blend-mode:screen" opacity="0.4" d="M221.37 89.0302L218.271 88.3887L216.227 95.3358L221.37 96.405V89.0302Z" fill="url(#paint31_linear_473_6284)"/>
<path style="mix-blend-mode:screen" opacity="0.4" d="M214.804 100.151H221.37V97.1317L216.023 96.0176L214.804 100.151Z" fill="url(#paint32_linear_473_6284)"/>
</g>
<path d="M213.859 80.9434H211.358V101.402H213.859V80.9434Z" fill="#8F4D3E"/>
<path d="M222.469 100.149H210.258V102.651H222.469V100.149Z" fill="#E9DCCE"/>
<path d="M224.056 100.149H222.469V102.651H224.056V100.149Z" fill="#CCBDAD"/>
<g style="mix-blend-mode:screen" opacity="0.2">
<g style="mix-blend-mode:screen" opacity="0.2">
<path d="M213.864 94.565L221.37 86.7924V82.998H221.286L213.864 90.7806V94.565Z" fill="#04609E"/>
</g>
<g style="mix-blend-mode:screen" opacity="0.2">
<path d="M213.864 97.3453L221.37 89.8313V88.041L213.864 95.5501V97.3453Z" fill="#04609E"/>
</g>
</g>
<path d="M221.37 81.8882V80.9434H213.864V93.848V94.7929V100.149H214.804V94.7929H221.37V93.848H214.804V81.8882H221.37Z" fill="white"/>
<path opacity="0.8" d="M237.207 80.9434H227.194V101.402H237.207V80.9434Z" fill="#04609E"/>
<g style="mix-blend-mode:screen" opacity="0.4">
<path style="mix-blend-mode:screen" opacity="0.4" d="M237.207 89.0302L234.108 88.3887L232.064 95.3358L237.207 96.405V89.0302Z" fill="url(#paint33_linear_473_6284)"/>
<path style="mix-blend-mode:screen" opacity="0.4" d="M230.641 100.151H237.207V97.1317L231.86 96.0176L230.641 100.151Z" fill="url(#paint34_linear_473_6284)"/>
</g>
<path d="M229.696 80.9434H227.194V101.402H229.696V80.9434Z" fill="#8F4D3E"/>
<path d="M238.306 100.149H226.095V102.651H238.306V100.149Z" fill="#E9DCCE"/>
<path d="M239.893 100.149H238.306V102.651H239.893V100.149Z" fill="#CCBDAD"/>
<g style="mix-blend-mode:screen" opacity="0.2">
<g style="mix-blend-mode:screen" opacity="0.2">
<path d="M229.701 94.565L237.207 86.7924V82.998H237.123L229.701 90.7806V94.565Z" fill="#04609E"/>
</g>
<g style="mix-blend-mode:screen" opacity="0.2">
<path d="M229.701 97.3453L237.207 89.8313V88.041L229.701 95.5501V97.3453Z" fill="#04609E"/>
</g>
</g>
<path d="M237.207 81.8882V80.9434H229.701V93.848V94.7929V100.149H230.641V94.7929H237.207V93.848H230.641V81.8882H237.207Z" fill="white"/>
<path opacity="0.8" d="M253.044 80.9434H243.031V101.402H253.044V80.9434Z" fill="#04609E"/>
<g style="mix-blend-mode:screen" opacity="0.4">
<path style="mix-blend-mode:screen" opacity="0.4" d="M253.044 89.0302L249.945 88.3887L247.896 95.3358L253.044 96.405V89.0302Z" fill="url(#paint35_linear_473_6284)"/>
<path style="mix-blend-mode:screen" opacity="0.4" d="M246.478 100.151H253.044V97.1317L247.697 96.0176L246.478 100.151Z" fill="url(#paint36_linear_473_6284)"/>
</g>
<path d="M245.533 80.9434H243.031V101.402H245.533V80.9434Z" fill="#8F4D3E"/>
<path d="M254.143 100.149H241.932V102.651H254.143V100.149Z" fill="#E9DCCE"/>
<path d="M255.73 100.149H254.143V102.651H255.73V100.149Z" fill="#CCBDAD"/>
<g style="mix-blend-mode:screen" opacity="0.2">
<g style="mix-blend-mode:screen" opacity="0.2">
<path d="M245.533 94.565L253.044 86.7924V82.998H252.96L245.533 90.7806V94.565Z" fill="#04609E"/>
</g>
<g style="mix-blend-mode:screen" opacity="0.2">
<path d="M245.533 97.3453L253.044 89.8313V88.041L245.533 95.5501V97.3453Z" fill="#04609E"/>
</g>
</g>
<path d="M253.044 81.8882V80.9434H245.533V93.848V94.7929V100.149H246.478V94.7929H253.044V93.848H246.478V81.8882H253.044Z" fill="white"/>
<path style="mix-blend-mode:multiply" d="M211.358 82.1319L213.864 85.1206L221.37 86.523V80.9434H211.358V82.1319Z" fill="url(#paint37_linear_473_6284)"/>
<path style="mix-blend-mode:multiply" d="M227.194 82.1319L229.701 85.1206L237.207 86.523V80.9434H227.194V82.1319Z" fill="url(#paint38_linear_473_6284)"/>
<path style="mix-blend-mode:multiply" d="M243.031 82.1319L245.533 85.1206L253.044 86.523V80.9434H243.031V82.1319Z" fill="url(#paint39_linear_473_6284)"/>
<path opacity="0.8" d="M221.37 115.565H211.358V136.024H221.37V115.565Z" fill="#04609E"/>
<g style="mix-blend-mode:screen" opacity="0.4">
<path style="mix-blend-mode:screen" opacity="0.4" d="M221.37 123.651L218.271 123.005L216.227 129.952L221.37 131.026V123.651Z" fill="url(#paint40_linear_473_6284)"/>
<path style="mix-blend-mode:screen" opacity="0.4" d="M214.804 134.771H221.37V131.752L216.023 130.633L214.804 134.771Z" fill="url(#paint41_linear_473_6284)"/>
</g>
<path d="M213.859 115.565H211.358V136.024H213.859V115.565Z" fill="#8F4D3E"/>
<path d="M222.469 134.771H210.258V137.272H222.469V134.771Z" fill="#E9DCCE"/>
<path d="M224.056 134.771H222.469V137.272H224.056V134.771Z" fill="#CCBDAD"/>
<g style="mix-blend-mode:screen" opacity="0.2">
<g style="mix-blend-mode:screen" opacity="0.2">
<path d="M213.864 129.186L221.37 121.409V117.614H221.286L213.864 125.402V129.186Z" fill="#04609E"/>
</g>
<g style="mix-blend-mode:screen" opacity="0.2">
<path d="M213.864 131.966L221.37 124.447V122.662L213.864 130.166V131.966Z" fill="#04609E"/>
</g>
</g>
<path d="M221.37 116.505V115.565H213.864V128.465V129.41V134.771H214.804V129.41H221.37V128.465H214.804V116.505H221.37Z" fill="white"/>
<path opacity="0.8" d="M237.207 115.565H227.194V136.024H237.207V115.565Z" fill="#04609E"/>
<g style="mix-blend-mode:screen" opacity="0.4">
<path style="mix-blend-mode:screen" opacity="0.4" d="M237.207 123.651L234.108 123.005L232.064 129.952L237.207 131.026V123.651Z" fill="url(#paint42_linear_473_6284)"/>
<path style="mix-blend-mode:screen" opacity="0.4" d="M230.641 134.771H237.207V131.752L231.86 130.633L230.641 134.771Z" fill="url(#paint43_linear_473_6284)"/>
</g>
<path d="M229.696 115.565H227.194V136.024H229.696V115.565Z" fill="#8F4D3E"/>
<path d="M238.306 134.771H226.095V137.272H238.306V134.771Z" fill="#E9DCCE"/>
<path d="M239.893 134.771H238.306V137.272H239.893V134.771Z" fill="#CCBDAD"/>
<g style="mix-blend-mode:screen" opacity="0.2">
<g style="mix-blend-mode:screen" opacity="0.2">
<path d="M229.701 129.186L237.207 121.409V117.614H237.123L229.701 125.402V129.186Z" fill="#04609E"/>
</g>
<g style="mix-blend-mode:screen" opacity="0.2">
<path d="M229.701 131.966L237.207 124.447V122.662L229.701 130.166V131.966Z" fill="#04609E"/>
</g>
</g>
<path d="M237.207 116.505V115.565H229.701V128.465V129.41V134.771H230.641V129.41H237.207V128.465H230.641V116.505H237.207Z" fill="white"/>
<path opacity="0.8" d="M253.044 115.565H243.031V136.024H253.044V115.565Z" fill="#04609E"/>
<g style="mix-blend-mode:screen" opacity="0.4">
<path style="mix-blend-mode:screen" opacity="0.4" d="M253.044 123.651L249.945 123.005L247.896 129.952L253.044 131.026V123.651Z" fill="url(#paint44_linear_473_6284)"/>
<path style="mix-blend-mode:screen" opacity="0.4" d="M246.478 134.771H253.044V131.752L247.697 130.633L246.478 134.771Z" fill="url(#paint45_linear_473_6284)"/>
</g>
<path d="M245.533 115.565H243.031V136.024H245.533V115.565Z" fill="#8F4D3E"/>
<path d="M254.143 134.771H241.932V137.272H254.143V134.771Z" fill="#E9DCCE"/>
<path d="M255.73 134.771H254.143V137.272H255.73V134.771Z" fill="#CCBDAD"/>
<g style="mix-blend-mode:screen" opacity="0.2">
<g style="mix-blend-mode:screen" opacity="0.2">
<path d="M245.533 129.186L253.044 121.409V117.614H252.96L245.533 125.402V129.186Z" fill="#04609E"/>
</g>
<g style="mix-blend-mode:screen" opacity="0.2">
<path d="M245.533 131.966L253.044 124.447V122.662L245.533 130.166V131.966Z" fill="#04609E"/>
</g>
</g>
<path d="M253.044 116.505V115.565H245.533V128.465V129.41V134.771H246.478V129.41H253.044V128.465H246.478V116.505H253.044Z" fill="white"/>
<path style="mix-blend-mode:multiply" d="M211.358 116.744L213.864 119.738L221.37 121.14V115.561H211.358V116.744Z" fill="url(#paint46_linear_473_6284)"/>
<path style="mix-blend-mode:multiply" d="M227.194 116.744L229.701 119.738L237.207 121.14V115.561H227.194V116.744Z" fill="url(#paint47_linear_473_6284)"/>
<path style="mix-blend-mode:multiply" d="M243.031 116.744L245.533 119.738L253.044 121.14V115.561H243.031V116.744Z" fill="url(#paint48_linear_473_6284)"/>
<path opacity="0.8" d="M221.37 148.401H211.358V168.86H221.37V148.401Z" fill="#04609E"/>
<g style="mix-blend-mode:screen" opacity="0.4">
<path style="mix-blend-mode:screen" opacity="0.4" d="M221.37 156.487L218.271 155.841L216.227 162.788L221.37 163.862V156.487Z" fill="url(#paint49_linear_473_6284)"/>
<path style="mix-blend-mode:screen" opacity="0.4" d="M214.804 167.608H221.37V164.589L216.023 163.475L214.804 167.608Z" fill="url(#paint50_linear_473_6284)"/>
</g>
<path d="M213.859 148.401H211.358V168.86H213.859V148.401Z" fill="#8F4D3E"/>
<path d="M222.469 167.606H210.258V170.108H222.469V167.606Z" fill="#E9DCCE"/>
<path d="M224.056 167.606H222.469V170.108H224.056V167.606Z" fill="#CCBDAD"/>
<g style="mix-blend-mode:screen" opacity="0.2">
<g style="mix-blend-mode:screen" opacity="0.2">
<path d="M213.864 162.022L221.37 154.244V150.455H221.286L213.864 158.238V162.022Z" fill="#04609E"/>
</g>
<g style="mix-blend-mode:screen" opacity="0.2">
<path d="M213.864 164.802L221.37 157.288V155.498L213.864 163.007V164.802Z" fill="#04609E"/>
</g>
</g>
<path d="M221.37 149.346V148.401H213.864V161.306V162.246V167.607H214.804V162.246H221.37V161.306H214.804V149.346H221.37Z" fill="white"/>
<path opacity="0.8" d="M237.207 148.401H227.194V168.86H237.207V148.401Z" fill="#04609E"/>
<g style="mix-blend-mode:screen" opacity="0.4">
<path style="mix-blend-mode:screen" opacity="0.4" d="M237.207 156.487L234.108 155.841L232.064 162.788L237.207 163.862V156.487Z" fill="url(#paint51_linear_473_6284)"/>
<path style="mix-blend-mode:screen" opacity="0.4" d="M230.641 167.608H237.207V164.589L231.86 163.475L230.641 167.608Z" fill="url(#paint52_linear_473_6284)"/>
</g>
<path d="M229.696 148.401H227.194V168.86H229.696V148.401Z" fill="#8F4D3E"/>
<path d="M238.306 167.606H226.095V170.108H238.306V167.606Z" fill="#E9DCCE"/>
<path d="M239.893 167.606H238.306V170.108H239.893V167.606Z" fill="#CCBDAD"/>
<g style="mix-blend-mode:screen" opacity="0.2">
<g style="mix-blend-mode:screen" opacity="0.2">
<path d="M229.701 162.022L237.207 154.244V150.455H237.123L229.701 158.238V162.022Z" fill="#04609E"/>
</g>
<g style="mix-blend-mode:screen" opacity="0.2">
<path d="M229.701 164.802L237.207 157.288V155.498L229.701 163.007V164.802Z" fill="#04609E"/>
</g>
</g>
<path d="M237.207 149.346V148.401H229.701V161.306V162.246V167.607H230.641V162.246H237.207V161.306H230.641V149.346H237.207Z" fill="white"/>
<path opacity="0.8" d="M253.044 148.401H243.031V168.86H253.044V148.401Z" fill="#04609E"/>
<g style="mix-blend-mode:screen" opacity="0.4">
<path style="mix-blend-mode:screen" opacity="0.4" d="M253.044 156.487L249.945 155.841L247.896 162.788L253.044 163.862V156.487Z" fill="url(#paint53_linear_473_6284)"/>
<path style="mix-blend-mode:screen" opacity="0.4" d="M246.478 167.608H253.044V164.589L247.697 163.475L246.478 167.608Z" fill="url(#paint54_linear_473_6284)"/>
</g>
<path d="M245.533 148.401H243.031V168.86H245.533V148.401Z" fill="#8F4D3E"/>
<path d="M254.143 167.606H241.932V170.108H254.143V167.606Z" fill="#E9DCCE"/>
<path d="M255.73 167.606H254.143V170.108H255.73V167.606Z" fill="#CCBDAD"/>
<g style="mix-blend-mode:screen" opacity="0.2">
<g style="mix-blend-mode:screen" opacity="0.2">
<path d="M245.533 162.022L253.044 154.244V150.455H252.96L245.533 158.238V162.022Z" fill="#04609E"/>
</g>
<g style="mix-blend-mode:screen" opacity="0.2">
<path d="M245.533 164.802L253.044 157.288V155.498L245.533 163.007V164.802Z" fill="#04609E"/>
</g>
</g>
<path d="M253.044 149.346V148.401H245.533V161.306V162.246V167.607H246.478V162.246H253.044V161.306H246.478V149.346H253.044Z" fill="white"/>
<path style="mix-blend-mode:multiply" d="M211.358 149.585L213.864 152.574L221.37 153.976V148.396H211.358V149.585Z" fill="url(#paint55_linear_473_6284)"/>
<path style="mix-blend-mode:multiply" d="M227.194 149.585L229.701 152.574L237.207 153.976V148.396H227.194V149.585Z" fill="url(#paint56_linear_473_6284)"/>
<path style="mix-blend-mode:multiply" d="M243.031 149.585L245.533 152.574L253.044 153.976V148.396H243.031V149.585Z" fill="url(#paint57_linear_473_6284)"/>
<path d="M260.898 206.788H201.126L200.42 209.907H260.898V206.788Z" fill="#5B4E42"/>
<path d="M329.966 206.788H260.898V209.907H330.667L329.966 206.788Z" fill="#39312B"/>
<path style="mix-blend-mode:multiply" d="M203.613 75.2251L260.898 79.3775L327.474 81.5109V74.2803H260.898H203.613V75.2251Z" fill="url(#paint58_linear_473_6284)"/>
<path style="mix-blend-mode:multiply" d="M203.613 111.234L260.898 114.909L327.474 117.52V110.289H260.898H203.613V111.234Z" fill="url(#paint59_linear_473_6284)"/>
<path style="mix-blend-mode:multiply" d="M203.613 144.07L260.898 148.222L327.474 150.361V143.125H260.898H203.613V144.07Z" fill="url(#paint60_linear_473_6284)"/>
<path style="mix-blend-mode:multiply" d="M203.613 176.911L260.898 181.063L327.474 183.197V175.961H260.898H203.613V176.911Z" fill="url(#paint61_linear_473_6284)"/>
<path d="M213.457 181.257C211.841 181.258 210.293 181.901 209.151 183.043C208.01 184.185 207.368 185.734 207.368 187.349V189.407C208.536 188.825 209.887 188.729 211.126 189.141C212.364 189.553 213.388 190.439 213.974 191.605C213.974 191.021 214.206 190.461 214.619 190.048C215.032 189.635 215.593 189.402 216.177 189.402C216.762 189.402 217.322 189.635 217.735 190.048C218.149 190.461 218.381 191.021 218.381 191.605C218.381 191.021 218.613 190.461 219.026 190.048C219.439 189.635 220 189.402 220.584 189.402C221.169 189.402 221.729 189.635 222.142 190.048C222.555 190.461 222.788 191.021 222.788 191.605C222.815 191.04 223.058 190.506 223.468 190.116C223.878 189.725 224.422 189.507 224.989 189.507C225.555 189.507 226.099 189.725 226.509 190.116C226.919 190.506 227.163 191.04 227.19 191.605C227.479 191.606 227.765 191.55 228.032 191.44C228.3 191.329 228.543 191.168 228.747 190.963C228.952 190.759 229.114 190.517 229.225 190.25C229.336 189.983 229.393 189.696 229.393 189.407V187.508H238.764V181.257H213.457Z" fill="#FFFAF5"/>
<path d="M235.486 181.257C233.87 181.257 232.32 181.899 231.178 183.041C230.035 184.183 229.393 185.733 229.393 187.349V190.044C229.803 189.837 230.25 189.713 230.709 189.679C231.167 189.645 231.628 189.703 232.064 189.848C232.5 189.993 232.903 190.223 233.249 190.525C233.596 190.826 233.879 191.194 234.083 191.605C234.106 191.206 234.281 190.83 234.572 190.555C234.862 190.28 235.248 190.127 235.648 190.127C236.048 190.127 236.433 190.28 236.724 190.555C237.015 190.83 237.19 191.206 237.212 191.605C237.626 191.605 238.024 191.441 238.316 191.148C238.609 190.855 238.774 190.458 238.774 190.044V181.257H235.486Z" fill="#E9DCCE"/>
<path style="mix-blend-mode:multiply" d="M238.774 190.636L244.494 191.67L253.044 201.477V182.291L238.774 181.257V190.636Z" fill="url(#paint62_linear_473_6284)"/>
<path d="M334.985 202.77C333.764 202.663 332.533 202.758 331.344 203.054C330.969 201.228 330.014 199.573 328.622 198.334C327.23 197.095 325.476 196.338 323.619 196.176C323.53 196.176 323.43 196.176 323.336 196.176C322.953 193.698 321.8 191.403 320.039 189.617C318.278 187.831 316 186.645 313.527 186.227C311.054 185.81 308.512 186.181 306.262 187.29C304.012 188.398 302.168 190.186 300.993 192.402C298.496 191.633 295.841 191.533 293.294 192.112C290.747 192.691 288.396 193.928 286.477 195.7C284.558 197.472 283.138 199.717 282.359 202.21C281.58 204.703 281.469 207.357 282.037 209.906H344.415C343.672 207.951 342.394 206.245 340.726 204.983C339.058 203.721 337.068 202.954 334.985 202.77Z" fill="url(#paint63_linear_473_6284)"/>
<path d="M342.495 160.471H340.978V209.906H342.495V160.471Z" fill="#5B4E42"/>
<path d="M342.988 187.583H340.486V209.906H342.988V187.583Z" fill="#39312B"/>
<path d="M344.42 154.379H339.058C339.024 156.623 339.386 158.855 340.128 160.973H343.346C344.06 158.848 344.423 156.621 344.42 154.379Z" fill="#CBE5FA"/>
<path d="M343.003 162.599C342.16 162.721 341.304 162.721 340.461 162.599C340.367 162.583 340.283 162.534 340.222 162.461C340.161 162.388 340.127 162.296 340.128 162.201V160.973H343.346V162.201C343.347 162.298 343.312 162.392 343.249 162.465C343.186 162.538 343.098 162.586 343.003 162.599Z" fill="#39312B"/>
<path d="M342.505 151.917H340.968C340.309 151.917 339.676 152.179 339.21 152.645C338.743 153.112 338.481 153.744 338.481 154.404H344.947C344.948 153.752 344.692 153.126 344.235 152.661C343.778 152.196 343.157 151.929 342.505 151.917Z" fill="#39312B"/>
<path style="mix-blend-mode:screen" opacity="0.4" d="M361.91 166.028C366.524 154.891 361.234 142.123 350.095 137.51C338.956 132.898 326.186 138.186 321.572 149.323C316.958 160.459 322.248 173.227 333.387 177.84C344.526 182.453 357.296 177.164 361.91 166.028Z" fill="url(#paint64_radial_473_6284)"/>
<path d="M141.867 209.916C141.709 209.847 141.584 209.718 141.521 209.558C141.457 209.398 141.46 209.219 141.528 209.06L143.732 203.998L141.697 192.123C141.67 191.953 141.711 191.78 141.81 191.64C141.91 191.501 142.061 191.406 142.23 191.377C142.398 191.349 142.571 191.389 142.711 191.488C142.85 191.586 142.945 191.736 142.976 191.904L145.07 204.162L142.717 209.577C142.648 209.734 142.52 209.858 142.361 209.921C142.202 209.984 142.024 209.982 141.867 209.916Z" fill="#39312B"/>
<path d="M165.801 209.916C165.644 209.846 165.521 209.717 165.458 209.557C165.396 209.396 165.399 209.218 165.468 209.06L167.666 203.998L165.637 192.123C165.608 191.954 165.647 191.781 165.746 191.641C165.845 191.501 165.995 191.406 166.164 191.377C166.334 191.349 166.507 191.389 166.647 191.487C166.788 191.586 166.884 191.735 166.915 191.904L169.009 204.162L166.657 209.578C166.587 209.735 166.458 209.858 166.298 209.921C166.138 209.985 165.96 209.983 165.801 209.916Z" fill="#39312B"/>
<path d="M148.591 209.474L147.005 204.004L148.248 203.646L149.835 209.116C149.883 209.281 149.864 209.458 149.782 209.608C149.7 209.759 149.561 209.872 149.397 209.921C149.231 209.967 149.053 209.946 148.902 209.863C148.752 209.779 148.64 209.639 148.591 209.474Z" fill="#39312B"/>
<path d="M172.929 209.474L171.342 204.004L172.586 203.646L174.172 209.116C174.22 209.281 174.201 209.458 174.119 209.609C174.037 209.759 173.899 209.872 173.735 209.921C173.652 209.945 173.566 209.952 173.481 209.942C173.396 209.932 173.314 209.906 173.239 209.864C173.164 209.823 173.098 209.767 173.045 209.7C172.992 209.633 172.952 209.556 172.929 209.474Z" fill="#39312B"/>
<path d="M138.509 192.556L138.872 192.237L139.723 197.703L139.36 198.016L138.509 192.556Z" fill="#CF8E77"/>
<path d="M139.489 198.836L139.852 198.518L140.29 201.318L139.922 201.636L139.489 198.836Z" fill="#CF8E77"/>
<path d="M170.452 197.703H139.723L138.872 192.237H169.601L170.452 197.703Z" fill="#C47357"/>
<path d="M171.014 201.318H140.29L139.852 198.518H170.576L171.014 201.318Z" fill="#C47357"/>
<path d="M147.224 203.128L147.656 204.526H178.38L177.948 203.128H147.224Z" fill="#C47357"/>
<path d="M139.922 204.526H147.656L147.224 203.128H139.922V204.526Z" fill="#CF8E77"/>
<path d="M139.36 198.016L139.723 197.702H170.452L170.089 198.016H139.36Z" fill="#8F4D3E"/>
<path d="M139.922 201.636H170.651L171.014 201.317H140.29L139.922 201.636Z" fill="#8F4D3E"/>
<path style="mix-blend-mode:screen" opacity="0.1" d="M139.161 194.082L168.527 201.318H171.014L169.601 192.237H138.872L139.161 194.082Z" fill="url(#paint65_linear_473_6284)"/>
<path d="M-2 209.956L376 209.956" stroke="#5B4E42" stroke-width="2.07775" stroke-miterlimit="10" stroke-linecap="round"/>
<path style="mix-blend-mode:multiply" opacity="0.4" d="M69.7992 98.4042H57.1754C56.912 98.4044 56.6529 98.4699 56.4211 98.5949C56.1893 98.7198 55.9922 98.9004 55.8474 99.1202L53.9573 101.97C53.8888 102.07 53.7902 102.146 53.6757 102.187C53.5611 102.227 53.4367 102.23 53.3203 102.195C53.2039 102.16 53.1017 102.089 53.0284 101.992C52.9551 101.896 52.9146 101.778 52.9127 101.656V90.358C52.9127 90.148 52.9542 89.94 53.0347 89.746C53.1153 89.552 53.2333 89.3758 53.3821 89.2275C53.5309 89.0792 53.7075 88.9617 53.9018 88.8818C54.0961 88.8019 54.3043 88.7611 54.5143 88.7617H69.7992C70.0093 88.7611 70.2175 88.8019 70.4118 88.8818C70.6061 88.9617 70.7827 89.0792 70.9315 89.2275C71.0802 89.3758 71.1983 89.552 71.2789 89.746C71.3594 89.94 71.4009 90.148 71.4009 90.358V96.8228C71.3956 97.244 71.2246 97.6462 70.9248 97.9422C70.625 98.2382 70.2206 98.4042 69.7992 98.4042Z" fill="url(#paint66_linear_473_6284)"/>
<path style="mix-blend-mode:multiply" opacity="0.4" d="M194.715 75.7817C194.715 78.0642 191.835 83.0719 190.586 83.0719C189.338 83.0719 186.453 78.0642 186.453 75.7817C186.434 75.2272 186.526 74.6746 186.725 74.1568C186.924 73.6389 187.225 73.1664 187.611 72.7674C187.996 72.3683 188.458 72.051 188.969 71.8343C189.48 71.6175 190.029 71.5059 190.584 71.5059C191.139 71.5059 191.688 71.6175 192.199 71.8343C192.709 72.051 193.171 72.3683 193.557 72.7674C193.942 73.1664 194.243 73.6389 194.442 74.1568C194.641 74.6746 194.734 75.2272 194.715 75.7817Z" fill="url(#paint67_linear_473_6284)"/>
<path d="M29.8586 205.445C30.6926 205.371 31.5331 205.437 32.3456 205.639C32.5989 204.403 33.2445 203.282 34.1864 202.442C35.1283 201.603 36.3161 201.09 37.5732 200.979H37.7672C38.0282 199.302 38.8102 197.75 40.0027 196.542C41.1951 195.335 42.7374 194.532 44.4112 194.25C46.0849 193.967 47.8052 194.218 49.3283 194.967C50.8515 195.716 52.1003 196.925 52.8979 198.423C54.4094 197.964 56.0075 197.864 57.5644 198.133C59.1212 198.402 60.5935 199.031 61.8635 199.971C63.1334 200.91 64.1658 202.134 64.8779 203.544C65.59 204.954 65.9621 206.511 65.9644 208.091C65.9648 208.83 65.883 209.567 65.7207 210.289H23.4373C23.9417 208.958 24.8123 207.797 25.9485 206.94C27.0848 206.083 28.4403 205.565 29.8586 205.445Z" fill="url(#paint68_linear_473_6284)"/>
<path d="M21.2636 186.31L19.9106 184.097L18.5577 186.31V210.279H21.2636V186.31Z" fill="white"/>
<path d="M30.5002 187.498H9.32617V197.852H30.5002V187.498Z" fill="white"/>
<path d="M29.6646 188.164H10.1617V197.185H29.6646V188.164Z" fill="#FF3535"/>
<path d="M66.611 67.1188C66.611 69.5307 110.043 69.5307 110.043 67.1188C110.73 62.3001 108.551 59.6147 104.696 59.5849C104.696 59.5849 105.845 49.5645 97.1012 49.5645C90.5654 49.5645 89.9685 55.1291 89.9685 55.1291C86.4321 54.244 83.0051 56.1734 82.4331 59.2417C79.5482 57.6156 75.4198 58.7892 74.2111 61.1264C70.2568 60.5794 66.611 63.3295 66.611 67.1188Z" fill="url(#paint69_linear_473_6284)"/>
<path d="M370.106 51.35C369.515 51.3503 368.93 51.4529 368.375 51.6533C367.406 49.9371 365.93 48.563 364.149 47.7197C362.367 46.8764 360.368 46.6055 358.427 46.944C356.735 44.7398 354.481 43.0312 351.901 41.9973C349.322 40.9633 346.512 40.642 343.765 41.0671C341.019 41.4922 338.437 42.648 336.291 44.4134C334.145 46.1788 332.514 48.4888 331.568 51.1013C330.68 50.47 329.647 50.0731 328.565 49.9475C327.483 49.822 326.387 49.9718 325.378 50.383C324.369 50.7942 323.481 51.4536 322.795 52.2999C322.109 53.1462 321.649 54.152 321.456 55.2239C321.456 57.7103 374.99 57.7103 374.99 55.2239C374.73 54.123 374.107 53.1418 373.221 52.4388C372.335 51.7359 371.237 51.3523 370.106 51.35Z" fill="url(#paint70_linear_473_6284)"/>
<path d="M123.612 201.477C122.173 201.476 120.756 201.829 119.485 202.504C118.214 203.178 117.127 204.154 116.321 205.345C115.662 205.065 114.953 204.921 114.236 204.923C112.816 204.923 111.453 205.487 110.449 206.491C109.444 207.496 108.88 208.858 108.88 210.279H132.416C132.415 207.945 131.487 205.706 129.836 204.056C128.185 202.406 125.947 201.478 123.612 201.477Z" fill="url(#paint71_linear_473_6284)"/>
<path d="M114.664 91.1381C114.664 95.738 108.86 105.828 106.338 105.828C103.816 105.828 98.0015 95.738 98.0015 91.1381C98.0015 88.9302 98.8787 86.8129 100.44 85.2517C102.002 83.6905 104.12 82.8135 106.328 82.8135C108.536 82.8135 110.654 83.6905 112.215 85.2517C113.777 86.8129 114.654 88.9302 114.654 91.1381H114.664Z" fill="#BB4F4F"/>
<path d="M106.343 95.1964C108.518 95.1964 110.282 93.4331 110.282 91.2579C110.282 89.0827 108.518 87.3193 106.343 87.3193C104.167 87.3193 102.403 89.0827 102.403 91.2579C102.403 93.4331 104.167 95.1964 106.343 95.1964Z" fill="#F0F6FB"/>
<path d="M269.219 23.114C269.219 27.714 263.415 37.804 260.898 37.804C258.381 37.804 252.572 27.714 252.572 23.114C252.544 22.004 252.74 20.8998 253.146 19.8664C253.552 18.833 254.161 17.8912 254.936 17.0965C255.712 16.3019 256.639 15.6704 257.662 15.2392C258.686 14.8081 259.785 14.5859 260.895 14.5859C262.006 14.5859 263.105 14.8081 264.129 15.2392C265.152 15.6704 266.079 16.3019 266.855 17.0965C267.63 17.8912 268.239 18.833 268.645 19.8664C269.051 20.8998 269.246 22.004 269.219 23.114Z" fill="#BB4F4F"/>
<path d="M262.411 26.8182C264.422 25.9896 265.381 23.6875 264.553 21.6763C263.724 19.6651 261.421 18.7064 259.41 19.5349C257.398 20.3635 256.439 22.6656 257.268 24.6768C258.097 26.688 260.399 27.6467 262.411 26.8182Z" fill="#F0F6FB"/>
</g>
<defs>
<linearGradient id="paint0_linear_473_6284" x1="190.586" y1="208.682" x2="190.586" y2="92.7095" gradientUnits="userSpaceOnUse">
<stop stop-color="#83CDF5" stop-opacity="0"/>
<stop offset="1" stop-color="#7CC2E8"/>
</linearGradient>
<linearGradient id="paint1_linear_473_6284" x1="144.234" y1="125.367" x2="144.234" y2="141.121" gradientUnits="userSpaceOnUse">
<stop stop-color="#39312B"/>
<stop offset="1" stop-color="#39312B" stop-opacity="0"/>
</linearGradient>
<linearGradient id="paint2_linear_473_6284" x1="126.855" y1="122.427" x2="116.975" y2="135.379" gradientUnits="userSpaceOnUse">
<stop stop-color="#04609E"/>
<stop offset="1" stop-color="#83CDF5" stop-opacity="0"/>
</linearGradient>
<linearGradient id="paint3_linear_473_6284" x1="2208.73" y1="2354.15" x2="2030.72" y2="2563.3" gradientUnits="userSpaceOnUse">
<stop stop-color="#04609E"/>
<stop offset="1" stop-color="#83CDF5" stop-opacity="0"/>
</linearGradient>
<linearGradient id="paint4_linear_473_6284" x1="112.883" y1="125.888" x2="127.273" y2="130.5" gradientUnits="userSpaceOnUse">
<stop stop-color="#C4C4C4"/>
<stop offset="1" stop-color="white" stop-opacity="0"/>
</linearGradient>
<linearGradient id="paint5_linear_473_6284" x1="15237.5" y1="1908.17" x2="20599.2" y2="7003.35" gradientUnits="userSpaceOnUse">
<stop stop-color="#C4C4C4"/>
<stop offset="1" stop-color="white" stop-opacity="0"/>
</linearGradient>
<linearGradient id="paint6_linear_473_6284" x1="2506.64" y1="4223.54" x2="2220.8" y2="4614.38" gradientUnits="userSpaceOnUse">
<stop stop-color="#04609E"/>
<stop offset="1" stop-color="#83CDF5" stop-opacity="0"/>
</linearGradient>
<linearGradient id="paint7_linear_473_6284" x1="2581.55" y1="4314.75" x2="2293.73" y2="4699.64" gradientUnits="userSpaceOnUse">
<stop stop-color="#04609E"/>
<stop offset="1" stop-color="#83CDF5" stop-opacity="0"/>
</linearGradient>
<linearGradient id="paint8_linear_473_6284" x1="13205.4" y1="2221.77" x2="21659.3" y2="16083.3" gradientUnits="userSpaceOnUse">
<stop stop-color="#C4C4C4"/>
<stop offset="1" stop-color="white" stop-opacity="0"/>
</linearGradient>
<linearGradient id="paint9_linear_473_6284" x1="13205.4" y1="2753.55" x2="21662.4" y2="16616.8" gradientUnits="userSpaceOnUse">
<stop stop-color="#C4C4C4"/>
<stop offset="1" stop-color="white" stop-opacity="0"/>
</linearGradient>
<linearGradient id="paint10_linear_473_6284" x1="68.3468" y1="154.966" x2="68.3468" y2="166.761" gradientUnits="userSpaceOnUse">
<stop stop-color="#035185"/>
<stop offset="1" stop-color="#04609E" stop-opacity="0"/>
</linearGradient>
<linearGradient id="paint11_linear_473_6284" x1="957.818" y1="1452.15" x2="957.818" y2="1550.31" gradientUnits="userSpaceOnUse">
<stop stop-color="#035185"/>
<stop offset="1" stop-color="#04609E" stop-opacity="0"/>
</linearGradient>
<linearGradient id="paint12_linear_473_6284" x1="1150.84" y1="3654.1" x2="902.911" y2="3814.98" gradientUnits="userSpaceOnUse">
<stop stop-color="#04609E"/>
<stop offset="1" stop-color="#83CDF5" stop-opacity="0"/>
</linearGradient>
<linearGradient id="paint13_linear_473_6284" x1="1180.76" y1="3010.04" x2="967.36" y2="3182.23" gradientUnits="userSpaceOnUse">
<stop stop-color="#04609E"/>
<stop offset="1" stop-color="#83CDF5" stop-opacity="0"/>
</linearGradient>
<linearGradient id="paint14_linear_473_6284" x1="953.922" y1="2656.07" x2="953.922" y2="2846.45" gradientUnits="userSpaceOnUse">
<stop stop-color="#035185"/>
<stop offset="1" stop-color="#04609E" stop-opacity="0"/>
</linearGradient>
<linearGradient id="paint15_linear_473_6284" x1="1183.08" y1="1452.15" x2="1183.08" y2="1550.31" gradientUnits="userSpaceOnUse">
<stop stop-color="#035185"/>
<stop offset="1" stop-color="#04609E" stop-opacity="0"/>
</linearGradient>
<linearGradient id="paint16_linear_473_6284" x1="1392.31" y1="3672.28" x2="1192.78" y2="3807.35" gradientUnits="userSpaceOnUse">
<stop stop-color="#04609E"/>
<stop offset="1" stop-color="#83CDF5" stop-opacity="0"/>
</linearGradient>
<linearGradient id="paint17_linear_473_6284" x1="1422" y1="3022.81" x2="1251.7" y2="3166.15" gradientUnits="userSpaceOnUse">
<stop stop-color="#04609E"/>
<stop offset="1" stop-color="#83CDF5" stop-opacity="0"/>
</linearGradient>
<linearGradient id="paint18_linear_473_6284" x1="1133.01" y1="2656.07" x2="1133.01" y2="2846.45" gradientUnits="userSpaceOnUse">
<stop stop-color="#035185"/>
<stop offset="1" stop-color="#04609E" stop-opacity="0"/>
</linearGradient>
<linearGradient id="paint19_linear_473_6284" x1="1408.4" y1="1452.15" x2="1408.4" y2="1550.31" gradientUnits="userSpaceOnUse">
<stop stop-color="#035185"/>
<stop offset="1" stop-color="#04609E" stop-opacity="0"/>
</linearGradient>
<linearGradient id="paint20_linear_473_6284" x1="1652.72" y1="3664.29" x2="1461.27" y2="3793.69" gradientUnits="userSpaceOnUse">
<stop stop-color="#04609E"/>
<stop offset="1" stop-color="#83CDF5" stop-opacity="0"/>
</linearGradient>
<linearGradient id="paint21_linear_473_6284" x1="1682.41" y1="3016.47" x2="1518.95" y2="3153.85" gradientUnits="userSpaceOnUse">
<stop stop-color="#04609E"/>
<stop offset="1" stop-color="#83CDF5" stop-opacity="0"/>
</linearGradient>
<linearGradient id="paint22_linear_473_6284" x1="1263" y1="1800.12" x2="1424.93" y2="1893.26" gradientUnits="userSpaceOnUse">
<stop stop-color="#C4C4C4"/>
<stop offset="1" stop-color="white" stop-opacity="0"/>
</linearGradient>
<linearGradient id="paint23_linear_473_6284" x1="1598.27" y1="1800.12" x2="1760.31" y2="1893.28" gradientUnits="userSpaceOnUse">
<stop stop-color="#C4C4C4"/>
<stop offset="1" stop-color="white" stop-opacity="0"/>
</linearGradient>
<linearGradient id="paint24_linear_473_6284" x1="1933.63" y1="1800.12" x2="2095.57" y2="1893.26" gradientUnits="userSpaceOnUse">
<stop stop-color="#C4C4C4"/>
<stop offset="1" stop-color="white" stop-opacity="0"/>
</linearGradient>
<linearGradient id="paint25_linear_473_6284" x1="1896.13" y1="2247.06" x2="2166.72" y2="2485.52" gradientUnits="userSpaceOnUse">
<stop stop-color="#C4C4C4"/>
<stop offset="1" stop-color="white" stop-opacity="0"/>
</linearGradient>
<linearGradient id="paint26_linear_473_6284" x1="188.602" y1="184.206" x2="188.602" y2="211.78" gradientUnits="userSpaceOnUse">
<stop stop-color="#6CAD5C"/>
<stop offset="1" stop-color="#78C065"/>
</linearGradient>
<linearGradient id="paint27_linear_473_6284" x1="166.701" y1="3.86394" x2="166.701" y2="34.5915" gradientUnits="userSpaceOnUse">
<stop stop-color="#DCE7ED"/>
<stop offset="0.36" stop-color="#BADDF0" stop-opacity="0.62"/>
<stop offset="0.8" stop-color="#93D2F4" stop-opacity="0.18"/>
<stop offset="1" stop-color="#83CDF5" stop-opacity="0"/>
</linearGradient>
<linearGradient id="paint28_linear_473_6284" x1="296.342" y1="68.3672" x2="264.589" y2="39.856" gradientUnits="userSpaceOnUse">
<stop stop-color="white" stop-opacity="0"/>
<stop offset="1" stop-color="#C4C4C4"/>
</linearGradient>
<linearGradient id="paint29_linear_473_6284" x1="4461.53" y1="1395.38" x2="4461.53" y2="1722.57" gradientUnits="userSpaceOnUse">
<stop stop-color="#39312B"/>
<stop offset="1" stop-color="#39312B" stop-opacity="0"/>
</linearGradient>
<linearGradient id="paint30_linear_473_6284" x1="10668.5" y1="7500.31" x2="11884.8" y2="7500.31" gradientUnits="userSpaceOnUse">
<stop stop-color="#C4C4C4"/>
<stop offset="1" stop-color="white" stop-opacity="0"/>
</linearGradient>
<linearGradient id="paint31_linear_473_6284" x1="2478.6" y1="1513.77" x2="2478.6" y2="1703.83" gradientUnits="userSpaceOnUse">
<stop stop-color="#035185"/>
<stop offset="1" stop-color="#04609E" stop-opacity="0"/>
</linearGradient>
<linearGradient id="paint32_linear_473_6284" x1="3093.56" y1="830.968" x2="3093.56" y2="928.97" gradientUnits="userSpaceOnUse">
<stop stop-color="#035185"/>
<stop offset="1" stop-color="#04609E" stop-opacity="0"/>
</linearGradient>
<linearGradient id="paint33_linear_473_6284" x1="2658.2" y1="1513.77" x2="2658.2" y2="1703.83" gradientUnits="userSpaceOnUse">
<stop stop-color="#035185"/>
<stop offset="1" stop-color="#04609E" stop-opacity="0"/>
</linearGradient>
<linearGradient id="paint34_linear_473_6284" x1="3318.43" y1="830.968" x2="3318.43" y2="928.97" gradientUnits="userSpaceOnUse">
<stop stop-color="#035185"/>
<stop offset="1" stop-color="#04609E" stop-opacity="0"/>
</linearGradient>
<linearGradient id="paint35_linear_473_6284" x1="2840.28" y1="1513.77" x2="2840.28" y2="1703.83" gradientUnits="userSpaceOnUse">
<stop stop-color="#035185"/>
<stop offset="1" stop-color="#04609E" stop-opacity="0"/>
</linearGradient>
<linearGradient id="paint36_linear_473_6284" x1="3543.33" y1="830.968" x2="3543.33" y2="928.97" gradientUnits="userSpaceOnUse">
<stop stop-color="#035185"/>
<stop offset="1" stop-color="#04609E" stop-opacity="0"/>
</linearGradient>
<linearGradient id="paint37_linear_473_6284" x1="4441.06" y1="985.619" x2="4602.7" y2="1078.54" gradientUnits="userSpaceOnUse">
<stop stop-color="#C4C4C4"/>
<stop offset="1" stop-color="white" stop-opacity="0"/>
</linearGradient>
<linearGradient id="paint38_linear_473_6284" x1="4775.69" y1="985.619" x2="4937.33" y2="1078.54" gradientUnits="userSpaceOnUse">
<stop stop-color="#C4C4C4"/>
<stop offset="1" stop-color="white" stop-opacity="0"/>
</linearGradient>
<linearGradient id="paint39_linear_473_6284" x1="5110.33" y1="985.619" x2="5271.97" y2="1078.54" gradientUnits="userSpaceOnUse">
<stop stop-color="#C4C4C4"/>
<stop offset="1" stop-color="white" stop-opacity="0"/>
</linearGradient>
<linearGradient id="paint40_linear_473_6284" x1="2478.6" y1="2107.71" x2="2478.6" y2="2297.81" gradientUnits="userSpaceOnUse">
<stop stop-color="#035185"/>
<stop offset="1" stop-color="#04609E" stop-opacity="0"/>
</linearGradient>
<linearGradient id="paint41_linear_473_6284" x1="3093.56" y1="1154.58" x2="3093.56" y2="1252.66" gradientUnits="userSpaceOnUse">
<stop stop-color="#035185"/>
<stop offset="1" stop-color="#04609E" stop-opacity="0"/>
</linearGradient>
<linearGradient id="paint42_linear_473_6284" x1="2658.2" y1="2107.71" x2="2658.2" y2="2297.81" gradientUnits="userSpaceOnUse">
<stop stop-color="#035185"/>
<stop offset="1" stop-color="#04609E" stop-opacity="0"/>
</linearGradient>
<linearGradient id="paint43_linear_473_6284" x1="3318.43" y1="1154.58" x2="3318.43" y2="1252.66" gradientUnits="userSpaceOnUse">
<stop stop-color="#035185"/>
<stop offset="1" stop-color="#04609E" stop-opacity="0"/>
</linearGradient>
<linearGradient id="paint44_linear_473_6284" x1="2840.28" y1="2107.71" x2="2840.28" y2="2297.81" gradientUnits="userSpaceOnUse">
<stop stop-color="#035185"/>
<stop offset="1" stop-color="#04609E" stop-opacity="0"/>
</linearGradient>
<linearGradient id="paint45_linear_473_6284" x1="3543.33" y1="1154.58" x2="3543.33" y2="1252.66" gradientUnits="userSpaceOnUse">
<stop stop-color="#035185"/>
<stop offset="1" stop-color="#04609E" stop-opacity="0"/>
</linearGradient>
<linearGradient id="paint46_linear_473_6284" x1="4441.06" y1="1408.63" x2="4602.7" y2="1501.55" gradientUnits="userSpaceOnUse">
<stop stop-color="#C4C4C4"/>
<stop offset="1" stop-color="white" stop-opacity="0"/>
</linearGradient>
<linearGradient id="paint47_linear_473_6284" x1="4775.69" y1="1408.63" x2="4937.33" y2="1501.55" gradientUnits="userSpaceOnUse">
<stop stop-color="#C4C4C4"/>
<stop offset="1" stop-color="white" stop-opacity="0"/>
</linearGradient>
<linearGradient id="paint48_linear_473_6284" x1="5110.33" y1="1408.63" x2="5271.97" y2="1501.55" gradientUnits="userSpaceOnUse">
<stop stop-color="#C4C4C4"/>
<stop offset="1" stop-color="white" stop-opacity="0"/>
</linearGradient>
<linearGradient id="paint49_linear_473_6284" x1="2478.6" y1="2670.2" x2="2478.6" y2="2860.3" gradientUnits="userSpaceOnUse">
<stop stop-color="#035185"/>
<stop offset="1" stop-color="#04609E" stop-opacity="0"/>
</linearGradient>
<linearGradient id="paint50_linear_473_6284" x1="3093.56" y1="1459.11" x2="3093.56" y2="1557.07" gradientUnits="userSpaceOnUse">
<stop stop-color="#035185"/>
<stop offset="1" stop-color="#04609E" stop-opacity="0"/>
</linearGradient>
<linearGradient id="paint51_linear_473_6284" x1="2658.2" y1="2670.2" x2="2658.2" y2="2860.3" gradientUnits="userSpaceOnUse">
<stop stop-color="#035185"/>
<stop offset="1" stop-color="#04609E" stop-opacity="0"/>
</linearGradient>
<linearGradient id="paint52_linear_473_6284" x1="3318.43" y1="1459.11" x2="3318.43" y2="1557.07" gradientUnits="userSpaceOnUse">
<stop stop-color="#035185"/>
<stop offset="1" stop-color="#04609E" stop-opacity="0"/>
</linearGradient>
<linearGradient id="paint53_linear_473_6284" x1="2840.28" y1="2670.2" x2="2840.28" y2="2860.3" gradientUnits="userSpaceOnUse">
<stop stop-color="#035185"/>
<stop offset="1" stop-color="#04609E" stop-opacity="0"/>
</linearGradient>
<linearGradient id="paint54_linear_473_6284" x1="3543.33" y1="1459.11" x2="3543.33" y2="1557.07" gradientUnits="userSpaceOnUse">
<stop stop-color="#035185"/>
<stop offset="1" stop-color="#04609E" stop-opacity="0"/>
</linearGradient>
<linearGradient id="paint55_linear_473_6284" x1="4441.06" y1="1809.89" x2="4602.7" y2="1902.81" gradientUnits="userSpaceOnUse">
<stop stop-color="#C4C4C4"/>
<stop offset="1" stop-color="white" stop-opacity="0"/>
</linearGradient>
<linearGradient id="paint56_linear_473_6284" x1="4775.69" y1="1809.89" x2="4937.33" y2="1902.81" gradientUnits="userSpaceOnUse">
<stop stop-color="#C4C4C4"/>
<stop offset="1" stop-color="white" stop-opacity="0"/>
</linearGradient>
<linearGradient id="paint57_linear_473_6284" x1="5110.33" y1="1809.89" x2="5271.97" y2="1902.81" gradientUnits="userSpaceOnUse">
<stop stop-color="#C4C4C4"/>
<stop offset="1" stop-color="white" stop-opacity="0"/>
</linearGradient>
<linearGradient id="paint58_linear_473_6284" x1="50816.9" y1="1071.52" x2="58807.1" y2="14621.1" gradientUnits="userSpaceOnUse">
<stop stop-color="#C4C4C4"/>
<stop offset="1" stop-color="white" stop-opacity="0"/>
</linearGradient>
<linearGradient id="paint59_linear_473_6284" x1="50816.9" y1="1631.1" x2="58807.1" y2="15180.7" gradientUnits="userSpaceOnUse">
<stop stop-color="#C4C4C4"/>
<stop offset="1" stop-color="white" stop-opacity="0"/>
</linearGradient>
<linearGradient id="paint60_linear_473_6284" x1="50816.9" y1="2142.75" x2="58810.4" y2="15694.2" gradientUnits="userSpaceOnUse">
<stop stop-color="#C4C4C4"/>
<stop offset="1" stop-color="white" stop-opacity="0"/>
</linearGradient>
<linearGradient id="paint61_linear_473_6284" x1="50816.9" y1="2653.35" x2="58810.5" y2="16204.9" gradientUnits="userSpaceOnUse">
<stop stop-color="#C4C4C4"/>
<stop offset="1" stop-color="white" stop-opacity="0"/>
</linearGradient>
<linearGradient id="paint62_linear_473_6284" x1="7089.19" y1="7962.24" x2="7498.6" y2="7962.24" gradientUnits="userSpaceOnUse">
<stop stop-color="#C4C4C4"/>
<stop offset="1" stop-color="white" stop-opacity="0"/>
</linearGradient>
<linearGradient id="paint63_linear_473_6284" x1="85689.5" y1="29080.5" x2="85689.5" y2="30530.6" gradientUnits="userSpaceOnUse">
<stop stop-color="#6CAD5C"/>
<stop offset="1" stop-color="#78C065"/>
</linearGradient>
<radialGradient id="paint64_radial_473_6284" cx="0" cy="0" r="1" gradientUnits="userSpaceOnUse" gradientTransform="translate(341.744 157.674) scale(21.8306 21.8261)">
<stop stop-color="white"/>
<stop offset="1" stop-color="white" stop-opacity="0"/>
</radialGradient>
<linearGradient id="paint65_linear_473_6284" x1="9112.8" y1="3785.39" x2="11189.8" y2="3785.39" gradientUnits="userSpaceOnUse">
<stop stop-color="#C4C4C4"/>
<stop offset="1" stop-color="white" stop-opacity="0"/>
</linearGradient>
<linearGradient id="paint66_linear_473_6284" x1="62.1593" y1="87.066" x2="62.1593" y2="152.042" gradientUnits="userSpaceOnUse">
<stop stop-color="#7CC2E8"/>
<stop offset="1" stop-color="#83CDF5" stop-opacity="0"/>
</linearGradient>
<linearGradient id="paint67_linear_473_6284" x1="9404.94" y1="11308.1" x2="9404.94" y2="13648.8" gradientUnits="userSpaceOnUse">
<stop stop-color="#7CC2E8"/>
<stop offset="1" stop-color="#83CDF5" stop-opacity="0"/>
</linearGradient>
<linearGradient id="paint68_linear_473_6284" x1="44.6809" y1="192.744" x2="44.6809" y2="211.666" gradientUnits="userSpaceOnUse">
<stop stop-color="#78C065"/>
<stop offset="1" stop-color="#6CAD5C"/>
</linearGradient>
<linearGradient id="paint69_linear_473_6284" x1="39689.9" y1="18202.8" x2="39689.9" y2="19653.1" gradientUnits="userSpaceOnUse">
<stop stop-color="#DCE7ED"/>
<stop offset="0.36" stop-color="#BADDF0" stop-opacity="0.62"/>
<stop offset="0.8" stop-color="#93D2F4" stop-opacity="0.18"/>
<stop offset="1" stop-color="#83CDF5" stop-opacity="0"/>
</linearGradient>
<linearGradient id="paint70_linear_473_6284" x1="76987.1" y1="15030.3" x2="76987.1" y2="16117.6" gradientUnits="userSpaceOnUse">
<stop stop-color="#DCE7ED"/>
<stop offset="0.36" stop-color="#BADDF0" stop-opacity="0.62"/>
<stop offset="0.8" stop-color="#93D2F4" stop-opacity="0.18"/>
<stop offset="1" stop-color="#83CDF5" stop-opacity="0"/>
</linearGradient>
<linearGradient id="paint71_linear_473_6284" x1="23567.4" y1="11380.7" x2="22916.4" y2="10805.8" gradientUnits="userSpaceOnUse">
<stop stop-color="#6CAD5C"/>
<stop offset="1" stop-color="#78C065"/>
</linearGradient>
<clipPath id="clip0_473_6284">
<rect width="375" height="211" fill="white"/>
</clipPath>
</defs>
</svg>
