<svg width="54" height="45" viewBox="0 0 54 45" fill="none" xmlns="http://www.w3.org/2000/svg">
<path d="M34.9538 0.240756C33.7874 0.0924053 32.6129 0.0165158 31.4371 0.013524C21.7197 -0.00357637 10.8722 0.000481334 1.07274 0.000481334C0.931665 0.000480711 0.791973 0.0283243 0.661674 0.0824164C0.531374 0.136509 0.413028 0.215786 0.313419 0.315705C0.213809 0.415624 0.134894 0.53422 0.0811965 0.664697C0.0274987 0.795174 7.35974e-05 0.934967 0.00049302 1.07606V7.89446C0.000187751 8.03561 0.0277451 8.17543 0.0815847 8.3059C0.135424 8.43637 0.214487 8.55493 0.314239 8.65477C0.41399 8.75462 0.532469 8.83379 0.662879 8.88774C0.793289 8.94169 0.933066 8.96937 1.07419 8.96918C10.9105 8.94686 21.7947 8.94251 31.5507 8.96628C37.4191 8.97671 42.346 12.4513 44.2392 17.8301C47.2375 26.3423 41.0387 35.1886 31.8953 35.4336C30.5286 35.4706 29.1617 35.453 27.7492 35.4446C27.4653 35.4428 27.1936 35.3288 26.9934 35.1275C26.7933 34.9261 26.6808 34.6538 26.6807 34.3699V25.9287C26.6807 25.6436 26.5675 25.3703 26.366 25.1687C26.1644 24.9672 25.8911 24.8539 25.6061 24.8539H18.7826C18.6414 24.8538 18.5015 24.8815 18.3711 24.9355C18.2406 24.9895 18.122 25.0686 18.0222 25.1684C17.9223 25.2682 17.8431 25.3867 17.789 25.5172C17.7349 25.6476 17.7071 25.7875 17.7071 25.9287V43.3226C17.7045 43.603 17.8127 43.8731 18.008 44.0742C18.2033 44.2754 18.4701 44.3914 18.7504 44.397H18.7608C22.9275 44.4007 27.0955 44.4007 31.2647 44.397C43.0366 44.3724 52.1591 36.439 53.8034 24.8006C55.4388 13.233 46.6017 1.70443 34.9538 0.240756Z" fill="white"/>
<path d="M7.75808 24.8767H1.07506C0.481589 24.8767 0.000488281 25.3579 0.000488281 25.9514V43.2683C0.000488281 43.8618 0.481589 44.343 1.07506 44.343H7.75808C8.35155 44.343 8.83265 43.8618 8.83265 43.2683V25.9514C8.83265 25.3579 8.35155 24.8767 7.75808 24.8767Z" fill="white"/>
<path d="M27.0006 22.8943V20.4872C27.0006 20.3763 26.9711 20.2674 26.915 20.1718C26.859 20.0761 26.7785 19.9971 26.6819 19.9428L14.5683 13.1514C14.2423 12.9687 13.8749 12.8727 13.5011 12.8727C13.1274 12.8727 12.76 12.9687 12.434 13.1514L7.72823 15.7889C7.68793 15.8115 7.64241 15.8232 7.59619 15.8227C7.54998 15.8222 7.50471 15.8096 7.4649 15.7861C7.42509 15.7627 7.39214 15.7292 7.36934 15.689C7.34654 15.6487 7.33469 15.6033 7.33497 15.557V13.8311C7.33497 13.7492 7.31884 13.6681 7.2875 13.5924C7.25616 13.5167 7.21022 13.4479 7.15231 13.39C7.0944 13.3321 7.02565 13.2862 6.94999 13.2548C6.87433 13.2235 6.79323 13.2073 6.71133 13.2073H4.2211C4.13919 13.2073 4.05808 13.2234 3.9824 13.2547C3.90672 13.2861 3.83795 13.332 3.78003 13.3899C3.72211 13.4479 3.67618 13.5166 3.64485 13.5923C3.61352 13.668 3.59742 13.7492 3.59746 13.8311V17.7398C3.59741 17.8506 3.56785 17.9594 3.51183 18.055C3.4558 18.1507 3.37533 18.2296 3.27868 18.2838L0.319266 19.9428C0.222594 19.9971 0.142109 20.0761 0.0860841 20.1718C0.0300592 20.2674 0.000515322 20.3763 0.000489072 20.4872V22.8943C0.000315861 23.003 0.0285913 23.11 0.0825088 23.2044C0.136426 23.2989 0.214111 23.3776 0.307852 23.4328C0.401592 23.488 0.508129 23.5177 0.616888 23.5189C0.725646 23.5202 0.832844 23.493 0.927841 23.44L12.445 17.0636C12.7687 16.8843 13.1327 16.7902 13.5027 16.7902C13.8728 16.7902 14.2368 16.8843 14.5605 17.0636L26.0776 23.44C26.1725 23.4918 26.2792 23.5181 26.3873 23.5163C26.4954 23.5144 26.6012 23.4845 26.6942 23.4295C26.7873 23.3745 26.8645 23.2962 26.9182 23.2024C26.9719 23.1086 27.0003 23.0024 27.0006 22.8943Z" fill="white"/>
</svg>
