<svg width="13" height="16" viewBox="0 0 13 16" fill="none" xmlns="http://www.w3.org/2000/svg">
<path fill-rule="evenodd" clip-rule="evenodd" d="M6.2858 0C2.81417 0 0 2.81417 0 6.2858C0 9.5348 1.99645 12.7289 5.92884 15.8749C6.13763 16.0417 6.43407 16.0417 6.64284 15.8749C10.5751 12.7289 12.5717 9.53461 12.5717 6.2858C12.5717 2.81417 9.75751 0 6.28588 0H6.2858ZM6.2858 3.42862C4.7078 3.42862 3.42862 4.7078 3.42862 6.2858C3.42862 7.8638 4.7078 9.14298 6.2858 9.14298C7.8638 9.14298 9.14298 7.8638 9.14298 6.2858C9.14298 4.7078 7.8638 3.42862 6.2858 3.42862Z" fill="#B6BAC6"/>
</svg>
