<svg width="18" height="18" viewBox="0 0 18 18" fill="none" xmlns="http://www.w3.org/2000/svg">
<path fill-rule="evenodd" clip-rule="evenodd" d="M6.23625 0.582164H11.7636C12.9822 0.582013 13.9872 0.582013 14.7826 0.688989C15.6176 0.80124 16.3552 1.04608 16.9456 1.63654C17.5361 2.22701 17.7809 2.96457 17.8932 3.79957C18.0002 4.59496 18 5.59995 18 6.8187V9.05027C18 10.2691 18.0002 11.274 17.8932 12.0694C17.7809 12.9044 17.5361 13.642 16.9456 14.2324C16.3552 14.8229 15.6176 15.0677 14.7826 15.18C13.9872 15.287 12.9822 15.287 11.7636 15.287H7.5662C7.3634 15.287 7.30388 15.2874 7.24979 15.291C6.87568 15.3166 6.51905 15.4583 6.22945 15.6965C6.18742 15.731 6.14387 15.7715 5.99637 15.9104L5.98627 15.9201C5.70904 16.1816 5.48738 16.3908 5.30992 16.5493C5.13694 16.7039 4.96307 16.8497 4.7865 16.957C2.93293 18.0843 0.52123 17.0441 0.0691687 14.9223C0.0260763 14.7201 0.0128192 14.4937 0.00648956 14.2616C1.06579e-05 14.0239 1.07059e-05 13.7191 1.07059e-05 13.338V6.81861C-0.000139994 5.59998 -0.000139967 4.59503 0.106835 3.7996C0.219087 2.9646 0.463925 2.22703 1.05439 1.63657C1.64485 1.04612 2.38242 0.801262 3.21742 0.689018C4.01281 0.582043 5.01779 0.582043 6.23643 0.582194L6.23625 0.582164ZM3.45711 2.47295C2.82157 2.55838 2.52734 2.70905 2.32692 2.90928C2.12668 3.10967 1.97601 3.40392 1.8906 4.03947C1.8017 4.70078 1.79974 5.584 1.79974 6.88217V13.324C1.79974 13.7223 1.79989 14.0022 1.80562 14.2124C1.81164 14.4313 1.8231 14.5172 1.82942 14.547C2.02334 15.4563 3.05678 15.9022 3.85128 15.4191C3.87735 15.4031 3.94771 15.3526 4.11104 15.2066C4.26773 15.0667 4.47144 14.8746 4.76105 14.6014L4.78033 14.5832C4.90042 14.4699 4.99082 14.3845 5.08635 14.3061C5.66554 13.8298 6.37896 13.5464 7.12703 13.4952C7.25027 13.4868 7.37473 13.4868 7.5397 13.4869H11.7001C12.9984 13.4869 13.8815 13.485 14.5428 13.3961C15.1783 13.3106 15.4725 13.16 15.6728 12.9597C15.8732 12.7594 16.0239 12.4651 16.1093 11.8296C16.1982 11.1682 16.2001 10.285 16.2001 8.98685V6.88214C16.2001 5.58397 16.1982 4.70072 16.1093 4.03944C16.0238 3.4039 15.8732 3.10967 15.6728 2.90925C15.4726 2.70901 15.1783 2.55834 14.5428 2.47293C13.8814 2.38403 12.9984 2.38207 11.7001 2.38207H6.30001C5.00184 2.38207 4.11858 2.38403 3.45731 2.47293L3.45711 2.47295Z" fill="white"/>
<path d="M6.30012 8.23221C6.30012 8.97773 5.69562 9.58223 4.95011 9.58223C4.20459 9.58223 3.6001 8.97773 3.6001 8.23221C3.6001 7.4867 4.20459 6.8822 4.95011 6.8822C5.69562 6.8822 6.30012 7.4867 6.30012 8.23221Z" fill="white"/>
<path d="M10.3499 8.23221C10.3499 8.97773 9.74543 9.58223 8.99991 9.58223C8.2544 9.58223 7.6499 8.97773 7.6499 8.23221C7.6499 7.4867 8.2544 6.8822 8.99991 6.8822C9.74543 6.8822 10.3499 7.4867 10.3499 8.23221Z" fill="white"/>
<path d="M14.3997 8.23221C14.3997 8.97773 13.7952 9.58223 13.0497 9.58223C12.3042 9.58223 11.6997 8.97773 11.6997 8.23221C11.6997 7.4867 12.3042 6.8822 13.0497 6.8822C13.7952 6.8822 14.3997 7.4867 14.3997 8.23221Z" fill="white"/>
</svg>
