<svg width="19" height="20" viewBox="0 0 19 20" fill="none" xmlns="http://www.w3.org/2000/svg">
<path d="M3.13411 6.43936H1.6791C1.25784 6.46199 0.844693 6.31684 0.530095 6.03579C0.215482 5.75488 0.0249424 5.36069 0 4.93958V1.49178C0.0275517 1.07248 0.219182 0.680932 0.533641 0.402192C0.847947 0.12329 1.25953 -0.0203317 1.6791 0.00232532H3.13411C3.22554 0.00232532 3.31312 0.0386506 3.37792 0.103297C3.44257 0.167942 3.47889 0.255678 3.47889 0.347106V6.0945C3.47889 6.18593 3.44257 6.27366 3.37792 6.33831C3.31312 6.40295 3.22554 6.43928 3.13411 6.43928V6.43936ZM1.6791 0.691965C1.44145 0.67057 1.20488 0.743068 1.02 0.893908C0.835141 1.0446 0.71647 1.26178 0.689534 1.49883V4.94664C0.718932 5.1826 0.838219 5.39808 1.02262 5.54833C1.20686 5.69871 1.44207 5.77213 1.67908 5.75335H2.78931V0.691969L1.6791 0.691965Z" fill="black"/>
<path d="M8.27476 19.9998C8.20288 19.9993 8.133 19.9764 8.07482 19.9342L6.7922 19.0171L5.71305 19.7826C5.5933 19.8677 5.43277 19.8677 5.31303 19.7826L4.2476 19.0171L3.33746 19.655C3.23202 19.7301 3.09349 19.7398 2.97867 19.6801C2.86384 19.6205 2.79196 19.5017 2.79273 19.3723V0.347466C2.79273 0.157068 2.94711 0.00268555 3.13751 0.00268555H18.2732C18.3646 0.00268555 18.4523 0.0390108 18.517 0.103657C18.5816 0.168303 18.618 0.256038 18.618 0.347466V19.221C18.6173 19.3496 18.545 19.4674 18.4305 19.5262C18.3158 19.5848 18.1781 19.5748 18.0732 19.5002L17.4043 19.0175L16.3251 19.7829C16.2054 19.868 16.0449 19.868 15.9253 19.7829L14.8598 19.0175L13.791 19.7863C13.6713 19.8716 13.5107 19.8716 13.3912 19.7863L12.3085 19.0175L11.2258 19.7829C11.1062 19.868 10.9456 19.868 10.8259 19.7829L9.76048 19.0175L8.46419 19.9345C8.40893 19.9747 8.3429 19.9975 8.27456 20.0001L8.27476 19.9998ZM6.79221 18.2517C6.86409 18.2522 6.93397 18.2751 6.99215 18.3173L8.27477 19.231L9.57107 18.3139V18.3138C9.69082 18.2286 9.85135 18.2286 9.97109 18.3138L11.033 19.0792L12.1157 18.3138C12.2353 18.2286 12.3958 18.2286 12.5155 18.3138L13.581 19.0792L14.6637 18.3138H14.6635C14.7832 18.2286 14.9438 18.2286 15.0635 18.3138L16.129 19.0792L17.2116 18.3138H17.2115C17.3311 18.2286 17.4918 18.2286 17.6114 18.3138L17.9355 18.5482V0.6921H3.48231V18.7101L4.04783 18.3137C4.16743 18.2285 4.32797 18.2285 4.4477 18.3137L5.51652 19.0791L6.59921 18.3137C6.65585 18.2741 6.72311 18.2526 6.79222 18.2516L6.79221 18.2517Z" fill="black"/>
<path d="M15.4947 4.82945H6.29595C6.10555 4.82945 5.95117 4.67507 5.95117 4.48467C5.95117 4.29428 6.10555 4.13989 6.29595 4.13989H15.4947C15.6851 4.13989 15.8395 4.29428 15.8395 4.48467C15.8395 4.67507 15.6851 4.82945 15.4947 4.82945Z" fill="black"/>
<path d="M15.4947 8.62193H6.29595C6.10555 8.62193 5.95117 8.46755 5.95117 8.27715C5.95117 8.08676 6.10555 7.93237 6.29595 7.93237H15.4947C15.6851 7.93237 15.8395 8.08676 15.8395 8.27715C15.8395 8.46755 15.6851 8.62193 15.4947 8.62193Z" fill="black"/>
<path d="M9.309 16.4553C9.22681 16.4553 9.14738 16.4259 9.08489 16.3724L5.74745 13.5522C5.60169 13.4255 5.5863 13.2048 5.71298 13.0592C5.8395 12.9134 6.06037 12.898 6.20599 13.0247L9.30902 15.6726L15.2944 11.3799C15.3683 11.3219 15.4625 11.2965 15.5555 11.3095C15.6486 11.3225 15.7322 11.373 15.7871 11.4491C15.8421 11.5252 15.8636 11.6205 15.8468 11.7129C15.8299 11.8052 15.7762 11.8867 15.6978 11.9385L9.50912 16.3895C9.45094 16.4317 9.38106 16.4546 9.30918 16.4551L9.309 16.4553Z" fill="black"/>
</svg>
