<svg width="80" height="80" viewBox="0 0 80 80" fill="none" xmlns="http://www.w3.org/2000/svg">
<circle cx="40" cy="40" r="40" fill="#2A4B9B"/>
<circle cx="40.0001" cy="40.0001" r="33.9747" stroke="white" stroke-width="2"/>
<path d="M57 30.462C57 31.6491 56.5792 32.7953 55.8142 33.614L38.0273 52.6901C37.224 53.5088 36.153 54 35.0437 54C33.9344 54 32.8634 53.5088 32.0984 52.6901L23.1858 43.152C22.4208 42.3333 22 41.1871 22 40C22 38.8129 22.459 37.7076 23.224 36.848C24.0273 36.0292 25.0601 35.5789 26.1694 35.538C27.2787 35.538 28.3115 35.9883 29.1148 36.807L35.0437 43.152L49.8852 27.269C50.6885 26.4503 51.7213 26 52.8306 26C53.9399 26.0409 54.9727 26.4912 55.776 27.3509C56.541 28.1696 57 29.2749 57 30.462Z" fill="white"/>
</svg>
