<svg width="16" height="16" viewBox="0 0 16 16" fill="none" xmlns="http://www.w3.org/2000/svg">
<path d="M5.60227 12.0349V10.1092V9.83535C5.60227 9.63087 5.51337 9.41394 5.36756 9.26991C5.22887 9.13121 5.00126 9.0263 4.80211 9.03519C4.59585 9.04408 4.3807 9.11165 4.23666 9.26991C4.09264 9.42638 4.00195 9.61842 4.00195 9.83535V11.7611V12.0349C4.00195 12.2394 4.09086 12.4563 4.23666 12.6003C4.37536 12.739 4.60297 12.8439 4.80211 12.835C5.00838 12.8262 5.22353 12.7586 5.36756 12.6003C5.51159 12.4439 5.60227 12.2518 5.60227 12.0349Z" fill="#424458"/>
<path d="M8.801 12.0348V10.8097V8.86627V8.41641C8.801 8.21193 8.7121 7.995 8.56629 7.85096C8.4276 7.71227 8.19999 7.60736 8.00084 7.61625C7.79458 7.62514 7.57943 7.69271 7.43539 7.85096C7.29137 8.00743 7.20068 8.19948 7.20068 8.41641V9.64153V11.585V12.0348C7.20068 12.2393 7.28959 12.4563 7.43539 12.6003C7.57409 12.739 7.8017 12.8439 8.00084 12.835C8.20711 12.8261 8.42226 12.7585 8.56629 12.6003C8.71032 12.4438 8.801 12.2518 8.801 12.0348Z" fill="#424458"/>
<path d="M11.9997 12.0349V10.0932V7.02246V6.31656C11.9997 6.11207 11.9108 5.89514 11.765 5.75111C11.6263 5.61242 11.3987 5.50751 11.1996 5.51639C10.9933 5.52529 10.7782 5.59285 10.6341 5.75111C10.4901 5.90758 10.3994 6.09962 10.3994 6.31656V8.25825V11.329V12.0349C10.3994 12.2394 10.4883 12.4563 10.6341 12.6004C10.7728 12.7391 11.0004 12.844 11.1996 12.8351C11.4058 12.8262 11.621 12.7586 11.765 12.6004C11.9091 12.4439 11.9997 12.2519 11.9997 12.0349Z" fill="#424458"/>
<path d="M13.6387 1.23811V1.60084V2.58591V4.05105V5.83093V7.77796V9.74277V11.5724V13.1158V14.2236C13.6387 14.3961 13.6405 14.5703 13.6387 14.7428C13.6387 14.7659 13.6387 14.7872 13.6352 14.8104C13.6441 14.7392 13.6547 14.6681 13.6636 14.597C13.6583 14.6379 13.6494 14.6752 13.6352 14.7126C13.6618 14.6486 13.6885 14.5845 13.7152 14.5223C13.6992 14.5579 13.6814 14.5917 13.6583 14.6237C13.6992 14.5703 13.7418 14.5152 13.7827 14.4619C13.7578 14.4921 13.7312 14.5188 13.701 14.5436C13.7543 14.5027 13.8094 14.4601 13.8628 14.4192C13.8308 14.4423 13.7987 14.4619 13.7614 14.4761C13.8254 14.4494 13.8894 14.4227 13.9517 14.3961C13.9143 14.4103 13.877 14.4192 13.8361 14.4245C13.9072 14.4156 13.9783 14.405 14.0495 14.3961C13.9285 14.4067 13.8059 14.3996 13.6849 14.3996H12.8155H9.94917H6.46042H3.46255C2.98069 14.3996 2.49705 14.4032 2.01516 14.3996C1.99382 14.3996 1.97071 14.3996 1.94937 14.3961C2.02049 14.405 2.09162 14.4156 2.16274 14.4245C2.12185 14.4192 2.08451 14.4103 2.04716 14.3961C2.11118 14.4227 2.17519 14.4494 2.23742 14.4761C2.20186 14.4601 2.16808 14.4423 2.13607 14.4192C2.18941 14.4601 2.24453 14.5027 2.29788 14.5436C2.26765 14.5188 2.24098 14.4921 2.21609 14.4619C2.25698 14.5152 2.29966 14.5703 2.34055 14.6237C2.31744 14.5917 2.29788 14.5596 2.28365 14.5223C2.31033 14.5863 2.337 14.6503 2.36367 14.7126C2.34944 14.6752 2.34055 14.6379 2.33522 14.597C2.34411 14.6681 2.35478 14.7392 2.36367 14.8104C2.35478 14.709 2.36011 14.6041 2.36011 14.5028V13.7862V11.4017V8.52653V6.02296C2.36011 5.61755 2.36722 5.21213 2.36011 4.80675V4.79075C2.28188 4.97923 2.20364 5.16771 2.1254 5.35619C2.57526 4.90633 3.02691 4.45468 3.47674 4.00485C4.19332 3.28828 4.90989 2.5717 5.62646 1.85513C5.78827 1.69332 5.95186 1.52973 6.11365 1.36794C5.92517 1.44618 5.73669 1.52442 5.5482 1.60265H6.39815H8.41807H10.8736H12.9754C13.3132 1.60265 13.651 1.5991 13.9889 1.60265C14.0084 1.60265 14.0298 1.60443 14.0493 1.60621C13.9782 1.59732 13.9071 1.58665 13.836 1.57776C13.8769 1.58309 13.9142 1.59199 13.9515 1.60621C13.8875 1.57954 13.8235 1.55287 13.7613 1.5262C13.7968 1.5422 13.8306 1.55998 13.8626 1.5831C13.8093 1.5422 13.7542 1.49953 13.7008 1.45863C13.7311 1.48352 13.7577 1.51019 13.7826 1.54042C13.7417 1.48708 13.699 1.43196 13.6581 1.37861C13.6813 1.41062 13.7008 1.44263 13.715 1.47996C13.6884 1.41595 13.6617 1.35194 13.635 1.28971C13.6493 1.32705 13.6581 1.36439 13.6635 1.40528C13.6546 1.33416 13.6439 1.26304 13.635 1.19191C13.6368 1.20614 13.6386 1.22214 13.6386 1.23814C13.6439 1.44618 13.7239 1.65422 13.8733 1.80359C14.012 1.94228 14.2396 2.04719 14.4388 2.0383C14.862 2.01874 15.2513 1.68624 15.2389 1.23817C15.2318 1.01413 15.1784 0.777642 15.054 0.587371C14.9348 0.404226 14.7712 0.23531 14.5703 0.14284C14.3783 0.052156 14.2023 0.00414928 13.9871 0.00237077H13.7737H12.7246H11.1243H9.28042H7.52187H6.17941C5.97315 0.00237077 5.76687 -0.00296346 5.56064 0.00237077C5.34193 0.007705 5.14101 0.0912767 4.98098 0.240636C4.96142 0.260195 4.94186 0.279753 4.9223 0.299314C4.8245 0.397109 4.72493 0.496683 4.62714 0.594478C4.26795 0.953659 3.90877 1.31284 3.54959 1.67202C3.1193 2.10231 2.68898 2.53263 2.25869 2.96292C1.92263 3.29898 1.58835 3.63326 1.25229 3.96932C1.17406 4.04756 1.09582 4.12402 1.01936 4.20226C0.855774 4.3694 0.765089 4.58989 0.761532 4.8246C0.759754 5.03798 0.761532 5.25135 0.761532 5.46295V6.73073V8.40747V10.2567V12.0455V13.5373V14.5135V14.734V14.7642C0.766867 14.9882 0.821989 15.2141 0.94112 15.4043C1.05492 15.5875 1.22562 15.76 1.41943 15.8542C1.62391 15.9538 1.83551 16 2.06132 16H2.29781H3.21707H4.60756H6.30567H8.15135H9.97567H11.6364H12.9629H13.7933H13.9764H14.0013C14.2253 15.9947 14.4618 15.9395 14.6521 15.8151C14.8335 15.6959 15.0059 15.5324 15.0966 15.3314C15.1855 15.1394 15.2353 14.9687 15.2371 14.7536V14.7056V14.4922V13.6529V12.3745V10.7724V8.97655V7.11487V5.32255V3.70625V2.40289V1.53874V1.24002C15.2371 1.03554 15.1482 0.818606 15.0024 0.674569C14.8637 0.535878 14.6361 0.430969 14.4369 0.439858C14.2307 0.448749 14.0155 0.516318 13.8715 0.674569C13.7292 0.829264 13.6386 1.0213 13.6386 1.23823L13.6387 1.23811Z" fill="#424458"/>
<path d="M2.12762 5.35622C2.57748 4.90636 3.02913 4.45471 3.47896 4.00488C4.19554 3.2883 4.91211 2.57173 5.62868 1.85516C5.79049 1.69335 5.95408 1.52976 6.11587 1.36797L4.75029 0.802519V2.15032V4.29825V4.79077C5.017 4.52406 5.28371 4.25735 5.55042 3.99064H4.20262H2.05469H1.56217C1.35769 3.99064 1.14076 4.07954 0.996721 4.22535C0.85803 4.36404 0.75312 4.59165 0.76201 4.7908C0.7709 4.99706 0.838469 5.21221 0.996721 5.35625C1.15319 5.50027 1.34524 5.59096 1.56217 5.59096H2.90997H5.0579H5.55042C5.9825 5.59096 6.35056 5.22466 6.35056 4.79082V3.44303V1.29509V0.802571C6.35056 0.482511 6.14963 0.194464 5.85804 0.0717566C5.56465 -0.0527099 5.21257 0.00774319 4.98322 0.237119C4.53335 0.686981 4.0817 1.13863 3.63187 1.58846C2.9153 2.30504 2.19873 3.02161 1.48215 3.73818C1.32034 3.89999 1.15675 4.06358 0.994965 4.22537C0.84916 4.37118 0.760254 4.58634 0.760254 4.79082C0.760254 4.98641 0.847381 5.22111 0.994965 5.35627C1.14788 5.49674 1.34703 5.59987 1.56041 5.59098C1.77557 5.58209 1.97471 5.50919 2.12762 5.35627V5.35622Z" fill="#424458"/>
</svg>
